<svg width="139" height="37" viewBox="0 0 139 37" fill="none" xmlns="http://www.w3.org/2000/svg">
<path d="M18.9204 0.0730263C24.159 0.459914 28.4046 4.46716 29.0845 9.6665C29.7643 14.8658 26.6915 19.8266 21.7279 21.5428L32.8296 36.4036H0.0365601V0H17.2652C17.8688 0 18.4175 0.0273849 18.9204 0.0730263Z" fill="white"/>
<path d="M21.3801 36.4034H0V0L32.6011 36.4034H21.3801Z" fill="white"/>
<path d="M32.8299 36.4032H0L16.3047 10.9814L32.8299 36.4032Z" fill="white"/>
<path d="M0 21.0678V0H9.16288L22.8525 21.0586L0 21.0678Z" fill="white"/>
<path d="M9.83937 21.0676L16.3047 10.9814L22.8618 21.0676H9.83937Z" fill="white"/>
<path d="M32.8299 36.4032H20.6303L16.3047 10.9814L32.8299 36.4032Z" fill="white"/>
<path d="M48.7506 12.4327V16.4674H51.1099C52.9389 16.4674 53.7802 15.5545 53.7528 14.4226C53.7253 13.2907 52.8383 12.4327 51.1099 12.4327H48.7506ZM51.174 9.41119C54.6581 9.41119 56.9443 11.5107 56.9443 14.4226C56.9443 17.3345 55.3714 18.9137 53.5882 19.2789L57.2461 25.8786H53.5882L50.2046 19.6988H48.7506V25.8786H45.4585V9.44771L51.174 9.41119ZM62.0471 19.0598H67.1132C67.0013 17.7464 65.9007 16.7372 64.5801 16.7372C63.2596 16.7372 62.159 17.7464 62.0471 19.0598ZM70.2042 20.1187C70.2062 20.4633 70.1878 20.8077 70.1493 21.1502H62.0379C62.2101 22.6057 63.4999 23.6679 64.9642 23.56C66.0246 23.5356 67.0446 23.149 67.854 22.4646L69.6829 24.4455C68.341 25.625 66.5953 26.2429 64.8088 26.1707C63.2009 26.2568 61.6327 25.6543 60.4976 24.5143C59.3626 23.3743 58.7686 21.8052 58.8647 20.2008C58.8647 16.6134 61.224 14.167 64.6533 14.167C68.0826 14.167 70.2042 16.6043 70.2133 20.1552L70.2042 20.1187ZM75.819 20.1734C75.7317 21.2789 76.273 22.3397 77.2202 22.9191C78.1673 23.4986 79.36 23.4986 80.3071 22.9191C81.2542 22.3397 81.7956 21.2789 81.7082 20.1734C81.7956 19.068 81.2542 18.0072 80.3071 17.4277C79.36 16.8483 78.1673 16.8483 77.2202 17.4277C76.273 18.0072 75.7317 19.068 75.819 20.1734ZM84.8723 20.1734C84.8723 23.5966 82.4855 26.1707 79.3306 26.1707C78.031 26.2305 76.7773 25.6841 75.9379 24.692V30.5888H72.9019V14.4957H75.9379V15.7554C76.761 14.7226 78.0278 14.1429 79.3489 14.1944C82.513 14.1944 84.8998 16.7686 84.8998 20.1917L84.8723 20.1734ZM98.0407 21.0224C98.0407 24.6189 95.4894 26.1799 92.6362 26.1799C89.783 26.1799 87.2134 24.6281 87.2134 21.0224V14.4957H90.2951V20.7668C90.2951 22.5924 91.3011 23.3318 92.6362 23.3318C93.9713 23.3318 94.9773 22.5924 94.9773 20.7668V14.4957H98.0499L98.0407 21.0224ZM104.012 20.1734C103.925 21.2789 104.466 22.3397 105.413 22.9191C106.361 23.4986 107.553 23.4986 108.5 22.9191C109.447 22.3397 109.989 21.2789 109.901 20.1734C109.989 19.068 109.447 18.0072 108.5 17.4277C107.553 16.8483 106.361 16.8483 105.413 17.4277C104.466 18.0072 103.925 19.068 104.012 20.1734ZM113.066 20.1734C113.066 23.5966 110.679 26.1707 107.524 26.1707C106.199 26.2259 104.926 25.65 104.095 24.6189V25.8786H101.086V8.93652H104.159V15.6641C104.981 14.6686 106.223 14.1147 107.515 14.167C110.679 14.167 113.066 16.7412 113.066 20.1643" fill="white"/>
<path d="M115.58 25.8788H118.662V8.93652H115.58V25.8788Z" fill="white"/>
<path d="M121.899 25.8788H124.981V14.4958H121.899V25.8788ZM125.393 10.7441C125.383 11.8244 124.5 12.6934 123.417 12.6884C122.335 12.6834 121.461 11.8062 121.461 10.7259C121.46 9.64555 122.335 8.76834 123.417 8.76327C123.944 8.7583 124.451 8.9657 124.823 9.33853C125.195 9.71136 125.4 10.2181 125.393 10.7441ZM138.177 16.3215L135.955 18.1472C135.354 17.4434 134.476 17.0366 133.55 17.0335C132.743 17.0436 131.976 17.3871 131.432 17.9821C130.888 18.5771 130.615 19.3705 130.678 20.1736C130.61 20.9765 130.879 21.7716 131.423 22.3676C131.966 22.9636 132.733 23.3065 133.541 23.3138C134.496 23.3024 135.401 22.8839 136.028 22.1636L138.223 23.9893C137.122 25.3835 135.428 26.1785 133.65 26.1344C132.025 26.2175 130.44 25.6153 129.282 24.4747C128.124 23.3341 127.499 21.7601 127.56 20.1371C127.502 18.5149 128.127 16.9427 129.285 15.8027C130.443 14.6627 132.026 14.0595 133.65 14.1398C135.431 14.0906 137.129 14.8905 138.223 16.2941" fill="white"/>
</svg>
