<svg width="150" height="41" viewBox="0 0 150 41" fill="none" xmlns="http://www.w3.org/2000/svg">
<path fill-rule="evenodd" clip-rule="evenodd" d="M51.0383 16.5392L56.1163 3.39024H57.2404L62.3184 16.5392H61.3104L59.7406 12.4301H53.5772L52.0074 16.5392H51.0383ZM56.6783 4.38406H56.6396L53.8874 11.6083H59.4305L56.6783 4.38406ZM63.5587 11.9523C63.5587 11.2261 63.6653 10.5604 63.8786 9.95516C64.0917 9.34995 64.3889 8.82757 64.7701 8.38799C65.1512 7.94841 65.5938 7.61078 66.0977 7.37506C66.6017 7.13935 67.1443 7.02149 67.7258 7.02149C68.1134 7.02149 68.4817 7.06927 68.8305 7.16483C69.1795 7.26039 69.4992 7.40054 69.7899 7.58529C70.0807 7.77004 70.3391 7.99938 70.5652 8.27331C70.7913 8.54725 70.9754 8.8626 71.1176 9.21936H71.1757C71.1627 9.0792 71.1531 8.83712 71.1466 8.49311C71.1402 8.14909 71.1337 7.77641 71.1272 7.37506C71.1208 6.97371 71.1176 6.60422 71.1176 6.26657V2.54932H72.0478V16.5392H71.1757V14.5134H71.1176C70.9754 14.8701 70.7881 15.1854 70.5555 15.4593C70.323 15.7333 70.0548 15.9658 69.7511 16.157C69.4475 16.3481 69.118 16.4914 68.7627 16.5869C68.4074 16.6825 68.0358 16.7303 67.6482 16.7303C67.0668 16.7303 66.5274 16.622 66.0299 16.4054C65.5324 16.1888 65.0996 15.8702 64.7313 15.4499C64.3631 15.0294 64.0756 14.5229 63.8689 13.9305C63.6622 13.3379 63.5587 12.6786 63.5587 11.9523ZM64.5279 11.9523C64.5279 12.5639 64.6118 13.1181 64.7798 13.6151C64.9478 14.112 65.1803 14.5325 65.4775 14.8764C65.7747 15.2205 66.1236 15.4817 66.5241 15.66C66.9247 15.8385 67.351 15.9276 67.8033 15.9276C68.2555 15.9276 68.6787 15.8385 69.0728 15.66C69.4669 15.4817 69.8158 15.2269 70.1194 14.8956C70.4231 14.5643 70.6621 14.1566 70.8366 13.6724C71.0109 13.1883 71.1046 12.6531 71.1176 12.067V11.6848C71.1046 11.0987 71.0109 10.5636 70.8366 10.0794C70.6621 9.59522 70.4263 9.1875 70.1291 8.85623C69.8319 8.52495 69.4862 8.27014 69.0922 8.09175C68.6981 7.91338 68.2749 7.82419 67.8227 7.82419C67.3576 7.82419 66.9247 7.91975 66.5241 8.11086C66.1236 8.30198 65.7747 8.5823 65.4775 8.95179C65.1803 9.32129 64.9478 9.76085 64.7798 10.2705C64.6118 10.7802 64.5279 11.3408 64.5279 11.9523ZM77.5716 16.5392L73.9279 7.21261H74.9163L78.0756 15.5454H78.1143L81.2735 7.21261H82.2038L78.5795 16.5392H77.5716ZM83.4442 14.2076C83.4442 13.8254 83.5024 13.4877 83.6187 13.1946C83.735 12.9016 83.9126 12.6435 84.1517 12.4205C84.3907 12.1977 84.6911 12.0096 85.0529 11.8568C85.4146 11.7038 85.8411 11.5893 86.3321 11.5127L88.5803 11.1496C88.8258 11.1114 89.0261 11.0732 89.1812 11.035C89.3362 10.9968 89.4654 10.9458 89.5689 10.8821C89.6722 10.8184 89.7496 10.7387 89.8014 10.6432C89.8531 10.5476 89.8789 10.4361 89.8789 10.3087C89.866 9.88827 89.8014 9.52196 89.6851 9.2098C89.5688 8.89764 89.4041 8.63645 89.1908 8.42621C88.9776 8.21598 88.7193 8.05672 88.4155 7.94841C88.1119 7.84012 87.7664 7.78596 87.3786 7.78596C86.991 7.78596 86.639 7.83693 86.3224 7.93886C86.0058 8.04079 85.7312 8.1905 85.4987 8.38799C85.2661 8.58548 85.0788 8.83074 84.9366 9.12379C84.7945 9.41685 84.7105 9.74812 84.6846 10.1176H83.7931C83.8189 9.64619 83.9223 9.21936 84.1032 8.83712C84.2841 8.45488 84.5328 8.1268 84.8494 7.85286C85.166 7.57892 85.5375 7.37187 85.9638 7.23172C86.3902 7.09157 86.8619 7.02149 87.3786 7.02149C87.9213 7.02149 88.406 7.09475 88.8323 7.24128C89.2587 7.38781 89.6172 7.6044 89.908 7.89108C90.1987 8.17776 90.4216 8.53133 90.5767 8.95179C90.7317 9.37225 90.8092 9.85004 90.8092 10.3852V16.5392H89.9371V14.7618H89.8789C89.7496 15.0676 89.5753 15.3416 89.3556 15.5836C89.136 15.8257 88.8808 16.0328 88.59 16.2047C88.2993 16.3767 87.9763 16.5073 87.621 16.5965C87.2656 16.6857 86.8813 16.7303 86.4678 16.7303C85.9897 16.7303 85.5633 16.6697 85.1885 16.5488C84.8138 16.4277 84.4973 16.2558 84.2389 16.0328C83.9804 15.8098 83.7834 15.5454 83.6477 15.2396C83.512 14.9338 83.4442 14.5898 83.4442 14.2076ZM89.8789 12.5639V11.3217C89.8272 11.3854 89.7626 11.4459 89.6851 11.5032C89.6075 11.5606 89.5171 11.6115 89.4138 11.6561C89.3103 11.7008 89.2005 11.7357 89.0842 11.7612C88.9679 11.7868 88.8388 11.8122 88.6966 11.8377L86.5065 12.1817C86.1447 12.2326 85.8282 12.3154 85.5569 12.4301C85.2855 12.5448 85.0625 12.6818 84.8882 12.841C84.7137 13.0004 84.5844 13.1883 84.5005 13.4049C84.4165 13.6215 84.3746 13.8635 84.3746 14.1312C84.3746 14.3987 84.423 14.6471 84.5199 14.8764C84.6168 15.1058 84.7589 15.3001 84.9463 15.4593C85.1337 15.6187 85.3663 15.7429 85.644 15.8321C85.9218 15.9213 86.2417 15.9658 86.6035 15.9658C87.0428 15.9658 87.4562 15.8989 87.8438 15.7651C88.2315 15.6314 88.5803 15.4276 88.8905 15.1535C89.2005 14.8796 89.4429 14.5261 89.6172 14.0929C89.7917 13.6597 89.8789 13.15 89.8789 12.5639ZM93.9491 16.5392V7.21261H94.8212V9.02824H94.8793C95.0215 8.69696 95.2024 8.40391 95.422 8.1491C95.6417 7.89427 95.8969 7.68403 96.1876 7.5184C96.4783 7.35276 96.7885 7.22853 97.1179 7.14572C97.4475 7.0629 97.7866 7.02149 98.1354 7.02149C98.6265 7.02149 99.0722 7.09157 99.4728 7.23172C99.8733 7.37187 100.229 7.59166 100.539 7.89108C100.849 8.19051 101.088 8.57911 101.256 9.0569C101.424 9.5347 101.508 10.1049 101.508 10.7674V16.5392H100.577V10.8821C100.577 10.3342 100.516 9.86597 100.393 9.47736C100.271 9.08876 100.093 8.77341 99.8604 8.53133C99.6279 8.28925 99.3532 8.11086 99.0367 7.9962C98.7201 7.88153 98.368 7.82419 97.9804 7.82419C97.554 7.82419 97.1534 7.90383 96.7788 8.06309C96.404 8.22235 96.0746 8.46125 95.7902 8.77978C95.506 9.09831 95.2832 9.49966 95.1217 9.98382C94.9601 10.468 94.8793 11.0159 94.8793 11.6274V16.5392H93.9491ZM103.911 11.8759C103.911 11.1624 104.018 10.5062 104.231 9.90738C104.444 9.30854 104.748 8.79252 105.142 8.35932C105.536 7.92611 105.991 7.59485 106.508 7.36551C107.025 7.13616 107.581 7.02149 108.175 7.02149C108.692 7.02149 109.167 7.09794 109.6 7.25083C110.032 7.40373 110.414 7.62351 110.743 7.91019C111.073 8.19687 111.347 8.5377 111.567 8.93268C111.787 9.32765 111.935 9.76085 112.013 10.2323H111.082C111.005 9.86278 110.882 9.53151 110.714 9.23847C110.546 8.94542 110.339 8.69378 110.094 8.48354C109.848 8.27331 109.564 8.11086 109.241 7.9962C108.918 7.88153 108.563 7.82419 108.175 7.82419C107.723 7.82419 107.296 7.92294 106.896 8.12042C106.495 8.31791 106.143 8.59503 105.84 8.95179C105.536 9.30854 105.3 9.73855 105.132 10.2418C104.964 10.7451 104.88 11.2898 104.88 11.8759C104.88 12.4748 104.961 13.0226 105.122 13.5196C105.284 14.0165 105.513 14.4464 105.811 14.8096C106.108 15.1727 106.457 15.4498 106.857 15.641C107.258 15.8321 107.697 15.9276 108.175 15.9276C108.563 15.9276 108.918 15.8702 109.241 15.7556C109.564 15.641 109.848 15.4785 110.094 15.2682C110.339 15.058 110.546 14.8064 110.714 14.5134C110.882 14.2203 111.005 13.889 111.082 13.5196H112.013C111.935 13.991 111.787 14.4242 111.567 14.8192C111.347 15.2141 111.073 15.5549 110.743 15.8417C110.414 16.1283 110.032 16.3481 109.6 16.501C109.167 16.6539 108.692 16.7303 108.175 16.7303C107.542 16.7303 106.96 16.6156 106.431 16.3863C105.901 16.157 105.449 15.8289 105.074 15.402C104.699 14.9752 104.412 14.4623 104.212 13.8635C104.011 13.2647 103.911 12.6022 103.911 11.8759ZM113.718 11.8759C113.718 11.1751 113.825 10.5253 114.038 9.92649C114.252 9.32765 114.552 8.81163 114.939 8.37843C115.326 7.94522 115.776 7.61078 116.286 7.37506C116.797 7.13935 117.349 7.02149 117.943 7.02149C118.512 7.02149 119.038 7.12024 119.523 7.31773C120.008 7.51521 120.427 7.80826 120.783 8.19687C121.138 8.58548 121.413 9.05372 121.606 9.60159C121.8 10.1495 121.897 10.7674 121.897 11.4555V11.8568H114.687V11.8759C114.687 12.4748 114.765 13.0226 114.92 13.5196C115.075 14.0165 115.295 14.4464 115.579 14.8096C115.863 15.1727 116.212 15.4498 116.626 15.641C117.039 15.8321 117.504 15.9276 118.021 15.9276C118.409 15.9276 118.767 15.8734 119.097 15.7651C119.426 15.6568 119.714 15.504 119.959 15.3065C120.204 15.109 120.408 14.8733 120.57 14.5994C120.731 14.3255 120.838 14.0292 120.89 13.7107H121.8C121.748 14.1438 121.616 14.5451 121.403 14.9147C121.19 15.2842 120.916 15.6059 120.58 15.8798C120.244 16.1538 119.856 16.3639 119.417 16.5105C118.977 16.6571 118.512 16.7303 118.021 16.7303C117.349 16.7303 116.745 16.6156 116.208 16.3863C115.673 16.157 115.22 15.8289 114.852 15.402C114.484 14.9752 114.203 14.4623 114.009 13.8635C113.815 13.2647 113.718 12.6022 113.718 11.8759ZM117.943 7.82419C117.53 7.82419 117.142 7.90064 116.78 8.05353C116.419 8.20643 116.095 8.4294 115.811 8.72245C115.527 9.0155 115.291 9.36906 115.104 9.78315C114.917 10.1973 114.791 10.6527 114.726 11.1496H120.947C120.921 10.6145 120.831 10.1399 120.677 9.72582C120.521 9.31173 120.311 8.96134 120.046 8.67467C119.781 8.38799 119.471 8.17457 119.116 8.03442C118.761 7.89427 118.37 7.82419 117.943 7.82419ZM123.68 11.9523C123.68 11.2261 123.787 10.5604 124 9.95516C124.214 9.34995 124.51 8.82757 124.891 8.38799C125.273 7.94841 125.716 7.61078 126.219 7.37506C126.723 7.13935 127.265 7.02149 127.847 7.02149C128.235 7.02149 128.603 7.06927 128.953 7.16483C129.301 7.26039 129.62 7.40054 129.911 7.58529C130.202 7.77004 130.461 7.99938 130.687 8.27331C130.913 8.54725 131.097 8.8626 131.239 9.21936H131.297C131.284 9.0792 131.275 8.83712 131.268 8.49311C131.261 8.14909 131.256 7.77641 131.249 7.37506C131.242 6.97371 131.239 6.60422 131.239 6.26657V2.54932H132.169V16.5392H131.297V14.5134H131.239C131.097 14.8701 130.909 15.1854 130.677 15.4593C130.445 15.7333 130.176 15.9658 129.873 16.157C129.57 16.3481 129.239 16.4914 128.884 16.5869C128.529 16.6825 128.158 16.7303 127.77 16.7303C127.189 16.7303 126.648 16.622 126.151 16.4054C125.654 16.1888 125.221 15.8702 124.853 15.4499C124.484 15.0294 124.197 14.5229 123.99 13.9305C123.784 13.3379 123.68 12.6786 123.68 11.9523ZM124.649 11.9523C124.649 12.5639 124.733 13.1181 124.902 13.6151C125.07 14.112 125.302 14.5325 125.6 14.8764C125.896 15.2205 126.245 15.4817 126.646 15.66C127.047 15.8385 127.473 15.9276 127.925 15.9276C128.377 15.9276 128.8 15.8385 129.194 15.66C129.589 15.4817 129.937 15.2269 130.241 14.8956C130.545 14.5643 130.784 14.1566 130.958 13.6724C131.133 13.1883 131.226 12.6531 131.239 12.067V11.6848C131.226 11.0987 131.133 10.5636 130.958 10.0794C130.784 9.59522 130.547 9.1875 130.251 8.85623C129.953 8.52495 129.608 8.27014 129.214 8.09175C128.82 7.91338 128.397 7.82419 127.944 7.82419C127.479 7.82419 127.047 7.91975 126.646 8.11086C126.245 8.30198 125.896 8.5823 125.6 8.95179C125.302 9.32129 125.07 9.76085 124.902 10.2705C124.733 10.7802 124.649 11.3408 124.649 11.9523Z" fill="white"/>
<path fill-rule="evenodd" clip-rule="evenodd" d="M51.0625 35.3073V22.1583H57.3615C58.0979 22.1583 58.7408 22.2348 59.2899 22.3877C59.8391 22.5405 60.2946 22.7667 60.6564 23.0661C61.0181 23.3656 61.2863 23.7256 61.4606 24.1459C61.6351 24.5664 61.7223 25.0505 61.7223 25.5985C61.7223 25.917 61.6803 26.2164 61.5963 26.4967C61.5124 26.777 61.3832 27.0382 61.2087 27.2803C61.0343 27.5224 60.8146 27.7294 60.5497 27.9014C60.2849 28.0735 59.978 28.2104 59.6292 28.3123V28.3889C60.0297 28.4653 60.3947 28.5926 60.7242 28.7711C61.0537 28.9494 61.3315 29.1692 61.5576 29.4304C61.7838 29.6916 61.9581 29.991 62.0809 30.3286C62.2037 30.6663 62.265 31.0262 62.265 31.4085C62.265 31.9691 62.1681 32.4883 61.9743 32.9661C61.7805 33.4439 61.493 33.858 61.1118 34.2084C60.7306 34.5588 60.2558 34.8295 59.6873 35.0206C59.1187 35.2117 58.4727 35.3073 57.7491 35.3073H51.0625ZM57.4003 29.4782H53.679V33.2814H57.3809C57.7555 33.2814 58.0851 33.2337 58.3693 33.1381C58.6536 33.0426 58.8894 32.9088 59.0768 32.7368C59.2641 32.5647 59.4031 32.3577 59.4935 32.1156C59.584 31.8735 59.6292 31.606 59.6292 31.313C59.6292 31.0326 59.584 30.781 59.4935 30.558C59.4031 30.335 59.2641 30.1439 59.0768 29.9847C58.8894 29.8253 58.6536 29.7012 58.3693 29.6119C58.0851 29.5227 57.7621 29.4782 57.4003 29.4782ZM57.032 24.1842H53.679V27.567H57.0126C57.3615 27.567 57.6684 27.5224 57.9333 27.4332C58.1981 27.344 58.4211 27.2198 58.602 27.0606C58.7828 26.9012 58.9153 26.7133 58.9992 26.4967C59.0832 26.2801 59.1252 26.0381 59.1252 25.7704C59.1252 25.5284 59.0865 25.3118 59.0089 25.1207C58.9314 24.9296 58.8087 24.7639 58.6406 24.6238C58.4727 24.4836 58.2563 24.3753 57.9914 24.2989C57.7265 24.2225 57.4067 24.1842 57.032 24.1842ZM64.4939 35.3073V21.3174H66.9942V35.3073H64.4939ZM69.0873 30.644C69.0873 29.8923 69.2101 29.2138 69.4555 28.6085C69.7011 28.0033 70.0499 27.4873 70.5022 27.0606C70.9544 26.6337 71.4874 26.3088 72.1012 26.0858C72.7149 25.8628 73.3836 25.7514 74.1071 25.7514C74.8565 25.7514 75.5382 25.8596 76.152 26.0762C76.7656 26.2928 77.2922 26.6146 77.7315 27.0414C78.1709 27.4683 78.51 27.9842 78.749 28.5895C78.9881 29.1947 79.1076 29.8795 79.1076 30.644C79.1076 31.3958 78.9848 32.0742 78.7394 32.6794C78.4939 33.2846 78.1449 33.8006 77.6928 34.2275C77.2405 34.6543 76.7108 34.9792 76.1035 35.2021C75.4961 35.4251 74.8307 35.5366 74.1071 35.5366C73.3577 35.5366 72.673 35.4283 72.0527 35.2117C71.4325 34.9951 70.9028 34.6735 70.4635 34.2466C70.0241 33.8198 69.6849 33.3037 69.446 32.6985C69.2069 32.0933 69.0873 31.4085 69.0873 30.644ZM71.665 30.644C71.665 31.1027 71.7232 31.52 71.8395 31.8958C71.9558 32.2717 72.1206 32.5902 72.3337 32.8514C72.5469 33.1126 72.8054 33.3133 73.109 33.4535C73.4126 33.5936 73.7454 33.6636 74.1071 33.6636C74.4689 33.6636 74.8016 33.5936 75.1053 33.4535C75.409 33.3133 75.6642 33.1126 75.8709 32.8514C76.0776 32.5902 76.2391 32.2717 76.3554 31.8958C76.4717 31.52 76.5299 31.1027 76.5299 30.644C76.5299 30.1726 76.475 29.7521 76.3651 29.3827C76.2553 29.0131 76.0938 28.6977 75.8806 28.4366C75.6673 28.1754 75.409 27.9779 75.1053 27.8441C74.8016 27.7103 74.4689 27.6435 74.1071 27.6435C73.7454 27.6435 73.4126 27.7135 73.109 27.8537C72.8054 27.9938 72.5469 28.1944 72.3337 28.4557C72.1206 28.7169 71.9558 29.0322 71.8395 29.4018C71.7232 29.7712 71.665 30.1853 71.665 30.644ZM80.5419 30.644C80.5419 29.8923 80.6613 29.2138 80.9004 28.6085C81.1394 28.0033 81.4754 27.4873 81.9082 27.0606C82.3411 26.6337 82.8611 26.3088 83.4685 26.0858C84.0758 25.8628 84.7412 25.7514 85.4647 25.7514C86.1495 25.7514 86.7601 25.8406 87.2963 26.0189C87.8326 26.1973 88.2913 26.4426 88.6725 26.7548C89.0536 27.0669 89.354 27.4364 89.5737 27.8633C89.7933 28.2901 89.929 28.7456 89.9806 29.2297H87.5193C87.4805 29.0131 87.4126 28.8092 87.3157 28.6181C87.2188 28.427 87.0864 28.255 86.9184 28.1021C86.7504 27.9492 86.5437 27.8314 86.2982 27.7486C86.0526 27.6658 85.7749 27.6243 85.4647 27.6243C85.1159 27.6243 84.7993 27.6976 84.5151 27.8441C84.2308 27.9906 83.9821 28.1976 83.7689 28.4653C83.5557 28.7328 83.3941 29.0545 83.2843 29.4304C83.1744 29.8063 83.1196 30.2109 83.1196 30.644C83.1196 31.0772 83.1744 31.4817 83.2843 31.8576C83.3941 32.2335 83.5557 32.5551 83.7689 32.8228C83.9821 33.0903 84.2308 33.2974 84.5151 33.4439C84.7993 33.5904 85.1159 33.6636 85.4647 33.6636C85.7749 33.6636 86.0526 33.6223 86.2982 33.5395C86.5437 33.4566 86.7504 33.3388 86.9184 33.1859C87.0864 33.033 87.2188 32.8609 87.3157 32.6698C87.4126 32.4787 87.4805 32.2749 87.5193 32.0582H89.9806C89.929 32.5551 89.7966 33.0139 89.5833 33.4344C89.3701 33.8548 89.0729 34.2211 88.6917 34.5333C88.3106 34.8454 87.8487 35.0906 87.306 35.2691C86.7633 35.4475 86.1495 35.5366 85.4647 35.5366C84.7154 35.5366 84.037 35.4283 83.4297 35.2117C82.8225 34.9951 82.3023 34.6765 81.8694 34.2562C81.4366 33.8357 81.1072 33.3197 80.881 32.7081C80.6549 32.0965 80.5419 31.4085 80.5419 30.644ZM91.9188 35.3073V21.3174H94.419V29.8604L97.9659 25.9807H100.796L97.2681 29.7075L101.144 35.3073H98.276L95.6207 31.4467L94.419 32.7081V35.3073H91.9188ZM101.92 30.644C101.92 29.8923 102.039 29.2138 102.278 28.6085C102.517 28.0033 102.853 27.4873 103.286 27.0606C103.719 26.6337 104.239 26.3088 104.846 26.0858C105.454 25.8628 106.119 25.7514 106.843 25.7514C107.527 25.7514 108.138 25.8406 108.674 26.0189C109.21 26.1973 109.669 26.4426 110.05 26.7548C110.431 27.0669 110.732 27.4364 110.952 27.8633C111.171 28.2901 111.307 28.7456 111.359 29.2297H108.897C108.858 29.0131 108.791 28.8092 108.694 28.6181C108.597 28.427 108.464 28.255 108.296 28.1021C108.128 27.9492 107.922 27.8314 107.676 27.7486C107.431 27.6658 107.153 27.6243 106.843 27.6243C106.494 27.6243 106.177 27.6976 105.893 27.8441C105.609 27.9906 105.36 28.1976 105.147 28.4653C104.934 28.7328 104.772 29.0545 104.662 29.4304C104.552 29.8063 104.497 30.2109 104.497 30.644C104.497 31.0772 104.552 31.4817 104.662 31.8576C104.772 32.2335 104.934 32.5551 105.147 32.8228C105.36 33.0903 105.609 33.2974 105.893 33.4439C106.177 33.5904 106.494 33.6636 106.843 33.6636C107.153 33.6636 107.431 33.6223 107.676 33.5395C107.922 33.4566 108.128 33.3388 108.296 33.1859C108.464 33.033 108.597 32.8609 108.694 32.6698C108.791 32.4787 108.858 32.2749 108.897 32.0582H111.359C111.307 32.5551 111.174 33.0139 110.961 33.4344C110.748 33.8548 110.451 34.2211 110.07 34.5333C109.688 34.8454 109.227 35.0906 108.684 35.2691C108.141 35.4475 107.527 35.5366 106.843 35.5366C106.093 35.5366 105.415 35.4283 104.808 35.2117C104.2 34.9951 103.68 34.6765 103.247 34.2562C102.815 33.8357 102.485 33.3197 102.259 32.7081C102.033 32.0965 101.92 31.4085 101.92 30.644ZM113.296 35.3073V21.3174H115.797V24.8531C115.797 25.0569 115.793 25.2959 115.788 25.5698C115.781 25.8438 115.767 26.1304 115.748 26.4299C115.729 26.7293 115.706 27.0255 115.68 27.3185H115.758C115.887 27.0638 116.053 26.8376 116.252 26.6401C116.453 26.4426 116.675 26.2769 116.921 26.1432C117.167 26.0094 117.434 25.9106 117.725 25.847C118.016 25.7832 118.33 25.7514 118.666 25.7514C119.169 25.7514 119.641 25.8215 120.08 25.9615C120.52 26.1017 120.903 26.3247 121.234 26.6305C121.563 26.9363 121.825 27.3409 122.019 27.8441C122.212 28.3474 122.309 28.9494 122.309 29.6502V35.3073H119.809V29.956C119.809 29.5355 119.767 29.1788 119.683 28.8858C119.599 28.5926 119.477 28.357 119.314 28.1786C119.153 28.0002 118.959 27.8696 118.733 27.7867C118.507 27.7039 118.252 27.6626 117.968 27.6626C117.658 27.6626 117.37 27.7231 117.105 27.8441C116.84 27.9652 116.611 28.1435 116.417 28.3793C116.223 28.6149 116.072 28.9016 115.961 29.2393C115.852 29.5769 115.797 29.956 115.797 30.3764V35.3073H113.296ZM124.364 32.8992C124.364 32.5042 124.424 32.1506 124.547 31.8384C124.67 31.5264 124.864 31.2524 125.129 31.0167C125.394 30.781 125.73 30.5835 126.136 30.4242C126.544 30.2649 127.025 30.1407 127.581 30.0515L129.403 29.784C129.661 29.7457 129.868 29.7044 130.023 29.6597C130.179 29.6151 130.297 29.5674 130.382 29.5164C130.465 29.4654 130.524 29.4018 130.556 29.3253C130.588 29.2488 130.605 29.1533 130.605 29.0386C130.605 28.8092 130.569 28.599 130.498 28.4079C130.427 28.2168 130.323 28.0512 130.188 27.911C130.052 27.7709 129.877 27.6626 129.664 27.5861C129.451 27.5096 129.203 27.4715 128.918 27.4715C128.633 27.4715 128.379 27.5064 128.153 27.5766C127.926 27.6466 127.736 27.7486 127.581 27.8824C127.426 28.0161 127.306 28.1786 127.223 28.3697C127.138 28.5608 127.084 28.7711 127.058 29.0003H124.732C124.771 28.4907 124.897 28.032 125.11 27.6243C125.323 27.2166 125.617 26.8725 125.992 26.5923C126.367 26.312 126.802 26.1017 127.3 25.9615C127.798 25.8215 128.337 25.7514 128.918 25.7514C129.616 25.7514 130.226 25.8246 130.749 25.9711C131.273 26.1177 131.709 26.3343 132.058 26.621C132.407 26.9076 132.669 27.2612 132.843 27.6816C133.017 28.1021 133.104 28.5926 133.104 29.1533V35.3073H130.721V34.1988H130.605C130.463 34.4154 130.291 34.6065 130.091 34.7722C129.891 34.9378 129.664 35.0779 129.413 35.1926C129.16 35.3073 128.879 35.3933 128.569 35.4507C128.259 35.5079 127.93 35.5366 127.581 35.5366C127.064 35.5366 126.602 35.473 126.195 35.3455C125.788 35.2181 125.449 35.0397 125.178 34.8104C124.906 34.581 124.703 34.3039 124.567 33.979C124.431 33.6542 124.364 33.2942 124.364 32.8992ZM128.299 33.8166C128.595 33.8166 128.883 33.7719 129.16 33.6828C129.439 33.5936 129.687 33.4535 129.907 33.2623C130.127 33.0712 130.297 32.8323 130.42 32.5456C130.543 32.2589 130.605 31.9245 130.605 31.5422V30.7204C130.565 30.7842 130.514 30.8383 130.449 30.8829C130.385 30.9274 130.314 30.9657 130.236 30.9976C130.158 31.0294 130.075 31.0581 129.985 31.0836C129.893 31.1091 129.791 31.1345 129.674 31.16L128.221 31.3894C127.975 31.4276 127.762 31.4849 127.581 31.5613C127.4 31.6378 127.254 31.7302 127.145 31.8384C127.035 31.9467 126.954 32.0678 126.902 32.2016C126.85 32.3355 126.826 32.4851 126.826 32.6507C126.826 32.8292 126.857 32.9916 126.921 33.1381C126.987 33.2846 127.08 33.4089 127.203 33.5108C127.325 33.6127 127.477 33.6891 127.658 33.7402C127.84 33.7911 128.053 33.8166 128.299 33.8166ZM135.624 23.6109V21.3174H138.28V23.6109H135.624ZM135.702 35.3073V25.9807H138.202V35.3073H135.702ZM140.915 35.3073V25.9807H143.3V27.3185H143.376C143.506 27.0638 143.671 26.8376 143.871 26.6401C144.071 26.4426 144.294 26.2769 144.54 26.1432C144.785 26.0094 145.053 25.9106 145.344 25.847C145.635 25.7832 145.948 25.7514 146.284 25.7514C146.788 25.7514 147.259 25.8215 147.699 25.9615C148.138 26.1017 148.523 26.3247 148.852 26.6305C149.181 26.9363 149.443 27.3409 149.637 27.8441C149.831 28.3474 149.928 28.9494 149.928 29.6502V35.3073H147.427V29.956C147.427 29.5355 147.386 29.1788 147.301 28.8858C147.218 28.5926 147.095 28.357 146.933 28.1786C146.772 28.0002 146.578 27.8696 146.352 27.7867C146.126 27.7039 145.871 27.6626 145.587 27.6626C145.277 27.6626 144.989 27.7231 144.724 27.8441C144.459 27.9652 144.23 28.1467 144.036 28.3889C143.842 28.6309 143.69 28.9207 143.58 29.2584C143.471 29.5961 143.416 29.9751 143.416 30.3956V35.3073H140.915Z" fill="#323B40"/>
<path fill-rule="evenodd" clip-rule="evenodd" d="M51.0625 35.3073V22.1583H57.3615C58.0979 22.1583 58.7408 22.2348 59.2899 22.3877C59.8391 22.5405 60.2946 22.7667 60.6564 23.0661C61.0181 23.3656 61.2863 23.7256 61.4606 24.1459C61.6351 24.5664 61.7223 25.0505 61.7223 25.5985C61.7223 25.917 61.6803 26.2164 61.5963 26.4967C61.5124 26.777 61.3832 27.0382 61.2087 27.2803C61.0343 27.5224 60.8146 27.7294 60.5497 27.9014C60.2849 28.0735 59.978 28.2104 59.6292 28.3123V28.3889C60.0297 28.4653 60.3947 28.5926 60.7242 28.7711C61.0537 28.9494 61.3315 29.1692 61.5576 29.4304C61.7838 29.6916 61.9581 29.991 62.0809 30.3286C62.2037 30.6663 62.265 31.0262 62.265 31.4085C62.265 31.9691 62.1681 32.4883 61.9743 32.9661C61.7805 33.4439 61.493 33.858 61.1118 34.2084C60.7306 34.5588 60.2558 34.8295 59.6873 35.0206C59.1187 35.2117 58.4727 35.3073 57.7491 35.3073H51.0625ZM57.4003 29.4782H53.679V33.2814H57.3809C57.7555 33.2814 58.0851 33.2337 58.3693 33.1381C58.6536 33.0426 58.8894 32.9088 59.0768 32.7368C59.2641 32.5647 59.4031 32.3577 59.4935 32.1156C59.584 31.8735 59.6292 31.606 59.6292 31.313C59.6292 31.0326 59.584 30.781 59.4935 30.558C59.4031 30.335 59.2641 30.1439 59.0768 29.9847C58.8894 29.8253 58.6536 29.7012 58.3693 29.6119C58.0851 29.5227 57.7621 29.4782 57.4003 29.4782ZM57.032 24.1842H53.679V27.567H57.0126C57.3615 27.567 57.6684 27.5224 57.9333 27.4332C58.1981 27.344 58.4211 27.2198 58.602 27.0606C58.7828 26.9012 58.9153 26.7133 58.9992 26.4967C59.0832 26.2801 59.1252 26.0381 59.1252 25.7704C59.1252 25.5284 59.0865 25.3118 59.0089 25.1207C58.9314 24.9296 58.8087 24.7639 58.6406 24.6238C58.4727 24.4836 58.2563 24.3753 57.9914 24.2989C57.7265 24.2225 57.4067 24.1842 57.032 24.1842ZM64.4939 35.3073V21.3174H66.9942V35.3073H64.4939ZM69.0873 30.644C69.0873 29.8923 69.2101 29.2138 69.4555 28.6085C69.7011 28.0033 70.0499 27.4873 70.5022 27.0606C70.9544 26.6337 71.4874 26.3088 72.1012 26.0858C72.7149 25.8628 73.3836 25.7514 74.1071 25.7514C74.8565 25.7514 75.5382 25.8596 76.152 26.0762C76.7656 26.2928 77.2922 26.6146 77.7315 27.0414C78.1709 27.4683 78.51 27.9842 78.749 28.5895C78.9881 29.1947 79.1076 29.8795 79.1076 30.644C79.1076 31.3958 78.9848 32.0742 78.7394 32.6794C78.4939 33.2846 78.1449 33.8006 77.6928 34.2275C77.2405 34.6543 76.7108 34.9792 76.1035 35.2021C75.4961 35.4251 74.8307 35.5366 74.1071 35.5366C73.3577 35.5366 72.673 35.4283 72.0527 35.2117C71.4325 34.9951 70.9028 34.6735 70.4635 34.2466C70.0241 33.8198 69.6849 33.3037 69.446 32.6985C69.2069 32.0933 69.0873 31.4085 69.0873 30.644ZM71.665 30.644C71.665 31.1027 71.7232 31.52 71.8395 31.8958C71.9558 32.2717 72.1206 32.5902 72.3337 32.8514C72.5469 33.1126 72.8054 33.3133 73.109 33.4535C73.4126 33.5936 73.7454 33.6636 74.1071 33.6636C74.4689 33.6636 74.8016 33.5936 75.1053 33.4535C75.409 33.3133 75.6642 33.1126 75.8709 32.8514C76.0776 32.5902 76.2391 32.2717 76.3554 31.8958C76.4717 31.52 76.5299 31.1027 76.5299 30.644C76.5299 30.1726 76.475 29.7521 76.3651 29.3827C76.2553 29.0131 76.0938 28.6977 75.8806 28.4366C75.6673 28.1754 75.409 27.9779 75.1053 27.8441C74.8016 27.7103 74.4689 27.6435 74.1071 27.6435C73.7454 27.6435 73.4126 27.7135 73.109 27.8537C72.8054 27.9938 72.5469 28.1944 72.3337 28.4557C72.1206 28.7169 71.9558 29.0322 71.8395 29.4018C71.7232 29.7712 71.665 30.1853 71.665 30.644ZM80.5419 30.644C80.5419 29.8923 80.6613 29.2138 80.9004 28.6085C81.1394 28.0033 81.4754 27.4873 81.9082 27.0606C82.3411 26.6337 82.8611 26.3088 83.4685 26.0858C84.0758 25.8628 84.7412 25.7514 85.4647 25.7514C86.1495 25.7514 86.7601 25.8406 87.2963 26.0189C87.8326 26.1973 88.2913 26.4426 88.6725 26.7548C89.0536 27.0669 89.354 27.4364 89.5737 27.8633C89.7933 28.2901 89.929 28.7456 89.9806 29.2297H87.5193C87.4805 29.0131 87.4126 28.8092 87.3157 28.6181C87.2188 28.427 87.0864 28.255 86.9184 28.1021C86.7504 27.9492 86.5437 27.8314 86.2982 27.7486C86.0526 27.6658 85.7749 27.6243 85.4647 27.6243C85.1159 27.6243 84.7993 27.6976 84.5151 27.8441C84.2308 27.9906 83.9821 28.1976 83.7689 28.4653C83.5557 28.7328 83.3941 29.0545 83.2843 29.4304C83.1744 29.8063 83.1196 30.2109 83.1196 30.644C83.1196 31.0772 83.1744 31.4817 83.2843 31.8576C83.3941 32.2335 83.5557 32.5551 83.7689 32.8228C83.9821 33.0903 84.2308 33.2974 84.5151 33.4439C84.7993 33.5904 85.1159 33.6636 85.4647 33.6636C85.7749 33.6636 86.0526 33.6223 86.2982 33.5395C86.5437 33.4566 86.7504 33.3388 86.9184 33.1859C87.0864 33.033 87.2188 32.8609 87.3157 32.6698C87.4126 32.4787 87.4805 32.2749 87.5193 32.0582H89.9806C89.929 32.5551 89.7966 33.0139 89.5833 33.4344C89.3701 33.8548 89.0729 34.2211 88.6917 34.5333C88.3106 34.8454 87.8487 35.0906 87.306 35.2691C86.7633 35.4475 86.1495 35.5366 85.4647 35.5366C84.7154 35.5366 84.037 35.4283 83.4297 35.2117C82.8225 34.9951 82.3023 34.6765 81.8694 34.2562C81.4366 33.8357 81.1072 33.3197 80.881 32.7081C80.6549 32.0965 80.5419 31.4085 80.5419 30.644ZM91.9188 35.3073V21.3174H94.419V29.8604L97.9659 25.9807H100.796L97.2681 29.7075L101.144 35.3073H98.276L95.6207 31.4467L94.419 32.7081V35.3073H91.9188ZM101.92 30.644C101.92 29.8923 102.039 29.2138 102.278 28.6085C102.517 28.0033 102.853 27.4873 103.286 27.0606C103.719 26.6337 104.239 26.3088 104.846 26.0858C105.454 25.8628 106.119 25.7514 106.843 25.7514C107.527 25.7514 108.138 25.8406 108.674 26.0189C109.21 26.1973 109.669 26.4426 110.05 26.7548C110.431 27.0669 110.732 27.4364 110.952 27.8633C111.171 28.2901 111.307 28.7456 111.359 29.2297H108.897C108.858 29.0131 108.791 28.8092 108.694 28.6181C108.597 28.427 108.464 28.255 108.296 28.1021C108.128 27.9492 107.922 27.8314 107.676 27.7486C107.431 27.6658 107.153 27.6243 106.843 27.6243C106.494 27.6243 106.177 27.6976 105.893 27.8441C105.609 27.9906 105.36 28.1976 105.147 28.4653C104.934 28.7328 104.772 29.0545 104.662 29.4304C104.552 29.8063 104.497 30.2109 104.497 30.644C104.497 31.0772 104.552 31.4817 104.662 31.8576C104.772 32.2335 104.934 32.5551 105.147 32.8228C105.36 33.0903 105.609 33.2974 105.893 33.4439C106.177 33.5904 106.494 33.6636 106.843 33.6636C107.153 33.6636 107.431 33.6223 107.676 33.5395C107.922 33.4566 108.128 33.3388 108.296 33.1859C108.464 33.033 108.597 32.8609 108.694 32.6698C108.791 32.4787 108.858 32.2749 108.897 32.0582H111.359C111.307 32.5551 111.174 33.0139 110.961 33.4344C110.748 33.8548 110.451 34.2211 110.07 34.5333C109.688 34.8454 109.227 35.0906 108.684 35.2691C108.141 35.4475 107.527 35.5366 106.843 35.5366C106.093 35.5366 105.415 35.4283 104.808 35.2117C104.2 34.9951 103.68 34.6765 103.247 34.2562C102.815 33.8357 102.485 33.3197 102.259 32.7081C102.033 32.0965 101.92 31.4085 101.92 30.644ZM113.296 35.3073V21.3174H115.797V24.8531C115.797 25.0569 115.793 25.2959 115.788 25.5698C115.781 25.8438 115.767 26.1304 115.748 26.4299C115.729 26.7293 115.706 27.0255 115.68 27.3185H115.758C115.887 27.0638 116.053 26.8376 116.252 26.6401C116.453 26.4426 116.675 26.2769 116.921 26.1432C117.167 26.0094 117.434 25.9106 117.725 25.847C118.016 25.7832 118.33 25.7514 118.666 25.7514C119.169 25.7514 119.641 25.8215 120.08 25.9615C120.52 26.1017 120.903 26.3247 121.234 26.6305C121.563 26.9363 121.825 27.3409 122.019 27.8441C122.212 28.3474 122.309 28.9494 122.309 29.6502V35.3073H119.809V29.956C119.809 29.5355 119.767 29.1788 119.683 28.8858C119.599 28.5926 119.477 28.357 119.314 28.1786C119.153 28.0002 118.959 27.8696 118.733 27.7867C118.507 27.7039 118.252 27.6626 117.968 27.6626C117.658 27.6626 117.37 27.7231 117.105 27.8441C116.84 27.9652 116.611 28.1435 116.417 28.3793C116.223 28.6149 116.072 28.9016 115.961 29.2393C115.852 29.5769 115.797 29.956 115.797 30.3764V35.3073H113.296ZM124.364 32.8992C124.364 32.5042 124.424 32.1506 124.547 31.8384C124.67 31.5264 124.864 31.2524 125.129 31.0167C125.394 30.781 125.73 30.5835 126.136 30.4242C126.544 30.2649 127.025 30.1407 127.581 30.0515L129.403 29.784C129.661 29.7457 129.868 29.7044 130.023 29.6597C130.179 29.6151 130.297 29.5674 130.382 29.5164C130.465 29.4654 130.524 29.4018 130.556 29.3253C130.588 29.2488 130.605 29.1533 130.605 29.0386C130.605 28.8092 130.569 28.599 130.498 28.4079C130.427 28.2168 130.323 28.0512 130.188 27.911C130.052 27.7709 129.877 27.6626 129.664 27.5861C129.451 27.5096 129.203 27.4715 128.918 27.4715C128.633 27.4715 128.379 27.5064 128.153 27.5766C127.926 27.6466 127.736 27.7486 127.581 27.8824C127.426 28.0161 127.306 28.1786 127.223 28.3697C127.138 28.5608 127.084 28.7711 127.058 29.0003H124.732C124.771 28.4907 124.897 28.032 125.11 27.6243C125.323 27.2166 125.617 26.8725 125.992 26.5923C126.367 26.312 126.802 26.1017 127.3 25.9615C127.798 25.8215 128.337 25.7514 128.918 25.7514C129.616 25.7514 130.226 25.8246 130.749 25.9711C131.273 26.1177 131.709 26.3343 132.058 26.621C132.407 26.9076 132.669 27.2612 132.843 27.6816C133.017 28.1021 133.104 28.5926 133.104 29.1533V35.3073H130.721V34.1988H130.605C130.463 34.4154 130.291 34.6065 130.091 34.7722C129.891 34.9378 129.664 35.0779 129.413 35.1926C129.16 35.3073 128.879 35.3933 128.569 35.4507C128.259 35.5079 127.93 35.5366 127.581 35.5366C127.064 35.5366 126.602 35.473 126.195 35.3455C125.788 35.2181 125.449 35.0397 125.178 34.8104C124.906 34.581 124.703 34.3039 124.567 33.979C124.431 33.6542 124.364 33.2942 124.364 32.8992ZM128.299 33.8166C128.595 33.8166 128.883 33.7719 129.16 33.6828C129.439 33.5936 129.687 33.4535 129.907 33.2623C130.127 33.0712 130.297 32.8323 130.42 32.5456C130.543 32.2589 130.605 31.9245 130.605 31.5422V30.7204C130.565 30.7842 130.514 30.8383 130.449 30.8829C130.385 30.9274 130.314 30.9657 130.236 30.9976C130.158 31.0294 130.075 31.0581 129.985 31.0836C129.893 31.1091 129.791 31.1345 129.674 31.16L128.221 31.3894C127.975 31.4276 127.762 31.4849 127.581 31.5613C127.4 31.6378 127.254 31.7302 127.145 31.8384C127.035 31.9467 126.954 32.0678 126.902 32.2016C126.85 32.3355 126.826 32.4851 126.826 32.6507C126.826 32.8292 126.857 32.9916 126.921 33.1381C126.987 33.2846 127.08 33.4089 127.203 33.5108C127.325 33.6127 127.477 33.6891 127.658 33.7402C127.84 33.7911 128.053 33.8166 128.299 33.8166ZM135.624 23.6109V21.3174H138.28V23.6109H135.624ZM135.702 35.3073V25.9807H138.202V35.3073H135.702ZM140.915 35.3073V25.9807H143.3V27.3185H143.376C143.506 27.0638 143.671 26.8376 143.871 26.6401C144.071 26.4426 144.294 26.2769 144.54 26.1432C144.785 26.0094 145.053 25.9106 145.344 25.847C145.635 25.7832 145.948 25.7514 146.284 25.7514C146.788 25.7514 147.259 25.8215 147.699 25.9615C148.138 26.1017 148.523 26.3247 148.852 26.6305C149.181 26.9363 149.443 27.3409 149.637 27.8441C149.831 28.3474 149.928 28.9494 149.928 29.6502V35.3073H147.427V29.956C147.427 29.5355 147.386 29.1788 147.301 28.8858C147.218 28.5926 147.095 28.357 146.933 28.1786C146.772 28.0002 146.578 27.8696 146.352 27.7867C146.126 27.7039 145.871 27.6626 145.587 27.6626C145.277 27.6626 144.989 27.7231 144.724 27.8441C144.459 27.9652 144.23 28.1467 144.036 28.3889C143.842 28.6309 143.69 28.9207 143.58 29.2584C143.471 29.5961 143.416 29.9751 143.416 30.3956V35.3073H140.915Z" fill="white"/>
<path d="M9.64814 6.86816L20.1707 19.8899L30.2141 18.2393" stroke="white" stroke-width="0.983908"/>
<path d="M26.8663 3.38379L20.1708 9.16093L38.5837 14.1127L30.2142 18.2392" stroke="white" stroke-width="0.983908"/>
<path d="M6.78013 9.16064L10.1279 21.5402L21.8453 30.6186L35.7015 29.6383" stroke="white" stroke-width="0.983908"/>
<path d="M9.29068 6.87061L20.1711 9.16044L30.2145 18.2388L35.1177 29.7822L20.1711 19.8894L10.1276 21.54L4.26897 28.1425L9.29068 34.7448L16.8232 37.2208L21.845 30.6183" stroke="white" stroke-width="0.983908"/>
<path d="M20.9173 10.8095C21.8418 10.8095 22.5912 10.0705 22.5912 9.15892C22.5912 8.2473 21.8418 7.5083 20.9173 7.5083C19.9929 7.5083 19.2434 8.2473 19.2434 9.15892C19.2434 10.0705 19.9929 10.8095 20.9173 10.8095Z" fill="white"/>
<path d="M20.1706 21.5406C21.0951 21.5406 21.8445 20.8015 21.8445 19.89C21.8445 18.9783 21.0951 18.2393 20.1706 18.2393C19.2461 18.2393 18.4967 18.9783 18.4967 19.89C18.4967 20.8015 19.2461 21.5406 20.1706 21.5406Z" fill="white"/>
<path d="M30.213 19.8897C31.1375 19.8897 31.8869 19.1507 31.8869 18.239C31.8869 17.3274 31.1375 16.5884 30.213 16.5884C29.2886 16.5884 28.5391 17.3274 28.5391 18.239C28.5391 19.1507 29.2886 19.8897 30.213 19.8897Z" fill="white"/>
<path d="M10.1259 23.1908C11.0504 23.1908 11.7998 22.4519 11.7998 21.5402C11.7998 20.6287 11.0504 19.8896 10.1259 19.8896C9.20148 19.8896 8.45204 20.6287 8.45204 21.5402C8.45204 22.4519 9.20148 23.1908 10.1259 23.1908Z" fill="white"/>
<path d="M21.8447 32.2696C22.7692 32.2696 23.5186 31.5305 23.5186 30.619C23.5186 29.7073 22.7692 28.9683 21.8447 28.9683C20.9202 28.9683 20.1708 29.7073 20.1708 30.619C20.1708 31.5305 20.9202 32.2696 21.8447 32.2696Z" fill="white"/>
<path d="M20.5883 38.689C30.8835 38.689 39.2294 30.4571 39.2294 20.3025C39.2294 10.1479 30.8835 1.91602 20.5883 1.91602C10.2931 1.91602 1.94725 10.1479 1.94725 20.3025C1.94725 30.4571 10.2931 38.689 20.5883 38.689Z" stroke="white" stroke-width="3.21982"/>
</svg>
