<svg width="108" height="29" viewBox="0 0 108 29" fill="none" xmlns="http://www.w3.org/2000/svg">
<path d="M0.68 19.75C0.68 19.75 2.96 22.36 7.1 22.36C10.85 22.36 13.19 19.93 13.19 16.9C13.19 9.88 2.45 11.59 2.45 6.04C2.45 4 4.31 1.9 7.43 1.9C10.22 1.9 12.02 3.7 12.02 3.7L12.74 2.59C12.74 2.59 10.82 0.64 7.4 0.64C3.59 0.64 1.1 3.28 1.1 6.07C1.1 12.64 11.84 10.99 11.84 16.96C11.84 19.48 9.77 21.1 7.16 21.1C3.68 21.1 1.55 18.76 1.55 18.76L0.68 19.75ZM23.2782 22H24.6882L32.5482 0.999999H31.1682L24.8082 17.98C24.4482 18.97 23.9982 20.5 23.9982 20.5H23.9382C23.9382 20.5 23.4882 18.97 23.1282 17.98L16.7982 0.999999H15.4182L23.2782 22ZM48.3948 22H49.7748L41.9148 0.999999H40.5348L32.6748 22H34.0548L36.7548 14.74H45.6648L48.3948 22ZM41.2548 2.5C41.2548 2.5 41.7048 4.12 42.0348 5.02L45.2148 13.54H37.2048L40.4148 5.02C40.7448 4.12 41.1948 2.5 41.1948 2.5H41.2548ZM52.9681 22H54.2281V14.68C54.2281 13.96 54.2881 13.27 54.4681 12.64C55.2181 9.85 57.7081 7.87 60.5281 7.87C63.8881 7.87 64.2181 10.33 64.2181 12.94V22H65.4781V12.49C65.4781 8.95 64.4281 6.64 60.5281 6.64C56.7781 6.64 54.6781 9.46 54.1681 10.87H54.1081C54.1081 10.87 54.2281 10.33 54.2281 9.64V7H52.9681V22ZM71.4763 26.02L70.8763 27.13C72.3463 27.88 73.9363 28.3 75.5863 28.3C79.1563 28.3 82.4563 26.5 82.4563 21.91V7H81.1963V9.01C81.1963 9.37 81.2863 9.58 81.2863 9.58H81.2263C81.2263 9.58 80.2663 6.64 76.0063 6.64C72.1063 6.64 69.5563 9.58 69.5563 14.26C69.5563 18.94 72.3162 22 76.2163 22C78.7063 22 80.3563 20.77 81.2563 18.94H81.3163C81.3163 18.94 81.1963 19.48 81.1963 20.17V21.91C81.1963 25.54 78.7063 27.07 75.4963 27.07C73.3363 27.07 71.4763 26.02 71.4763 26.02ZM76.3063 20.77C73.0963 20.77 70.8763 18.31 70.8763 14.26C70.8763 10.21 72.7963 7.87 76.0063 7.87C78.9463 7.87 81.2263 9.43 81.2263 14.26C81.2263 19.12 78.9463 20.77 76.3063 20.77ZM86.6935 14.53C86.6935 19.3 90.2035 22.36 94.4335 22.36C97.6735 22.36 99.7735 20.29 99.7735 20.29L99.0835 19.24C99.0835 19.24 97.3135 21.13 94.4335 21.13C90.9535 21.13 88.0135 18.64 88.0135 14.29H100.044C100.044 14.29 100.104 13.81 100.104 13.48C100.104 9.85 98.0635 6.64 93.9835 6.64C90.1435 6.64 86.6935 9.46 86.6935 14.53ZM88.1035 13.12C88.6435 9.61 91.1935 7.81 93.9535 7.81C96.4435 7.81 98.6335 9.46 98.7835 13.12H88.1035ZM104.176 18.97C104.176 21.79 106.246 22.12 107.116 22.12C107.386 22.12 107.656 22.06 107.656 22.06V20.89C107.656 20.89 107.446 20.92 107.206 20.92C106.516 20.92 105.436 20.68 105.436 18.58V0.999999H104.176V18.97Z" fill="white"/>
</svg>
