  <svg
    viewBox="0 0 202 67"
    fill="none"
    xmlns="http://www.w3.org/2000/svg"
  >
    <mask
      id="mask0"
      mask-type="alpha"
      maskUnits="userSpaceOnUse"
      x="4"
      y="8"
      width="54"
      height="47"
    >
      <path
        d="M25.2459 43.1657C17.8832 46.4558 9.24742 43.1543 5.95732 35.7917C2.66721 28.429 5.9687 19.7932 13.3314 16.5031C20.6941 13.213 29.3298 16.5145 32.6199 23.8771C35.91 31.2398 32.6086 39.8756 25.2459 43.1657Z"
        fill="black"
      />
      <path
        d="M51.7684 28.1481C46.6712 30.4259 40.6926 28.1403 38.4148 23.043C36.1371 17.9458 38.4227 11.9672 43.5199 9.68941C48.6172 7.41165 54.5958 9.69728 56.8735 14.7945C59.1513 19.8918 56.8657 25.8704 51.7684 28.1481Z"
        fill="black"
      />
      <path
        d="M48.1942 53.2919C44.0881 55.1267 39.272 53.2855 37.4371 49.1794C35.6023 45.0733 37.4435 40.2572 41.5496 38.4224C45.6557 36.5875 50.4718 38.4287 52.3066 42.5348C54.1415 46.6409 52.3003 51.457 48.1942 53.2919Z"
        fill="black"
      />
    </mask>
    <g mask="url(#mask0)">
      <circle
        cx="34.178"
        cy="33.1938"
        r="39.0317"
        transform="rotate(65.9219 34.178 33.1938)"
        fill="white"
      />
      <circle
        cx="34.778"
        cy="32.0769"
        r="17.129"
        transform="rotate(65.9219 34.778 32.0769)"
        fill="#6ACDE2"
      />
    </g>
    <path
      d="M73.1285 49.6659C72.9379 49.6659 72.7758 49.5992 72.6423 49.4657C72.5089 49.3323 72.4421 49.1702 72.4421 48.9795V30.3611C72.4421 30.1514 72.4993 29.9798 72.6137 29.8463C72.7472 29.7128 72.9188 29.6461 73.1285 29.6461H85.7124C85.9222 29.6461 86.0938 29.7128 86.2272 29.8463C86.3607 29.9798 86.4274 30.1514 86.4274 30.3611V32.2487C86.4274 32.4584 86.3607 32.63 86.2272 32.7635C86.0938 32.8779 85.9222 32.9351 85.7124 32.9351H76.3031V37.9972H85.0832C85.293 37.9972 85.4646 38.064 85.598 38.1974C85.7315 38.3118 85.7982 38.4739 85.7982 38.6836V40.4568C85.7982 40.6665 85.7315 40.8381 85.598 40.9716C85.4646 41.086 85.293 41.1432 85.0832 41.1432H76.3031V46.377H85.9412C86.151 46.377 86.3226 46.4437 86.456 46.5772C86.5895 46.7106 86.6562 46.8822 86.6562 47.092V48.9795C86.6562 49.1893 86.5895 49.3609 86.456 49.4943C86.3226 49.6087 86.151 49.6659 85.9412 49.6659H73.1285Z"
      fill="white"
    />
    <path
      d="M90.605 49.6659C90.4143 49.6659 90.2523 49.5992 90.1188 49.4657C89.9853 49.3323 89.9186 49.1702 89.9186 48.9795V30.0465C89.9186 29.8368 89.9853 29.6747 90.1188 29.5603C90.2523 29.4268 90.4143 29.3601 90.605 29.3601H92.9788C93.1885 29.3601 93.3506 29.4268 93.465 29.5603C93.5984 29.6747 93.6652 29.8368 93.6652 30.0465V48.9795C93.6652 49.1702 93.5984 49.3323 93.465 49.4657C93.3506 49.5992 93.1885 49.6659 92.9788 49.6659H90.605Z"
      fill="white"
    />
    <path
      d="M103.865 49.9519C101.749 49.9519 100.061 49.3418 98.8031 48.1215C97.5637 46.8822 96.9059 45.1472 96.8297 42.9164L96.8011 42.2014L96.8297 41.4864C96.925 39.3128 97.5923 37.6064 98.8317 36.367C100.09 35.1277 101.768 34.5081 103.865 34.5081C106.115 34.5081 107.85 35.1945 109.07 36.5672C110.31 37.94 110.929 39.7704 110.929 42.0584V42.659C110.929 42.8497 110.863 43.0117 110.729 43.1452C110.596 43.2787 110.424 43.3454 110.214 43.3454H100.719V43.5742C100.757 44.6228 101.043 45.5094 101.577 46.234C102.13 46.9394 102.883 47.2921 103.837 47.2921C104.962 47.2921 105.867 46.8536 106.554 45.9766C106.725 45.7668 106.859 45.6334 106.954 45.5762C107.068 45.519 107.23 45.4904 107.44 45.4904H109.9C110.071 45.4904 110.214 45.5476 110.329 45.662C110.462 45.7573 110.529 45.8812 110.529 46.0338C110.529 46.4914 110.252 47.0348 109.7 47.6639C109.166 48.2741 108.394 48.8079 107.383 49.2655C106.372 49.7231 105.2 49.9519 103.865 49.9519ZM107.04 40.943V40.8572C107.04 39.7323 106.754 38.8266 106.182 38.1402C105.629 37.4538 104.857 37.1106 103.865 37.1106C102.874 37.1106 102.102 37.4538 101.549 38.1402C100.996 38.8266 100.719 39.7323 100.719 40.8572V40.943H107.04Z"
      fill="white"
    />
    <path
      d="M114.652 49.6659C114.461 49.6659 114.299 49.5992 114.165 49.4657C114.032 49.3323 113.965 49.1702 113.965 48.9795V35.4805C113.965 35.2898 114.032 35.1277 114.165 34.9943C114.299 34.8608 114.461 34.7941 114.652 34.7941H116.882C117.073 34.7941 117.235 34.8608 117.369 34.9943C117.502 35.1277 117.569 35.2898 117.569 35.4805V36.4528C118.56 35.1563 119.943 34.5081 121.716 34.5081C123.832 34.5081 125.31 35.3565 126.149 37.0534C126.606 36.2908 127.255 35.6807 128.093 35.2231C128.932 34.7464 129.838 34.5081 130.81 34.5081C132.374 34.5081 133.651 35.0419 134.643 36.1096C135.634 37.1774 136.13 38.7313 136.13 40.7714V48.9795C136.13 49.1702 136.063 49.3323 135.93 49.4657C135.815 49.5992 135.653 49.6659 135.444 49.6659H133.098C132.908 49.6659 132.746 49.5992 132.612 49.4657C132.479 49.3323 132.412 49.1702 132.412 48.9795V41.0002C132.412 39.799 132.155 38.9315 131.64 38.3976C131.144 37.8447 130.477 37.5682 129.638 37.5682C128.894 37.5682 128.256 37.8447 127.722 38.3976C127.207 38.9506 126.949 39.8181 126.949 41.0002V48.9795C126.949 49.1702 126.883 49.3323 126.749 49.4657C126.616 49.5992 126.454 49.6659 126.263 49.6659H123.918C123.727 49.6659 123.565 49.5992 123.432 49.4657C123.298 49.3323 123.231 49.1702 123.231 48.9795V41.0002C123.231 39.799 122.965 38.9315 122.431 38.3976C121.916 37.8447 121.258 37.5682 120.457 37.5682C119.695 37.5682 119.046 37.8447 118.513 38.3976C117.998 38.9506 117.74 39.8181 117.74 41.0002V48.9795C117.74 49.1702 117.674 49.3323 117.54 49.4657C117.407 49.5992 117.245 49.6659 117.054 49.6659H114.652Z"
      fill="white"
    />
    <path
      d="M146.178 49.9519C144.062 49.9519 142.375 49.3418 141.116 48.1215C139.877 46.8822 139.219 45.1472 139.143 42.9164L139.114 42.2014L139.143 41.4864C139.238 39.3128 139.905 37.6064 141.145 36.367C142.403 35.1277 144.081 34.5081 146.178 34.5081C148.428 34.5081 150.163 35.1945 151.383 36.5672C152.623 37.94 153.242 39.7704 153.242 42.0584V42.659C153.242 42.8497 153.176 43.0117 153.042 43.1452C152.909 43.2787 152.737 43.3454 152.527 43.3454H143.032V43.5742C143.07 44.6228 143.356 45.5094 143.89 46.234C144.443 46.9394 145.196 47.2921 146.15 47.2921C147.275 47.2921 148.18 46.8536 148.867 45.9766C149.038 45.7668 149.172 45.6334 149.267 45.5762C149.381 45.519 149.544 45.4904 149.753 45.4904H152.213C152.384 45.4904 152.527 45.5476 152.642 45.662C152.775 45.7573 152.842 45.8812 152.842 46.0338C152.842 46.4914 152.566 47.0348 152.013 47.6639C151.479 48.2741 150.707 48.8079 149.696 49.2655C148.686 49.7231 147.513 49.9519 146.178 49.9519ZM149.353 40.943V40.8572C149.353 39.7323 149.067 38.8266 148.495 38.1402C147.942 37.4538 147.17 37.1106 146.178 37.1106C145.187 37.1106 144.415 37.4538 143.862 38.1402C143.309 38.8266 143.032 39.7323 143.032 40.8572V40.943H149.353Z"
      fill="white"
    />
    <path
      d="M156.965 49.6659C156.774 49.6659 156.612 49.5992 156.478 49.4657C156.345 49.3323 156.278 49.1702 156.278 48.9795V35.4805C156.278 35.2898 156.345 35.1277 156.478 34.9943C156.612 34.8608 156.774 34.7941 156.965 34.7941H159.31C159.501 34.7941 159.663 34.8608 159.796 34.9943C159.93 35.1277 159.996 35.2898 159.996 35.4805V36.653C161.121 35.2231 162.713 34.5081 164.772 34.5081C166.527 34.5081 167.918 35.0896 168.948 36.2526C169.978 37.3966 170.492 38.9601 170.492 40.943V48.9795C170.492 49.1702 170.426 49.3323 170.292 49.4657C170.178 49.5992 170.016 49.6659 169.806 49.6659H167.289C167.099 49.6659 166.936 49.5992 166.803 49.4657C166.67 49.3323 166.603 49.1702 166.603 48.9795V41.1146C166.603 39.9897 166.326 39.1222 165.773 38.512C165.24 37.8828 164.458 37.5682 163.428 37.5682C162.418 37.5682 161.617 37.8828 161.026 38.512C160.454 39.1412 160.168 40.0087 160.168 41.1146V48.9795C160.168 49.1702 160.101 49.3323 159.968 49.4657C159.853 49.5992 159.691 49.6659 159.481 49.6659H156.965Z"
      fill="white"
    />
    <path
      d="M180.679 49.6659C178.944 49.6659 177.637 49.2179 176.76 48.3217C175.902 47.4065 175.473 46.0719 175.473 44.3178V37.8256H173.214C173.023 37.8256 172.861 37.7589 172.728 37.6254C172.594 37.4729 172.528 37.3013 172.528 37.1106V35.4805C172.528 35.2898 172.594 35.1277 172.728 34.9943C172.861 34.8608 173.023 34.7941 173.214 34.7941H175.473V30.0465C175.473 29.8368 175.54 29.6747 175.674 29.5603C175.807 29.4268 175.969 29.3601 176.16 29.3601H178.476C178.686 29.3601 178.848 29.4268 178.963 29.5603C179.096 29.6747 179.163 29.8368 179.163 30.0465V34.7941H182.738C182.947 34.7941 183.11 34.8608 183.224 34.9943C183.357 35.1087 183.424 35.2707 183.424 35.4805V37.1106C183.424 37.3204 183.357 37.492 183.224 37.6254C183.09 37.7589 182.928 37.8256 182.738 37.8256H179.163V44.0318C179.163 44.8516 179.306 45.4713 179.592 45.8908C179.878 46.3102 180.354 46.52 181.022 46.52H182.995C183.186 46.52 183.348 46.5867 183.481 46.7202C183.615 46.8536 183.682 47.0157 183.682 47.2064V48.9795C183.682 49.1702 183.615 49.3323 183.481 49.4657C183.367 49.5992 183.205 49.6659 182.995 49.6659H180.679Z"
      fill="white"
    />
    <path
      d="M190.472 49.68C190.28 49.68 190.117 49.6128 189.982 49.4783C189.848 49.3438 189.781 49.1805 189.781 48.9884V37.749H187.446C187.254 37.749 187.091 37.6817 186.956 37.5473C186.822 37.3936 186.755 37.2206 186.755 37.0285V35.3858C186.755 35.1937 186.822 35.0304 186.956 34.8959C187.091 34.7614 187.254 34.6942 187.446 34.6942H189.781V33.5126C189.781 30.0735 191.663 28.354 195.429 28.354H201.308C201.52 28.354 201.683 28.4212 201.798 28.5557C201.933 28.671 202 28.8343 202 29.0457V30.6883C202 30.8997 201.933 31.0726 201.798 31.2071C201.664 31.3416 201.5 31.4088 201.308 31.4088H195.544C194.795 31.4088 194.267 31.5913 193.959 31.9564C193.671 32.3214 193.527 32.8882 193.527 33.6567V34.6942H201.308C201.52 34.6942 201.683 34.7614 201.798 34.8959C201.933 35.0112 202 35.1745 202 35.3858V48.9884C202 49.1805 201.933 49.3438 201.798 49.4783C201.683 49.6128 201.52 49.68 201.308 49.68H198.974C198.782 49.68 198.618 49.6128 198.484 49.4783C198.349 49.3438 198.282 49.1805 198.282 48.9884V37.749H193.527V48.9884C193.527 49.1805 193.46 49.3438 193.325 49.4783C193.191 49.6128 193.028 49.68 192.835 49.68H190.472Z"
      fill="#6ACDE2"
    />
  </svg>