<svg width="150" height="38" viewBox="0 0 150 38" fill="none" xmlns="http://www.w3.org/2000/svg">
<path fill-rule="evenodd" clip-rule="evenodd" d="M14.8176 3.03345V7.44144H7.04435C5.62241 7.44144 5.29063 7.67843 4.43747 8.57898C3.75494 9.29943 3.61593 10.4275 3.63171 10.9015V14.7881H1.07223V0.710966C1.07223 0.473977 0.948996 0 0.456059 0C-0.0368767 0 -0.0337153 0.473977 0.0294801 0.710966V24.789C0.0294801 25.5474 0.535057 25.8634 0.787843 25.9265H3.63171V35.3113C3.63171 36.373 4.92723 36.9228 5.57502 37.065H31.4068C32.8477 37.065 33.2395 35.8958 33.2553 35.3113V25.9265C33.8083 25.9423 35.1417 25.9645 36.0517 25.9265C36.9618 25.8886 37.0313 25.1524 36.9523 24.789V0.710966C36.9049 0.473977 36.7153 0 36.3361 0C35.9569 0 35.799 0.473977 35.7674 0.710966V14.7881H33.2553V11.4228C33.2395 10.8541 33.0183 9.48902 32.2599 8.57898C31.5016 7.66895 30.1744 7.44144 29.6057 7.44144H22.1642V3.03345C21.6902 2.0223 20.2778 0 18.4198 0C16.5618 0 15.2442 2.0223 14.8176 3.03345ZM10.931 24.1254C14.0199 24.1254 16.5239 21.6214 16.5239 18.5325C16.5239 15.4436 14.0199 12.9396 10.931 12.9396C7.84205 12.9396 5.33803 15.4436 5.33803 18.5325C5.33803 21.6214 7.84205 24.1254 10.931 24.1254ZM10.931 22.3717C13.0513 22.3717 14.7702 20.6528 14.7702 18.5325C14.7702 16.4122 13.0513 14.6933 10.931 14.6933C8.81062 14.6933 7.09174 16.4122 7.09174 18.5325C7.09174 20.6528 8.81062 22.3717 10.931 22.3717ZM31.549 18.5325C31.549 21.6214 29.0449 24.1254 25.956 24.1254C22.8671 24.1254 20.3631 21.6214 20.3631 18.5325C20.3631 15.4436 22.8671 12.9396 25.956 12.9396C29.0449 12.9396 31.549 15.4436 31.549 18.5325ZM29.7952 18.5325C29.7952 20.6528 28.0764 22.3717 25.956 22.3717C23.8357 22.3717 22.1168 20.6528 22.1168 18.5325C22.1168 16.4122 23.8357 14.6933 25.956 14.6933C28.0764 14.6933 29.7952 16.4122 29.7952 18.5325ZM16.0973 23.2249L18.484 18.8643L20.9319 23.2249H16.0973ZM28.3733 25.8317H8.37148C7.76479 25.8317 7.42353 26.5269 7.32873 26.8745V30.0975C7.32873 32.0693 9.22464 33.3206 10.931 33.3206H25.4347C29.9017 33.3206 29.781 30.0051 29.7143 28.1723V28.1721C29.7071 27.9727 29.7005 27.7909 29.7005 27.6329C29.7005 26.3436 28.8157 25.8949 28.3733 25.8317ZM13.1587 27.7751H16.1921V31.5195H13.1587V27.7751ZM20.0313 27.7751H16.9979V31.5195H20.0313V27.7751ZM20.8371 27.7751H23.8705V31.5195H20.8371V27.7751ZM24.5341 27.7277V31.4247H26.0508C26.6196 31.5195 27.7571 31.3109 27.7571 29.7184C27.7571 28.1258 26.6196 27.7277 26.0508 27.7277H24.5341ZM12.5425 31.4721V27.7751H11.0258C10.457 27.7751 9.31944 28.1732 9.31944 29.7658C9.31944 31.3583 10.457 31.5669 11.0258 31.4721H12.5425Z" fill="white"/>
<path d="M56.4678 19.9983H55.8161V21.9747H53.1623V14.3203H56.3877C57.5698 14.3203 58.4163 14.5183 58.9273 14.9144C59.4382 15.3028 59.6937 16.0302 59.6937 17.0964C59.6937 18.1551 59.4112 18.913 58.8472 19.3699L59.6022 21.9747H56.9024L56.4678 19.9983ZM56.4564 17.9076C56.8304 17.9076 57.0171 17.66 57.0171 17.165C57.0171 16.6623 56.8072 16.411 56.3877 16.411H55.8047V17.9076H56.4564Z" fill="white"/>
<path d="M62.767 18.1475C62.767 18.7949 62.8281 19.2633 62.9499 19.5528C63.0798 19.8346 63.3428 19.9755 63.7391 19.9755C64.1434 19.9755 64.4064 19.8346 64.5283 19.5528C64.6505 19.271 64.7112 18.8026 64.7112 18.1475C64.7112 17.485 64.6505 17.0165 64.5283 16.7423C64.414 16.4606 64.1548 16.3197 63.7505 16.3197C63.3466 16.3197 63.0798 16.4644 62.9499 16.7538C62.8281 17.0356 62.767 17.5002 62.767 18.1475ZM67.3878 18.1475C67.3878 19.5414 67.0982 20.5543 66.5185 21.1864C65.9393 21.811 65.0127 22.1233 63.7391 22.1233C62.4731 22.1233 61.5469 21.8072 60.9597 21.175C60.38 20.5429 60.0904 19.5337 60.0904 18.1475C60.0904 16.7538 60.38 15.7446 60.9597 15.1201C61.5394 14.488 62.4655 14.1719 63.7391 14.1719C65.0127 14.1719 65.9393 14.488 66.5185 15.1201C67.0982 15.7446 67.3878 16.7538 67.3878 18.1475Z" fill="white"/>
<path d="M67.9418 14.3203H71.4076C73.276 14.3203 74.2102 14.9525 74.2102 16.2168C74.2102 16.6966 74.1566 17.066 74.05 17.3249C73.9509 17.5839 73.7409 17.8276 73.421 18.0561C73.7945 18.2161 74.05 18.4141 74.187 18.6502C74.332 18.8787 74.4045 19.2633 74.4045 19.804C74.4045 21.2511 73.421 21.9747 71.4535 21.9747H67.9418V14.3203ZM71.2132 18.9472H70.5956V20.2039H71.2132C71.4801 20.2039 71.6592 20.162 71.7507 20.0782C71.8422 19.9868 71.8882 19.8231 71.8882 19.587C71.8882 19.3433 71.8384 19.1757 71.7393 19.0843C71.6403 18.9929 71.4649 18.9472 71.2132 18.9472ZM71.1791 16.0682H70.5956V17.2907H71.1905C71.4189 17.2907 71.5791 17.2412 71.6706 17.1422C71.7621 17.0432 71.8081 16.887 71.8081 16.6738C71.8081 16.4529 71.7583 16.2967 71.6592 16.2054C71.5602 16.114 71.4 16.0682 71.1791 16.0682Z" fill="white"/>
<path d="M77.4346 18.1475C77.4346 18.7949 77.4958 19.2633 77.6176 19.5528C77.7475 19.8346 78.0105 19.9755 78.4073 19.9755C78.8111 19.9755 79.0741 19.8346 79.1964 19.5528C79.3182 19.271 79.3794 18.8026 79.3794 18.1475C79.3794 17.485 79.3182 17.0165 79.1964 16.7423C79.0817 16.4606 78.8225 16.3197 78.4186 16.3197C78.0143 16.3197 77.7475 16.4644 77.6176 16.7538C77.4958 17.0356 77.4346 17.5002 77.4346 18.1475ZM82.0559 18.1475C82.0559 19.5414 81.7663 20.5543 81.1867 21.1864C80.607 21.811 79.6804 22.1233 78.4073 22.1233C77.1413 22.1233 76.2146 21.8072 75.6274 21.175C75.0482 20.5429 74.7581 19.5337 74.7581 18.1475C74.7581 16.7538 75.0482 15.7446 75.6274 15.1201C76.207 14.488 77.1337 14.1719 78.4073 14.1719C79.6804 14.1719 80.607 14.488 81.1867 15.1201C81.7663 15.7446 82.0559 16.7538 82.0559 18.1475Z" fill="white"/>
<path d="M82.2356 16.4796V14.3203H87.9546V16.4796H86.4677V21.9747H83.8139V16.4796H82.2356Z" fill="white"/>
<path d="M102.173 14.3203L100.674 21.9747H96.7625L95.2069 14.3203H98.0204L98.6152 19.3014H98.8214L99.3589 14.3203H102.173Z" fill="white"/>
<path d="M102.495 21.9747V14.3203H108.237V16.4339H105.149V17.085H107.551V19.1757H105.149V19.8611H108.237V21.9747H102.495Z" fill="white"/>
<path d="M108.801 21.9747V14.3203H111.409L113.171 17.2221H113.331V14.3203H115.984V21.9747H113.365L111.626 18.8558H111.455V21.9747H108.801Z" fill="white"/>
<path d="M116.464 16.4796V14.3203H122.184V16.4796H120.696V21.9747H118.043V16.4796H116.464Z" fill="white"/>
<path d="M125.273 14.3203V19.3357C125.273 19.5565 125.326 19.7127 125.433 19.804C125.547 19.8955 125.734 19.9412 125.993 19.9412C126.252 19.9412 126.435 19.8955 126.543 19.804C126.649 19.7127 126.702 19.5565 126.702 19.3357V14.3203H129.356V19.1871C129.356 20.2686 129.085 21.0303 128.544 21.472C128.003 21.9061 127.149 22.1232 125.982 22.1232C124.823 22.1232 123.973 21.91 123.431 21.4834C122.89 21.0569 122.619 20.3067 122.619 19.2328V14.3203H125.273Z" fill="white"/>
<path d="M133.326 19.9983H132.675V21.9747H130.021V14.3203H133.246C134.428 14.3203 135.275 14.5183 135.786 14.9144C136.297 15.3028 136.552 16.0302 136.552 17.0964C136.552 18.1551 136.27 18.913 135.706 19.3699L136.461 21.9747H133.761L133.326 19.9983ZM133.315 17.9076C133.689 17.9076 133.876 17.66 133.876 17.165C133.876 16.6623 133.666 16.411 133.246 16.411H132.663V17.9076H133.315Z" fill="white"/>
<path d="M137.109 21.9747V14.3203H142.851V16.4339H139.763V17.085H142.165V19.1757H139.763V19.8611H142.851V21.9747H137.109Z" fill="white"/>
<path d="M149.249 16.5253C148.174 16.411 147.392 16.3539 146.904 16.3539C146.416 16.3539 146.13 16.3692 146.046 16.3996C145.97 16.4225 145.932 16.4758 145.932 16.5596C145.932 16.6433 145.977 16.7081 146.069 16.7538C146.16 16.7995 146.447 16.8756 146.927 16.9823C147.415 17.0889 147.812 17.1955 148.116 17.3022C148.429 17.4012 148.707 17.5459 148.952 17.7363C149.203 17.9191 149.367 18.1475 149.444 18.4217C149.527 18.6883 149.569 19.0501 149.569 19.5071C149.569 20.4515 149.317 21.1255 148.814 21.5292C148.311 21.9329 147.552 22.1347 146.538 22.1347C146.05 22.1347 145.535 22.1004 144.994 22.0319C144.46 21.9633 144.048 21.8948 143.759 21.8262L143.312 21.7234L143.427 19.7013C144.593 19.8688 145.55 19.9526 146.298 19.9526C146.694 19.9526 146.893 19.865 146.893 19.6899C146.893 19.6137 146.847 19.5604 146.755 19.5299C146.664 19.4918 146.416 19.4424 146.012 19.3814C144.944 19.2139 144.216 18.9549 143.827 18.6046C143.446 18.2466 143.255 17.6639 143.255 16.8566C143.255 15.8284 143.503 15.1239 143.999 14.7431C144.494 14.3623 145.257 14.1719 146.286 14.1719C147.011 14.1719 147.861 14.2443 148.837 14.389L149.317 14.4689L149.249 16.5253Z" fill="white"/>
</svg>
