<svg width="72" height="72" viewBox="0 0 72 72" fill="none" xmlns="http://www.w3.org/2000/svg">
<g clip-path="url(#clip0)" filter="url(#filter0_d)">
<path d="M66.7175 41.1582C65.0599 46.873 61.8396 52.0115 57.4192 55.9948C52.9988 59.9781 47.5539 62.6479 41.698 63.7037V54.5977C43.8575 53.7751 45.8008 52.4707 47.38 50.7837C48.2573 49.8425 49.0073 48.7902 49.6105 47.6537C50.7588 45.4886 51.3532 43.0729 51.3405 40.6222C51.3405 32.5722 45.529 29.3537 40.0805 26.9667L37.3215 25.7472C34.3715 24.4242 32.115 23.2472 32.115 21.2327C32.115 18.4482 34.545 16.9517 36.837 16.9517C39.276 16.9517 40.6595 17.8517 42.121 20.3852L43.254 22.3482L50.5445 17.6697L49.5945 15.9057C47.9226 12.7177 45.0992 10.2862 41.6985 9.10566V0.753662C42.4075 0.874662 43.108 1.03016 43.8175 1.21216C43.8865 1.22966 43.9645 1.24666 44.0425 1.26216C44.1216 1.2772 44.1996 1.29741 44.276 1.32266C44.2997 1.3254 44.3229 1.33128 44.345 1.34016C44.5355 1.39016 44.734 1.43516 44.933 1.49566C48.9678 2.66938 52.7318 4.62635 56.0103 7.25484C59.2887 9.88333 62.0172 13.1318 64.0402 16.8149C66.0631 20.4979 67.3407 24.5434 67.8001 28.7202C68.2594 32.8971 67.8916 37.1235 66.7175 41.1582Z" fill="#745DDF"/>
<path d="M42.3895 41.0635C42.3895 44.7305 39.077 46.996 36.0155 46.996C32.34 46.996 30.2385 43.9605 29.832 41.141L29.486 38.6935L20.665 41.1775L21.065 43.1495C22.3275 49.3675 26.574 53.839 32.3425 55.188V64.0005C30.7776 63.8173 29.2283 63.5195 27.707 63.1095C27.491 63.0595 27.283 62.997 27.067 62.9365C20.418 61.0005 14.576 56.9609 10.417 51.4237C6.25813 45.8865 4.00654 39.1501 4 32.225L4 1.48003C4.0004 1.14532 4.13354 0.824424 4.37022 0.587745C4.60689 0.351067 4.92779 0.217926 5.2625 0.217529H32.3405V9.02153C29.1719 9.93899 26.472 12.0295 24.7905 14.8675C23.7121 16.755 23.1512 18.8937 23.1645 21.0675V21.2405C23.25 28.4195 28.5265 31.4205 33.508 33.6775L36 34.7585L36.2075 34.8535C40.1585 36.6615 42.3895 37.846 42.3895 41.0635Z" fill="#2EB6EA"/>
<path d="M51.3406 40.6221C51.3533 43.0726 50.7592 45.4881 49.6111 47.6531C49.0076 48.7898 48.2573 49.8423 47.3796 50.7836C45.8003 52.4702 43.857 53.7743 41.6976 54.5966L41.7016 63.7466L39.1441 63.9726C39.1441 63.9726 33.6596 64.1371 32.3536 63.9726L32.3401 55.1861C26.5721 53.8366 22.3256 49.3656 21.0631 43.1466L20.6631 41.1746L29.4841 38.6926L29.8301 41.1401C30.2386 43.9606 32.3401 46.9966 36.0156 46.9966C39.0771 46.9966 42.3896 44.7306 42.3896 41.0641C42.3896 37.8471 40.1581 36.6641 36.2061 34.8546L35.9986 34.7596L33.5081 33.6786C28.5266 31.4206 23.2511 28.4196 23.1646 21.2416V21.0686C23.1513 18.8948 23.7122 16.7561 24.7906 14.8686C26.4718 12.0303 29.1715 9.93941 32.3401 9.02159V0.208591C38.1081 0.159591 38.5496 0.193591 41.6976 0.746591V9.10809C45.0983 10.2886 47.9217 12.7201 49.5936 15.9081L50.5436 17.6721L43.2546 22.3466L42.1216 20.3836C40.6601 17.8496 39.2761 16.9501 36.8376 16.9501C34.5456 16.9501 32.1156 18.4461 32.1156 21.2311C32.1156 23.2461 34.3726 24.4221 37.3221 25.7456L40.0801 26.9666C45.5301 29.3536 51.3406 32.5706 51.3406 40.6221Z" fill="white"/>
</g>
<defs>
<filter id="filter0_d" x="0" y="0" width="72" height="72" filterUnits="userSpaceOnUse" color-interpolation-filters="sRGB">
<feFlood flood-opacity="0" result="BackgroundImageFix"/>
<feColorMatrix in="SourceAlpha" type="matrix" values="0 0 0 0 0 0 0 0 0 0 0 0 0 0 0 0 0 0 127 0" result="hardAlpha"/>
<feOffset dy="4"/>
<feGaussianBlur stdDeviation="2"/>
<feColorMatrix type="matrix" values="0 0 0 0 0 0 0 0 0 0 0 0 0 0 0 0 0 0 0.25 0"/>
<feBlend mode="normal" in2="BackgroundImageFix" result="effect1_dropShadow"/>
<feBlend mode="normal" in="SourceGraphic" in2="effect1_dropShadow" result="shape"/>
</filter>
<clipPath id="clip0">
<rect width="64" height="64" fill="white" transform="translate(4)"/>
</clipPath>
</defs>
</svg>
