<svg width="72" height="72" viewBox="0 0 72 72" fill="none" xmlns="http://www.w3.org/2000/svg">
<g filter="url(#filter0_d)">
<path d="M36 64C53.7334 64 68 49.7334 68 32C68 14.2666 53.7334 0 36 0C18.2666 0 4 14.2666 4 32C4 49.7334 18.2666 64 36 64Z" fill="#2775CA"/>
<path d="M44.8 37.0664C44.8 32.3998 42 30.7998 36.4 30.1333C32.4 29.5998 31.6 28.5333 31.6 26.6664C31.6 24.7995 32.9335 23.5998 35.6 23.5998C38 23.5998 39.3334 24.3998 40 26.3998C40.1334 26.7998 40.5334 27.0664 40.9334 27.0664H43.0665C43.6 27.0664 44 26.6664 44 26.1332V25.9998C43.4665 23.0664 41.0665 20.7998 38 20.5332V17.3332C38 16.7998 37.6 16.3998 36.9334 16.2664H34.9334C34.4 16.2664 34 16.6664 33.8666 17.3332V20.3998C29.8666 20.9332 27.3335 23.5998 27.3335 26.9332C27.3335 31.3333 30 33.0664 35.6 33.7333C39.3334 34.3998 40.5334 35.1998 40.5334 37.3333C40.5334 39.4667 38.6666 40.9333 36.1334 40.9333C32.6666 40.9333 31.4666 39.4664 31.0666 37.4664C30.9335 36.9333 30.5335 36.6664 30.1335 36.6664H27.8666C27.3335 36.6664 26.9335 37.0664 26.9335 37.5998V37.7333C27.4666 41.0664 29.6 43.4664 34 44.1333V47.3333C34 47.8664 34.4 48.2664 35.0666 48.3998H37.0666C37.6 48.3998 38 47.9998 38.1334 47.3333V44.1333C42.1334 43.4664 44.8 40.6664 44.8 37.0664V37.0664Z" fill="white"/>
<path d="M29.2 51.0666C18.8 47.3335 13.4666 35.7335 17.3335 25.4666C19.3335 19.8666 23.7335 15.6001 29.2 13.6001C29.7335 13.3335 30 12.9335 30 12.2666V10.4001C30 9.86662 29.7335 9.46662 29.2 9.3335C29.0666 9.3335 28.8 9.3335 28.6666 9.46662C16 13.4666 9.0666 26.9335 13.0666 39.6001C15.4666 47.0666 21.2 52.8001 28.6666 55.2001C29.2 55.4666 29.7335 55.2001 29.8666 54.6666C30 54.5335 30 54.4001 30 54.1335V52.2666C30 51.8666 29.6 51.3335 29.2 51.0666ZM43.3335 9.46662C42.8 9.20006 42.2666 9.46662 42.1335 10.0001C42 10.1335 42 10.2666 42 10.5335V12.4001C42 12.9335 42.4 13.4666 42.8 13.7335C53.2 17.4666 58.5335 29.0666 54.6666 39.3335C52.6666 44.9335 48.2666 49.2001 42.8 51.2001C42.2666 51.4666 42 51.8666 42 52.5335V54.4001C42 54.9335 42.2666 55.3335 42.8 55.4666C42.9335 55.4666 43.2 55.4666 43.3335 55.3335C56 51.3335 62.9335 37.8666 58.9335 25.2001C56.5335 17.6001 50.6666 11.8666 43.3335 9.46662V9.46662Z" fill="white"/>
</g>
<defs>
<filter id="filter0_d" x="0" y="0" width="72" height="72" filterUnits="userSpaceOnUse" color-interpolation-filters="sRGB">
<feFlood flood-opacity="0" result="BackgroundImageFix"/>
<feColorMatrix in="SourceAlpha" type="matrix" values="0 0 0 0 0 0 0 0 0 0 0 0 0 0 0 0 0 0 127 0" result="hardAlpha"/>
<feOffset dy="4"/>
<feGaussianBlur stdDeviation="2"/>
<feColorMatrix type="matrix" values="0 0 0 0 0 0 0 0 0 0 0 0 0 0 0 0 0 0 0.25 0"/>
<feBlend mode="normal" in2="BackgroundImageFix" result="effect1_dropShadow"/>
<feBlend mode="normal" in="SourceGraphic" in2="effect1_dropShadow" result="shape"/>
</filter>
</defs>
</svg>
