<svg width="150" height="21" viewBox="0 0 150 21" fill="none" xmlns="http://www.w3.org/2000/svg">
<path d="M0.74 20H7.43V19.7H5.12C4.85 19.7 4.7 19.58 4.67 19.37V12.95H7.73C11.93 12.95 15.08 11.69 15.08 6.8C15.08 2.81 12.47 0.889999 7.46 0.889999H0.74V1.19H1.85C2.15 1.19 2.3 1.31 2.3 1.58V19.31C2.3 19.58 2.15 19.7 1.85 19.7H0.74V20ZM7.25 1.19C10.76 1.19 12.2 3.17 12.2 6.86C12.2 10.22 10.91 12.65 7.64 12.65H4.67V1.19H7.25ZM17.0994 0.829998H18.5094C18.8094 0.829998 18.9594 0.949998 18.9594 1.22V19.31C18.9594 19.58 18.8094 19.7 18.5094 19.7H17.0994V20H23.3994V19.7H21.6894C21.3894 19.7 21.2394 19.58 21.2394 19.31V0.0499994L18.1494 0.529999H17.0994V0.829998ZM35.9867 12.29C35.9867 9.26 34.4567 7.04 31.0067 7.04C28.9667 7.04 26.1167 7.91 26.1167 9.74C26.1167 10.79 26.6867 11.24 27.5567 11.24C28.2467 11.24 28.8767 10.67 28.8767 9.95C28.8767 9.2 28.6967 8.81 28.3667 8.45C28.1567 8.18 28.1867 7.97 28.5167 7.82C29.0867 7.55 29.7467 7.4 30.4367 7.4C32.6267 7.4 33.7067 8.78 33.7067 11.3V12.89C32.1767 13.22 29.8667 13.64 27.3167 14.36C25.8467 15.11 25.2767 15.98 25.2767 17.27C25.2767 19.19 26.7167 20.45 29.4467 20.45C31.2167 20.45 32.8967 19.37 33.7067 17.96V18.2C33.7067 19.52 34.3667 20.45 35.6567 20.45C36.9767 20.45 38.0267 19.55 38.5067 17.12H38.1767C37.9067 18.53 37.2467 19.76 36.5567 19.76C36.1667 19.76 35.9867 19.55 35.9867 19.13V12.29ZM30.0767 19.97C27.9167 19.97 27.7367 18.23 27.7367 17.36C27.7367 15.32 28.6067 14.3 33.7067 13.19V17.09C33.7067 18.14 31.4267 19.97 30.0767 19.97ZM49.0459 9.98C49.0459 10.7 49.6459 11.24 50.3359 11.24C51.0259 11.24 51.6559 10.7 51.6559 9.98C51.6559 7.91 48.5959 7.04 46.8259 7.04C42.7159 7.04 40.1359 9.77 40.1359 13.64C40.1359 17.75 42.5959 20.45 46.6759 20.45C49.2859 20.45 51.2059 18.65 51.8659 16.7L51.5659 16.61C50.6959 19.01 48.6559 19.88 47.1559 19.88C44.1259 19.88 42.6859 17.21 42.6859 13.82V13.49C42.6859 8.93 44.9059 7.37 46.9459 7.37C47.7859 7.37 48.7459 7.52 49.4659 7.88C49.7659 8.03 49.8259 8.24 49.6459 8.51C49.2559 8.9 49.0459 9.38 49.0459 9.98ZM66.2855 13.46C66.2855 9.14 63.4055 7.04 60.6455 7.04C56.3855 7.04 54.3155 10.22 54.3155 13.94C54.3155 17.66 56.4155 20.45 60.4955 20.45C63.5555 20.45 65.4755 18.71 66.2855 16.7L66.0155 16.61C64.9955 18.89 62.8655 19.94 60.9155 19.94C58.4255 19.94 56.8655 18.17 56.8655 14.18V13.55V13.46H66.2855ZM60.4655 7.31C62.2955 7.31 63.9755 9.53 63.8855 13.16H56.8655C56.9555 8.78 58.9055 7.31 60.4655 7.31ZM68.484 0.829998H69.894C70.194 0.829998 70.344 0.949998 70.344 1.22V19.31C70.344 19.58 70.194 19.7 69.894 19.7H68.484V20H74.784V19.7H73.074C72.774 19.7 72.624 19.58 72.624 19.31V9.86C74.154 8.21 75.504 7.46 77.064 7.46C78.774 7.46 79.254 9.53 79.254 12.47V19.31C79.254 19.58 79.104 19.7 78.804 19.7H77.394V20H83.394V19.7H81.984C81.684 19.7 81.534 19.58 81.534 19.31V12.23C81.534 8.66 80.154 7.04 77.724 7.04C75.954 7.04 74.394 7.58 72.624 9.41V0.0499994L69.534 0.529999H68.484V0.829998ZM85.546 13.76C85.546 17.78 87.706 20.45 91.996 20.45C96.286 20.45 98.446 17.78 98.446 13.76C98.446 9.83 96.286 7.04 91.996 7.04C87.706 7.04 85.546 9.83 85.546 13.76ZM88.096 13.61C88.096 8.54 90.256 7.34 91.966 7.34C93.856 7.34 95.896 8.57 95.896 13.61V13.88C95.896 18.92 93.796 20.15 91.966 20.15C90.256 20.15 88.096 18.92 88.096 13.94V13.61ZM100.83 0.829998H102.24C102.54 0.829998 102.69 0.949998 102.69 1.22V19.31C102.69 19.58 102.54 19.7 102.24 19.7H100.83V20H107.13V19.7H105.42C105.12 19.7 104.97 19.58 104.97 19.31V0.0499994L101.88 0.529999H100.83V0.829998ZM123.137 20V19.7H121.427C121.127 19.7 120.977 19.58 120.977 19.31V0.0499994L117.887 0.529999H115.937V0.829998H118.247C118.547 0.829998 118.697 0.949998 118.697 1.22V7.91C117.617 7.22 116.567 7.04 115.637 7.04C111.377 7.04 109.307 9.74 109.307 13.7C109.307 16.85 110.207 20.45 115.007 20.45C116.567 20.45 117.857 19.52 118.697 18.53V20H123.137ZM115.307 20.03C113.627 20.03 111.857 18.71 111.857 13.94V13.31C111.857 8.81 113.897 7.4 115.697 7.4C117.107 7.4 118.067 7.79 118.697 8.36V18.02C117.737 19.31 116.177 20.03 115.307 20.03ZM137.155 13.46C137.155 9.14 134.275 7.04 131.515 7.04C127.255 7.04 125.185 10.22 125.185 13.94C125.185 17.66 127.285 20.45 131.365 20.45C134.425 20.45 136.345 18.71 137.155 16.7L136.885 16.61C135.865 18.89 133.735 19.94 131.785 19.94C129.295 19.94 127.735 18.17 127.735 14.18V13.55V13.46H137.155ZM131.335 7.31C133.165 7.31 134.845 9.53 134.755 13.16H127.735C127.825 8.78 129.775 7.31 131.335 7.31ZM139.533 7.82H140.943C141.243 7.82 141.393 7.94 141.393 8.21V19.31C141.393 19.58 141.243 19.7 140.943 19.7H139.533V20H145.833V19.7H144.123C143.823 19.7 143.673 19.58 143.673 19.31V10.22C144.243 7.97 145.503 7.34 146.643 7.34C146.853 7.34 147.063 7.37 147.333 7.46C147.543 7.55 147.693 7.82 147.483 8.06C147.243 8.39 147.033 8.87 147.033 9.47C147.033 10.34 147.723 10.97 148.533 10.97C149.253 10.97 149.973 10.46 149.973 9.41C149.973 7.64 148.113 7.04 146.793 7.04C145.563 7.04 144.333 7.52 143.613 9.29L143.403 7.04L140.583 7.52H139.533V7.82Z" fill="white"/>
</svg>
