<svg width="1440" height="489" viewBox="0 0 1440 489" fill="none" xmlns="http://www.w3.org/2000/svg">
<path d="M-184 1.00001C-81.3478 181.147 10.1734 331.557 115.917 343.624C221.662 355.691 264.949 243.207 337.918 243.207C410.888 243.207 446.136 294.924 469.635 343.624C493.133 392.324 540.131 488 628.56 488C716.989 488 760.276 386.29 782.538 343.624C804.8 300.958 864.165 212.177 947.029 212.177C1029.89 212.177 1054.63 261.992 1133.16 255.705C1211.7 249.418 1239.53 172.958 1321.15 172.958C1402.78 172.958 1387.94 231.571 1464 231.571" stroke="url(#paint0_linear)" stroke-width="2" stroke-linecap="round" stroke-linejoin="round"/>
<defs>
<linearGradient id="paint0_linear" x1="-184" y1="1" x2="1464" y2="1" gradientUnits="userSpaceOnUse">
<stop stop-color="#FF59F8"/>
<stop offset="0.197917" stop-color="#AE72FF"/>
<stop offset="0.40625" stop-color="#90E9ED"/>
<stop offset="0.619792" stop-color="#5CD167"/>
<stop offset="0.825321" stop-color="#FFEE00"/>
</linearGradient>
</defs>
</svg>
