<svg width="175" height="166" viewBox="0 0 175 166" fill="none" xmlns="http://www.w3.org/2000/svg">
<mask id="mask0" mask-type="alpha" maskUnits="userSpaceOnUse" x="0" y="0" width="175" height="166">
<path d="M63.0326 108.211C44.6499 116.425 23.0884 108.182 14.8739 89.7996C6.6593 71.4169 14.9023 49.8555 33.285 41.6409C51.6678 33.4263 73.2292 41.6693 81.4438 60.052C89.6583 78.4348 81.4154 99.9962 63.0326 108.211Z" fill="black"/>
<path d="M129.253 70.7156C116.526 76.4026 101.599 70.696 95.9122 57.9695C90.2251 45.2429 95.9318 30.3158 108.658 24.6288C121.385 18.9418 136.312 24.6485 141.999 37.375C147.686 50.1015 141.979 65.0286 129.253 70.7156Z" fill="black"/>
<path d="M120.329 133.493C110.077 138.074 98.0523 133.477 93.4711 123.226C88.8899 112.974 93.4869 100.949 103.739 96.3678C113.991 91.7866 126.015 96.3836 130.597 106.636C135.178 116.887 130.581 128.912 120.329 133.493Z" fill="black"/>
</mask>
<g mask="url(#mask0)">
<circle cx="85.334" cy="83.3135" r="97.4525" transform="rotate(65.9219 85.334 83.3135)" fill="#1568CA"/>
<circle cx="86.8319" cy="80.5251" r="42.7669" transform="rotate(65.9219 86.8319 80.5251)" fill="#8FD8E7"/>
</g>
</svg>
