<svg width="149" height="20" viewBox="0 0 149 20" fill="none" xmlns="http://www.w3.org/2000/svg">
<path d="M65.607 18.9607C65.2695 18.9302 64.8706 18.8489 64.7274 18.7879C64.1138 18.5438 63.9297 17.7812 64.3593 17.2829C64.574 17.0389 64.6661 17.0084 65.2081 17.0287C65.5354 17.0287 65.8831 17.0491 65.9649 17.0592C66.7319 17.1304 67.1921 16.7745 67.683 15.717C67.8773 15.3001 68.0308 14.8628 68.0308 14.751C68.0308 14.6391 67.233 12.5851 66.2717 10.1752C65.2286 7.61272 64.482 5.60953 64.4615 5.33498C64.4104 4.91807 64.4411 4.83673 64.7581 4.51133C65.382 3.85038 66.149 3.90123 66.6399 4.62319C66.8035 4.86723 67.366 6.46368 68.0512 8.56855C69.033 11.6191 69.2171 12.1072 69.4012 12.1377C69.5852 12.1682 69.6977 11.8936 70.5568 9.29052C72.0602 4.69437 72.142 4.51133 72.6533 4.17577C73.0215 3.93173 73.6351 4.05375 73.9931 4.42999C74.4431 4.88757 74.4021 5.2333 73.6556 7.17547C69.9432 16.9372 70.0046 16.7847 69.483 17.6083C68.7773 18.7269 67.4887 19.1743 65.607 18.9607Z" fill="white"/>
<path d="M108.519 18.9608C108.079 18.8693 107.905 18.6863 107.793 18.1982C107.742 17.9847 107.691 14.9138 107.691 11.3955C107.691 5.34524 107.701 4.969 107.885 4.63344C108.141 4.13519 108.734 3.92165 109.276 4.13519C109.777 4.31822 110.033 4.67412 110.125 5.30456C110.217 5.96551 110.431 5.96551 110.943 5.29439C112.17 3.67761 115.146 3.69794 116.742 5.3249C117.754 6.37225 118.122 7.32809 118.194 9.13808C118.255 10.6227 118.112 11.4768 117.59 12.5343C116.793 14.1715 115.034 15.1375 113.213 14.9646C112.119 14.8528 111.362 14.385 110.646 13.3682C110.544 13.2156 110.431 13.1648 110.319 13.2055C110.166 13.2665 110.145 13.5105 110.145 15.5849C110.145 17.6084 110.114 17.9541 109.951 18.31C109.849 18.5338 109.705 18.7676 109.624 18.8286C109.429 18.9913 108.938 19.0422 108.519 18.9608ZM114.011 12.7784C114.87 12.331 115.381 11.5073 115.586 10.1956C115.801 8.77201 115.371 7.23657 114.532 6.53495C113.571 5.7113 112.16 5.79265 111.219 6.72815C110.063 7.87719 109.961 10.6227 111.035 12.0361C111.291 12.3818 111.894 12.8089 112.252 12.9004C112.753 13.0224 113.643 12.9614 114.011 12.7784Z" fill="white"/>
<path d="M2.79299 14.8539C2.09756 14.559 2.10779 14.5895 2.04642 10.1764C1.99529 6.21069 1.99529 6.21069 1.38167 6.13951C0.583972 6.03782 0.256709 5.89546 0.113532 5.59041C-0.223957 4.83794 0.205575 4.32952 1.20782 4.32952C1.96461 4.32952 2.01574 4.24817 2.06688 3.00762C2.11801 1.75689 2.32255 1.19763 2.89526 0.699374C3.40661 0.251961 4.23499 0.0282543 5.42132 0.0180858C6.45424 0.00791733 7.14967 0.150276 7.56897 0.465499C7.88601 0.709542 7.91669 1.36032 7.62011 1.67555C7.44625 1.87892 7.33376 1.88909 6.37242 1.86875C5.35995 1.83824 5.31905 1.84841 5.05315 2.10262C4.77702 2.37717 4.61339 2.94661 4.61339 3.61773C4.60316 4.18716 4.71566 4.26851 5.56449 4.32952C6.57696 4.42103 6.85309 4.5939 6.85309 5.18367C6.85309 5.80395 6.63832 5.95647 5.6054 6.08866C5.13496 6.14968 4.72588 6.24119 4.68498 6.3022C4.64407 6.36321 4.60316 8.10202 4.60316 10.1561C4.60316 14.2946 4.58271 14.4268 3.96909 14.803C3.58047 15.0369 3.2532 15.0573 2.79299 14.8539Z" fill="white"/>
<path d="M12.529 14.9445C10.7598 14.67 9.2973 13.6735 8.65301 12.3109C8.22347 11.4161 8.07007 10.6738 8.07007 9.46371C8.07007 6.7894 9.24617 5.04043 11.5575 4.26762C12.3449 4.00324 14.2471 4.00324 15.0346 4.26762C17.0493 4.93874 18.297 6.58603 18.3072 8.57906C18.3072 9.30102 18.1129 9.64675 17.5709 9.88062C17.1823 10.0433 16.7425 10.0738 13.9608 10.1247C10.7904 10.1755 10.7904 10.1755 10.7598 10.5416C10.7188 11.05 11.0972 12.0058 11.5472 12.4939C12.0688 13.0735 12.5699 13.2769 13.5006 13.2769C14.4619 13.2769 14.9937 13.043 16.0266 12.1685C16.4357 11.8228 16.8755 11.5076 16.9982 11.4567C17.5709 11.2432 18.1538 11.6194 18.1334 12.199C18.1027 13.1854 16.8959 14.2937 15.3414 14.7513C14.7789 14.914 13.1017 15.0259 12.529 14.9445ZM15.7301 8.31468C15.8221 7.39951 14.9937 6.18946 14.1142 5.94542C12.4881 5.49801 11.0972 6.36233 10.7904 8.00962C10.6575 8.73158 10.5654 8.71125 13.2654 8.68074C15.6994 8.65024 15.6994 8.65024 15.7301 8.31468Z" fill="white"/>
<path d="M21.6004 14.8529C21.3651 14.7513 21.2015 14.5784 21.0583 14.253C20.864 13.8158 20.864 13.5921 20.8845 9.27046C20.9151 4.73532 20.9151 4.73532 21.2526 4.40993C21.539 4.11504 21.6515 4.07437 22.1117 4.08454C22.5719 4.08454 22.6742 4.12521 22.9708 4.46077C23.1958 4.70481 23.3185 4.93869 23.3185 5.12172C23.3185 5.27425 23.3901 5.49795 23.4719 5.60981C23.6457 5.82334 23.5742 5.87419 24.2491 5.00987C24.5457 4.62346 25.323 4.2574 26.1002 4.13538C27.5013 3.91167 28.9331 4.44043 29.4137 5.35559C29.4956 5.51829 29.6285 5.65048 29.7205 5.65048C29.8024 5.65048 30.0887 5.42677 30.3546 5.16239C31.1932 4.30824 32.3489 3.94218 33.5863 4.11504C35.1817 4.34891 36.0715 5.17256 36.3067 6.63682C36.4601 7.51131 36.4396 13.6226 36.2862 14.1106C36.1431 14.5784 35.8158 14.8733 35.3249 14.9648C34.8545 15.0563 34.5272 14.9546 34.1284 14.6089C33.8011 14.314 33.8011 14.314 33.7397 10.9177C33.6988 8.98574 33.6272 7.35878 33.5557 7.11474C33.2182 5.86402 31.4898 5.68098 30.6307 6.80968C30.1296 7.47064 30.058 7.90788 29.9967 11.0398C29.9353 14.1412 29.8842 14.4462 29.4137 14.7513C28.7081 15.219 27.8388 14.9953 27.5013 14.2632C27.3274 13.8768 27.307 13.5616 27.307 10.8161C27.307 9.09759 27.2559 7.58249 27.1945 7.29777C27.1434 7.02322 26.9695 6.64699 26.8059 6.46396C26.5502 6.1589 26.4582 6.11823 25.8957 6.07756C25.1696 6.02671 24.515 6.28093 24.1673 6.74868C23.6764 7.40963 23.6048 7.94855 23.5332 11.1415C23.4617 14.4869 23.4514 14.5682 22.756 14.8631C22.3162 15.036 22.0299 15.036 21.6004 14.8529Z" fill="white"/>
<path d="M40.1316 14.863C39.4669 14.5681 39.4771 14.7104 39.4771 7.54166C39.4771 0.698273 39.4771 0.657599 39.9475 0.240691C40.4793 -0.21689 41.4202 0.00681631 41.7475 0.667767C41.9111 0.972821 41.9316 1.33889 41.9316 3.34208C41.9316 5.65032 41.9316 5.65032 42.1668 5.65032C42.31 5.65032 42.4736 5.51813 42.6372 5.29442C43.4758 4.06404 45.7462 3.69797 47.5052 4.52162C48.3438 4.90802 48.9677 5.5283 49.4177 6.43329C49.8983 7.38913 50.0517 8.30429 49.9802 9.86007C49.9393 10.8667 49.8779 11.2328 49.6529 11.8531C49.1109 13.3072 48.2723 14.2427 47.0655 14.7206C46.2064 15.0562 44.6621 15.0358 43.8644 14.6799C43.1997 14.3749 42.5452 13.8359 42.5452 13.5817C42.5452 13.3479 42.2793 13.1343 42.085 13.2157C41.9929 13.2462 41.9316 13.3987 41.9316 13.5817C41.9316 14.0698 41.6657 14.5782 41.2975 14.8019C40.9089 15.0358 40.5816 15.0562 40.1316 14.863ZM45.9201 12.7174C46.4314 12.453 47.0041 11.7006 47.1984 11.0193C47.4439 10.1956 47.4439 8.76187 47.2189 7.96873C46.9019 6.92138 46.1144 6.12824 45.2451 5.99605C43.9156 5.80285 42.9338 6.42312 42.3611 7.8162C42.1463 8.34496 42.1054 8.60934 42.1054 9.4635C42.0952 10.7752 42.2997 11.4565 42.8622 12.0971C43.0974 12.3615 43.4247 12.6462 43.5985 12.7276C44.2633 13.0733 45.2349 13.0631 45.9201 12.7174Z" fill="white"/>
<path d="M56.2492 14.9036C54.0811 14.4969 52.5572 13.0224 52.1072 10.887C51.5652 8.25341 52.5675 5.76214 54.6129 4.69445C55.8401 4.05383 57.5684 3.8708 58.9593 4.23686C60.2377 4.58259 61.4547 5.52826 62.0581 6.64679C62.5285 7.52128 62.7024 8.28392 62.7024 9.5143C62.7024 11.2531 62.2422 12.4733 61.2195 13.4902C60.5854 14.1206 60.0434 14.446 59.1945 14.7104C58.4684 14.9341 56.9446 15.0358 56.2492 14.9036ZM58.4786 12.8089C59.4093 12.3513 59.8491 11.6192 60.0536 10.2363C60.3297 8.28392 59.5422 6.52477 58.2025 6.06719C57.5889 5.86382 56.7605 5.92483 56.1776 6.20955C55.206 6.69763 54.7151 7.6433 54.6333 9.20925C54.5106 11.5785 55.5537 13.0733 57.323 13.0733C57.7934 13.0733 58.0798 13.0021 58.4786 12.8089Z" fill="white"/>
<path d="M86.6438 14.8933C85.6517 14.7814 84.537 14.2628 83.8825 13.612C82.8496 12.585 82.3893 11.3546 82.3893 9.61582C82.3996 7.22623 83.32 5.52809 85.0893 4.64344C86.9915 3.69777 89.4971 3.8808 91.1436 5.09085C91.7266 5.51793 92.33 6.38225 92.422 6.90084C92.5447 7.65331 92.0436 8.19223 91.2459 8.19223C90.8777 8.19223 90.7857 8.14139 90.438 7.71432C90.2232 7.44994 89.8346 7.02286 89.5687 6.75848C88.1676 5.33489 85.887 5.97551 85.2324 7.95836C84.9768 8.74133 84.9665 10.2564 85.2222 11.0597C85.6006 12.2698 86.6029 13.0731 87.7483 13.0629C88.8426 13.0629 89.538 12.6359 90.2641 11.5478C90.8777 10.6327 91.3379 10.3988 91.9618 10.7038C92.3606 10.897 92.5549 11.2326 92.5549 11.741C92.5549 12.341 92.2584 12.9104 91.6345 13.5409C90.5402 14.639 88.7096 15.1271 86.6438 14.8933Z" fill="white"/>
<path d="M97.4025 14.9343C97.2389 14.914 96.7991 14.7513 96.4412 14.5683C95.2856 13.9988 94.7231 12.9922 94.8253 11.7008C94.9174 10.6737 95.4492 9.9111 96.4617 9.40268C96.6866 9.29083 97.6991 9.01628 98.7218 8.79257C99.7445 8.57903 100.91 8.31465 101.299 8.21297C102.015 8.02994 102.015 8.02994 102.046 7.59269C102.086 7.09444 101.759 6.3318 101.411 6.09793C101.013 5.84371 100.072 5.73186 99.3354 5.84371C98.4764 5.9759 97.9957 6.29113 97.3923 7.13511C96.881 7.82657 96.656 7.95876 96.1139 7.8469C95.5719 7.73505 95.3162 7.41983 95.3162 6.85039C95.3162 6.24029 95.5821 5.70136 96.1242 5.21327C96.9423 4.48114 97.9343 4.14558 99.5195 4.05406C101.534 3.94221 103.211 4.38962 103.907 5.22344C104.51 5.95557 104.633 6.61652 104.674 9.46369C104.705 11.3347 104.756 12.1787 104.878 12.6668C105.165 13.8666 105.185 14.2124 104.93 14.5174C104.643 14.8835 103.989 15.0665 103.59 14.8937C103.263 14.7615 102.761 14.2429 102.526 13.7853C102.434 13.6124 102.301 13.4802 102.209 13.4802C102.127 13.4802 101.821 13.6633 101.524 13.887C100.338 14.7716 98.9468 15.1275 97.4025 14.9343ZM100.225 13.1548C101.115 12.8803 101.892 12.0261 102.015 11.2025C102.056 10.9788 102.066 10.511 102.046 10.1755C102.015 9.63655 101.994 9.56537 101.81 9.58571C101.636 9.60605 100.593 9.86026 98.7013 10.3483C97.4128 10.6839 97.0037 11.9855 97.9139 12.86C98.4355 13.3684 99.2229 13.4599 100.225 13.1548Z" fill="white"/>
<path d="M121.65 14.904C121.538 14.8633 121.333 14.7006 121.19 14.5481C120.935 14.2736 120.935 14.2736 120.904 9.55538C120.873 4.84738 120.873 4.84738 121.211 4.48132C121.824 3.8102 122.837 3.94239 123.256 4.73553C123.43 5.06092 123.44 5.41682 123.44 9.49437C123.44 13.4092 123.42 13.9482 123.266 14.2634C122.98 14.8735 122.254 15.1582 121.65 14.904Z" fill="white"/>
<path d="M128.86 14.8632C128.185 14.6903 127.654 14.3242 127.439 13.8972C127.091 13.2362 127.02 12.4227 127.02 9.30101C127.02 5.9149 127.071 6.11827 126.273 6.0776C125.526 6.03693 125.189 4.95907 125.782 4.54216C125.946 4.42014 126.232 4.32862 126.426 4.32862C126.979 4.32862 127.02 4.21677 127.02 2.85419C127.02 1.3696 127.122 0.962857 127.572 0.617128C127.96 0.322243 128.421 0.291737 128.901 0.515444C129.454 0.779824 129.525 0.983194 129.576 2.63049C129.638 4.34896 129.617 4.32862 130.517 4.32862C130.834 4.32862 131.213 4.37946 131.356 4.44048C131.683 4.593 131.867 5.04041 131.775 5.44715C131.683 5.84372 131.346 6.00642 130.374 6.1081C129.801 6.16912 129.689 6.20979 129.638 6.40299C129.546 6.72838 129.576 10.8771 129.668 11.7923C129.791 12.921 129.914 13.0227 131.172 12.9312C132.061 12.86 132.123 12.8701 132.399 13.104C132.91 13.5413 132.706 14.2937 131.99 14.6395C131.233 14.9954 129.73 15.097 128.86 14.8632Z" fill="white"/>
<path d="M136.06 14.9343C135.897 14.914 135.457 14.7513 135.099 14.5683C133.943 13.9988 133.381 12.9922 133.483 11.7008C133.575 10.6737 134.107 9.9111 135.119 9.40268C135.344 9.29083 136.357 9.01628 137.38 8.79257C138.402 8.57903 139.568 8.31465 139.957 8.21297C140.673 8.02994 140.673 8.02994 140.703 7.59269C140.744 7.09444 140.417 6.3318 140.069 6.09793C139.67 5.84371 138.73 5.73186 137.993 5.84371C137.134 5.9759 136.654 6.29113 136.05 7.13511C135.539 7.82657 135.314 7.95876 134.772 7.8469C134.23 7.73505 133.974 7.41983 133.974 6.85039C133.974 6.24029 134.24 5.70136 134.782 5.21327C135.6 4.48114 136.592 4.14558 138.177 4.05406C140.192 3.94221 141.869 4.38962 142.565 5.22344C143.168 5.95557 143.291 6.61652 143.332 9.46369C143.362 11.3347 143.414 12.1787 143.536 12.6668C143.823 13.8666 143.843 14.2124 143.587 14.5174C143.301 14.8835 142.647 15.0665 142.248 14.8937C141.92 14.7615 141.419 14.2429 141.184 13.7853C141.092 13.6124 140.959 13.4802 140.867 13.4802C140.785 13.4802 140.478 13.6633 140.182 13.887C138.995 14.7716 137.605 15.1275 136.06 14.9343ZM138.883 13.1548C139.773 12.8803 140.55 12.0261 140.673 11.2025C140.714 10.9788 140.724 10.511 140.703 10.1755C140.673 9.63655 140.652 9.56537 140.468 9.58571C140.294 9.60605 139.251 9.86026 137.359 10.3483C136.071 10.6839 135.661 11.9855 136.572 12.86C137.093 13.3684 137.881 13.4599 138.883 13.1548Z" fill="white"/>
<path d="M147.218 14.9139C147.105 14.8631 146.901 14.7004 146.758 14.5479C146.502 14.2733 146.502 14.2733 146.471 7.60279C146.461 2.41687 146.481 0.871262 146.574 0.678061C146.911 0.0476152 147.821 -0.186259 148.414 0.200143C149.018 0.596713 149.008 0.454354 148.997 7.45027C148.997 14.2733 148.987 14.3547 148.486 14.7207C148.189 14.9444 147.525 15.0461 147.218 14.9139Z" fill="white"/>
<path d="M121.538 2.49793C121.129 2.33524 120.884 1.89799 120.884 1.34889C120.884 0.901479 120.924 0.809963 121.252 0.504908C121.548 0.220191 121.692 0.15918 122.07 0.15918C122.612 0.15918 123.041 0.352381 123.277 0.708278C123.604 1.20653 123.42 2.09119 122.909 2.43692C122.663 2.60978 121.896 2.64029 121.538 2.49793Z" fill="white"/>
</svg>
