<svg width="72" height="72" viewBox="0 0 72 72" fill="none" xmlns="http://www.w3.org/2000/svg">
<g clip-path="url(#clip0)" filter="url(#filter0_d)">
<path d="M56.1853 13.4314L54.428 15.1887C58.6211 19.7742 60.9464 25.7629 60.9464 31.9765C60.9464 38.1901 58.6211 44.1788 54.428 48.7644L56.1853 50.5216C60.8485 45.4635 63.4375 38.8357 63.4375 31.956C63.4375 25.0763 60.8485 18.4485 56.1853 13.3904V13.4314Z" fill="#5A5564"/>
<path d="M19.2297 13.5837C23.8152 9.39055 29.8039 7.06523 36.0175 7.06523C42.2312 7.06523 48.2199 9.39055 52.8054 13.5837L54.5626 11.8264C49.5045 7.1632 42.8767 4.57422 35.997 4.57422C29.1173 4.57422 22.4895 7.1632 17.4314 11.8264L19.2297 13.5837Z" fill="#5A5564"/>
<path d="M17.5838 48.7819C13.3956 44.1975 11.0734 38.2124 11.0734 32.0029C11.0734 25.7934 13.3956 19.8083 17.5838 15.2238L15.8265 13.4666C11.1633 18.5247 8.57434 25.1525 8.57434 32.0322C8.57434 38.9119 11.1633 45.5397 15.8265 50.5978L17.5838 48.7819Z" fill="#5A5564"/>
<path d="M52.7819 50.4045C48.1964 54.5977 42.2077 56.923 35.9941 56.923C29.7805 56.923 23.7918 54.5977 19.2063 50.4045L17.449 52.1618C22.5071 56.825 29.1349 59.414 36.0146 59.414C42.8943 59.414 49.5221 56.825 54.5802 52.1618L52.7819 50.4045Z" fill="#5A5564"/>
<path d="M47.0942 26.1365C46.7428 22.4696 43.5797 21.2396 39.5789 20.8647V15.8154H36.4861V20.7709C35.6719 20.7709 34.8402 20.7709 34.0142 20.7709V15.8154H30.9449V20.8998H24.6714V24.2094C24.6714 24.2094 26.9558 24.1683 26.9207 24.2094C27.3326 24.164 27.746 24.2804 28.0738 24.5339C28.4016 24.7874 28.6182 25.1583 28.678 25.5683V39.4859C28.6692 39.6306 28.6315 39.7719 28.5671 39.9017C28.5027 40.0315 28.4129 40.1471 28.3031 40.2416C28.1953 40.3379 28.0692 40.4114 27.9323 40.4577C27.7954 40.504 27.6506 40.5221 27.5065 40.511C27.5475 40.5462 25.2571 40.511 25.2571 40.511L24.6714 44.2072H30.8863V49.3735H33.9791V44.2833H36.451V49.3501H39.5497V44.2423C44.7746 43.926 48.418 42.6373 48.8749 37.7462C49.244 33.8099 47.393 32.0527 44.4349 31.3439C46.2332 30.4594 47.3461 28.8193 47.0942 26.1365ZM42.7596 37.137C42.7596 40.9796 36.1757 40.5403 34.0787 40.5403V33.7221C36.1757 33.7279 42.7596 33.1246 42.7596 37.137ZM41.3245 27.5306C41.3245 31.0452 35.8301 30.6176 34.0845 30.6176V24.4202C35.8301 24.4202 41.3245 23.8696 41.3245 27.5306Z" fill="#F09242"/>
<path d="M35.9942 64C29.6657 63.9989 23.4796 62.1213 18.2181 58.6046C12.9566 55.088 8.85603 50.0902 6.43475 44.2432C4.01347 38.3962 3.38026 31.9625 4.61517 25.7557C5.85009 19.5488 8.89767 13.8475 13.3726 9.3726C17.8475 4.89767 23.5488 1.85009 29.7557 0.615171C35.9625 -0.619743 42.3962 0.0134704 48.2432 2.43475C54.0902 4.85603 59.088 8.95664 62.6046 14.2181C66.1213 19.4796 67.9989 25.6657 68 31.9942C68.0008 36.1974 67.1735 40.3597 65.5653 44.2432C63.9571 48.1267 61.5996 51.6553 58.6274 54.6274C55.6553 57.5996 52.1267 59.9571 48.2432 61.5653C44.3597 63.1735 40.1974 64.0008 35.9942 64ZM35.9942 2.49535C30.1637 2.49998 24.4654 4.23301 19.6196 7.47539C14.7738 10.7178 10.998 15.324 8.76946 20.7117C6.5409 26.0995 5.95962 32.0271 7.09908 37.7451C8.23854 43.4632 11.0476 48.7151 15.1712 52.8371C19.2948 56.9591 24.5478 59.766 30.2664 60.9032C35.9849 62.0404 41.9122 61.4568 47.2991 59.2261C52.686 56.9954 57.2907 53.2178 60.5311 48.3707C63.7716 43.5236 65.5024 37.8247 65.5047 31.9942C65.5062 28.1189 64.7439 24.2813 63.2612 20.7009C61.7786 17.1205 59.6047 13.8674 56.864 11.1278C54.1232 8.38809 50.8693 6.21553 47.2883 4.73431C43.7073 3.25309 39.8694 2.49227 35.9942 2.49535Z" fill="#282138"/>
</g>
<defs>
<filter id="filter0_d" x="0" y="0" width="72" height="72" filterUnits="userSpaceOnUse" color-interpolation-filters="sRGB">
<feFlood flood-opacity="0" result="BackgroundImageFix"/>
<feColorMatrix in="SourceAlpha" type="matrix" values="0 0 0 0 0 0 0 0 0 0 0 0 0 0 0 0 0 0 127 0" result="hardAlpha"/>
<feOffset dy="4"/>
<feGaussianBlur stdDeviation="2"/>
<feComposite in2="hardAlpha" operator="out"/>
<feColorMatrix type="matrix" values="0 0 0 0 0 0 0 0 0 0 0 0 0 0 0 0 0 0 0.25 0"/>
<feBlend mode="normal" in2="BackgroundImageFix" result="effect1_dropShadow"/>
<feBlend mode="normal" in="SourceGraphic" in2="effect1_dropShadow" result="shape"/>
</filter>
<clipPath id="clip0">
<rect width="64" height="64" fill="white" transform="translate(4)"/>
</clipPath>
</defs>
</svg>
