<svg width="80" height="80" viewBox="0 0 80 80" fill="none" xmlns="http://www.w3.org/2000/svg">
<circle opacity="0.1" cx="40" cy="40" r="40" fill="white"/>
<path d="M45.9875 25.0453C44.4672 23.4039 42.3437 22.5 40 22.5C37.6437 22.5 35.5132 23.3984 34 25.0297C32.4703 26.6789 31.725 28.9203 31.9 31.3406C32.2468 36.1156 35.8804 40 40 40C44.1195 40 47.7468 36.1164 48.0992 31.3422C48.2765 28.9437 47.5265 26.707 45.9875 25.0453Z" fill="#fff"/>
<path d="M53.7498 57.5H26.2498C25.8899 57.5047 25.5334 57.4291 25.2064 57.2786C24.8793 57.1282 24.5899 56.9068 24.3592 56.6305C23.8514 56.0234 23.6467 55.1945 23.7983 54.3562C24.4576 50.6984 26.5155 47.6258 29.7498 45.4687C32.6233 43.5539 36.2631 42.5 39.9998 42.5C43.7366 42.5 47.3764 43.5547 50.2498 45.4687C53.4842 47.625 55.542 50.6977 56.2014 54.3555C56.353 55.1937 56.1483 56.0227 55.6405 56.6297C55.4098 56.9062 55.1205 57.1277 54.7934 57.2783C54.4664 57.4288 54.1098 57.5046 53.7498 57.5Z" fill="#fff"/>
</svg>
