<svg width="251" height="55" viewBox="0 0 251 55" fill="none" xmlns="http://www.w3.org/2000/svg">
<path d="M240 1H11C5.47715 1 1 5.47715 1 11V44C1 49.5228 5.47715 54 11 54H240C245.523 54 250 49.5228 250 44V11C250 5.47715 245.523 1 240 1Z" fill="#F4FDFF" stroke="#2E69C3"/>
<path d="M54.1855 13.0312H58.7778V14.1694H55.5303V15.6592H58.3735V16.7842H55.5303V19.5H54.1855V13.0312ZM64.4775 14.1694H61.0498V15.5449H64.1963V16.6699H61.0498V18.3354H64.6357V19.5H59.7271V13.0225H64.4775V14.1694ZM67.4614 17.0522H69.105L68.2964 14.5034L67.4614 17.0522ZM67.5449 13.0225H69.0742L71.3682 19.5H69.9004L69.4829 18.1685H67.0967L66.6484 19.5H65.2334L67.5449 13.0225ZM76.2329 13.0225V14.1694H74.2949V19.5H72.9326V14.1694H70.9858V13.0225H76.2329ZM77.0283 13.0225H78.4038V17.0039C78.4038 17.4492 78.4565 17.7744 78.562 17.9795C78.7261 18.3428 79.0835 18.5244 79.6343 18.5244C80.1821 18.5244 80.5381 18.3428 80.7021 17.9795C80.8076 17.7744 80.8604 17.4492 80.8604 17.0039V13.0225H82.2358V17.0039C82.2358 17.6924 82.1289 18.2285 81.915 18.6123C81.5166 19.3154 80.7563 19.667 79.6343 19.667C78.5122 19.667 77.7505 19.3154 77.3491 18.6123C77.1353 18.2285 77.0283 17.6924 77.0283 17.0039V13.0225ZM84.8857 14.1475V15.8877H86.4194C86.7241 15.8877 86.9526 15.8525 87.105 15.7822C87.3745 15.6592 87.5093 15.416 87.5093 15.0527C87.5093 14.6602 87.3789 14.3965 87.1182 14.2617C86.9717 14.1855 86.752 14.1475 86.459 14.1475H84.8857ZM86.7402 13.0225C87.1943 13.0312 87.543 13.0869 87.7861 13.1895C88.0322 13.292 88.2402 13.4429 88.4102 13.6421C88.5508 13.8062 88.6621 13.9878 88.7441 14.187C88.8262 14.3862 88.8672 14.6133 88.8672 14.8682C88.8672 15.1758 88.7896 15.479 88.6343 15.7778C88.479 16.0737 88.2227 16.2832 87.8652 16.4062C88.1641 16.5264 88.375 16.6978 88.498 16.9204C88.624 17.1401 88.687 17.4771 88.687 17.9312V18.3662C88.687 18.6621 88.6987 18.8628 88.7222 18.9683C88.7573 19.1353 88.8394 19.2583 88.9683 19.3374V19.5H87.4785C87.4375 19.3564 87.4082 19.2407 87.3906 19.1528C87.3555 18.9712 87.3364 18.7852 87.3335 18.5947L87.3247 17.9927C87.3188 17.5796 87.2427 17.3042 87.0962 17.1665C86.9526 17.0288 86.6816 16.96 86.2832 16.96H84.8857V19.5H83.563V13.0225H86.7402ZM94.8262 14.1694H91.3984V15.5449H94.5449V16.6699H91.3984V18.3354H94.9844V19.5H90.0757V13.0225H94.8262V14.1694ZM97.353 14.1475V18.375H98.6011C99.2397 18.375 99.6851 18.0601 99.937 17.4302C100.075 17.0845 100.144 16.6729 100.144 16.1953C100.144 15.5361 100.04 15.0308 99.8315 14.6792C99.6265 14.3247 99.2163 14.1475 98.6011 14.1475H97.353ZM98.8296 13.0225C99.231 13.0283 99.5649 13.0752 99.8315 13.1631C100.286 13.3125 100.653 13.5864 100.935 13.9849C101.16 14.3071 101.314 14.6558 101.396 15.0308C101.478 15.4058 101.519 15.7632 101.519 16.103C101.519 16.9644 101.346 17.6938 101 18.2915C100.532 19.0972 99.8081 19.5 98.8296 19.5H96.0391V13.0225H98.8296ZM107.913 18.5332C108.449 18.5332 108.874 18.3354 109.188 17.9399C109.504 17.5444 109.662 16.9819 109.662 16.2524C109.662 15.5259 109.504 14.9648 109.188 14.5693C108.874 14.1709 108.449 13.9717 107.913 13.9717C107.377 13.9717 106.949 14.1694 106.63 14.5649C106.311 14.9604 106.151 15.5229 106.151 16.2524C106.151 16.9819 106.311 17.5444 106.63 17.9399C106.949 18.3354 107.377 18.5332 107.913 18.5332ZM111.016 16.2524C111.016 17.4155 110.689 18.3062 110.036 18.9243C109.546 19.4282 108.839 19.6802 107.913 19.6802C106.987 19.6802 106.28 19.4282 105.791 18.9243C105.134 18.3062 104.806 17.4155 104.806 16.2524C104.806 15.0659 105.134 14.1753 105.791 13.5806C106.28 13.0767 106.987 12.8247 107.913 12.8247C108.839 12.8247 109.546 13.0767 110.036 13.5806C110.689 14.1753 111.016 15.0659 111.016 16.2524ZM112.031 13.0225H113.45L116.03 17.5444V13.0225H117.291V19.5H115.938L113.292 14.8989V19.5H112.031V13.0225Z" fill="#2E69C3"/>
<path d="M62.6104 28.1948C62.6104 27.4087 62.4019 26.8481 61.9849 26.5132C61.5747 26.1782 60.9971 26.0107 60.252 26.0107H57.3091V30.4609H60.252C60.9971 30.4609 61.5747 30.2798 61.9849 29.9175C62.4019 29.5552 62.6104 28.981 62.6104 28.1948ZM65.7378 28.1743C65.7378 29.9585 65.2866 31.2197 64.3843 31.958C63.4819 32.6963 62.1934 33.0654 60.5186 33.0654H57.3091V38.5H54.1714V23.3857H60.7544C62.272 23.3857 63.4819 23.7754 64.3843 24.5547C65.2866 25.334 65.7378 26.5405 65.7378 28.1743ZM73.9409 27.0566C73.9956 27.0566 74.04 27.0601 74.0742 27.0669C74.1152 27.0669 74.2007 27.0703 74.3306 27.0771V30.0713C74.146 30.0508 73.9819 30.0371 73.8384 30.0303C73.6948 30.0234 73.5786 30.02 73.4897 30.02C72.314 30.02 71.5244 30.4028 71.1211 31.1685C70.8955 31.5991 70.7827 32.2622 70.7827 33.1577V38.5H67.8398V27.3232H70.6289V29.2715C71.0801 28.5264 71.4731 28.0171 71.8081 27.7437C72.355 27.2856 73.0659 27.0566 73.9409 27.0566ZM81.0674 36.439C81.9219 36.439 82.5781 36.1348 83.0361 35.5264C83.4941 34.918 83.7231 34.0532 83.7231 32.9321C83.7231 31.811 83.4941 30.9497 83.0361 30.3481C82.5781 29.7397 81.9219 29.4355 81.0674 29.4355C80.2129 29.4355 79.5532 29.7397 79.0884 30.3481C78.6304 30.9497 78.4014 31.811 78.4014 32.9321C78.4014 34.0532 78.6304 34.918 79.0884 35.5264C79.5532 36.1348 80.2129 36.439 81.0674 36.439ZM86.7891 32.9321C86.7891 34.5728 86.3174 35.9775 85.374 37.1465C84.4307 38.3086 82.9985 38.8896 81.0776 38.8896C79.1567 38.8896 77.7246 38.3086 76.7812 37.1465C75.8379 35.9775 75.3662 34.5728 75.3662 32.9321C75.3662 31.3188 75.8379 29.9209 76.7812 28.7383C77.7246 27.5557 79.1567 26.9644 81.0776 26.9644C82.9985 26.9644 84.4307 27.5557 85.374 28.7383C86.3174 29.9209 86.7891 31.3188 86.7891 32.9321ZM93.0132 27.0566C93.6899 27.0566 94.2915 27.207 94.8179 27.5078C95.3442 27.8018 95.7715 28.2119 96.0996 28.7383V23.4062H99.063V38.5H96.2227V36.9517C95.8057 37.6147 95.3306 38.0967 94.7974 38.3975C94.2642 38.6982 93.6011 38.8486 92.8081 38.8486C91.5024 38.8486 90.4019 38.3223 89.5063 37.2695C88.6177 36.21 88.1733 34.853 88.1733 33.1987C88.1733 31.2915 88.6108 29.791 89.4858 28.6973C90.3677 27.6035 91.5435 27.0566 93.0132 27.0566ZM93.6489 36.3877C94.4761 36.3877 95.105 36.0801 95.5356 35.4648C95.9663 34.8496 96.1816 34.0532 96.1816 33.0757C96.1816 31.7085 95.8364 30.731 95.146 30.1431C94.7222 29.7876 94.23 29.6099 93.6694 29.6099C92.8149 29.6099 92.186 29.9346 91.7827 30.584C91.3862 31.2266 91.188 32.0264 91.188 32.9834C91.188 34.0156 91.3896 34.8428 91.793 35.4648C92.2031 36.0801 92.8218 36.3877 93.6489 36.3877ZM104.641 27.3232V34.0601C104.641 34.6958 104.716 35.1743 104.867 35.4956C105.133 36.063 105.656 36.3467 106.436 36.3467C107.434 36.3467 108.117 35.9434 108.486 35.1367C108.678 34.6992 108.773 34.1216 108.773 33.4038V27.3232H111.737V38.5H108.896V36.9209C108.869 36.9551 108.801 37.0576 108.691 37.2285C108.582 37.3994 108.452 37.5498 108.302 37.6797C107.844 38.0898 107.399 38.3701 106.969 38.5205C106.545 38.6709 106.046 38.7461 105.472 38.7461C103.817 38.7461 102.703 38.1514 102.129 36.9619C101.808 36.3057 101.647 35.3384 101.647 34.0601V27.3232H104.641ZM121.242 31.3325C121.188 30.9155 121.047 30.5396 120.822 30.2046C120.494 29.7534 119.984 29.5278 119.294 29.5278C118.31 29.5278 117.636 30.0166 117.274 30.9941C117.083 31.5137 116.987 32.2041 116.987 33.0654C116.987 33.8857 117.083 34.5454 117.274 35.0444C117.623 35.9741 118.279 36.439 119.243 36.439C119.926 36.439 120.412 36.2544 120.699 35.8853C120.986 35.5161 121.16 35.0376 121.222 34.4497H124.206C124.137 35.3384 123.816 36.1792 123.242 36.9722C122.326 38.2505 120.969 38.8896 119.171 38.8896C117.373 38.8896 116.05 38.3564 115.203 37.29C114.355 36.2236 113.931 34.8394 113.931 33.1372C113.931 31.2163 114.399 29.7227 115.336 28.6562C116.272 27.5898 117.564 27.0566 119.212 27.0566C120.613 27.0566 121.758 27.3711 122.647 28C123.542 28.6289 124.072 29.7397 124.236 31.3325H121.242ZM125.108 29.5073V27.4258H126.667V24.3086H129.558V27.4258H131.373V29.5073H129.558V35.4136C129.558 35.8716 129.616 36.1587 129.732 36.2749C129.849 36.3843 130.204 36.439 130.799 36.439C130.888 36.439 130.98 36.439 131.076 36.439C131.178 36.4321 131.277 36.4253 131.373 36.4185V38.6025L129.989 38.6538C128.608 38.7017 127.665 38.4624 127.159 37.936C126.831 37.6011 126.667 37.085 126.667 36.3877V29.5073H125.108ZM139.31 38.5V23.3857H142.437V29.1484H148.343V23.3857H151.481V38.5H148.343V31.7529H142.437V38.5H139.31ZM157.182 27.3232V34.0601C157.182 34.6958 157.257 35.1743 157.408 35.4956C157.674 36.063 158.197 36.3467 158.977 36.3467C159.975 36.3467 160.658 35.9434 161.027 35.1367C161.219 34.6992 161.314 34.1216 161.314 33.4038V27.3232H164.278V38.5H161.438V36.9209C161.41 36.9551 161.342 37.0576 161.232 37.2285C161.123 37.3994 160.993 37.5498 160.843 37.6797C160.385 38.0898 159.94 38.3701 159.51 38.5205C159.086 38.6709 158.587 38.7461 158.013 38.7461C156.358 38.7461 155.244 38.1514 154.67 36.9619C154.349 36.3057 154.188 35.3384 154.188 34.0601V27.3232H157.182ZM173.301 27.0566C174.457 27.0566 175.4 27.3608 176.131 27.9692C176.87 28.5708 177.239 29.5723 177.239 30.9736V38.5H174.245V31.7017C174.245 31.1138 174.166 30.6626 174.009 30.3481C173.722 29.7739 173.175 29.4868 172.368 29.4868C171.377 29.4868 170.697 29.9072 170.328 30.748C170.136 31.1924 170.041 31.7598 170.041 32.4502V38.5H167.128V27.3438H169.948V28.9741C170.324 28.3999 170.68 27.9863 171.015 27.7334C171.616 27.2822 172.378 27.0566 173.301 27.0566ZM178.797 29.5073V27.4258H180.356V24.3086H183.248V27.4258H185.062V29.5073H183.248V35.4136C183.248 35.8716 183.306 36.1587 183.422 36.2749C183.538 36.3843 183.894 36.439 184.488 36.439C184.577 36.439 184.669 36.439 184.765 36.439C184.868 36.4321 184.967 36.4253 185.062 36.4185V38.6025L183.678 38.6538C182.297 38.7017 181.354 38.4624 180.848 37.936C180.52 37.6011 180.356 37.085 180.356 36.3877V29.5073H178.797Z" fill="#2E69C3"/>
<path fill-rule="evenodd" clip-rule="evenodd" d="M227.503 23.5H216.5L222.001 13.5L227.503 23.5Z" fill="#2E69C3"/>
<path d="M214.306 39.5C214.323 38.8398 214.465 38.2368 214.732 37.6909C214.99 37.0773 215.599 36.4277 216.56 35.7422C217.393 35.1455 217.933 34.7181 218.178 34.46C218.555 34.0579 218.743 33.6178 218.743 33.1396C218.743 32.7503 218.635 32.4266 218.42 32.1685C218.204 31.9103 217.895 31.7812 217.493 31.7812C216.943 31.7812 216.568 31.9865 216.369 32.397C216.255 32.634 216.187 33.0106 216.166 33.5269H214.408C214.437 32.744 214.579 32.1113 214.833 31.6289C215.316 30.7106 216.172 30.2515 217.404 30.2515C218.377 30.2515 219.152 30.5223 219.727 31.064C220.303 31.6014 220.59 32.3145 220.59 33.2031C220.59 33.8844 220.387 34.4896 219.981 35.0186C219.714 35.3698 219.276 35.7612 218.667 36.1929L217.943 36.707C217.491 37.0286 217.18 37.2614 217.01 37.4053C216.845 37.5492 216.706 37.7163 216.591 37.9067H220.609V39.5H214.306ZM223.358 36.8276C223.358 37.2804 223.474 37.6317 223.707 37.8813C223.944 38.131 224.27 38.2559 224.685 38.2559C225.099 38.2559 225.423 38.131 225.656 37.8813C225.893 37.6317 226.011 37.2804 226.011 36.8276C226.011 36.3579 225.891 36.0024 225.65 35.7612C225.413 35.5158 225.091 35.3931 224.685 35.3931C224.278 35.3931 223.955 35.5158 223.714 35.7612C223.477 36.0024 223.358 36.3579 223.358 36.8276ZM221.479 36.9482C221.479 36.432 221.595 35.9644 221.828 35.5454C222.065 35.1265 222.41 34.8112 222.863 34.5996C222.419 34.3034 222.129 33.9839 221.993 33.6411C221.862 33.2941 221.797 32.9704 221.797 32.6699C221.797 32.0013 222.048 31.4321 222.552 30.9624C223.055 30.4884 223.766 30.2515 224.685 30.2515C225.603 30.2515 226.314 30.4884 226.818 30.9624C227.321 31.4321 227.573 32.0013 227.573 32.6699C227.573 32.9704 227.505 33.2941 227.37 33.6411C227.239 33.9839 226.951 34.2822 226.506 34.5361C226.959 34.79 227.3 35.1265 227.528 35.5454C227.757 35.9644 227.871 36.432 227.871 36.9482C227.871 37.7227 227.583 38.3828 227.008 38.9287C226.437 39.4704 225.637 39.7412 224.609 39.7412C223.58 39.7412 222.802 39.4704 222.273 38.9287C221.744 38.3828 221.479 37.7227 221.479 36.9482ZM223.523 32.873C223.523 33.2074 223.625 33.4803 223.828 33.6919C224.035 33.9035 224.321 34.0093 224.685 34.0093C225.053 34.0093 225.336 33.9035 225.535 33.6919C225.738 33.4803 225.84 33.2074 225.84 32.873C225.84 32.5091 225.738 32.2256 225.535 32.0225C225.336 31.8151 225.053 31.7114 224.685 31.7114C224.321 31.7114 224.035 31.8151 223.828 32.0225C223.625 32.2256 223.523 32.5091 223.523 32.873Z" fill="#2E69C3"/>
<path fill-rule="evenodd" clip-rule="evenodd" d="M42.5 28C42.5 36.5604 35.5604 43.5 27 43.5C18.4396 43.5 11.5 36.5604 11.5 28C11.5 19.4396 18.4396 12.5 27 12.5C35.5604 12.5 42.5 19.4396 42.5 28Z" fill="#2E69C3"/>
<path fill-rule="evenodd" clip-rule="evenodd" d="M28.9329 28.4561V28.4562H24.5929V23.8062H28.9329V23.8061C30.2019 23.8061 31.2306 24.847 31.2306 26.1311C31.2306 27.4151 30.2019 28.4561 28.9329 28.4561ZM28.9329 20.7061V20.7062L21.5294 20.7061V36.2061H24.5929V31.5562H28.9329V31.5561C31.8938 31.5561 34.2941 29.1272 34.2941 26.1311C34.2941 23.1349 31.8938 20.7061 28.9329 20.7061Z" fill="#F4FDFF"/>
</svg>
