<svg width="148" height="28" viewBox="0 0 148 28" fill="none" xmlns="http://www.w3.org/2000/svg">
<path d="M10.3077 21.7432L10.247 19.6795C9.51504 20.4282 8.64838 21.0337 7.69197 21.4646C6.83139 21.8295 5.90504 22.0161 4.96951 22.0129C4.20394 22.0304 3.44102 21.9172 2.71388 21.6783C2.13921 21.4842 1.61346 21.1689 1.17259 20.7541C0.771884 20.369 0.467359 19.896 0.283377 19.3729C0.0898511 18.8205 -0.00640959 18.239 -0.00117039 17.6541C-0.00117039 16.1181 0.574346 14.9153 1.72538 14.0456C2.87641 13.1759 4.57628 12.741 6.82499 12.741H10.0173V11.3981C10.0173 10.4921 9.72579 9.76732 9.14287 9.22388C8.55994 8.68044 7.66974 8.40626 6.47227 8.40135C5.60721 8.40262 4.74509 8.50152 3.90246 8.69616C3.01155 8.90545 2.13768 9.18089 1.28818 9.52017V7.1248C1.6246 7.00245 2.00103 6.88305 2.41451 6.7666C2.828 6.65015 3.26667 6.54549 3.7261 6.4541C4.18552 6.3627 4.66718 6.289 5.1681 6.23298C5.67248 6.17679 6.17963 6.14874 6.68717 6.14896C7.53689 6.13852 8.38421 6.24114 9.20659 6.4541C9.89536 6.62932 10.5396 6.94618 11.0976 7.38423C11.6148 7.80498 12.0216 8.34417 12.2833 8.9556C12.5735 9.6624 12.7143 10.4211 12.6967 11.1844V21.7432H10.3077ZM10.0113 14.7693H6.6264C6.04699 14.759 5.46881 14.826 4.90726 14.9683C4.47762 15.0745 4.07422 15.2666 3.72165 15.5329C3.42401 15.7668 3.1897 16.0707 3.03993 16.4174C2.88694 16.7823 2.81127 17.1747 2.81762 17.5701C2.81649 17.8577 2.86306 18.1436 2.95545 18.4162C3.04736 18.6858 3.19935 18.9312 3.40006 19.1341C3.62594 19.3555 3.8982 19.5246 4.19738 19.6294C4.58241 19.7607 4.98793 19.8226 5.39485 19.8121C6.0084 19.8121 6.71137 19.6264 7.50376 19.2549C8.42452 18.7937 9.27033 18.1974 10.0128 17.4861L10.0113 14.7693ZM43.779 21.1786C43.0864 21.4431 42.3698 21.6406 41.639 21.7682C40.8942 21.8975 40.1395 21.9626 39.3834 21.9628C36.9479 21.9628 35.0737 21.3068 33.7606 19.9949C32.4476 18.683 31.79 16.7667 31.7881 14.246C31.7732 13.1221 31.9656 12.005 32.3557 10.95C32.7062 10.0005 33.2496 9.13296 33.9518 8.40135C34.6462 7.69534 35.4825 7.14283 36.406 6.77987C37.4073 6.38906 38.4753 6.19484 39.5509 6.20793C40.3011 6.20477 41.0505 6.26146 41.7917 6.37744C42.4747 6.48597 43.1433 6.6704 43.785 6.92727V9.45973C43.1433 9.12204 42.4603 8.86836 41.7531 8.705C41.0511 8.54573 40.3332 8.46611 39.6131 8.46768C38.946 8.46393 38.2852 8.59638 37.6717 8.85683C37.065 9.11577 36.5193 9.49784 36.0696 9.9786C35.5888 10.4952 35.2164 11.1021 34.9744 11.7637C34.6985 12.5288 34.5649 13.3375 34.5802 14.1502C34.5802 16.0017 35.0327 17.3878 35.9377 18.3086C36.8427 19.2294 38.0985 19.6898 39.705 19.6898C40.4152 19.6911 41.1231 19.609 41.8139 19.4451C42.4985 19.2797 43.1604 19.0322 43.785 18.7081L43.779 21.1786ZM58.983 21.7432L58.9208 19.6795C58.1894 20.4281 57.3232 21.0336 56.3673 21.4646C55.5079 21.8304 54.5826 22.0185 53.6478 22.0174C52.8827 22.0347 52.1203 21.9215 51.3936 21.6827C50.8187 21.4883 50.2925 21.1731 49.8509 20.7585C49.4511 20.3726 49.1468 19.8999 48.9617 19.3773C48.7681 18.8234 48.6724 18.2404 48.6786 17.6541C48.6786 16.1181 49.2536 14.9153 50.4037 14.0456C51.5537 13.1759 53.2541 12.741 55.5048 12.741H58.6955V11.3981C58.6955 10.4921 58.4041 9.76732 57.8211 9.22388C57.2382 8.68044 56.349 8.40822 55.1535 8.40724C54.2884 8.40831 53.4263 8.50722 52.5837 8.70206C51.6923 8.91134 50.8179 9.18678 49.9679 9.52606V7.1248C50.3058 7.00245 50.6808 6.88305 51.0958 6.7666C51.5107 6.65015 51.9464 6.54549 52.4073 6.4541C52.8682 6.3627 53.3484 6.289 53.8493 6.23298C54.3537 6.17679 54.8609 6.14874 55.3684 6.14896C56.2181 6.13829 57.0655 6.24091 57.8878 6.4541C58.578 6.62928 59.2236 6.94611 59.7833 7.38423C60.3005 7.8049 60.7074 8.34411 60.9689 8.9556C61.2597 9.66229 61.401 10.421 61.3839 11.1844V21.7432H58.983ZM58.6866 14.7693H55.3062C54.7272 14.759 54.1495 14.8259 53.5885 14.9683C53.1589 15.0745 52.7555 15.2666 52.4029 15.5329C52.1048 15.7667 51.87 16.0706 51.7197 16.4174C51.5667 16.7823 51.491 17.1747 51.4974 17.5701C51.4963 17.8577 51.5428 18.1436 51.6352 18.4162C51.728 18.6853 51.8799 18.9306 52.0798 19.1341C52.3057 19.3555 52.578 19.5246 52.8771 19.6294C53.2617 19.7606 53.6667 19.8225 54.0731 19.8121C54.6867 19.8121 55.3901 19.6264 56.1835 19.2549C57.1038 18.7937 57.9491 18.1974 58.6911 17.4861L58.6866 14.7693ZM79.5208 13.8082C79.5208 15.1723 79.3286 16.3623 78.9443 17.3784C78.6049 18.327 78.0635 19.1913 77.3571 19.9124C76.6803 20.5845 75.8632 21.1003 74.9636 21.4233C74.0043 21.7648 72.9918 21.9349 71.9729 21.926C71.4833 21.9263 70.994 21.9007 70.5072 21.8493C70.0078 21.7968 69.5126 21.7101 69.0252 21.5899V28.0065H66.3576V6.42314H68.7288L68.9125 8.99097C69.6802 7.9434 70.4988 7.20636 71.3682 6.77987C72.2456 6.35682 73.2091 6.14043 74.1841 6.14749C74.9907 6.12972 75.7884 6.31855 76.5005 6.69584C77.1787 7.07286 77.7553 7.60742 78.1811 8.25394C78.6607 8.99117 79.0035 9.80795 79.1933 10.6655C79.4282 11.6965 79.5416 12.7512 79.5312 13.8082H79.5208ZM76.7895 13.9306C76.7943 13.1899 76.7352 12.4502 76.6131 11.7195C76.5191 11.1188 76.33 10.5367 76.0529 9.99482C75.8236 9.54632 75.4866 9.16102 75.0718 8.87305C74.6515 8.59876 74.1576 8.45744 73.655 8.46768C73.306 8.46918 72.9592 8.52336 72.6265 8.62835C72.2421 8.75276 71.8781 8.93254 71.5461 9.16197C71.1197 9.45392 70.7227 9.78615 70.3605 10.154C69.8828 10.6356 69.4373 11.1477 69.0267 11.6871V19.1193C69.531 19.3276 70.0534 19.4899 70.5872 19.6043C71.111 19.7191 71.6456 19.7779 72.1819 19.7797C73.6244 19.7797 74.7547 19.2938 75.5727 18.3219C76.3908 17.3499 76.7998 15.8862 76.7998 13.9306H76.7895ZM88.8783 8.62393H84.3329V6.42314H91.5948V19.5306H96.189V21.7417H83.8261V19.5306H88.8886L88.8783 8.62393ZM89.8238 -0.000868105C90.108 -0.00375228 90.3899 0.0509144 90.6522 0.159806C90.9035 0.262892 91.1309 0.415876 91.3206 0.609398C91.5083 0.80166 91.659 1.02648 91.7652 1.27273C91.8743 1.53121 91.9292 1.80907 91.9268 2.08937C91.9276 2.36713 91.8727 2.64227 91.7652 2.89863C91.6602 3.14771 91.5094 3.37516 91.3206 3.56934C91.1306 3.76285 90.9032 3.91627 90.6522 4.0204C90.1206 4.23277 89.527 4.23277 88.9953 4.0204C88.745 3.91588 88.5182 3.7625 88.3284 3.56934C88.1387 3.37593 87.9878 3.14829 87.8838 2.89863C87.7763 2.64227 87.7214 2.36713 87.7223 2.08937C87.7193 1.80917 87.7738 1.53131 87.8823 1.27273C87.9875 1.02589 88.1383 0.800885 88.3269 0.609398C88.5171 0.418882 88.7439 0.268475 88.9939 0.167176C89.2562 0.055877 89.5386 -0.00129212 89.8238 -0.000868105ZM113.327 21.5294C112.712 21.6846 112.086 21.7944 111.455 21.8582C110.803 21.9239 110.147 21.9569 109.492 21.9569C107.559 21.9569 106.117 21.5221 105.166 20.6524C104.214 19.7827 103.739 18.4476 103.74 16.6473V8.65046H99.4287V6.42314H103.74V2.21024L106.408 1.52332V6.42314H113.327V8.65046H106.408V16.4336C106.408 17.5313 106.704 18.3523 107.297 18.8967C107.89 19.4412 108.756 19.7134 109.896 19.7134C110.435 19.7099 110.973 19.672 111.507 19.5999C112.123 19.5172 112.732 19.3971 113.333 19.2402L113.327 21.5294ZM128.085 21.7432L128.024 19.6795C127.292 20.4282 126.426 21.0337 125.469 21.4646C124.609 21.8295 123.682 22.0161 122.747 22.0129C121.98 22.0323 121.215 21.9206 120.487 21.6827C119.912 21.4886 119.386 21.1734 118.945 20.7585C118.545 20.3729 118.241 19.9001 118.056 19.3773C117.863 18.8232 117.768 18.2404 117.773 17.6541C117.773 16.1181 118.349 14.9153 119.5 14.0456C120.651 13.1759 122.351 12.741 124.599 12.741H127.792V11.3981C127.792 10.4921 127.5 9.76732 126.917 9.22388C126.334 8.68044 125.445 8.40822 124.25 8.40724C123.384 8.40852 122.522 8.50742 121.68 8.70206C120.789 8.91135 119.915 9.18679 119.065 9.52606V7.1248C119.402 7.00245 119.778 6.88305 120.192 6.7666C120.605 6.65015 121.044 6.54549 121.503 6.4541C121.963 6.3627 122.444 6.289 122.945 6.23298C123.45 6.17683 123.957 6.14878 124.464 6.14896C125.314 6.13852 126.161 6.24114 126.984 6.4541C127.673 6.62932 128.317 6.94618 128.875 7.38423C129.392 7.80498 129.799 8.34417 130.061 8.9556C130.351 9.6624 130.492 10.4211 130.474 11.1844V21.7432H128.085ZM127.789 14.7693H124.404C123.824 14.759 123.246 14.826 122.685 14.9683C122.255 15.0745 121.851 15.2666 121.499 15.5329C121.201 15.7668 120.967 16.0707 120.817 16.4174C120.664 16.7823 120.589 17.1747 120.595 17.5701C120.594 17.8577 120.64 18.1436 120.733 18.4162C120.825 18.6858 120.977 18.9312 121.177 19.1341C121.403 19.3555 121.675 19.5246 121.975 19.6294C122.36 19.7607 122.765 19.8226 123.172 19.8121C123.786 19.8121 124.489 19.6264 125.281 19.2549C126.202 18.7937 127.048 18.1974 127.79 17.4861L127.789 14.7693ZM140.712 2.35765H136.155V0.181917H143.416V19.5306H148.011V21.7417H135.649V19.5306H140.712V2.35765ZM31.5406 23.9985H14.2662V21.8007H31.5406V23.9985Z" fill="white"/>
</svg>
