<svg width="127" height="26" viewBox="0 0 127 26" fill="none" xmlns="http://www.w3.org/2000/svg">
<g clip-path="url(#clip0)">
<path d="M14.7383 4.8065L7.36913 9.60213L14.7383 14.3978L7.36913 19.1934L0 14.3578L7.36913 9.56217L0 4.8065L7.36913 0.0108643L14.7383 4.8065ZM7.32994 20.712L14.6991 15.9164L22.0682 20.712L14.6991 25.5076L7.32994 20.712ZM14.7383 14.3578L22.1074 9.56217L14.7383 4.8065L22.0682 0.0108643L29.4373 4.8065L22.0682 9.60213L29.4373 14.3978L22.0682 19.1934L14.7383 14.3578Z" fill="#0061FF"/>
<path d="M35.1995 4.80752H41.1575C44.9596 4.80752 48.0954 7.04548 48.0954 12.1608V13.2398C48.0954 18.3951 45.1556 20.713 41.2751 20.713H35.1995V4.80752ZM38.5313 7.6849V17.7957H41.0791C43.235 17.7957 44.6853 16.357 44.6853 13.1599V12.3207C44.6853 9.12359 43.1566 7.6849 40.9615 7.6849H38.5313ZM49.8593 7.84476H52.5248L52.9559 10.842C53.4655 8.80388 54.759 7.72486 57.1109 7.72486H57.934V11.1617H56.5621C53.8575 11.1617 53.1911 12.1209 53.1911 14.8384V20.753H49.8985V7.84476H49.8593ZM58.6004 14.5586V14.199C58.6004 9.8829 61.305 7.52505 64.9896 7.52505C68.7526 7.52505 71.3788 9.8829 71.3788 14.199V14.5586C71.3788 18.7948 68.8309 21.0727 64.9896 21.0727C60.913 21.0327 58.6004 18.7948 58.6004 14.5586ZM68.0078 14.5187V14.199C68.0078 11.8012 66.8319 10.3625 64.9504 10.3625C63.1081 10.3625 61.893 11.6813 61.893 14.199V14.5187C61.893 16.8366 63.0689 18.1554 64.9504 18.1554C66.8319 18.1154 68.0078 16.8366 68.0078 14.5187ZM73.1035 7.84476H75.8473L76.1609 10.2825C76.8272 8.64403 78.2384 7.52505 80.3158 7.52505C83.53 7.52505 85.6467 9.8829 85.6467 14.2389V14.5986C85.6467 18.8347 83.2948 21.0727 80.3158 21.0727C78.3167 21.0727 76.9448 20.1535 76.2785 18.6749V25.189H73.0643L73.1035 7.84476ZM82.3149 14.5187V14.2389C82.3149 11.6813 81.0214 10.4024 79.2967 10.4024C77.4544 10.4024 76.2393 11.8411 76.2393 14.2389V14.4787C76.2393 16.7566 77.4152 18.1953 79.2575 18.1953C81.139 18.1554 82.3149 16.9165 82.3149 14.5187ZM90.5072 18.3552L90.2328 20.713H87.4106V3.52869H90.6248V10.1227C91.3303 8.44421 92.7414 7.52505 94.7405 7.52505C97.7587 7.56501 99.993 9.68308 99.993 13.9592V14.3588C99.993 18.6349 97.8763 21.0727 94.6621 21.0727C92.5455 21.0327 91.1735 20.0337 90.5072 18.3552ZM96.622 14.3588V14.0391C96.622 11.6813 95.3677 10.3625 93.6038 10.3625C91.8007 10.3625 90.5464 11.8411 90.5464 14.0791V14.3588C90.5464 16.7566 91.7615 18.1554 93.5646 18.1554C95.4853 18.1554 96.622 16.9165 96.622 14.3588ZM101.404 14.5586V14.199C101.404 9.8829 104.109 7.52505 107.793 7.52505C111.556 7.52505 114.182 9.8829 114.182 14.199V14.5586C114.182 18.7948 111.595 21.0727 107.793 21.0727C103.717 21.0327 101.404 18.7948 101.404 14.5586ZM110.851 14.5187V14.199C110.851 11.8012 109.675 10.3625 107.793 10.3625C105.951 10.3625 104.736 11.6813 104.736 14.199V14.5187C104.736 16.8366 105.912 18.1554 107.793 18.1554C109.675 18.1154 110.851 16.8366 110.851 14.5187ZM118.494 14.0391L114.065 7.84476H117.867L120.415 11.7212L123.002 7.84476H126.765L122.257 13.9992L127 20.713H123.276L120.376 16.4369L117.553 20.713H113.673L118.494 14.0391Z" fill="black"/>
</g>
<defs>
<clipPath id="clip0">
<rect width="127" height="26" fill="white"/>
</clipPath>
</defs>
</svg>
