<svg width="127" height="26" viewBox="0 0 127 26" fill="none" xmlns="http://www.w3.org/2000/svg">
<g clip-path="url(#clip0)">
<path d="M14.7383 4.80747L7.36913 9.60311L14.7383 14.3987L7.36913 19.1944L0 14.3588L7.36913 9.56314L0 4.80747L7.36913 0.0118408L14.7383 4.80747ZM7.32994 20.713L14.6991 15.9174L22.0682 20.713L14.6991 25.5086L7.32994 20.713ZM14.7383 14.3588L22.1074 9.56314L14.7383 4.80747L22.0682 0.0118408L29.4373 4.80747L22.0682 9.60311L29.4373 14.3987L22.0682 19.1944L14.7383 14.3588Z" fill="#E7F6FD"/>
<path d="M35.1995 4.80746H41.1575C44.9596 4.80746 48.0954 7.04542 48.0954 12.1608V13.2398C48.0954 18.3951 45.1556 20.713 41.2751 20.713H35.1995V4.80746ZM38.5313 7.68484V17.7956H41.0791C43.235 17.7956 44.6853 16.3569 44.6853 13.1599V12.3206C44.6853 9.12353 43.1566 7.68484 40.9615 7.68484H38.5313ZM49.8593 7.8447H52.5248L52.9559 10.842C53.4655 8.80382 54.759 7.7248 57.1109 7.7248H57.934V11.1617H56.5621C53.8575 11.1617 53.1911 12.1208 53.1911 14.8383V20.7529H49.8985V7.8447H49.8593ZM58.6004 14.5586V14.1989C58.6004 9.88284 61.305 7.52499 64.9896 7.52499C68.7526 7.52499 71.3788 9.88284 71.3788 14.1989V14.5586C71.3788 18.7947 68.8309 21.0726 64.9896 21.0726C60.913 21.0327 58.6004 18.7947 58.6004 14.5586ZM68.0078 14.5186V14.1989C68.0078 11.8011 66.8319 10.3624 64.9504 10.3624C63.1081 10.3624 61.893 11.6812 61.893 14.1989V14.5186C61.893 16.8365 63.0689 18.1553 64.9504 18.1553C66.8319 18.1153 68.0078 16.8365 68.0078 14.5186ZM73.1035 7.8447H75.8473L76.1609 10.2825C76.8272 8.64397 78.2384 7.52499 80.3158 7.52499C83.53 7.52499 85.6467 9.88284 85.6467 14.2389V14.5985C85.6467 18.8347 83.2948 21.0726 80.3158 21.0726C78.3167 21.0726 76.9448 20.1535 76.2785 18.6748V25.1889H73.0643L73.1035 7.8447ZM82.3149 14.5186V14.2389C82.3149 11.6812 81.0214 10.4024 79.2967 10.4024C77.4544 10.4024 76.2393 11.8411 76.2393 14.2389V14.4787C76.2393 16.7566 77.4152 18.1953 79.2575 18.1953C81.139 18.1553 82.3149 16.9164 82.3149 14.5186ZM90.5072 18.3551L90.2328 20.713H87.4106V3.52863H90.6248V10.1226C91.3303 8.44415 92.7414 7.52499 94.7405 7.52499C97.7587 7.56495 99.993 9.68302 99.993 13.9591V14.3588C99.993 18.6349 97.8763 21.0726 94.6621 21.0726C92.5455 21.0327 91.1735 20.0336 90.5072 18.3551ZM96.622 14.3588V14.0391C96.622 11.6812 95.3677 10.3624 93.6038 10.3624C91.8007 10.3624 90.5464 11.8411 90.5464 14.079V14.3588C90.5464 16.7566 91.7615 18.1553 93.5646 18.1553C95.4853 18.1553 96.622 16.9164 96.622 14.3588ZM101.404 14.5586V14.1989C101.404 9.88284 104.109 7.52499 107.793 7.52499C111.556 7.52499 114.182 9.88284 114.182 14.1989V14.5586C114.182 18.7947 111.595 21.0726 107.793 21.0726C103.717 21.0327 101.404 18.7947 101.404 14.5586ZM110.851 14.5186V14.1989C110.851 11.8011 109.675 10.3624 107.793 10.3624C105.951 10.3624 104.736 11.6812 104.736 14.1989V14.5186C104.736 16.8365 105.912 18.1553 107.793 18.1553C109.675 18.1153 110.851 16.8365 110.851 14.5186ZM118.494 14.0391L114.065 7.8447H117.867L120.415 11.7212L123.002 7.8447H126.765L122.257 13.9991L127 20.713H123.276L120.376 16.4369L117.553 20.713H113.673L118.494 14.0391Z" fill="#E7F6FD"/>
</g>
<defs>
<clipPath id="clip0">
<rect width="127" height="26" fill="white"/>
</clipPath>
</defs>
</svg>
