<svg width="80" height="22" viewBox="0 0 80 22" fill="none" xmlns="http://www.w3.org/2000/svg">
<path d="M11.0002 20.5771C9.7968 20.792 8.57219 20.8564 7.30539 21.0281L3.44148 9.51866V21.522C2.23805 21.6508 1.14016 21.8226 0 21.9944V0.00610352H3.20938L7.60094 12.4821V0.00610352H11.0002V20.5771ZM17.6511 8.05845C18.9602 8.05845 20.966 7.99402 22.1695 7.99402V11.4296C20.6703 11.4296 18.918 11.4296 17.6511 11.494V16.6047C19.6359 16.4759 21.6205 16.304 23.6262 16.2395V19.5462L14.2728 20.2979V0.00610352H23.6262V3.44178H17.6511V8.05845ZM36.1889 3.44186H32.6841V19.2459C31.5439 19.2459 30.4037 19.2459 29.306 19.2887V3.44186H25.8012V0.00610352H36.1891L36.1889 3.44186ZM41.6784 7.82232H46.3024V11.2579H41.6784V19.0527H38.3634V0.00610352H47.8015V3.44178H41.6784V7.82232ZM53.291 16.0464C55.2124 16.0892 57.1548 16.2398 59.034 16.3469V19.7397C56.0148 19.5463 52.9955 19.3533 49.9129 19.2887V0.00610352H53.291V16.0464ZM61.8843 19.9759C62.9611 20.0404 64.1012 20.1049 65.1991 20.2335V0.00610352H61.8843V19.9759ZM80 0.00610352L75.7138 10.4634L80 21.9944C78.733 21.8226 77.4662 21.5864 76.1994 21.3716L73.7714 15.0158L71.3013 20.8564C70.0765 20.6415 68.8941 20.5771 67.6698 20.4053L72.0191 10.3345L68.0919 0.00610352H71.7233L73.9402 5.78233L76.3051 0.00610352H80Z" fill="#D81F26"/>
</svg>
