<svg width="107" height="32" viewBox="0 0 107 32" fill="none" xmlns="http://www.w3.org/2000/svg">
<g clip-path="url(#clip0)">
<path d="M16.046 0C7.18422 0 0 7.16339 0 15.9997C0 24.837 7.18422 32 16.046 32C24.9082 32 32.092 24.837 32.092 15.9997C32.092 7.16396 24.9085 0.000763653 16.0458 0.000763653L16.046 0ZM23.4046 23.0762C23.1164 23.5475 22.5006 23.6952 22.0294 23.408C18.2614 21.1117 13.5186 20.593 7.93321 21.8652C7.39499 21.9883 6.85848 21.6518 6.73586 21.1153C6.61265 20.5786 6.94853 20.0437 7.48811 19.9214C13.6005 18.528 18.8435 19.1277 23.0729 21.7047C23.5443 21.9933 23.6937 22.6066 23.4044 23.0766L23.4046 23.0762ZM25.3686 18.7202C25.0057 19.3073 24.2358 19.4915 23.6477 19.131C19.3355 16.4879 12.7601 15.7223 7.65845 17.2664C6.99682 17.4657 6.29802 17.0939 6.09721 16.4353C5.89794 15.7756 6.27101 15.0801 6.93149 14.8795C12.7589 13.1164 20.0033 13.9705 24.9564 17.0055C25.5447 17.3666 25.7305 18.1346 25.3684 18.7204L25.3686 18.7202ZM25.5372 14.1837C20.3649 11.1208 11.8332 10.8392 6.89564 12.3335C6.10277 12.5732 5.26428 12.1269 5.024 11.3363C4.78372 10.5453 5.23094 9.70983 6.02439 9.46948C11.6924 7.75377 21.1148 8.08525 27.0689 11.6097C27.7821 12.0318 28.0161 12.9502 27.5933 13.6604C27.1718 14.3715 26.2482 14.6059 25.5374 14.1837H25.5372ZM43.6558 14.7706C40.8853 14.1118 40.3921 13.6495 40.3921 12.6779C40.3921 11.7601 41.2588 11.1424 42.5476 11.1424C43.7969 11.1424 45.0356 11.6115 46.3343 12.5771C46.3736 12.6063 46.4229 12.6179 46.4713 12.6103C46.5198 12.6031 46.5628 12.5765 46.5911 12.5366L47.9439 10.6351C47.9994 10.5568 47.9843 10.4489 47.9094 10.389C46.3637 9.15232 44.6231 8.55105 42.5886 8.55105C39.5972 8.55105 37.5077 10.3411 37.5077 12.9023C37.5077 15.6487 39.3101 16.6212 42.4249 17.3719C45.0761 17.9808 45.5235 18.4909 45.5235 19.4029C45.5235 20.4134 44.6187 21.0416 43.1626 21.0416C41.5455 21.0416 40.2264 20.4984 38.7508 19.2242C38.7142 19.1927 38.664 19.1784 38.6177 19.181C38.5688 19.1851 38.5241 19.2076 38.4931 19.2449L36.9763 21.0448C36.9127 21.1195 36.9208 21.2311 36.9944 21.2957C38.7112 22.824 40.8227 23.6312 43.1013 23.6312C46.3248 23.6312 48.4078 21.875 48.4078 19.1568C48.4135 16.8622 47.0359 15.5916 43.6616 14.7731L43.6558 14.7706ZM55.7004 12.0461C54.3032 12.0461 53.1572 12.5948 52.2122 13.7192V12.4536C52.2122 12.3537 52.1309 12.2723 52.0309 12.2723H49.5501C49.4499 12.2723 49.3689 12.3537 49.3689 12.4536V26.516C49.3689 26.6159 49.4499 26.6973 49.5501 26.6973H52.0309C52.1309 26.6973 52.2122 26.6159 52.2122 26.516V22.0771C53.1574 23.1348 54.3036 23.6516 55.7004 23.6516C58.2966 23.6516 60.9247 21.6589 60.9247 17.8495C60.9285 14.0392 58.2996 12.0459 55.7033 12.0459L55.7004 12.0461ZM58.04 17.8495C58.04 19.7894 56.8417 21.143 55.1258 21.143C53.4295 21.143 52.1499 19.7279 52.1499 17.8495C52.1499 15.9714 53.4295 14.5561 55.1258 14.5561C56.8139 14.5559 58.0402 15.9407 58.0402 17.8493L58.04 17.8495ZM67.6607 12.0461C64.3173 12.0461 61.698 14.6132 61.698 17.891C61.698 21.1331 64.2993 23.6732 67.6197 23.6732C70.975 23.6732 73.6024 21.1147 73.6024 17.8495C73.6024 14.5956 70.9926 12.0465 67.6605 12.0465L67.6607 12.0461ZM67.6607 21.1623C65.8824 21.1623 64.5417 19.7376 64.5417 17.8486C64.5417 15.9515 65.836 14.575 67.6197 14.575C69.4096 14.575 70.7593 15.9997 70.7593 17.89C70.7593 19.7867 69.4563 21.1623 67.6609 21.1623H67.6607ZM80.7419 12.2723H78.0121V9.48935C78.0121 9.38962 77.9312 9.30823 77.831 9.30823H75.3506C75.2502 9.30823 75.1688 9.38962 75.1688 9.48935V12.2723H73.976C73.8762 12.2723 73.7953 12.3537 73.7953 12.4536V14.5796C73.7953 14.6793 73.8762 14.7609 73.976 14.7609H75.1688V20.2617C75.1688 22.4846 76.2784 23.6117 78.4668 23.6117C79.3566 23.6117 80.0949 23.4285 80.7906 23.0351C80.8471 23.0036 80.8822 22.9428 80.8822 22.8782V20.8538C80.8822 20.7913 80.8496 20.7323 80.796 20.6996C80.7419 20.6658 80.6747 20.6641 80.6193 20.6914C80.1414 20.9312 79.6795 21.0418 79.1631 21.0418C78.3671 21.0418 78.0121 20.6814 78.0121 19.8738V14.7618H80.7419C80.8421 14.7618 80.9228 14.6805 80.9228 14.5805V12.4548C80.9267 12.3549 80.8462 12.2735 80.7446 12.2735L80.7419 12.2723ZM90.2535 12.2832V11.9414C90.2535 10.9359 90.6401 10.4874 91.5074 10.4874C92.0245 10.4874 92.44 10.5898 92.9052 10.7446C92.9625 10.7626 93.0222 10.7536 93.0688 10.7194C93.1167 10.6852 93.1437 10.6304 93.1437 10.5723V8.48781C93.1437 8.40813 93.0924 8.33764 93.0153 8.31413C92.5239 8.16835 91.895 8.01875 90.9534 8.01875C88.6622 8.01875 87.451 9.30535 87.451 11.7381V12.2616H86.2592C86.1591 12.2616 86.0771 12.343 86.0771 12.4427V14.5796C86.0771 14.6793 86.1591 14.7609 86.2592 14.7609H87.451V23.2456C87.451 23.3455 87.5318 23.4269 87.6319 23.4269H90.1127C90.2129 23.4269 90.2945 23.3455 90.2945 23.2456V14.7615H92.6107L96.1587 23.2441C95.7559 24.1354 95.3599 24.3127 94.8192 24.3127C94.3821 24.3127 93.9219 24.1826 93.4513 23.9258C93.407 23.9015 93.3545 23.8975 93.3068 23.9122C93.2595 23.9289 93.2196 23.964 93.1995 24.0099L92.3587 25.8492C92.3186 25.9361 92.353 26.0382 92.4369 26.0833C93.3146 26.5573 94.107 26.7596 95.0863 26.7596C96.9181 26.7596 97.9305 25.9088 98.8231 23.6199L103.127 12.5308C103.148 12.475 103.142 12.412 103.108 12.3625C103.074 12.3134 103.019 12.2838 102.958 12.2838H100.376C100.298 12.2838 100.229 12.3329 100.204 12.4053L97.5584 19.9403L94.6607 12.4003C94.6343 12.3302 94.5665 12.2838 94.4913 12.2838H90.2529L90.2535 12.2832ZM84.7389 12.2723H82.2582C82.1579 12.2723 82.0763 12.3537 82.0763 12.4536V23.2456C82.0763 23.3456 82.1579 23.4269 82.2582 23.4269H84.7389C84.839 23.4269 84.9208 23.3456 84.9208 23.2456V12.4544C84.9208 12.4306 84.9161 12.4069 84.907 12.3849C84.8979 12.3629 84.8845 12.3428 84.8676 12.326C84.8506 12.3091 84.8305 12.2958 84.8084 12.2867C84.7863 12.2776 84.7626 12.273 84.7387 12.2731L84.7389 12.2723ZM83.5126 7.35847C82.5299 7.35847 81.7324 8.15174 81.7324 9.13169C81.7324 10.1122 82.5301 10.9065 83.5126 10.9065C84.495 10.9065 85.2917 10.1122 85.2917 9.13169C85.2917 8.15193 84.4946 7.35847 83.5136 7.35847H83.5126ZM105.245 15.7422C104.263 15.7422 103.499 14.9559 103.499 14.0012C103.499 13.0465 104.273 12.2513 105.254 12.2513C106.236 12.2513 107 13.0373 107 13.9913C107 14.946 106.226 15.7422 105.245 15.7422H105.245ZM105.255 12.4244C104.36 12.4244 103.684 13.1332 103.684 14.0012C103.684 14.8688 104.356 15.5681 105.246 15.5681C106.14 15.5681 106.817 14.8599 106.817 13.9913C106.817 13.1237 106.144 12.4244 105.255 12.4244H105.255ZM105.642 14.1703L106.135 14.8597H105.719L105.275 14.2272H104.892V14.8597H104.544V13.0324H105.361C105.787 13.0324 106.067 13.2496 106.067 13.6153C106.069 13.9149 105.894 14.0979 105.643 14.1703H105.642V14.1703ZM105.347 13.3459H104.892V13.9239H105.347C105.573 13.9239 105.709 13.8132 105.709 13.6346C105.709 13.4466 105.573 13.3459 105.347 13.3459H105.347V13.3459Z" fill="#E7F6FD"/>
</g>
<defs>
<clipPath id="clip0">
<rect width="107" height="32" fill="white"/>
</clipPath>
</defs>
</svg>
