<svg width="67" height="28" viewBox="0 0 67 28" fill="none" xmlns="http://www.w3.org/2000/svg">
<g clip-path="url(#clip0)">
<path d="M4.70858 10.9236C4.70858 10.198 5.30412 9.91882 6.29067 9.91882C7.705 9.91882 9.49162 10.3469 10.9061 11.1098V6.737C9.36142 6.12301 7.83534 5.8811 6.29067 5.8811C2.5125 5.8811 0 7.85352 0 11.1471C0 16.2825 7.07216 15.4638 7.07216 17.6782C7.07216 18.5339 6.32784 18.8131 5.28554 18.8131C3.74088 18.8131 1.76804 18.1804 0.204664 17.3245V21.753C1.93554 22.4973 3.685 22.8136 5.28554 22.8136C9.15662 22.8136 11.818 20.8971 11.818 17.5664C11.7995 12.0215 4.70858 13.0076 4.70858 10.9236ZM17.2897 2.15974L12.7486 3.12723L12.73 18.0315C12.73 20.7855 14.7959 22.8136 17.5503 22.8136C19.0764 22.8136 20.193 22.5345 20.8072 22.1996V18.4223C20.2118 18.6642 17.2711 19.5201 17.2711 16.7663V10.1607H20.8072V6.19745H17.2711L17.2897 2.15974ZM26.5953 7.57432L26.2975 6.19745H22.2775V22.4786H26.9303V11.4447C28.0282 10.012 29.8895 10.2725 30.4664 10.4771V6.19745C29.8709 5.97413 27.6934 5.56475 26.5953 7.57432ZM31.6016 6.19745H36.273V22.4786H31.6016V6.19745ZM31.6016 4.7833L36.273 3.77851V0.00128174L31.6016 0.987488V4.78317V4.7833ZM45.988 5.8811C44.1641 5.8811 42.9916 6.737 42.3403 7.33255L42.0982 6.17888H38.0039V27.8746L42.6566 26.8886L42.6753 21.6227C43.3453 22.1065 44.3316 22.795 45.9695 22.795C49.3009 22.795 52.3345 20.1156 52.3345 14.2172C52.3159 8.82102 49.245 5.8811 45.988 5.8811ZM44.8714 18.7014C43.7734 18.7014 43.1218 18.3107 42.6753 17.8269L42.6566 10.9236C43.1405 10.3841 43.8105 10.012 44.8714 10.012C46.565 10.012 47.7375 11.9098 47.7375 14.3473C47.7375 16.8407 46.5836 18.7014 44.8714 18.7014ZM67 14.4032C67 9.63976 64.6922 5.8811 60.2814 5.8811C55.8518 5.8811 53.1718 9.63989 53.1718 14.366C53.1718 19.9667 56.3359 22.795 60.8768 22.795C63.0916 22.795 64.7666 22.2926 66.0322 21.5856V17.8641C64.7668 18.4968 63.315 18.8876 61.4725 18.8876C59.6672 18.8876 58.0666 18.2549 57.862 16.0593H66.9628C66.9628 15.8172 67 14.8497 67 14.4032ZM57.8061 12.6355C57.8061 10.5329 59.0903 9.65834 60.2628 9.65834C61.398 9.65834 62.6078 10.5329 62.6078 12.6355H57.8061Z" fill="#E7F6FD"/>
</g>
<defs>
<clipPath id="clip0">
<rect width="67" height="28" fill="white"/>
</clipPath>
</defs>
</svg>
