<svg width="130" height="25" viewBox="0 0 130 25" fill="none" xmlns="http://www.w3.org/2000/svg">
<path d="M16.7557 18.33L19.3357 24H22.3657L11.5657 0.42L0.765665 24H3.79566L6.37566 18.33H16.7557ZM15.5857 15.75H7.54567L11.5657 6.6L15.5857 15.75ZM26.0594 9.96H23.3594V24H26.0594V17.55C26.0594 15 26.0594 11.94 29.5394 11.94C32.2994 11.94 32.6294 13.56 32.6294 15.96V24H35.3294V15.63C35.3294 12.21 34.3094 9.54 30.3494 9.54C28.6394 9.54 26.9594 10.35 26.1194 11.85H26.0594V9.96ZM41.5525 12.48H44.1925V9.96H41.5525V4.59H38.8525V9.96H37.3825V12.48H38.8525V24H41.5525V12.48ZM48.3696 9.96H45.6696V24H48.3696V9.96ZM47.0196 1.65C45.9996 1.65 45.1596 2.49 45.1596 3.54C45.1596 4.56 45.9996 5.37 47.0196 5.37C48.0396 5.37 48.8796 4.56 48.8796 3.54C48.8796 2.49 48.0396 1.65 47.0196 1.65ZM63.0068 24.48L69.7868 9.06H69.8468L72.4868 24H75.3968L70.7768 0.42L63.0068 18.24L55.2368 0.42L50.6168 24H53.5268L56.1668 9.06H56.2268L63.0068 24.48ZM83.0643 22.08C80.2143 22.08 78.6243 19.62 78.6243 16.98C78.6243 14.37 80.2743 11.94 83.0643 11.94C85.9743 11.94 87.6243 14.25 87.6243 16.98C87.6243 19.74 86.0043 22.08 83.0643 22.08ZM90.1743 9.96H87.4743V12.3H87.4143C86.3043 10.62 84.6243 9.54 82.5543 9.54C78.4743 9.54 75.9243 13.05 75.9243 16.89C75.9243 20.91 78.3543 24.48 82.6443 24.48C84.6543 24.48 86.3343 23.4 87.4143 21.81H87.4743V24H90.1743V9.96ZM96.1643 12.48H98.8043V9.96H96.1643V4.59H93.4643V9.96H91.9943V12.48H93.4643V24H96.1643V12.48ZM102.771 12.48H105.411V9.96H102.771V4.59H100.071V9.96H98.6013V12.48H100.071V24H102.771V12.48ZM118.618 17.43V17.01C118.618 12.84 116.518 9.54 112.048 9.54C107.518 9.54 105.208 12.78 105.208 17.1C105.208 21.24 107.818 24.48 112.108 24.48C114.838 24.48 117.298 23.07 118.618 20.64L116.338 19.35C115.318 21.03 114.208 22.08 112.138 22.08C109.558 22.08 107.938 19.83 107.908 17.43H118.618ZM108.058 15.39C108.388 13.38 109.948 11.88 112.048 11.88C114.208 11.88 115.588 13.29 115.918 15.39H108.058ZM123.217 9.96H120.517V24H123.217V17.1C123.217 14.82 123.577 12.12 126.487 12.12C127.117 12.12 127.657 12.27 128.137 12.69L129.367 10.23C128.707 9.81 127.927 9.54 127.147 9.54C125.347 9.54 123.967 10.59 123.307 12.24H123.217V9.96Z" fill="white"/>
</svg>
