<svg width="140" height="25" viewBox="0 0 140 25" fill="none" xmlns="http://www.w3.org/2000/svg">
<path d="M11.6512 24.45C8.55117 24.45 5.92117 23.35 3.76117 21.15C1.62117 18.95 0.551174 16.25 0.551174 13.05C0.551174 9.85 1.62117 7.15 3.76117 4.95C5.92117 2.75 8.55117 1.65 11.6512 1.65C12.6512 1.65 13.6112 1.77 14.5312 2.01C15.4512 2.23 16.2012 2.5 16.7812 2.82C17.3812 3.14 17.9012 3.46 18.3412 3.78C18.7812 4.1 19.1012 4.38 19.3012 4.62L19.6012 4.95L18.8512 6.45C18.7912 6.37 18.6912 6.26 18.5512 6.12C18.4312 5.98 18.1512 5.74 17.7112 5.4C17.2712 5.06 16.8012 4.76 16.3012 4.5C15.8012 4.24 15.1412 4 14.3212 3.78C13.5012 3.56 12.6612 3.45 11.8012 3.45C9.10117 3.45 6.85117 4.36 5.05117 6.18C3.25117 8 2.35117 10.29 2.35117 13.05C2.35117 15.81 3.25117 18.1 5.05117 19.92C6.85117 21.74 9.10117 22.65 11.8012 22.65C12.6612 22.65 13.4912 22.53 14.2912 22.29C15.1112 22.03 15.7812 21.73 16.3012 21.39C16.8212 21.03 17.2812 20.68 17.6812 20.34C18.1012 19.98 18.4012 19.68 18.5812 19.44L18.8512 19.05H19.3012V21.15C19.2412 21.23 19.1412 21.35 19.0012 21.51C18.8612 21.65 18.5512 21.91 18.0712 22.29C17.5912 22.67 17.0812 23.01 16.5412 23.31C16.0012 23.59 15.2912 23.85 14.4112 24.09C13.5312 24.33 12.6112 24.45 11.6512 24.45ZM36.8477 24H35.0477V14.4C35.0477 12.9 34.6577 11.75 33.8777 10.95C33.0977 10.15 31.9877 9.75 30.5477 9.75C29.0277 9.75 27.7177 10.33 26.6177 11.49C25.5377 12.63 24.9977 14.05 24.9977 15.75V24H23.1977V1.2H24.9977V11.1H25.1477C25.1877 11.02 25.2477 10.91 25.3277 10.77C25.4077 10.63 25.6077 10.38 25.9277 10.02C26.2477 9.64 26.5977 9.32 26.9777 9.06C27.3777 8.78 27.9077 8.53 28.5677 8.31C29.2277 8.07 29.9377 7.95 30.6977 7.95C32.5177 7.95 33.9977 8.54 35.1377 9.72C36.2777 10.9 36.8477 12.46 36.8477 14.4V24ZM45.7012 22.65C46.4012 22.65 47.0612 22.51 47.6812 22.23C48.3212 21.93 48.8312 21.58 49.2112 21.18C49.6112 20.76 49.9612 20.35 50.2612 19.95C50.5612 19.53 50.7712 19.18 50.8912 18.9L51.1012 18.45C50.9612 18.31 50.7612 18.13 50.5012 17.91C50.2612 17.69 49.7112 17.4 48.8512 17.04C47.9912 16.68 47.0912 16.5 46.1512 16.5C43.4512 16.5 42.1012 17.55 42.1012 19.65C42.1012 20.57 42.4012 21.3 43.0012 21.84C43.6212 22.38 44.5212 22.65 45.7012 22.65ZM46.7512 7.95C48.6312 7.95 50.1212 8.52 51.2212 9.66C52.3412 10.78 52.9012 12.31 52.9012 14.25V24H51.2512L51.1012 21.15H50.9512C50.9112 21.23 50.8412 21.35 50.7412 21.51C50.6612 21.65 50.4512 21.91 50.1112 22.29C49.7912 22.67 49.4412 23.01 49.0612 23.31C48.6812 23.59 48.1712 23.85 47.5312 24.09C46.9112 24.33 46.2512 24.45 45.5512 24.45C43.9912 24.45 42.7212 24 41.7412 23.1C40.7812 22.18 40.3012 21.03 40.3012 19.65C40.3012 18.19 40.8112 17 41.8312 16.08C42.8512 15.16 44.2412 14.7 46.0012 14.7C46.9412 14.7 47.8312 14.84 48.6712 15.12C49.5312 15.4 50.1512 15.68 50.5312 15.96L51.1012 16.35V14.25C51.1012 11.25 49.6512 9.75 46.7512 9.75C45.7712 9.75 44.7912 9.94 43.8112 10.32C42.8512 10.68 42.1312 11.05 41.6512 11.43L40.9012 12H40.6012V10.05C40.7812 9.89 41.0312 9.7 41.3512 9.48C41.6912 9.24 42.3912 8.93 43.4512 8.55C44.5312 8.15 45.6312 7.95 46.7512 7.95ZM59.1918 8.25V24H57.3918V8.25C57.5918 8.35 57.8918 8.4 58.2918 8.4L59.1918 8.25ZM57.3018 4.02C57.0618 3.78 56.9418 3.44 56.9418 3C56.9418 2.56 57.0618 2.23 57.3018 2.01C57.5618 1.77 57.8918 1.65 58.2918 1.65C58.6918 1.65 59.0118 1.77 59.2518 2.01C59.5118 2.23 59.6418 2.56 59.6418 3C59.6418 3.44 59.5118 3.78 59.2518 4.02C59.0118 4.24 58.6918 4.35 58.2918 4.35C57.8918 4.35 57.5618 4.24 57.3018 4.02ZM77.4988 24H75.6988V14.4C75.6988 12.9 75.3088 11.75 74.5288 10.95C73.7488 10.15 72.6388 9.75 71.1988 9.75C69.6788 9.75 68.3688 10.33 67.2688 11.49C66.1888 12.63 65.6488 14.05 65.6488 15.75V24H63.8488V8.4H65.4988L65.6488 11.1H65.7988C65.8388 11.02 65.8988 10.91 65.9788 10.77C66.0588 10.63 66.2588 10.38 66.5788 10.02C66.8988 9.64 67.2488 9.32 67.6288 9.06C68.0288 8.78 68.5588 8.53 69.2188 8.31C69.8788 8.07 70.5888 7.95 71.3488 7.95C73.1688 7.95 74.6488 8.54 75.7888 9.72C76.9288 10.9 77.4988 12.46 77.4988 14.4V24ZM88.0023 1.65C88.7223 1.65 89.4123 1.75 90.0723 1.95C90.7523 2.13 91.3123 2.35 91.7523 2.61C92.1923 2.87 92.5723 3.13 92.8923 3.39C93.2323 3.65 93.4823 3.88 93.6423 4.08L93.8523 4.35L93.1023 5.85C93.0623 5.79 92.9923 5.71 92.8923 5.61C92.7923 5.49 92.5823 5.29 92.2623 5.01C91.9423 4.73 91.5923 4.49 91.2123 4.29C90.8523 4.07 90.3823 3.88 89.8023 3.72C89.2223 3.54 88.6223 3.45 88.0023 3.45C86.5623 3.45 85.4523 3.77 84.6723 4.41C83.8923 5.05 83.5023 5.88 83.5023 6.9C83.5023 7.7 83.7823 8.42 84.3423 9.06C84.9023 9.7 85.5923 10.23 86.4123 10.65C87.2523 11.07 88.1523 11.54 89.1123 12.06C90.0923 12.56 90.9923 13.06 91.8123 13.56C92.6523 14.04 93.3523 14.7 93.9123 15.54C94.4723 16.36 94.7523 17.28 94.7523 18.3C94.7523 20.2 94.1523 21.7 92.9523 22.8C91.7723 23.9 90.0723 24.45 87.8523 24.45C87.0123 24.45 86.2023 24.34 85.4223 24.12C84.6423 23.92 83.9923 23.68 83.4723 23.4C82.9523 23.1 82.4923 22.81 82.0923 22.53C81.6923 22.23 81.4023 21.98 81.2223 21.78L80.9523 21.45L81.7023 19.8C81.7623 19.88 81.8523 19.99 81.9723 20.13C82.0923 20.25 82.3523 20.47 82.7523 20.79C83.1523 21.11 83.5723 21.4 84.0123 21.66C84.4523 21.9 85.0223 22.13 85.7223 22.35C86.4223 22.55 87.1323 22.65 87.8523 22.65C89.5523 22.65 90.8223 22.27 91.6623 21.51C92.5223 20.75 92.9523 19.68 92.9523 18.3C92.9523 17.5 92.6723 16.78 92.1123 16.14C91.5523 15.5 90.8523 14.97 90.0123 14.55C89.1923 14.13 88.2923 13.67 87.3123 13.17C86.3523 12.65 85.4523 12.15 84.6123 11.67C83.7923 11.17 83.1023 10.51 82.5423 9.69C81.9823 8.85 81.7023 7.92 81.7023 6.9C81.7023 5.42 82.2723 4.18 83.4123 3.18C84.5723 2.16 86.1023 1.65 88.0023 1.65ZM102.862 22.65C103.562 22.65 104.222 22.51 104.842 22.23C105.482 21.93 105.992 21.58 106.372 21.18C106.772 20.76 107.122 20.35 107.422 19.95C107.722 19.53 107.932 19.18 108.052 18.9L108.262 18.45C108.122 18.31 107.922 18.13 107.662 17.91C107.422 17.69 106.872 17.4 106.012 17.04C105.152 16.68 104.252 16.5 103.312 16.5C100.612 16.5 99.2617 17.55 99.2617 19.65C99.2617 20.57 99.5617 21.3 100.162 21.84C100.782 22.38 101.682 22.65 102.862 22.65ZM103.912 7.95C105.792 7.95 107.282 8.52 108.382 9.66C109.502 10.78 110.062 12.31 110.062 14.25V24H108.412L108.262 21.15H108.112C108.072 21.23 108.002 21.35 107.902 21.51C107.822 21.65 107.612 21.91 107.272 22.29C106.952 22.67 106.602 23.01 106.222 23.31C105.842 23.59 105.332 23.85 104.692 24.09C104.072 24.33 103.412 24.45 102.712 24.45C101.152 24.45 99.8817 24 98.9017 23.1C97.9417 22.18 97.4617 21.03 97.4617 19.65C97.4617 18.19 97.9717 17 98.9917 16.08C100.012 15.16 101.402 14.7 103.162 14.7C104.102 14.7 104.992 14.84 105.832 15.12C106.692 15.4 107.312 15.68 107.692 15.96L108.262 16.35V14.25C108.262 11.25 106.812 9.75 103.912 9.75C102.932 9.75 101.952 9.94 100.972 10.32C100.012 10.68 99.2917 11.05 98.8117 11.43L98.0617 12H97.7617V10.05C97.9417 9.89 98.1917 9.7 98.5117 9.48C98.8517 9.24 99.5517 8.93 100.612 8.55C101.692 8.15 102.792 7.95 103.912 7.95ZM115.902 8.4V5.25C115.902 3.71 116.302 2.5 117.102 1.62C117.902 0.739999 118.952 0.299999 120.252 0.299999C120.912 0.299999 121.532 0.429999 122.112 0.69C122.692 0.929999 123.102 1.18 123.342 1.44L123.702 1.8L123.102 3.3C123.022 3.22 122.902 3.11 122.742 2.97C122.602 2.83 122.292 2.65 121.812 2.43C121.352 2.21 120.882 2.1 120.402 2.1C119.562 2.1 118.902 2.37 118.422 2.91C117.942 3.45 117.702 4.23 117.702 5.25V8.4H122.802V10.2H117.702V24H115.902V10.2H112.902V8.4H115.902ZM132.842 22.65C133.862 22.65 134.822 22.48 135.722 22.14C136.622 21.78 137.262 21.42 137.642 21.06L138.242 20.55H138.692V22.5C138.532 22.64 138.302 22.82 138.002 23.04C137.702 23.26 137.032 23.55 135.992 23.91C134.952 24.27 133.852 24.45 132.692 24.45C130.432 24.45 128.542 23.67 127.022 22.11C125.502 20.55 124.742 18.58 124.742 16.2C124.742 13.82 125.492 11.85 126.992 10.29C128.492 8.73 130.342 7.95 132.542 7.95C134.662 7.95 136.392 8.65 137.732 10.05C139.072 11.45 139.742 13.3 139.742 15.6V16.5H126.542C126.622 18.38 127.222 19.88 128.342 21C129.482 22.1 130.982 22.65 132.842 22.65ZM126.692 14.7H137.792C137.712 13.26 137.182 12.08 136.202 11.16C135.242 10.22 134.022 9.75 132.542 9.75C131.042 9.75 129.742 10.22 128.642 11.16C127.562 12.08 126.912 13.26 126.692 14.7Z" fill="white"/>
</svg>
