<svg width="151" height="68" viewBox="0 0 151 68" fill="none" xmlns="http://www.w3.org/2000/svg">
<path d="M12.65 16.175C12.3667 15.7083 11.975 15.35 11.475 15.1C10.9917 14.85 10.4167 14.725 9.75 14.725C8.51667 14.725 7.54167 15.125 6.825 15.925C6.125 16.725 5.775 17.8 5.775 19.15C5.775 20.6667 6.15 21.825 6.9 22.625C7.66667 23.4083 8.775 23.8 10.225 23.8C11.9417 23.8 13.1667 23.025 13.9 21.475H8.975V17.95H18.125V22.7C17.7417 23.6333 17.175 24.5083 16.425 25.325C15.6917 26.1417 14.7583 26.8167 13.625 27.35C12.4917 27.8667 11.2 28.125 9.75 28.125C7.98333 28.125 6.41667 27.75 5.05 27C3.7 26.2333 2.65 25.175 1.9 23.825C1.16667 22.4583 0.8 20.9 0.8 19.15C0.8 17.4167 1.16667 15.875 1.9 14.525C2.65 13.1583 3.7 12.1 5.05 11.35C6.4 10.5833 7.95833 10.2 9.725 10.2C11.9417 10.2 13.775 10.7333 15.225 11.8C16.675 12.8667 17.575 14.325 17.925 16.175H12.65ZM29.4959 13.85C31.1126 13.85 32.3959 14.3917 33.3459 15.475C34.2959 16.5417 34.7709 17.9917 34.7709 19.825V28H29.8709V20.475C29.8709 19.675 29.6626 19.05 29.2459 18.6C28.8292 18.1333 28.2709 17.9 27.5709 17.9C26.8376 17.9 26.2626 18.1333 25.8459 18.6C25.4292 19.05 25.2209 19.675 25.2209 20.475V28H20.3209V13.975H25.2209V15.975C25.6542 15.3417 26.2376 14.8333 26.9709 14.45C27.7042 14.05 28.5459 13.85 29.4959 13.85ZM43.9846 28.175C42.5846 28.175 41.3262 27.8833 40.2096 27.3C39.1096 26.7167 38.2429 25.8833 37.6096 24.8C36.9762 23.7167 36.6596 22.4417 36.6596 20.975C36.6596 19.525 36.9762 18.2583 37.6096 17.175C38.2596 16.0917 39.1346 15.2583 40.2346 14.675C41.3512 14.0917 42.6096 13.8 44.0096 13.8C45.4096 13.8 46.6596 14.0917 47.7596 14.675C48.8762 15.2583 49.7512 16.0917 50.3846 17.175C51.0346 18.2583 51.3596 19.525 51.3596 20.975C51.3596 22.425 51.0346 23.7 50.3846 24.8C49.7512 25.8833 48.8762 26.7167 47.7596 27.3C46.6429 27.8833 45.3846 28.175 43.9846 28.175ZM43.9846 23.925C44.6679 23.925 45.2346 23.675 45.6846 23.175C46.1512 22.6583 46.3846 21.925 46.3846 20.975C46.3846 20.025 46.1512 19.3 45.6846 18.8C45.2346 18.3 44.6762 18.05 44.0096 18.05C43.3429 18.05 42.7846 18.3 42.3346 18.8C41.8846 19.3 41.6596 20.025 41.6596 20.975C41.6596 21.9417 41.8762 22.675 42.3096 23.175C42.7429 23.675 43.3012 23.925 43.9846 23.925ZM59.3281 28.175C58.0615 28.175 56.9281 27.9667 55.9281 27.55C54.9448 27.1167 54.1615 26.5333 53.5781 25.8C53.0115 25.05 52.6948 24.2083 52.6281 23.275H57.3781C57.4448 23.725 57.6531 24.075 58.0031 24.325C58.3531 24.575 58.7865 24.7 59.3031 24.7C59.7031 24.7 60.0198 24.6167 60.2531 24.45C60.4865 24.2833 60.6031 24.0667 60.6031 23.8C60.6031 23.45 60.4115 23.1917 60.0281 23.025C59.6448 22.8583 59.0115 22.675 58.1281 22.475C57.1281 22.275 56.2948 22.05 55.6281 21.8C54.9615 21.55 54.3781 21.1417 53.8781 20.575C53.3948 20.0083 53.1531 19.2417 53.1531 18.275C53.1531 17.4417 53.3781 16.6917 53.8281 16.025C54.2781 15.3417 54.9365 14.8 55.8031 14.4C56.6865 14 57.7448 13.8 58.9781 13.8C60.8115 13.8 62.2531 14.25 63.3031 15.15C64.3531 16.05 64.9615 17.2333 65.1281 18.7H60.7031C60.6198 18.25 60.4198 17.9083 60.1031 17.675C59.8031 17.425 59.3948 17.3 58.8781 17.3C58.4781 17.3 58.1698 17.375 57.9531 17.525C57.7531 17.675 57.6531 17.8833 57.6531 18.15C57.6531 18.4833 57.8448 18.7417 58.2281 18.925C58.6115 19.0917 59.2281 19.2667 60.0781 19.45C61.0948 19.6667 61.9365 19.9083 62.6031 20.175C63.2865 20.4417 63.8781 20.875 64.3781 21.475C64.8948 22.0583 65.1531 22.8583 65.1531 23.875C65.1531 24.6917 64.9115 25.425 64.4281 26.075C63.9615 26.725 63.2865 27.2417 62.4031 27.625C61.5365 27.9917 60.5115 28.175 59.3281 28.175ZM70.0371 12.675C69.1704 12.675 68.4704 12.4417 67.9371 11.975C67.4204 11.4917 67.1621 10.8917 67.1621 10.175C67.1621 9.44167 67.4204 8.83333 67.9371 8.35C68.4704 7.86667 69.1704 7.625 70.0371 7.625C70.8871 7.625 71.5704 7.86667 72.0871 8.35C72.6204 8.83333 72.8871 9.44167 72.8871 10.175C72.8871 10.8917 72.6204 11.4917 72.0871 11.975C71.5704 12.4417 70.8871 12.675 70.0371 12.675ZM72.4621 13.975V28H67.5621V13.975H72.4621ZM81.2275 28.175C79.9609 28.175 78.8275 27.9667 77.8275 27.55C76.8442 27.1167 76.0609 26.5333 75.4775 25.8C74.9109 25.05 74.5942 24.2083 74.5275 23.275H79.2775C79.3442 23.725 79.5525 24.075 79.9025 24.325C80.2525 24.575 80.6859 24.7 81.2025 24.7C81.6025 24.7 81.9192 24.6167 82.1525 24.45C82.3859 24.2833 82.5025 24.0667 82.5025 23.8C82.5025 23.45 82.3109 23.1917 81.9275 23.025C81.5442 22.8583 80.9109 22.675 80.0275 22.475C79.0275 22.275 78.1942 22.05 77.5275 21.8C76.8609 21.55 76.2775 21.1417 75.7775 20.575C75.2942 20.0083 75.0525 19.2417 75.0525 18.275C75.0525 17.4417 75.2775 16.6917 75.7275 16.025C76.1775 15.3417 76.8359 14.8 77.7025 14.4C78.5859 14 79.6442 13.8 80.8775 13.8C82.7109 13.8 84.1525 14.25 85.2025 15.15C86.2525 16.05 86.8609 17.2333 87.0275 18.7H82.6025C82.5192 18.25 82.3192 17.9083 82.0025 17.675C81.7025 17.425 81.2942 17.3 80.7775 17.3C80.3775 17.3 80.0692 17.375 79.8525 17.525C79.6525 17.675 79.5525 17.8833 79.5525 18.15C79.5525 18.4833 79.7442 18.7417 80.1275 18.925C80.5109 19.0917 81.1275 19.2667 81.9775 19.45C82.9942 19.6667 83.8359 19.9083 84.5025 20.175C85.1859 20.4417 85.7775 20.875 86.2775 21.475C86.7942 22.0583 87.0525 22.8583 87.0525 23.875C87.0525 24.6917 86.8109 25.425 86.3275 26.075C85.8609 26.725 85.1859 27.2417 84.3025 27.625C83.4359 27.9917 82.4109 28.175 81.2275 28.175ZM100.897 28.175C98.8467 28.175 97.1633 27.6917 95.8467 26.725C94.53 25.7417 93.8217 24.3417 93.7217 22.525H98.9467C98.9967 23.1417 99.18 23.5917 99.4967 23.875C99.8133 24.1583 100.222 24.3 100.722 24.3C101.172 24.3 101.538 24.1917 101.822 23.975C102.122 23.7417 102.272 23.425 102.272 23.025C102.272 22.5083 102.03 22.1083 101.547 21.825C101.063 21.5417 100.28 21.225 99.1967 20.875C98.0467 20.4917 97.1133 20.125 96.3967 19.775C95.6967 19.4083 95.08 18.8833 94.5467 18.2C94.03 17.5 93.7717 16.5917 93.7717 15.475C93.7717 14.3417 94.055 13.375 94.6217 12.575C95.1883 11.7583 95.9717 11.1417 96.9717 10.725C97.9717 10.3083 99.105 10.1 100.372 10.1C102.422 10.1 104.055 10.5833 105.272 11.55C106.505 12.5 107.163 13.8417 107.247 15.575H101.922C101.905 15.0417 101.738 14.6417 101.422 14.375C101.122 14.1083 100.73 13.975 100.247 13.975C99.88 13.975 99.58 14.0833 99.3467 14.3C99.1133 14.5167 98.9967 14.825 98.9967 15.225C98.9967 15.5583 99.1217 15.85 99.3717 16.1C99.6383 16.3333 99.9633 16.5417 100.347 16.725C100.73 16.8917 101.297 17.1083 102.047 17.375C103.163 17.7583 104.08 18.1417 104.797 18.525C105.53 18.8917 106.155 19.4167 106.672 20.1C107.205 20.7667 107.472 21.6167 107.472 22.65C107.472 23.7 107.205 24.6417 106.672 25.475C106.155 26.3083 105.397 26.9667 104.397 27.45C103.413 27.9333 102.247 28.175 100.897 28.175ZM108.95 20.975C108.95 19.525 109.208 18.2583 109.725 17.175C110.258 16.0917 110.975 15.2583 111.875 14.675C112.791 14.0917 113.808 13.8 114.925 13.8C115.891 13.8 116.725 13.9917 117.425 14.375C118.125 14.7583 118.666 15.275 119.05 15.925V13.975H123.95V28H119.05V26.05C118.666 26.7 118.116 27.2167 117.4 27.6C116.7 27.9833 115.875 28.175 114.925 28.175C113.808 28.175 112.791 27.8833 111.875 27.3C110.975 26.7167 110.258 25.8833 109.725 24.8C109.208 23.7 108.95 22.425 108.95 20.975ZM119.05 20.975C119.05 20.075 118.8 19.3667 118.3 18.85C117.816 18.3333 117.216 18.075 116.5 18.075C115.766 18.075 115.158 18.3333 114.675 18.85C114.191 19.35 113.95 20.0583 113.95 20.975C113.95 21.875 114.191 22.5917 114.675 23.125C115.158 23.6417 115.766 23.9 116.5 23.9C117.216 23.9 117.816 23.6417 118.3 23.125C118.8 22.6083 119.05 21.8917 119.05 20.975ZM134.317 18.05H132.117V28H127.192V18.05H125.667V13.975H127.192V13.85C127.192 12.05 127.717 10.675 128.767 9.725C129.833 8.75833 131.358 8.275 133.342 8.275C133.742 8.275 134.05 8.28333 134.267 8.3V12.475C134.133 12.4583 133.95 12.45 133.717 12.45C133.183 12.45 132.792 12.575 132.542 12.825C132.292 13.0583 132.15 13.4417 132.117 13.975H134.317V18.05ZM149.468 20.825C149.468 21.2083 149.443 21.5917 149.393 21.975H140.118C140.168 22.7417 140.376 23.3167 140.743 23.7C141.126 24.0667 141.61 24.25 142.193 24.25C143.01 24.25 143.593 23.8833 143.943 23.15H149.168C148.951 24.1167 148.526 24.9833 147.893 25.75C147.276 26.5 146.493 27.0917 145.543 27.525C144.593 27.9583 143.543 28.175 142.393 28.175C141.01 28.175 139.776 27.8833 138.693 27.3C137.626 26.7167 136.785 25.8833 136.168 24.8C135.568 23.7167 135.268 22.4417 135.268 20.975C135.268 19.5083 135.568 18.2417 136.168 17.175C136.768 16.0917 137.601 15.2583 138.668 14.675C139.751 14.0917 140.993 13.8 142.393 13.8C143.776 13.8 145.001 14.0833 146.068 14.65C147.135 15.2167 147.968 16.0333 148.568 17.1C149.168 18.15 149.468 19.3917 149.468 20.825ZM144.468 19.6C144.468 19 144.268 18.5333 143.868 18.2C143.468 17.85 142.968 17.675 142.368 17.675C141.768 17.675 141.276 17.8417 140.893 18.175C140.51 18.4917 140.26 18.9667 140.143 19.6H144.468Z" fill="white"/>
<path d="M76 38C67.7162 38 61 44.7162 61 53C61 61.2838 67.7162 68 76 68C84.2838 68 91 61.2838 91 53C91 44.7162 84.2838 38 76 38ZM86.9771 53.8161H83.8826H80.0161C79.6318 55.7613 77.9145 57.2269 75.8572 57.2269C73.5142 57.2269 71.6166 55.3294 71.6166 52.9864C71.6166 50.6434 73.5176 48.7493 75.8606 48.7493C77.9825 48.7493 79.7406 50.3067 80.0501 52.3403H83.886H86.9805C87.3886 52.3403 87.7184 52.6701 87.7184 53.0782C87.715 53.4863 87.3852 53.8161 86.9771 53.8161Z" fill="white"/>
</svg>
