<svg width="102" height="101" viewBox="0 0 102 101" fill="none" xmlns="http://www.w3.org/2000/svg">
<path d="M34.7902 24.4957C35.0561 24.1625 35.3379 23.8421 35.6198 23.5214C35.6324 23.5055 35.6609 23.5023 35.6737 23.4865C35.699 23.4547 35.7401 23.4357 35.7655 23.4038L35.7908 23.3722C35.9873 23.1912 36.1964 22.9944 36.4375 22.8227C37.2902 22.1775 38.1752 21.6874 39.1083 21.3648C42.1015 20.3177 45.4334 20.9631 48.0463 23.4211C51.6945 26.8291 51.3677 32.3189 48.4554 35.9679C44.7753 41.4075 38.4508 48.9967 47.2076 55.7954C48.782 57.0177 49.9501 58.0256 54.9097 59.4538C51.6659 60.0492 48.6584 59.864 45.3108 59.012C42.9427 57.68 39.2199 54.8282 37.9532 50.9765C36.0388 45.1356 41.3236 36.4037 43.8777 33.0408C47.3843 28.3866 41.7102 23.3482 37.533 28.973C35.3493 31.9044 31.5292 40.1995 32.8568 46.3524C33.633 49.8415 34.6676 52.3849 38.7699 55.8786C38.0091 55.4315 37.2705 54.9239 36.5538 54.3562C27.0225 45.5088 28.1284 31.829 34.7902 24.4957Z" fill="white"/>
<path d="M67.2354 52.4241C66.9695 52.7572 66.6877 53.0778 66.4058 53.3983C66.3932 53.4142 66.3647 53.4175 66.3519 53.4334C66.3266 53.465 66.2854 53.4842 66.2601 53.5159L66.2348 53.5476C66.0383 53.7287 65.8292 53.9255 65.5881 54.0972C64.7354 54.7423 63.8504 55.2324 62.9172 55.5549C59.9241 56.602 56.5922 55.9567 53.9793 53.4986C50.3311 50.0908 50.6579 44.6008 53.5701 40.9518C57.2503 35.5122 63.5748 27.923 54.8179 21.1245C53.2436 19.9021 52.0755 18.8943 47.1159 17.4661C50.3595 16.8705 53.3672 17.0557 56.7148 17.9078C59.0827 19.2398 62.8057 22.0916 64.0724 25.9434C65.9868 31.7843 60.702 40.516 58.1479 43.879C54.6413 48.5332 60.3154 53.5715 64.4926 47.9467C66.6763 45.0153 70.4963 36.7203 69.1688 30.5675C68.3926 27.0782 67.358 24.5349 63.2557 21.0412C64.0165 21.4885 64.7551 21.9959 65.4718 22.5635C75.0029 31.4109 73.8972 45.0908 67.2354 52.4241Z" fill="white"/>
<path d="M17.6537 80.9145V73.1108C17.6537 72.2327 18.3605 71.5211 19.2323 71.5211V80.9145H17.6537Z" fill="white"/>
<path d="M21.5204 80.9145V71.5211H23.1815L26.9839 78.3379V71.5211C27.8179 71.5211 28.4938 72.2019 28.4938 73.0416V80.9145H26.8329L23.0305 74.0975V80.9145H21.5204Z" fill="white"/>
<path d="M33.4687 81.1425C32.4895 81.1425 31.7253 80.8427 31.1762 80.2434C30.6271 79.6441 30.3526 78.8479 30.3526 77.8549H31.9312C31.9312 78.4364 32.0594 78.9015 32.3156 79.2504C32.5811 79.5903 32.9653 79.7603 33.4687 79.7603C33.972 79.7603 34.3564 79.5903 34.6218 79.2504C34.8963 78.9015 35.0337 78.4408 35.0337 77.8682V73.1108C35.0337 72.2327 35.7404 71.5211 36.6123 71.5211V77.8682C36.6123 78.8613 36.3332 79.6574 35.7749 80.2569C35.2258 80.8474 34.457 81.1425 33.4687 81.1425Z" fill="white"/>
<path d="M38.7566 71.5211H44.3023C44.3023 72.2844 43.6878 72.9033 42.9297 72.9033H40.3352V75.5603H44.3023V76.9424H40.3352V79.5323H44.3023V80.9145H38.7566V75.5603V72.9033V71.5211Z" fill="white"/>
<path d="M78.8259 71.5211H84.3717C84.3717 72.2844 83.7573 72.9033 82.9991 72.9033H80.4045V75.5603H84.3717V76.9424H80.4045V79.5323H84.3717V80.9145H78.8259V75.5603V72.9033V71.5211Z" fill="white"/>
<path d="M50.7564 81.1422C49.3871 81.1422 48.3028 80.6859 47.504 79.7735C46.7052 78.8609 46.3058 77.6756 46.3058 76.2175C46.3058 74.7593 46.7052 73.5738 47.504 72.6614C48.3028 71.749 49.3871 71.2926 50.7564 71.2926C51.9058 71.2926 52.8514 71.6148 53.5931 72.2588C54.335 72.8941 54.771 73.7216 54.9014 74.7413H54.7496C53.9392 74.7413 53.2995 74.1076 52.7621 73.4966C52.6763 73.3989 52.5824 73.3083 52.4804 73.225C52.0403 72.8583 51.4698 72.6748 50.7687 72.6748C49.8313 72.6748 49.0976 72.9969 48.5679 73.6409C48.0461 74.2762 47.7854 75.1351 47.7854 76.2175C47.7854 77.2999 48.0461 78.1632 48.5679 78.8073C49.0976 79.4424 49.8313 79.76 50.7687 79.76C51.4698 79.76 52.0403 79.5767 52.4804 79.2098C52.5824 79.1264 52.6763 79.036 52.7621 78.9383C53.2995 78.3272 53.9392 77.6936 54.7496 77.6936H54.9014C54.771 78.7134 54.335 79.5453 53.5931 80.1895C52.8514 80.8246 51.9058 81.1422 50.7564 81.1422Z" fill="white"/>
<path d="M58.9771 80.9145V72.9704H56.1905C56.1905 72.1699 56.8349 71.5211 57.6297 71.5211H63.3561V72.9704H60.5557V80.9145H58.9771Z" fill="white"/>
<path d="M65.3606 80.9145V73.1108C65.3606 72.2327 66.0672 71.5211 66.9391 71.5211V80.9145H65.3606Z" fill="white"/>
<path d="M72.1262 80.9145L68.9414 71.5211H69.4022C70.1501 71.5211 70.8126 72.0073 71.0416 72.7242L72.8811 78.4855L74.7207 72.7242C74.9497 72.0073 75.612 71.5211 76.36 71.5211H76.8209L73.6361 80.9145H72.1262Z" fill="white"/>
</svg>
