<svg width="152" height="37" viewBox="0 0 152 37" fill="none" xmlns="http://www.w3.org/2000/svg">
<path d="M14.85 36.8C23.1 36.8 29.7 28.55 29.7 18.5C29.7 8.45 23.1 0.199999 14.85 0.199999C6.65 0.199999 0.0500001 8.45 0.0500001 18.5C0.0500001 28.55 6.65 36.8 14.85 36.8ZM14.85 0.999998C20.2 0.999998 24.75 8.75 24.75 18.5C24.75 28.25 20.2 36 14.85 36C9.45 36 5 28.25 5 18.5C5 8.75 9.45 0.999998 14.85 0.999998ZM54.5199 12.7C54.8699 11.65 54.8699 10.55 54.8199 9.5C54.5699 4.85 51.1199 1.45 46.9199 0.799997C46.4699 0.649999 46.0199 0.699998 45.5699 0.699998H30.6199V1.65H31.4699C32.6199 1.65 33.6199 2.25 34.1699 3.2C34.5199 3.85 34.5199 4.2 34.5199 4.95V31.55C34.5199 32.9 34.3699 34 33.2199 34.75C32.6699 35.1 32.0699 35.25 31.4199 35.25H30.6699V36.2H42.9699V35.25H42.0199C41.4199 35.25 40.8199 35.1 40.2699 34.75C39.1199 34 38.9199 32.9 38.9199 31.65V19.25H43.1699C44.9699 19.25 52.9199 19 54.5199 12.7ZM44.9699 1.55C47.7699 2.2 49.9699 5.15 50.1699 9.5C50.2199 10.45 50.1199 11.45 49.9699 12.4C49.3199 16.15 46.7699 17.75 44.8199 18.25C44.0699 18.45 43.4199 18.5 42.6699 18.5H38.9199V4.65C38.9199 4.2 39.0699 3.7 39.3199 3.2C39.7699 2.4 40.5699 1.7 41.5199 1.5C41.6199 1.45 41.7699 1.45 42.0199 1.45H44.2699C44.4699 1.45 44.7199 1.5 44.9699 1.55ZM71.7348 36.8C79.9848 36.8 86.5848 28.55 86.5848 18.5C86.5848 8.45 79.9848 0.199999 71.7348 0.199999C63.5348 0.199999 56.9348 8.45 56.9348 18.5C56.9348 28.55 63.5348 36.8 71.7348 36.8ZM71.7348 0.999998C77.0848 0.999998 81.6348 8.75 81.6348 18.5C81.6348 28.25 77.0848 36 71.7348 36C66.3348 36 61.8848 28.25 61.8848 18.5C61.8848 8.75 66.3348 0.999998 71.7348 0.999998ZM112.587 36.2V26.75H111.887C111.537 28.9 111.237 29.85 110.887 30.7C110.587 31.45 110.187 32.1 109.737 32.7C108.787 33.9 107.887 34.8 106.737 35.2C106.387 35.35 105.937 35.4 105.537 35.4H98.8871C98.2871 35.4 97.6371 35.3 97.0871 34.85C96.7371 34.5 96.6371 34.35 96.3871 33.9C96.1371 33.35 96.0871 32.8 96.0871 32.25V29.6V23.2V10.9V6V5.25C96.0871 4 96.2371 2.9 97.3871 2.15C97.9371 1.8 98.4871 1.6 99.0371 1.6H99.8371V0.699998H95.8871H95.0371H88.1371V1.6H88.8871C89.4871 1.6 90.0371 1.8 90.5871 2.15C91.6371 2.9 91.8371 3.9 91.8371 5.1V6.3V29.3C91.8371 30.05 91.8871 31.1 91.8371 31.95C91.8371 32.7 91.8371 33.05 91.4871 33.7C90.9371 34.75 90.0871 35.25 88.8871 35.25H88.1371V36.2H112.587ZM127.387 36.2V35.25H126.587C125.437 35.25 124.537 34.65 123.987 33.7C123.737 33.2 123.637 32.7 123.637 32.25V29.6V26.15V9.9V6V5.25C123.637 4 123.787 2.9 124.937 2.15C125.487 1.8 126.037 1.6 126.587 1.6H127.387V0.699998H123.437H122.587H115.687V1.6H116.437C117.037 1.6 117.587 1.8 118.137 2.15C119.187 2.9 119.387 3.9 119.387 5.1V6.3V29.3C119.387 30.05 119.437 31.1 119.387 31.95C119.387 32.7 119.387 33.05 119.037 33.7C118.487 34.75 117.637 35.25 116.437 35.25H115.687L115.637 36.2H122.587H123.437H127.387ZM149.396 31.5C151.296 28 151.996 23 149.896 19.45C148.646 17.3 146.446 16.25 144.096 15.5L142.296 15C140.296 14.45 138.246 14.1 136.246 13.35C133.846 12.4 131.796 11.65 131.396 8.65C131.246 7.8 131.346 6.9 131.546 6.05C131.646 5.7 131.846 5.3 132.096 4.85C132.646 4 133.246 3.4 133.896 2.95C135.496 1.8 137.246 1.25 139.196 1.25C140.196 1.25 141.146 1.4 142.046 1.7C143.446 2.15 144.396 3.15 145.346 4.4C145.996 5.25 146.496 6.3 146.946 7.55C147.196 8.35 147.446 9.15 147.646 10.1H148.546V0.549997H147.696C147.646 1.3 147.596 1.5 147.446 1.7C147.396 1.85 147.346 1.8 147.196 1.95L147.146 2.05C146.896 2.2 146.546 2.3 146.046 2.3C145.596 2.3 145.146 2.2 144.746 2L143.746 1.6C142.346 0.899999 140.846 0.549997 139.196 0.549997C137.146 0.549997 135.146 1.15 133.496 2.35C132.296 3.15 131.346 4.3 130.746 5.65C130.596 5.9 130.546 6.15 130.396 6.4C129.896 7.45 129.596 8.55 129.496 9.8C129.346 11.35 129.496 13 130.146 14.4C131.346 17.05 134.446 18.4 136.946 19.2C138.946 19.75 140.946 20.2 142.946 20.75C145.496 21.4 147.696 22.6 148.696 25.15C149.446 27.2 149.246 29.95 148.096 31.9C147.946 32.15 147.696 32.4 147.446 32.75C145.796 34.7 143.546 35.85 140.746 35.85C138.796 35.85 136.996 35.15 135.246 34C134.996 33.85 134.846 33.7 134.646 33.5C134.196 33.1 133.596 32.5 133.246 31.95C132.596 31 132.146 30.25 131.796 29.05C131.396 27.9 131.246 26.65 130.896 25.3H130.246V36.25H131.146L131.296 35.35C131.346 35.15 131.396 34.9 131.546 34.7C131.746 34.25 132.196 34.15 132.746 34.15C133.196 34.15 133.646 34.25 134.046 34.45L135.696 35.25C136.246 35.5 136.646 35.7 137.196 35.9C138.396 36.35 139.596 36.6 140.746 36.6C144.496 36.6 147.796 34.5 149.396 31.5Z" fill="white"/>
</svg>
