<svg width="166" height="13" viewBox="0 0 166 13" fill="none" xmlns="http://www.w3.org/2000/svg">
<path d="M15.974 5.8839C15.2681 5.17143 14.4197 4.81536 13.4286 4.81536H3.60398C3.4215 4.81536 3.26497 4.7499 3.13403 4.61865C3.00311 4.48772 2.9378 4.32804 2.9378 4.13959V3.3167C2.9378 3.13684 3.00311 2.98113 3.13403 2.84988C3.26497 2.71895 3.4215 2.65316 3.60398 2.65316H16.2714C16.3031 2.65316 16.3287 2.64291 16.3485 2.62242C16.3684 2.60224 16.3783 2.57944 16.3783 2.55497V0.0981914C16.3783 0.0654612 16.3684 0.0409959 16.3485 0.0244653C16.3287 0.00826532 16.3028 0 16.2714 0H3.60398C2.60486 0 1.75429 0.3564 1.05257 1.06887C0.350858 1.78133 0 2.64093 0 3.6483V3.80798C0 4.82363 0.350858 5.68752 1.05257 6.39998C1.75429 7.11245 2.60486 7.46852 3.60398 7.46852H13.4286C13.6031 7.46852 13.7558 7.532 13.8864 7.65896C14.0173 7.78591 14.0827 7.94361 14.0827 8.13207V8.95497C14.0827 9.14339 14.0173 9.30109 13.8864 9.42809C13.7555 9.555 13.6028 9.61846 13.4286 9.61846H0.749415C0.725726 9.61846 0.703637 9.62878 0.68411 9.64925C0.664261 9.66973 0.654337 9.69654 0.654337 9.72928V12.186C0.654337 12.2105 0.664261 12.2333 0.68411 12.2535C0.703957 12.2739 0.725726 12.2842 0.749415 12.2842H13.4286C14.4197 12.2842 15.2681 11.9262 15.974 11.2094C16.6795 10.4929 17.0326 9.63105 17.0326 8.62371V8.46365C17.0323 7.45629 16.6795 6.59637 15.974 5.8839Z" fill="white"/>
<path d="M37.3033 0H34.5556C34.5319 0 34.5098 0.00826532 34.4903 0.0244653C34.4705 0.0409959 34.4606 0.0654612 34.4606 0.0981914V3.21817C34.4606 3.48828 34.3255 3.69327 34.0562 3.83246L28.5731 6.17848L23.09 3.83246C22.8204 3.69327 22.6857 3.48862 22.6857 3.21817V0.0981914C22.6857 0.0654612 22.6777 0.0409959 22.662 0.0244653C22.6457 0.00826532 22.622 0 22.5903 0H19.8427C19.819 0 19.7969 0.00826532 19.7774 0.0244653C19.7575 0.0409959 19.7476 0.0654612 19.7476 0.0981914V3.67277C19.7476 4.20539 19.8904 4.69237 20.1759 5.1344C20.4614 5.57676 20.8498 5.90406 21.3415 6.11698L27.0983 8.61047V12.1731C27.0983 12.2059 27.1082 12.2327 27.1281 12.2531C27.1479 12.2736 27.1736 12.2839 27.2052 12.2839H29.9529C29.9765 12.2839 29.9983 12.2736 30.0182 12.2531C30.0381 12.2327 30.048 12.2062 30.048 12.1731V8.61079L35.8048 6.12954C36.2962 5.90836 36.6851 5.57875 36.9703 5.14069C37.2559 4.70262 37.3984 4.21761 37.3984 3.685V0.0981914C37.3984 0.0654612 37.3884 0.0409959 37.3686 0.0244653C37.3488 0.00826532 37.327 0 37.3033 0Z" fill="white"/>
<path d="M57.712 0H54.9643C54.9326 0 54.9086 0.010249 54.8929 0.0307469C54.8769 0.0512449 54.8692 0.0737265 54.8692 0.0981914V9.6304H53.7155C53.5013 9.6304 53.3189 9.53217 53.1684 9.33546L47.8399 1.28971C47.2688 0.462857 46.4797 0.0327306 45.4729 0H40.882C40.8503 0 40.8244 0.010249 40.8045 0.0307469C40.7846 0.0512449 40.7747 0.0737265 40.7747 0.0981914V12.1854C40.7747 12.2098 40.7846 12.2327 40.8045 12.2528C40.8244 12.2733 40.85 12.2835 40.882 12.2835H43.6296C43.6533 12.2835 43.6751 12.2733 43.6949 12.2528C43.7148 12.2327 43.7247 12.2098 43.7247 12.1854V2.65316H44.8785C45.0926 2.65316 45.2747 2.75565 45.4256 2.9603L50.754 11.006C51.3252 11.8333 52.1139 12.2591 53.121 12.2835H57.7123C57.7439 12.2835 57.7677 12.2733 57.7837 12.2528C57.7993 12.2327 57.8073 12.2098 57.8073 12.1854V0.0981914C57.8073 0.0737265 57.7993 0.0512449 57.7837 0.0307469C57.7673 0.010249 57.7436 0 57.712 0Z" fill="white"/>
<path d="M77.571 0H60.7407C60.709 0 60.685 0.010249 60.6693 0.0307469C60.6533 0.0512449 60.6456 0.0737265 60.6456 0.0981914V2.55497C60.6456 2.57944 60.6533 2.60224 60.6693 2.62242C60.685 2.64291 60.709 2.65316 60.7407 2.65316H67.6868V12.1854C67.6868 12.2098 67.6945 12.2327 67.7105 12.2528C67.7262 12.2733 67.7502 12.2835 67.7819 12.2835H70.5296C70.5613 12.2835 70.5849 12.2733 70.6009 12.2528C70.6166 12.2327 70.6246 12.2098 70.6246 12.1854V2.65316H77.5707C77.6024 2.65316 77.6281 2.64291 77.6479 2.62242C77.6677 2.60192 77.6776 2.57944 77.6776 2.55497V0.0981914C77.6776 0.0737265 77.6677 0.0512449 77.6479 0.0307469C77.6287 0.010249 77.6027 0 77.571 0Z" fill="white"/>
<path d="M97.9793 0H95.2313C95.2077 0 95.1856 0.010249 95.166 0.0307469C95.1463 0.0512449 95.1369 0.0737265 95.1369 0.0981914V4.81503H84.0039V0.0981914C84.0039 0.0737265 83.9936 0.0512449 83.974 0.0307469C83.9543 0.0105796 83.9283 0 83.8969 0H81.1488C81.1252 0 81.1032 0.010249 81.0835 0.0307469C81.0638 0.0512449 81.0536 0.0737265 81.0536 0.0981914V12.1854C81.0536 12.2098 81.0638 12.2327 81.0835 12.2528C81.1032 12.2733 81.1252 12.2835 81.1488 12.2835H83.8969C83.9283 12.2835 83.9543 12.2733 83.974 12.2528C83.9936 12.2324 84.0039 12.2098 84.0039 12.1854V7.46852H95.1369V12.1854C95.1369 12.2098 95.1463 12.2327 95.166 12.2528C95.1864 12.2733 95.2077 12.2835 95.2313 12.2835H97.9793C98.0108 12.2835 98.0368 12.2733 98.0564 12.2528C98.0761 12.2324 98.0863 12.2098 98.0863 12.1854V0.0981914C98.0863 0.0737265 98.0761 0.0512449 98.0564 0.0307469C98.0368 0.010249 98.0108 0 97.9793 0Z" fill="white"/>
<path d="M118.316 0H104.982C103.991 0 103.142 0.356069 102.436 1.06853C101.73 1.78101 101.378 2.64093 101.378 3.6483V8.62298C101.378 9.63869 101.73 10.5025 102.436 11.215C103.142 11.9275 103.991 12.2839 104.982 12.2839H118.316C118.339 12.2839 118.36 12.2736 118.381 12.2531C118.4 12.2327 118.41 12.2102 118.41 12.1857V9.72896C118.41 9.69621 118.4 9.67176 118.381 9.65518C118.36 9.63901 118.339 9.63072 118.316 9.63072H104.982C104.8 9.63072 104.645 9.56524 104.518 9.43434C104.391 9.30345 104.327 9.14769 104.327 8.96748V7.46852H118.307C118.338 7.46852 118.362 7.45827 118.378 7.43778C118.393 7.41728 118.401 7.3948 118.401 7.37033V4.91355C118.401 4.88083 118.393 4.85636 118.378 4.83983C118.362 4.82363 118.338 4.81536 118.307 4.81536H104.327V3.3167C104.327 3.13652 104.391 2.98113 104.518 2.84988C104.645 2.71895 104.8 2.65316 104.982 2.65316H118.316C118.339 2.65316 118.36 2.64291 118.381 2.62242C118.4 2.60224 118.41 2.57944 118.41 2.55497V0.0981914C118.41 0.0737264 118.4 0.0512449 118.381 0.0307469C118.36 0.0105796 118.339 0 118.316 0Z" fill="white"/>
<path d="M138.627 0H121.797C121.765 0 121.741 0.010249 121.725 0.0307469C121.709 0.0512449 121.702 0.0737265 121.702 0.0981914V2.55497C121.702 2.57944 121.709 2.60224 121.725 2.62242C121.741 2.64291 121.765 2.65316 121.797 2.65316H128.743V12.1854C128.743 12.2098 128.751 12.2327 128.766 12.2528C128.783 12.2733 128.807 12.2835 128.838 12.2835H131.585C131.618 12.2835 131.641 12.2733 131.657 12.2528C131.673 12.2327 131.68 12.2098 131.68 12.1854V2.65316H138.627C138.659 2.65316 138.684 2.64291 138.704 2.62242C138.724 2.60192 138.734 2.57944 138.734 2.55497V0.0981914C138.734 0.0737265 138.724 0.0512449 138.704 0.0307469C138.685 0.010249 138.659 0 138.627 0Z" fill="white"/>
<path d="M145.024 0.0244653C145.008 0.00826532 144.984 0 144.953 0H142.205C142.173 0 142.149 0.00826532 142.134 0.0244653C142.118 0.0409959 142.11 0.0654612 142.11 0.0981914V12.1854C142.11 12.2098 142.118 12.2327 142.134 12.2528C142.149 12.2733 142.173 12.2835 142.205 12.2835H144.953C144.984 12.2835 145.008 12.2733 145.024 12.2528C145.04 12.2324 145.048 12.2098 145.048 12.1854V0.0981914C145.048 0.0657918 145.04 0.0409959 145.024 0.0244653Z" fill="white"/>
<path d="M152.61 2.9854C152.491 2.84621 152.344 2.77645 152.17 2.77645H148.601C148.57 2.77645 148.544 2.76621 148.524 2.74571C148.505 2.72554 148.494 2.70273 148.494 2.67826V0.221483C148.494 0.197018 148.505 0.174536 148.524 0.154038C148.544 0.133871 148.57 0.123291 148.601 0.123291H152.372C153.323 0.123291 154.144 0.520687 154.834 1.31481L155.75 2.45708L153.966 4.68045L152.61 2.9854ZM159.199 1.30259C159.889 0.516389 160.713 0.123291 161.673 0.123291H165.431C165.463 0.123291 165.487 0.131557 165.503 0.147756C165.519 0.164287 165.526 0.188753 165.526 0.221483V2.67826C165.526 2.70273 165.519 2.72554 165.503 2.74571C165.487 2.76621 165.463 2.77645 165.431 2.77645H161.863C161.689 2.77645 161.542 2.84621 161.424 2.9854L158.794 6.25284L161.435 9.54471C161.554 9.67601 161.697 9.74149 161.863 9.74149H165.431C165.463 9.74149 165.487 9.75173 165.503 9.77221C165.519 9.79268 165.526 9.81949 165.526 9.85191V12.3087C165.526 12.3331 165.519 12.356 165.503 12.3761C165.487 12.3966 165.463 12.4068 165.431 12.4068H161.673C160.714 12.4068 159.893 12.0098 159.211 11.2153L157.023 8.48846L154.834 11.2153C154.144 12.0098 153.319 12.4068 152.36 12.4068H148.601C148.57 12.4068 148.546 12.3966 148.53 12.3761C148.514 12.3556 148.506 12.3291 148.506 12.2961V9.83932C148.506 9.81486 148.514 9.79236 148.53 9.77188C148.546 9.75141 148.57 9.74109 148.601 9.74109H152.17C152.336 9.74109 152.483 9.6717 152.61 9.53219L155.191 6.314L159.199 1.30259Z" fill="white"/>
</svg>
