<svg width="100" height="85" viewBox="0 0 100 85" fill="none" xmlns="http://www.w3.org/2000/svg">
<g style="mix-blend-mode:luminosity" clip-path="url(#clip0_2_78)">
<path d="M73.2675 35.464L70.963 33.9927L69.8067 31.9802L70.4033 30.2086L86.138 10.0363L84.5299 18.0432L78.9059 31.9802L75.684 35.464" fill="white"/>
<path d="M48.0275 75.9313L57.5149 76.7351C57.5149 76.7351 68.9515 76.7351 79.6572 66.4622C90.3626 56.1891 88.1249 41.0921 87.3194 40.1988C86.5139 39.3055 74.6099 40.8242 74.6099 40.8242L65.0333 58.3262L53.0398 62.6209" fill="white"/>
<path d="M85.5715 38.3552C85.2023 37.6521 84.7723 36.9786 84.2918 36.3535C83.2095 34.9445 81.8248 33.6967 80.1774 32.6452C80.1213 32.603 80.067 32.5676 80.0112 32.5269L79.0228 35.5039C78.9144 35.8297 78.6602 36.091 78.3588 36.1859C77.731 36.3832 77.1443 36.5137 76.5961 36.5873C74.9386 36.8091 73.6355 36.5088 72.6169 35.9523C70.7055 34.9087 69.7969 32.9697 69.4221 31.8969C68.3938 33.1739 72.0272 36.5213 72.0272 36.5213C69.9312 36.1704 68.4334 33.93 67.9241 32.3885C67.9123 32.3525 67.898 32.3149 67.887 32.2794C67.5291 31.1128 68.6517 30.7671 69.2208 30.6677C69.2593 30.5296 69.3237 30.3959 69.4154 30.2791L70.2541 29.2084C69.2018 29.0257 68.1638 28.9305 67.1559 28.9305C59.6675 28.9305 53.5713 33.8387 46.1635 41.7581C45.8128 42.1332 45.4738 42.4862 45.1439 42.8231C44.0842 43.9043 43.1307 44.7917 42.2723 45.524C42.1162 45.5888 41.8682 45.765 41.4975 46.0947C38.2754 48.9531 31.8312 47.5238 31.8312 47.5238L31.7828 47.5334L31.093 47.236C25.9002 44.9963 22.3436 39.8785 20.805 32.4354C20.6332 31.6017 20.4852 30.7322 20.3626 29.8419C20.339 29.668 20.3173 29.4913 20.2957 29.3154C20.2827 29.2126 20.2682 29.1103 20.2564 29.0065C20.2492 28.9476 20.2502 28.8897 20.2534 28.8323C20.2652 28.6098 20.3476 28.4003 20.4987 28.2303C20.5427 28.1812 20.5914 28.1385 20.643 28.099C20.6583 28.0872 20.6747 28.0777 20.691 28.0669C20.8539 27.9572 21.0437 27.8939 21.2408 27.8939C21.3392 27.8939 21.4377 27.9089 21.5351 27.9386L23.3098 28.4825C24.856 29.1662 28.2212 30.6785 30.0412 31.444C30.7516 31.743 31.4349 31.9359 31.4349 31.9359L31.4875 31.9423C31.7592 31.9746 32.0246 31.9903 32.2845 31.9903C33.5543 31.9903 34.6772 31.6125 35.7185 30.8353C36.8197 30.0131 37.6953 28.8424 38.3841 27.5941C39.0782 26.3357 39.5824 24.9989 39.9354 23.8586L40.1313 23.2263L39.4944 23.4098C38.8708 23.5892 38.2673 23.6804 37.7017 23.6804C37.2192 23.6804 36.756 23.6137 36.3261 23.4817L35.8755 23.3416C35.1755 23.1245 29.9583 21.5286 25.8078 20.9503C25.7078 20.95 25.5745 20.9405 25.4189 20.925C25.1566 20.4 24.6712 20.0097 24.6712 20.0097L19.3009 18.9378L18.1439 19.0531C17.5578 18.7793 17.0542 18.6544 17.0542 18.6544L17.0928 18.6483C14.3374 17.8673 10.1119 17.1905 5.68681 16.8794C4.72765 16.8131 3.76037 16.4225 2.81154 15.7172L2.26731 15.3126L2.23929 15.9885C2.20192 16.9034 2.21888 17.936 2.3413 18.9935C2.38604 19.3821 2.44626 19.7739 2.5232 20.1647C2.7201 21.1645 3.03252 22.1547 3.50424 23.0629C3.82453 23.6802 4.21488 24.2607 4.6984 24.7761C6.2244 26.4025 8.5166 27.2263 11.5121 27.2263C12.5511 27.2263 13.691 27.1265 14.8999 26.9287C14.9746 26.9162 15.0503 26.9106 15.125 26.9106C15.4785 26.9106 15.8163 27.0433 16.0751 27.2837C16.3883 27.5752 16.552 28.0028 16.5126 28.4287C16.4996 28.5387 16.4224 29.2165 16.346 30.3301C16.1139 33.6935 15.8888 41.0368 17.4765 48.7493C17.9519 51.0589 18.5477 53.2056 19.2589 55.1917C22.2189 63.4537 27.2109 68.9096 34.1568 71.4442L34.4761 71.5607L34.6089 71.2482C35.5449 69.045 35.9667 67.1728 35.8738 65.6603C35.8593 65.4265 35.8347 65.1996 35.7957 64.9832L35.8436 64.9707C35.4999 62.8399 34.4614 61.1436 34.4614 61.1436L32.9541 59.1232C37.9608 60.3909 38.5746 64.2754 38.5746 64.2754C38.8718 65.7278 38.7545 67.321 38.3747 68.9439C37.2391 73.7946 33.7527 78.9111 31.9428 81.3312L31.6527 81.7193L32.109 81.8819C33.6635 82.4347 35.1946 82.7151 36.6597 82.7151C39.9157 82.7151 42.5921 81.3407 44.6161 78.6314C44.7899 78.3991 44.9546 78.1663 45.121 77.933C48.7463 72.8446 50.5889 67.6623 51.4045 64.809H51.4178L51.4829 64.5278C51.5326 64.3122 51.8381 63.2373 52.9735 63.2373C53.3518 63.2373 53.7918 63.3534 54.2805 63.5828C55.0258 64.0612 55.8626 64.3605 56.644 64.5499C56.6302 64.5416 56.6152 64.5345 56.602 64.5259C54.8478 63.4255 54.2355 60.5683 54.2102 60.4466C54.1861 60.294 54.135 60.1301 54.0878 60.0344C53.7252 60.1635 53.5814 60.4765 53.4256 60.8938C53.3191 61.178 53.2095 61.4714 52.9049 61.6002C52.7363 61.6713 52.5473 61.6684 52.371 61.5918C51.9632 61.4137 51.7784 60.858 51.9001 60.176C51.9986 59.624 52.5527 57.8077 55.5494 57.6281C57.243 57.5263 58.2671 57.7589 58.5958 58.3168C58.7457 58.5719 58.7398 58.8732 58.58 59.1227C58.3337 59.5079 57.7703 59.7081 57.1101 59.6431L56.8247 59.6149C56.6669 59.5989 56.498 59.5813 56.3601 59.5715C56.3645 59.5881 56.3694 59.6066 56.3748 59.6252C56.6959 60.7616 57.3013 61.5447 58.2261 62.0197C59.3767 62.6105 60.8014 62.6004 61.9344 62.4446C66.02 60.7442 69.9523 55.5935 75.4184 47.0714C76.7938 44.9274 78.1696 43.1975 79.5382 41.8881C81.3049 40.1979 83.06 39.2082 84.7871 38.9332C84.9567 38.9065 85.1209 38.8893 85.2799 38.877L85.8222 38.8358L85.5715 38.3552Z" fill="white"/>
<path d="M14.1887 29.3537L14.1931 29.2882L13.3696 29.353C13.6909 29.3594 13.968 29.3584 14.1887 29.3537Z" fill="#DCE6F1"/>
<path d="M20.3627 29.8421C20.3388 29.6679 20.3177 29.4915 20.2958 29.3156C20.3295 29.6377 20.3627 29.8433 20.3627 29.8433V29.8421Z" fill="#DCE6F1"/>
<path d="M59.9396 56.3305C61.1465 57.3011 62.9132 57.111 63.8851 55.9066C64.8578 54.7015 64.6668 52.9385 63.4601 51.9681C62.2532 50.9978 60.4865 51.188 59.5146 52.3923C58.5422 53.597 58.7327 55.3605 59.9396 56.3305ZM60.4942 53.0965C60.9079 52.5837 61.5735 52.3943 62.1708 52.5604C62.0838 52.6166 62.002 52.6833 61.9334 52.7684C61.5851 53.1997 61.6534 53.8308 62.0855 54.1777C62.4572 54.4765 62.9756 54.466 63.3355 54.1836C63.3183 54.5074 63.2069 54.8291 62.9872 55.1006C62.4329 55.7881 61.4253 55.896 60.7363 55.3426C60.048 54.7896 59.9391 53.7837 60.4942 53.0965Z" fill="#1C2328"/>
<path d="M99.15 10.0363L96.2875 10.9516C96.9891 12.986 97.1995 15.2196 96.7941 17.4838C95.9252 22.3371 92.4602 26.0869 88.0833 27.5678L89.0412 30.4098C94.4235 28.5947 98.6768 23.9865 99.7466 18.0103C100.242 15.2458 99.9944 12.5206 99.15 10.0363Z" fill="#AEB8CB"/>
<path d="M71.3991 19.0592C70.7932 17.122 70.628 15.0175 71.0098 12.8857C71.8745 8.05623 75.3098 4.3197 79.657 2.82411L78.6499 0C73.3212 1.84128 69.1192 6.42472 68.0566 12.359C67.579 15.0276 67.7941 17.6586 68.5686 20.0718L71.3991 19.0592Z" fill="#AEB8CB"/>
<path d="M86.138 21.7998L86.1404 21.8027L87.0979 24.6431C90.3802 23.4939 92.9657 20.6627 93.621 17.0017C93.9361 15.2421 93.7641 13.5095 93.2061 11.9369L90.3406 12.8535C90.7556 13.9752 90.8937 15.2151 90.6683 16.4749C90.2128 19.0181 88.4164 20.9875 86.138 21.7998Z" fill="#AEB8CB"/>
<path d="M73.9929 13.5008C73.7125 15.0678 73.8182 16.6134 74.238 18.0435L77.0695 17.0305L77.0776 17.032C76.8227 16.0793 76.76 15.0607 76.9454 14.0278C77.4166 11.3936 79.3271 9.37322 81.7223 8.6188L80.7142 5.79102C77.3377 6.89357 74.6618 9.76577 73.9929 13.5008Z" fill="#AEB8CB"/>
<path d="M60.4939 53.0965C60.9076 52.5838 61.5732 52.3944 62.1706 52.5604C62.0835 52.6166 62.0017 52.6834 61.9331 52.7685C61.5848 53.1998 61.6531 53.8308 62.0853 54.1777C62.4569 54.4766 62.9754 54.466 63.3352 54.1836C63.318 54.5075 63.2067 54.8291 62.9869 55.1007C62.4326 55.7881 61.425 55.8961 60.736 55.3426C60.0477 54.7896 59.9388 53.7837 60.4939 53.0965Z" fill="white"/>
<path d="M86.05 35.0087C84.6666 33.2081 82.8736 31.6527 80.7228 30.3838L85.3885 16.3278L87.6628 9.47764C87.8022 9.05639 87.667 8.629 87.3388 8.44966C87.3366 8.44843 87.3339 8.44672 87.3317 8.44549C86.9984 8.2686 86.5608 8.39446 86.285 8.74701L81.9602 14.2672L71.7924 27.2452C71.7403 27.238 71.6965 27.2322 71.6643 27.2277L71.622 27.2228L71.5805 27.2133C70.0987 26.8882 68.6199 26.7236 67.1851 26.7236C59.5173 26.7236 53.3695 31.3487 47.8333 36.8433C47.2701 37.4025 46.7131 37.9699 46.1618 38.5428C45.6175 39.1081 45.0785 39.678 44.5438 40.2494C39.4565 45.6881 36.0267 46.1111 35.0965 46.1111C35.0567 46.1111 35.0262 46.1103 35.0043 46.1093L34.9384 46.1062L34.8733 46.0944C28.7437 44.9521 24.6259 40.0242 22.9647 31.8436L22.6046 30.0688C23.3132 30.5339 28.5567 33.9258 30.9983 34.1071C31.018 34.1085 31.0344 34.1098 31.0536 34.1108C31.4865 34.1701 31.8995 34.203 32.2964 34.203C34.0304 34.203 35.6302 33.6637 37.0524 32.5999C41.7686 29.0717 42.9178 20.9502 42.9642 20.6065C43.0095 20.2736 42.8497 19.951 42.5574 19.7841C42.4333 19.7135 42.2924 19.6764 42.1503 19.6764C41.9672 19.6764 41.7865 19.7387 41.6413 19.8531C41.07 20.303 39.2505 21.473 37.7188 21.473C37.4548 21.473 37.2048 21.438 36.9775 21.369L36.5338 21.2316C35.7767 20.9966 29.929 19.2083 25.4356 18.6794C25.3196 18.6592 25.1939 18.6403 25.0489 18.6244C22.0898 18.2929 21.8637 18.6698 21.8637 18.6698L21.668 18.4823C19.7047 16.6055 14.0837 15.2534 5.84112 14.6744C3.82791 14.5336 2.05314 11.6197 2.03545 11.59C1.88575 11.3378 1.6156 11.1837 1.32726 11.1837C1.28621 11.1837 1.24467 11.1869 1.20263 11.1931C0.869311 11.2443 0.604079 11.4887 0.52714 11.816C0.437173 12.1989 -1.62593 21.2557 3.07253 26.2783C5.03411 28.3742 7.86956 29.4373 11.5005 29.4373C12.0213 29.4373 12.5658 29.4154 13.1189 29.3723L13.3694 29.3526L14.1924 29.2879L14.1879 29.3534L14.1208 30.3605C13.8298 34.6976 13.6199 44.3844 16.3985 53.6587C16.5844 54.2777 16.7825 54.8952 16.9956 55.5091C18.246 59.1126 19.9879 62.5923 22.3919 65.6038C23.7375 67.2891 25.2905 68.8273 27.083 70.1578C28.8315 71.4559 30.8046 72.5577 33.0359 73.4034L34.0466 73.7866L33.5172 74.727C31.9216 77.5622 30.0065 80.1844 28.7462 81.6935C28.5835 81.8885 28.5159 82.1439 28.5606 82.3941C28.6053 82.6441 28.7577 82.8598 28.9777 82.9866C29.801 83.4587 32.7851 84.9992 36.6336 84.9992C37.8314 84.9992 38.9885 84.8436 40.072 84.5377C42.5876 83.8262 44.7351 82.2987 46.454 79.9974C47.0187 79.2408 47.571 78.4464 48.0958 77.6353L48.1769 77.5092C53.7866 77.9569 58.6579 77.4508 58.6579 77.4508C64.8725 76.7562 70.9212 74.4854 76.0233 70.8779C83.3077 65.7282 87.8604 58.4966 89.1895 49.9644C90.1244 43.9695 89.0679 38.9378 86.05 35.0087ZM71.3902 30.1134L71.8627 29.4947L72.7916 28.2766L73.3594 27.5322L82.7706 15.1928L85.5859 11.5022L83.0636 15.4303L80.197 19.8955C81.7594 20.3271 84.185 17.7498 84.185 17.7498C82.1571 21.6539 79.4222 21.0013 79.4222 21.0013L75.438 27.0064C75.7377 27.0153 76.2089 27.0646 76.9336 27.1819C79.8767 27.6593 81.443 25.1105 81.443 25.1105C80.1028 28.4559 78.1211 28.5011 76.3225 28.4854C75.5236 28.4782 74.7606 28.4601 74.1065 28.7128C73.7191 28.8619 73.37 29.1058 73.0741 29.5038C73.0315 29.5609 72.9986 29.6161 72.9588 29.6728C71.9485 31.1198 71.9207 32.3369 72.0827 33.1071C72.2002 33.6667 72.4123 33.9932 72.4123 33.9932C71.2853 33.3536 70.9709 32.4974 70.9628 31.7521C70.9534 30.8519 71.3902 30.1134 71.3902 30.1134ZM21.4163 21.1305C21.4163 21.1305 21.4485 20.0101 23.2474 20.4816C23.2478 20.4816 23.2486 20.4816 23.2493 20.4819C23.8523 20.6315 24.4432 20.767 24.9857 20.8729C25.3591 20.9264 25.6253 20.95 25.8072 20.951C29.9578 21.5292 35.1749 23.1249 35.8747 23.342L36.3256 23.4819C36.7557 23.6141 37.2186 23.6806 37.7011 23.6806C38.2667 23.6806 38.8705 23.5893 39.4938 23.41L40.1307 23.2272L39.9348 23.859C39.5818 24.9991 39.0777 26.3369 38.3835 27.5948C37.6947 28.8433 36.8192 30.0141 35.7179 30.8362C34.6769 31.6132 33.5538 31.9913 32.2839 31.9913C32.0238 31.9913 31.7586 31.9753 31.487 31.9427L31.4344 31.9368C31.4344 31.9368 30.751 31.7435 30.0406 31.4444C28.2206 30.6794 24.8552 29.1669 23.3093 28.4834L22.1832 28.1382C22.0515 26.7751 21.8814 24.9912 21.7125 23.1369C21.6427 22.3703 21.539 21.7064 21.4153 21.1293L21.4163 21.1305ZM22.5227 29.663V29.6637L22.5224 29.663H22.5227ZM45.1215 77.9336C44.9551 78.1667 44.7901 78.3995 44.6166 78.6321C42.5926 81.3414 39.9159 82.7153 36.6601 82.7153C35.1953 82.7153 33.6642 82.4351 32.1094 81.8821L31.6527 81.72L31.943 81.3318C33.7529 78.9118 37.2393 73.795 38.3749 68.9444C38.7547 67.3214 38.8719 65.7282 38.5745 64.276C38.5745 64.276 37.961 60.3916 32.9542 59.1239L34.4616 61.1443C34.4616 61.1443 35.5001 62.8406 35.8438 64.9713L35.7958 64.9836C35.8349 65.2002 35.8595 65.4272 35.874 65.661C35.9669 67.1733 35.5451 69.0457 34.6091 71.2488L34.4761 71.5614L34.157 71.4449C27.2111 68.9103 22.2191 63.4544 19.259 55.1926C18.5477 53.2061 17.9521 51.0591 17.4767 48.7499C15.889 41.0369 16.1141 33.6942 16.3462 30.3306C16.4229 29.2174 16.4998 28.5396 16.5128 28.4292C16.5522 28.004 16.3887 27.5764 16.0753 27.2844C15.8164 27.044 15.4787 26.9115 15.1247 26.9115C15.05 26.9115 14.9748 26.9174 14.8998 26.9299C13.6909 27.1276 12.5508 27.2275 11.512 27.2275C8.51605 27.2275 6.22409 26.4032 4.69833 24.777C4.21457 24.2613 3.82447 23.6809 3.50418 23.0638C3.03246 22.1556 2.72003 21.1654 2.52314 20.1654C2.4462 19.7746 2.38597 19.3832 2.34099 18.9946C2.21907 17.9372 2.20211 16.9046 2.23922 15.9899L2.26725 15.3135L2.81148 15.7179C3.76007 16.4235 4.72759 16.814 5.68675 16.8805C9.89825 17.1764 13.9266 17.8042 16.6815 18.5375C16.6815 18.5375 18.5523 19.0812 19.1059 20.0758C19.3893 20.7059 19.6818 21.7235 19.7524 23.3155C19.8677 25.9282 20.0687 27.6654 20.2583 28.7972C20.2573 28.8094 20.2543 28.8212 20.2536 28.8332C20.2504 28.8907 20.2494 28.9486 20.2565 29.0074C20.2683 29.111 20.2829 29.2133 20.2959 29.3166C20.3178 29.4922 20.3389 29.6684 20.3627 29.8428C20.4854 30.7329 20.6334 31.6024 20.8052 32.4361C22.3437 39.8792 25.9007 44.997 31.0932 47.2369L31.6949 47.4965H31.6954C31.6954 47.4965 36.4856 49.6687 40.8908 46.6317C42.0719 45.748 43.4765 44.5257 45.1441 42.824C45.474 42.4874 45.8129 42.1341 46.1637 41.759C53.5715 33.8396 59.6672 28.9311 67.1561 28.9311C68.1642 28.9311 69.202 29.0263 70.2543 29.2091L69.4156 30.28C69.3239 30.3968 69.2591 30.5305 69.221 30.6684C68.6519 30.7682 67.5288 31.1137 67.8869 32.2803C67.898 32.3151 67.9125 32.3531 67.9243 32.3892C68.4336 33.9309 69.9311 36.1706 72.0274 36.5222C72.0274 36.5222 68.3938 33.1745 69.4223 31.8975C69.7966 32.9707 70.7057 34.9091 72.6171 35.9528C73.636 36.5092 74.9388 36.81 76.5963 36.5877C77.1445 36.5146 77.7312 36.3841 78.359 36.1866C78.6604 36.0919 78.9146 35.8303 79.023 35.5045L80.0114 32.5276C80.0672 32.5683 80.1215 32.6041 80.1776 32.6458C81.825 33.6974 83.2094 34.9456 84.292 36.3544C84.7723 36.9793 85.2025 37.653 85.5717 38.3559L85.8234 38.8362L85.2811 38.8777C85.1221 38.8902 84.9579 38.9069 84.7883 38.9341C83.0612 39.2094 81.3061 40.1989 79.5394 41.889C78.1707 43.1984 76.7949 44.928 75.4196 47.0723C69.9532 55.5947 66.0212 60.7451 61.9351 62.4456C60.8024 62.6013 59.3776 62.6114 58.227 62.0206C57.3022 61.5457 56.6965 60.7625 56.3758 59.6261C56.3706 59.6075 56.3654 59.5893 56.361 59.5724C56.4992 59.5822 56.668 59.5996 56.8256 59.6158L57.111 59.644C57.7715 59.709 58.3346 59.5088 58.5809 59.1241C58.7407 58.8737 58.7466 58.5726 58.5967 58.318C58.268 57.7598 57.2442 57.5275 55.5501 57.6293C52.5539 57.8084 51.9996 59.6244 51.901 60.1769C51.7793 60.8589 51.9642 61.4149 52.372 61.5928C52.5482 61.6693 52.7372 61.6722 52.9059 61.6011C53.2104 61.4723 53.3201 61.1789 53.4265 60.8948C53.5823 60.4774 53.7261 60.1644 54.0887 60.0353C54.1359 60.131 54.1868 60.2949 54.2111 60.4475C54.2365 60.569 54.8488 63.4264 56.6029 64.5268C56.6162 64.5351 56.6312 64.5422 56.6449 64.5508C55.8635 64.3614 55.0267 64.0621 54.2814 63.5837C53.7928 63.354 53.3528 63.2382 52.9744 63.2382C51.8388 63.2382 51.5335 64.3131 51.4838 64.5287L51.4185 64.8099H51.4054C50.5893 67.663 48.7467 72.8453 45.1215 77.9336ZM62.7684 74.4935C62.7789 74.4868 63.9352 74.1836 64.2425 74.0999C63.8136 74.2231 63.3829 74.3399 62.95 74.4471C62.8891 74.4621 62.8293 74.479 62.7684 74.4935ZM87.0013 49.6258C86.8838 50.3792 87.0079 49.8329 86.8428 50.5426C86.7921 50.2247 86.7371 49.9126 86.679 49.6079C86.1326 46.7374 85.0557 45.8191 85.0557 45.8191C85.686 47.9249 85.6186 51.5485 85.3993 54.6084C85.3671 55.0591 85.332 55.4965 85.2944 55.9158C83.7802 59.7291 82.4216 61.8847 80.1382 64.2613C80.2761 63.9488 80.4074 63.6298 80.5355 63.3072C83.1049 56.8368 82.9498 49.5836 82.9498 49.5836C81.0143 57.6462 78.0786 63.8906 75.9459 67.7272C75.8697 67.8644 75.7937 68.0005 75.7197 68.1316C75.643 68.2662 75.5683 68.3978 75.4943 68.5256C75.2416 68.7157 74.9899 68.8997 74.7426 69.0744C72.5522 70.623 70.1784 71.9108 67.6905 72.9152C66.5885 73.36 65.4625 73.7447 64.3212 74.0754C64.6137 73.8826 64.9003 73.6868 65.1818 73.4888C73.9084 67.3619 75.8296 59.5407 75.8296 59.5407C70.3264 67.4424 64.6439 71.5143 59.9474 73.5904C59.6001 73.7437 59.2584 73.8862 58.9219 74.0192C58.7896 74.0712 58.6584 74.122 58.5276 74.1713C57.4374 74.5808 56.4117 74.8848 55.4695 75.1066C54.8136 75.2611 54.1993 75.3757 53.6286 75.4604C53.0293 75.4417 52.4329 75.4054 51.8415 75.3541C51.4748 75.3222 51.1097 75.2862 50.7479 75.242L50.2297 75.1785L50.4753 74.7189C52.3339 71.2395 53.4587 68.0526 54.1104 65.7998L54.469 65.846L54.7809 65.8872C54.8429 65.9007 54.8987 65.9127 54.9636 65.9272C56.6958 66.3089 58.167 66.3538 59.3715 66.2375C61.9832 65.9853 63.335 64.9718 63.335 64.9718L63.3276 64.9711C68.34 62.7385 72.6289 56.5819 77.7669 48.5716C81.2149 43.195 83.82 41.9648 85.0663 41.7099C85.2941 41.6633 85.5178 41.64 85.7327 41.64C86.1857 41.64 86.5109 41.7435 86.7039 41.8306L86.8681 41.9052L86.9054 42.0809C87.3963 44.3468 87.4273 46.8851 87.0013 49.6258Z" fill="#1C2328"/>
<path d="M69.2209 30.6679C69.2209 30.6679 69.1648 31.2427 69.4222 31.897C69.6796 32.5514 69.4222 32.5612 69.4222 32.5612L70.8806 35.0327L72.3722 36.7749L70.8954 36.6557L67.2409 34.7052L67.4646 31.281L69.0456 30.2091" fill="white"/>
</g>
<defs>
<clipPath id="clip0_2_78">
<rect width="100" height="85" fill="white"/>
</clipPath>
</defs>
</svg>
