<svg width="84" height="35" viewBox="0 0 84 35" fill="none" xmlns="http://www.w3.org/2000/svg">
<path d="M26.2094 0V4.98517H29.7652V33.7947H35.2334V0H26.2097H26.2094ZM20.6807 21.2866C20.6465 26.0575 16.3208 29.7986 11.4014 28.7599C8.51976 28.1511 6.1913 25.8009 5.58872 22.8938C4.55654 17.9122 8.29607 13.5262 13.0516 13.5262C17.249 13.5262 20.6501 16.946 20.6807 21.1739V21.2866ZM20.6807 8.85923V10.5604C18.5329 8.99455 15.9038 8.06084 13.0516 8.06084C5.36504 8.06084 -0.769615 14.7654 0.0785237 22.6948C0.72975 28.7885 5.67289 33.7196 11.7164 34.3321C15.0807 34.6728 18.2022 33.7077 20.6807 31.9003V33.8129H26.1029V22.132V21.2305V8.85923H20.6807ZM83.9997 28.7989H71.8213L83.9616 14.0421H83.9737V9.04572H65.2297V14.0421H77.3372L65.2352 28.7989H65.2297V33.7947H84V28.7989H83.9997ZM50.7393 29.4123C48.8271 29.5048 47.0335 28.8446 45.6716 27.5732C44.2121 26.2091 43.3702 24.2807 43.3014 22.14C43.2077 19.982 43.9089 17.9735 45.2749 16.485C46.5318 15.1158 48.2639 14.3267 50.1527 14.2636H50.155C50.2672 14.2581 50.3797 14.2558 50.4917 14.2558C52.2868 14.2558 53.9712 14.9046 55.2662 16.1019C56.7352 17.459 57.5942 19.3885 57.6856 21.5354C57.8678 25.7689 54.8166 29.2295 50.7393 29.4123ZM51.5401 9.24259C51.0984 9.24259 50.6137 9.24259 50.1656 9.26129L57.2688 0H50.7604L40.7076 13.607C38.6733 16.2993 37.6437 19.256 37.7307 22.1564C37.8224 25.5585 39.2291 28.7025 41.6932 31.0104C44.0618 33.2285 47.1519 34.4388 50.4335 34.438C50.5558 34.438 50.6801 34.4359 50.8031 34.4328C57.9007 34.1819 63.3505 28.489 63.2104 21.471C63.02 14.9539 57.8989 9.58283 51.5401 9.24259Z" fill="white"/>
</svg>
