<svg width="150" height="28" viewBox="0 0 150 28" fill="none" xmlns="http://www.w3.org/2000/svg">
<g clip-path="url(#clip0)">
<path d="M77.0372 2.66554H75.6452C75.6399 2.66475 75.6344 2.66516 75.6293 2.66674C75.6241 2.66831 75.6194 2.67101 75.6156 2.67462C75.6118 2.67822 75.6089 2.68262 75.6072 2.68746C75.6055 2.69231 75.6051 2.69745 75.6059 2.70249V4.15656C75.6059 4.42521 75.524 4.64536 75.2244 4.64536C74.9247 4.64536 74.8379 4.4329 74.8379 4.15656V0.378582C74.8357 0.332236 74.8436 0.285949 74.8611 0.242592C74.8787 0.199234 74.9055 0.159731 74.94 0.126531C74.9745 0.0933308 75.0158 0.0671424 75.0615 0.0495899C75.1072 0.0320374 75.1562 0.0234949 75.2055 0.0244923H77.0404C77.1336 0.0256595 77.2227 0.0607076 77.2889 0.12228C77.3552 0.183852 77.3935 0.267161 77.3958 0.354719C77.3958 0.617207 77.2116 0.739599 76.889 0.739599H75.6428C75.6374 0.73881 75.6319 0.739221 75.6268 0.740798C75.6216 0.742376 75.617 0.745076 75.6131 0.748678C75.6093 0.752279 75.6064 0.756681 75.6048 0.761524C75.6031 0.766368 75.6026 0.771515 75.6035 0.776547V1.91348C75.6035 1.94427 75.6166 1.95043 75.6428 1.95043H77.0347C77.1351 1.95184 77.2308 1.99021 77.3014 2.05728C77.372 2.12436 77.4118 2.21479 77.4122 2.30914C77.4127 2.35576 77.4034 2.40202 77.3848 2.44524C77.3662 2.48845 77.3387 2.52777 77.3038 2.56092C77.2689 2.59407 77.2274 2.62038 77.1816 2.63834C77.1359 2.65629 77.0868 2.66554 77.0372 2.66554Z" fill="white"/>
<path d="M78.2539 3.07928C78.2554 2.87079 78.3007 2.66464 78.3872 2.47266C78.4737 2.28068 78.5997 2.10666 78.758 1.9606C78.9162 1.81453 79.1036 1.69931 79.3094 1.62154C79.5152 1.54377 79.7352 1.50499 79.957 1.50743C80.8118 1.50743 81.6331 2.16789 81.6331 2.96998C81.6329 3.06029 81.5961 3.14713 81.5302 3.21289C81.4644 3.27865 81.3744 3.3184 81.2785 3.32406H79.2528C79.171 3.32406 79.1022 3.33022 79.0293 3.33638C79.0834 3.52952 79.2034 3.70061 79.3711 3.82329C79.5387 3.94597 79.7446 4.01344 79.957 4.01531C80.3246 4.01531 80.5416 3.87444 80.7652 3.75282C80.8127 3.7186 80.8694 3.6973 80.9289 3.69124C80.9698 3.69032 81.0105 3.69705 81.0486 3.71102C81.0866 3.725 81.1214 3.74596 81.1508 3.77267C81.1802 3.79938 81.2037 3.83132 81.2198 3.86663C81.236 3.90194 81.2445 3.93992 81.245 3.97836C81.245 4.41251 80.4032 4.66345 79.9562 4.66345C79.7335 4.66558 79.5125 4.62619 79.3061 4.54753C79.0996 4.46888 78.9118 4.35253 78.7535 4.20521C78.5952 4.05789 78.4696 3.88253 78.3838 3.68927C78.298 3.49601 78.2539 3.28868 78.2539 3.07928ZM79.0424 2.79139C79.1079 2.79874 79.1738 2.80285 79.2397 2.80371H80.6669C80.739 2.80371 80.7979 2.79755 80.8642 2.79755C80.7914 2.44885 80.3574 2.18636 79.957 2.18636C79.5566 2.18636 79.1153 2.44038 79.0424 2.78831V2.79139Z" fill="white"/>
<path d="M84.2114 2.20135C84.1189 2.20135 84.1385 2.18903 84.0075 2.18903C83.68 2.18903 83.3632 2.37839 83.3632 2.83101V4.06263C83.3632 4.36206 83.2903 4.63687 83.0078 4.63687C82.7384 4.63687 82.6328 4.46598 82.6328 4.16039V1.98736C82.6328 1.71178 82.7253 1.5255 82.9881 1.5255C83.192 1.5255 83.2903 1.65405 83.3361 1.84957C83.5818 1.63558 83.8274 1.51318 84.132 1.51318C84.4366 1.51318 84.6118 1.67791 84.6118 1.83109C84.6118 2.06664 84.4743 2.20135 84.2114 2.20135Z" fill="white"/>
<path d="M87.7486 2.84826C87.7432 2.67026 87.6651 2.50106 87.5304 2.37578C87.3958 2.25051 87.215 2.17878 87.0256 2.17549C86.6506 2.17549 86.3018 2.37101 86.3018 2.81747V4.10297C86.3018 4.39086 86.22 4.63487 85.9473 4.63487C85.6378 4.63487 85.5919 4.4332 85.5723 4.09604V2.04848C85.5723 1.77368 85.6378 1.51658 85.9408 1.51658C86.0086 1.51721 86.0747 1.53669 86.1308 1.57258C86.1869 1.60847 86.2305 1.65915 86.256 1.71825C86.4799 1.57298 86.7471 1.49807 87.0191 1.50426C87.8608 1.50426 88.4725 2.03001 88.4725 2.80669V4.09681C88.4725 4.40856 88.4061 4.63564 88.1171 4.63564C87.9132 4.63564 87.7486 4.5017 87.7486 4.26308V2.84826Z" fill="white"/>
<path d="M92.4894 1.57193C92.6933 1.57193 92.8055 1.75514 92.8055 2.07305V4.09675C92.8055 4.33537 92.7596 4.60479 92.496 4.60479C92.2725 4.60479 92.1938 4.52781 92.1152 4.34769C91.8633 4.52221 91.5651 4.62801 91.2533 4.65342C90.9415 4.67884 90.6283 4.62289 90.3482 4.49173C90.0681 4.36058 89.8319 4.1593 89.6656 3.91007C89.4994 3.66083 89.4095 3.3733 89.4059 3.07912C89.4095 2.78512 89.4996 2.49779 89.6662 2.24898C89.8328 2.00016 90.0695 1.79957 90.3499 1.66941C90.6304 1.53926 90.9437 1.48464 91.2551 1.51159C91.5666 1.53854 91.864 1.64601 92.1144 1.82211C92.1676 1.70587 92.2069 1.57193 92.4894 1.57193ZM91.1089 3.98667C91.2988 3.9847 91.4838 3.92999 91.6407 3.82943C91.7976 3.72887 91.9194 3.58695 91.9907 3.42151C92.062 3.25607 92.0797 3.07449 92.0416 2.89962C92.0034 2.72475 91.9111 2.56438 91.7763 2.43869C91.6415 2.313 91.4701 2.22759 91.2838 2.1932C91.0975 2.15882 90.9045 2.17699 90.7291 2.24544C90.5537 2.31388 90.4038 2.42955 90.2982 2.57789C90.1925 2.72622 90.1359 2.90061 90.1354 3.07912C90.1335 3.19945 90.1574 3.3189 90.2058 3.43033C90.2542 3.54176 90.3259 3.64286 90.4168 3.7276C90.5077 3.81233 90.6159 3.87895 90.7348 3.92347C90.8537 3.96798 90.981 3.98948 91.1089 3.98667Z" fill="white"/>
<path d="M96.0144 2.84826C96.0089 2.67026 95.9308 2.50106 95.7962 2.37578C95.6615 2.25051 95.4808 2.17878 95.2914 2.17549C94.9164 2.17549 94.5676 2.37101 94.5676 2.81747V4.10297C94.5676 4.39086 94.4857 4.63487 94.213 4.63487C93.9035 4.63487 93.8577 4.4332 93.838 4.09604V2.04848C93.838 1.77368 93.9035 1.51658 94.2065 1.51658C94.2743 1.51721 94.3405 1.53669 94.3965 1.57258C94.4526 1.60847 94.4962 1.65915 94.5217 1.71825C94.7457 1.57298 95.0128 1.49807 95.2848 1.50426C96.1257 1.50426 96.7374 2.03001 96.7374 2.80669V4.09681C96.7374 4.40856 96.6719 4.63564 96.3828 4.63564C96.179 4.63564 96.0144 4.5017 96.0144 4.26308V2.84826Z" fill="white"/>
<path d="M100.384 4.34767C100.133 4.52199 99.835 4.6276 99.5237 4.65286C99.2125 4.67812 98.8998 4.62204 98.6203 4.49081C98.3408 4.35958 98.1053 4.15831 97.9397 3.90919C97.7742 3.66008 97.6851 3.37282 97.6823 3.07911C97.6834 2.87077 97.7282 2.66469 97.8141 2.47263C97.9 2.28058 98.0253 2.10631 98.1829 1.95977C98.3404 1.81324 98.5271 1.69732 98.7323 1.61862C98.9375 1.53992 99.1572 1.49999 99.3788 1.5011C99.7287 1.50096 100.069 1.60587 100.352 1.80054V0.685155C100.352 0.440372 100.515 0.305664 100.713 0.305664C100.944 0.305664 101.082 0.459616 101.082 0.685155V4.26223C101.085 4.30972 101.078 4.35731 101.061 4.4021C101.044 4.4469 101.017 4.48797 100.983 4.52281C100.948 4.55766 100.907 4.58555 100.86 4.6048C100.814 4.62405 100.764 4.63426 100.713 4.63479C100.578 4.63479 100.44 4.56166 100.384 4.34767ZM99.378 3.98665C99.568 3.98529 99.7533 3.93109 99.9107 3.8309C100.068 3.7307 100.19 3.58899 100.262 3.42359C100.334 3.2582 100.352 3.07653 100.314 2.90145C100.277 2.72637 100.184 2.56572 100.05 2.43972C99.915 2.31372 99.7437 2.22801 99.5573 2.19338C99.3708 2.15875 99.1777 2.17675 99.0021 2.24511C98.8266 2.31347 98.6765 2.42913 98.5707 2.57754C98.4649 2.72595 98.4082 2.90046 98.4077 3.07911C98.4066 3.19923 98.4311 3.31835 98.4797 3.42943C98.5283 3.54052 98.6001 3.64132 98.6909 3.72591C98.7816 3.81049 98.8894 3.87714 99.008 3.92192C99.1266 3.9667 99.2535 3.98871 99.3813 3.98665H99.378Z" fill="white"/>
<path d="M103.747 1.50405C104.078 1.50861 104.4 1.60509 104.673 1.78137C104.946 1.95764 105.157 2.20584 105.281 2.49473C105.404 2.78362 105.433 3.10031 105.365 3.40496C105.298 3.70961 105.136 3.98861 104.9 4.20687C104.664 4.42513 104.364 4.5729 104.039 4.63159C103.714 4.69028 103.378 4.65727 103.072 4.53672C102.767 4.41616 102.507 4.21344 102.324 3.95406C102.141 3.69468 102.043 3.39022 102.044 3.07898C102.045 2.87012 102.089 2.66344 102.175 2.47092C102.262 2.2784 102.388 2.10385 102.546 1.95738C102.704 1.81091 102.892 1.69543 103.098 1.61761C103.304 1.5398 103.525 1.5012 103.747 1.50405ZM103.747 3.98037C103.935 3.97734 104.119 3.9221 104.274 3.82158C104.429 3.72107 104.549 3.57975 104.619 3.41535C104.689 3.25096 104.705 3.0708 104.667 2.89749C104.628 2.72417 104.536 2.56541 104.402 2.44111C104.268 2.31682 104.098 2.23252 103.913 2.1988C103.728 2.16508 103.537 2.18343 103.363 2.25156C103.189 2.31968 103.04 2.43455 102.936 2.58175C102.831 2.72894 102.775 2.90192 102.774 3.07898C102.774 3.19861 102.799 3.31714 102.848 3.4276C102.896 3.53806 102.968 3.63822 103.059 3.7222C103.149 3.80618 103.257 3.87228 103.375 3.91662C103.493 3.96095 103.62 3.98263 103.747 3.98037Z" fill="white"/>
<path d="M112.269 0.635821C112.375 0.327918 112.552 0 112.933 0C113.401 0 113.558 0.342543 113.558 0.807478V4.29218C113.551 4.38698 113.506 4.47564 113.431 4.53952C113.356 4.6034 113.258 4.63752 113.157 4.63472C113.11 4.63533 113.063 4.62727 113.02 4.61101C112.977 4.59474 112.937 4.57059 112.903 4.53992C112.87 4.50926 112.843 4.47268 112.825 4.43229C112.806 4.39189 112.796 4.34847 112.796 4.30449V1.68115C112.796 1.5272 112.796 1.38172 112.789 1.23546C112.742 1.33034 112.702 1.42837 112.67 1.52874C112.48 2.04833 111.606 4.3476 111.599 4.35376C111.576 4.43381 111.526 4.50468 111.456 4.55546C111.387 4.60624 111.301 4.63412 111.213 4.63482C111.125 4.63552 111.039 4.609 110.969 4.55933C110.898 4.50966 110.847 4.4396 110.823 4.35992C110.659 3.91962 110.021 2.15841 109.85 1.68115C109.791 1.52258 109.731 1.36324 109.665 1.2193C109.659 1.36555 109.652 1.51258 109.652 1.66576V4.27447C109.653 4.32188 109.644 4.36897 109.625 4.41295C109.606 4.45693 109.578 4.49691 109.543 4.53051C109.507 4.5641 109.465 4.59064 109.418 4.60854C109.371 4.62644 109.321 4.63535 109.271 4.63472C109.17 4.63726 109.073 4.60287 108.999 4.53889C108.926 4.4749 108.881 4.38637 108.876 4.29218V0.807478C108.876 0.354859 109.107 0 109.501 0C109.633 0.00600285 109.76 0.0512745 109.863 0.129294C109.966 0.207314 110.04 0.314056 110.074 0.434144L111.185 3.40619C111.192 3.42389 111.205 3.43005 111.211 3.43005C111.218 3.43005 111.231 3.42389 111.237 3.40619C111.579 2.48247 111.923 1.55902 112.269 0.635821Z" fill="white"/>
<path d="M117.615 1.57165C117.819 1.57165 117.931 1.75486 117.931 2.07277V4.09647C117.931 4.33509 117.885 4.60451 117.622 4.60451C117.398 4.60451 117.319 4.52753 117.241 4.34741C116.989 4.52193 116.691 4.62773 116.379 4.65314C116.067 4.67856 115.754 4.62261 115.474 4.49145C115.194 4.3603 114.957 4.15902 114.791 3.90979C114.625 3.66055 114.535 3.37302 114.531 3.07884C114.534 2.78445 114.624 2.49657 114.79 2.24718C114.957 1.99779 115.194 1.79666 115.474 1.66611C115.755 1.53556 116.069 1.48072 116.38 1.50766C116.692 1.53461 116.99 1.64229 117.241 1.81875C117.293 1.70559 117.333 1.57165 117.615 1.57165ZM116.235 3.98639C116.424 3.98442 116.609 3.92971 116.766 3.82915C116.923 3.72859 117.045 3.58667 117.116 3.42123C117.188 3.25579 117.205 3.07421 117.167 2.89934C117.129 2.72447 117.037 2.5641 116.902 2.43841C116.767 2.31272 116.596 2.22731 116.409 2.19292C116.223 2.15854 116.03 2.17671 115.855 2.24516C115.679 2.3136 115.529 2.42927 115.424 2.57761C115.318 2.72594 115.261 2.90033 115.261 3.07884C115.259 3.19917 115.283 3.31862 115.331 3.43005C115.38 3.54148 115.452 3.64258 115.542 3.72732C115.633 3.81205 115.741 3.87867 115.86 3.92319C115.979 3.9677 116.107 3.9892 116.235 3.98639Z" fill="white"/>
<path d="M120.541 2.20135C120.45 2.20135 120.469 2.18903 120.338 2.18903C120.01 2.18903 119.693 2.37839 119.693 2.83101V4.06263C119.693 4.36206 119.621 4.63687 119.339 4.63687C119.068 4.63687 118.964 4.46598 118.964 4.16039V1.98736C118.964 1.71178 119.055 1.5255 119.318 1.5255C119.523 1.5255 119.621 1.65405 119.667 1.84957C119.913 1.63558 120.158 1.51318 120.463 1.51318C120.767 1.51318 120.943 1.67791 120.943 1.83109C120.943 2.06664 120.804 2.20135 120.541 2.20135Z" fill="white"/>
<path d="M122.626 1.16781C122.626 0.905319 122.724 0.672852 122.994 0.672852C123.265 0.672852 123.349 0.86837 123.349 1.16781V1.57809H123.724C124.013 1.57809 124.204 1.65506 124.204 1.87752C124.204 2.10845 124.02 2.18928 123.724 2.18928H123.349V4.11368C123.349 4.39541 123.251 4.63326 122.994 4.63326C122.698 4.63326 122.626 4.43774 122.626 4.11368V2.18928H122.246C121.957 2.18928 121.779 2.1277 121.779 1.90216C121.779 1.65737 121.943 1.57809 122.246 1.57809H122.628L122.626 1.16781Z" fill="white"/>
<path d="M125.177 0.880284C125.182 0.792144 125.222 0.708997 125.29 0.648097C125.358 0.587198 125.448 0.553223 125.542 0.553223C125.636 0.553223 125.726 0.587198 125.794 0.648097C125.862 0.708997 125.902 0.792144 125.907 0.880284C125.902 0.968423 125.862 1.05157 125.794 1.11247C125.726 1.17337 125.636 1.20734 125.542 1.20734C125.448 1.20734 125.358 1.17337 125.29 1.11247C125.222 1.05157 125.182 0.968423 125.177 0.880284ZM125.177 1.90714C125.177 1.66929 125.341 1.52842 125.546 1.52842C125.737 1.52842 125.907 1.66929 125.907 1.90714V4.26184C125.907 4.50046 125.737 4.6344 125.546 4.6344C125.342 4.6344 125.177 4.50046 125.177 4.26184V1.90714Z" fill="white"/>
<path d="M129.116 2.84824C129.11 2.67024 129.032 2.50104 128.898 2.37576C128.763 2.25049 128.582 2.17876 128.393 2.17547C128.018 2.17547 127.67 2.37099 127.67 2.81745V4.10295C127.67 4.39084 127.588 4.63486 127.314 4.63486C127.005 4.63486 126.959 4.43318 126.939 4.09602V2.04846C126.939 1.77366 127.005 1.51656 127.308 1.51656C127.376 1.51709 127.442 1.53654 127.498 1.57243C127.554 1.60833 127.598 1.65908 127.623 1.71824C127.847 1.5731 128.114 1.49821 128.386 1.50424C129.228 1.50424 129.84 2.02999 129.84 2.80668V4.09679C129.84 4.40855 129.773 4.63563 129.484 4.63563C129.28 4.63563 129.116 4.50169 129.116 4.26306V2.84824Z" fill="white"/>
<path d="M130.78 3.07892C130.781 2.87033 130.826 2.66401 130.912 2.47183C130.998 2.27964 131.124 2.10537 131.282 1.95902C131.44 1.81267 131.628 1.69713 131.833 1.61905C132.039 1.54096 132.259 1.50186 132.481 1.50399C133.336 1.50399 134.158 2.16444 134.158 2.96653C134.158 3.05691 134.121 3.14376 134.055 3.2095C133.989 3.27524 133.899 3.31496 133.803 3.32062H131.778C131.696 3.32062 131.626 3.32678 131.554 3.33294C131.608 3.52588 131.728 3.69677 131.896 3.81931C132.063 3.94184 132.269 4.00923 132.481 4.0111C132.85 4.0111 133.067 3.87023 133.29 3.74861C133.337 3.71414 133.394 3.69282 133.454 3.68703C133.495 3.68611 133.535 3.69284 133.573 3.70682C133.611 3.72081 133.646 3.74178 133.675 3.7685C133.705 3.79523 133.728 3.82717 133.744 3.86248C133.76 3.89778 133.769 3.93574 133.769 3.97415C133.769 4.40829 132.927 4.65923 132.48 4.65923C132.258 4.66106 132.038 4.62157 131.832 4.54302C131.626 4.46448 131.438 4.34844 131.28 4.20157C131.122 4.0547 130.997 3.87991 130.911 3.68724C130.825 3.49457 130.78 3.28784 130.78 3.07892ZM131.569 2.79103C131.634 2.79843 131.7 2.80254 131.766 2.80334H133.193C133.265 2.80334 133.324 2.79719 133.39 2.79719C133.318 2.44848 132.884 2.186 132.483 2.186C132.082 2.186 131.641 2.44002 131.569 2.78795V2.79103Z" fill="white"/>
<path d="M135.166 0.685155C135.166 0.440372 135.33 0.305664 135.534 0.305664C135.725 0.305664 135.889 0.440372 135.889 0.685155V4.26223C135.889 4.50085 135.725 4.63479 135.534 4.63479C135.331 4.63479 135.166 4.50085 135.166 4.26223V0.685155Z" fill="white"/>
<path d="M136.934 0.685155C136.934 0.440372 137.098 0.305664 137.303 0.305664C137.494 0.305664 137.657 0.440372 137.657 0.685155V4.26223C137.657 4.50085 137.494 4.63479 137.303 4.63479C137.099 4.63479 136.934 4.50085 136.934 4.26223V0.685155Z" fill="white"/>
<path d="M138.683 0.880422C138.683 0.78937 138.722 0.702047 138.79 0.637663C138.859 0.57328 138.952 0.537109 139.049 0.537109C139.145 0.537109 139.238 0.57328 139.307 0.637663C139.375 0.702047 139.414 0.78937 139.414 0.880422C139.414 0.971474 139.375 1.0588 139.307 1.12318C139.238 1.18756 139.145 1.22373 139.049 1.22373C138.952 1.22373 138.859 1.18756 138.79 1.12318C138.722 1.0588 138.683 0.971474 138.683 0.880422ZM138.683 1.90728C138.683 1.66943 138.847 1.52856 139.052 1.52856C139.243 1.52856 139.414 1.66943 139.414 1.90728V4.26198C139.414 4.5006 139.243 4.63454 139.052 4.63454C138.848 4.63454 138.683 4.5006 138.683 4.26198V1.90728Z" fill="white"/>
<path d="M144.483 1.50405C144.814 1.50861 145.136 1.60509 145.409 1.78137C145.682 1.95764 145.893 2.20584 146.016 2.49473C146.14 2.78362 146.169 3.10031 146.101 3.40496C146.034 3.70961 145.872 3.98861 145.636 4.20687C145.399 4.42513 145.1 4.5729 144.775 4.63159C144.45 4.69028 144.113 4.65727 143.808 4.53672C143.503 4.41616 143.243 4.21344 143.06 3.95406C142.877 3.69468 142.779 3.39022 142.78 3.07898C142.781 2.87012 142.825 2.66344 142.911 2.47092C142.998 2.2784 143.123 2.10385 143.282 1.95738C143.44 1.81091 143.628 1.69543 143.834 1.61761C144.04 1.5398 144.261 1.5012 144.483 1.50405ZM144.483 3.98037C144.671 3.97734 144.854 3.9221 145.01 3.82158C145.165 3.72107 145.285 3.57975 145.355 3.41535C145.425 3.25096 145.441 3.0708 145.403 2.89749C145.364 2.72417 145.272 2.56541 145.138 2.44111C145.004 2.31682 144.834 2.23252 144.649 2.1988C144.464 2.16508 144.272 2.18343 144.099 2.25156C143.925 2.31968 143.776 2.43455 143.672 2.58175C143.567 2.72894 143.511 2.90192 143.51 3.07898C143.51 3.19861 143.535 3.31714 143.583 3.4276C143.632 3.53806 143.704 3.63822 143.795 3.7222C143.885 3.80618 143.993 3.87228 144.111 3.91662C144.229 3.96095 144.356 3.98263 144.483 3.98037Z" fill="white"/>
<path d="M147.489 1.23515C147.489 0.647828 147.915 0.292969 148.448 0.292969H148.494C149.04 0.292969 149.401 0.677848 149.401 0.92879C149.4 1.00134 149.368 1.07044 149.313 1.12094C149.257 1.17145 149.183 1.19923 149.106 1.19821C148.836 1.18589 148.804 0.890302 148.533 0.880295H148.493C148.322 0.880295 148.217 0.984213 148.217 1.27133V1.57924H148.857C149.12 1.57924 149.311 1.65621 149.311 1.89715C149.311 2.09882 149.139 2.19043 148.857 2.19043H148.219V4.14561C148.219 4.43889 148.107 4.64673 147.857 4.64673C147.568 4.64673 147.49 4.44505 147.49 4.14561V2.18889H147.244C146.968 2.18889 146.753 2.11191 146.753 1.87713C146.753 1.65698 146.943 1.5777 147.244 1.5777H147.49L147.489 1.23515Z" fill="white"/>
<path d="M22.3597 18.6499C20.3765 19.0125 18.1224 19.2057 15.7815 19.2057C13.4405 19.2057 11.1864 19.0125 9.20244 18.6499C3.77137 19.4243 0 21.127 0 23.103C0 25.8079 7.06538 28.0002 15.7815 28.0002C24.4975 28.0002 31.5621 25.8079 31.5621 23.103C31.5621 21.127 27.7907 19.4243 22.3597 18.6499Z" fill="white"/>
<path d="M8.33615 17.2311C9.10991 17.4089 9.95245 17.5605 10.849 17.6798C12.4834 17.8922 14.1316 17.9969 15.7815 17.9931C17.4319 17.9969 19.0806 17.8922 20.7155 17.6798C21.6162 17.5605 22.4538 17.4089 23.2276 17.2311C26.3013 16.5236 28.2935 15.3898 28.2935 14.1112C28.2935 12.4508 24.9364 11.0322 20.2161 10.4795C18.7503 10.7013 17.2677 10.8105 15.7831 10.8059C14.2982 10.8104 12.8154 10.7013 11.3493 10.4795C6.62733 11.0353 3.27518 12.4508 3.27518 14.1112C3.27518 15.3898 5.26321 16.5236 8.33615 17.2311Z" fill="white"/>
<path d="M10.4347 9.37345C11.2106 9.53413 11.9954 9.65414 12.7855 9.73293C13.7805 9.83365 14.7807 9.8835 15.7815 9.88226C16.782 9.88352 17.7818 9.83367 18.7766 9.73293C19.5659 9.65412 20.3498 9.53411 21.1249 9.37345C23.6517 8.84155 25.3122 7.94247 25.3122 6.92331C25.3122 5.28911 21.0438 3.96436 15.779 3.96436C10.5141 3.96436 6.24741 5.28911 6.24741 6.92331C6.24741 7.94247 7.90792 8.84155 10.4347 9.37345Z" fill="white"/>
<path d="M49.3602 14.8123C50.0373 14.0426 50.6146 13.1327 50.6146 11.5463C50.6146 8.83978 48.3817 6.7876 45.3743 6.7876H42.3112C41.2574 6.7876 40.5303 7.60354 40.5303 8.67659V22.5099C40.5303 23.5106 41.2574 24.2804 42.3112 24.2804H46.2242C49.4101 24.2804 51.8182 22.0873 51.8182 19.1476C51.8182 17.3318 50.9151 15.7453 49.3602 14.8123ZM43.4649 9.67958C43.4649 9.56335 43.5148 9.4933 43.6409 9.4933H45.2711C47.102 9.4933 47.7799 10.7765 47.7799 11.7325C47.7799 12.6663 47.1249 13.9956 45.3465 14.0418H43.6155C43.5148 14.0418 43.4649 13.9949 43.4649 13.8779V9.67958ZM46.1743 21.577H43.6417C43.5156 21.577 43.4657 21.5308 43.4657 21.4138V16.6551C43.4657 16.5851 43.5156 16.5381 43.6164 16.515H46.1751C48.1066 16.515 48.8845 17.9614 48.8845 19.0553C48.8845 20.1491 48.1058 21.577 46.1743 21.577Z" fill="white"/>
<path d="M66.4427 12.6897C65.3644 12.6897 65.2145 13.2031 65.0131 13.6458C63.9041 12.8667 62.559 12.4416 61.1746 12.4326C57.5875 12.4326 54.6783 15.1391 54.6783 18.4514C54.6783 21.7875 57.5875 24.4701 61.1746 24.4701C62.5563 24.4694 63.9013 24.0523 65.0123 23.2801C65.3128 23.9567 65.6141 24.26 66.4673 24.26C67.4703 24.26 67.6463 23.2339 67.6463 22.324V14.6026C67.6472 13.3894 67.223 12.6897 66.4427 12.6897ZM61.1746 21.9045C59.0932 21.9045 57.4622 20.3881 57.4622 18.4514C57.4622 16.5147 59.0932 14.999 61.1746 14.999C63.256 14.999 64.8592 16.5154 64.8592 18.4514C64.8592 20.3873 63.2568 21.9045 61.1746 21.9045Z" fill="white"/>
<path d="M73.4664 7.86084C72.6894 7.86084 72.0622 8.3735 72.0622 9.30645V22.9535C72.0622 23.8634 72.6894 24.3768 73.4664 24.3768C74.1943 24.3768 74.8215 23.8634 74.8215 22.9535V9.30645C74.8215 8.3735 74.1943 7.86084 73.4664 7.86084Z" fill="white"/>
<path d="M90.1731 12.6897C89.0939 12.6897 88.9449 13.2031 88.7435 13.6458C87.6355 12.8676 86.292 12.4426 84.909 12.4326C81.3219 12.4326 78.4119 15.1391 78.4119 18.4514C78.4119 21.7875 81.3219 24.4701 84.909 24.4701C86.291 24.4695 87.6363 24.0524 88.7476 23.2801C89.0481 23.9567 89.3494 24.26 90.2017 24.26C91.2056 24.26 91.3808 23.2339 91.3808 22.324V14.6026C91.3775 13.3894 90.9509 12.6897 90.1731 12.6897ZM84.909 21.9045C82.8268 21.9045 81.1966 20.3881 81.1966 18.4514C81.1966 16.5147 82.8268 14.999 84.909 14.999C86.9912 14.999 88.5936 16.5154 88.5936 18.4514C88.5936 20.3873 86.9871 21.9045 84.909 21.9045Z" fill="white"/>
<path d="M100.759 12.4326C99.7056 12.4326 98.6518 12.6897 97.8494 13.2493C97.7517 13.0237 97.5852 12.8302 97.3709 12.6932C97.1566 12.5563 96.904 12.4819 96.6449 12.4796C95.4912 12.4796 95.2399 13.4595 95.2399 14.5094V22.3233C95.3152 23.6064 95.4912 24.3762 96.6703 24.3762C97.7233 24.3762 98.0246 23.4433 98.0246 22.3463V17.4484C98.0246 15.7457 99.3543 14.999 100.784 14.999C102.263 14.999 103.543 16.189 103.543 17.5654V22.9537C103.543 23.8635 104.17 24.377 104.948 24.377C106.052 24.377 106.303 23.5141 106.303 22.324V17.4014C106.303 14.4394 103.97 12.4326 100.759 12.4326Z" fill="white"/>
<path d="M120.877 19.4542C120.375 19.4542 119.573 20.1778 119.221 20.5511C118.444 21.3909 117.465 21.8805 116.311 21.8805C114.229 21.8805 112.599 20.3641 112.599 18.4281C112.599 16.5384 114.229 15.0219 116.311 15.0219C117.867 15.0219 118.82 15.7686 119.547 16.5384C119.723 16.6554 120.225 16.9587 120.551 16.9587C121.253 16.9587 121.83 16.4683 121.83 15.8156C121.835 15.5115 121.729 15.215 121.529 14.9758C120.375 13.5756 118.444 12.4355 116.289 12.4355C112.677 12.4355 109.792 15.1189 109.792 18.4312C109.792 21.7904 112.677 24.473 116.289 24.473C118.797 24.473 120.979 23.1644 122.033 21.1631C122.093 21.0136 122.127 20.8561 122.134 20.6966C122.131 20.0608 121.63 19.4542 120.877 19.4542Z" fill="white"/>
<path d="M132.09 12.4326C128.477 12.4326 125.592 15.116 125.592 18.4283C125.592 21.7875 128.477 24.4701 132.09 24.4701C133.795 24.4701 137.002 23.5141 137.002 21.8576C137.001 21.7109 136.969 21.5659 136.907 21.4311C136.846 21.2963 136.756 21.1743 136.644 21.0722C136.532 20.9702 136.4 20.8901 136.254 20.8366C136.109 20.7831 135.954 20.7573 135.798 20.7606C135.573 20.7606 135.371 20.8776 135.171 20.9916C134.318 21.458 133.491 21.9923 132.086 21.9923C130.38 21.9923 128.974 20.8723 128.548 19.4028C128.824 19.3789 129.1 19.3558 129.401 19.3558H137.128C137.855 19.3327 138.482 18.7262 138.482 18.0026C138.486 14.952 135.351 12.4326 132.09 12.4326ZM134.799 17.3783H129.356C129.104 17.3752 128.853 17.3598 128.603 17.3321C128.879 16.002 130.535 15.0229 132.09 15.0229C133.62 15.0229 135.276 16.0235 135.551 17.356C135.301 17.3552 135.075 17.3783 134.799 17.3783Z" fill="white"/>
<path d="M148.169 12.4795C147.016 12.4795 146.062 12.946 145.134 13.7627C144.958 13.016 144.582 12.5264 143.804 12.5264C142.801 12.5264 142.45 13.2262 142.45 14.2761V22.5541C142.45 23.7203 142.851 24.3738 143.88 24.3738C144.958 24.3738 145.234 23.3239 145.234 22.1808V17.4952C145.234 15.7687 146.438 15.0459 147.69 15.0459C148.192 15.0459 148.117 15.0921 148.468 15.0921C149.471 15.0921 149.998 14.5786 149.998 13.6926C150.003 13.1092 149.298 12.4795 148.169 12.4795Z" fill="white"/>
</g>
<defs>
<clipPath id="clip0">
<rect width="150" height="28" fill="white"/>
</clipPath>
</defs>
</svg>
