<svg width="80" height="24" viewBox="0 0 80 24" fill="none" xmlns="http://www.w3.org/2000/svg">
<path fill-rule="evenodd" clip-rule="evenodd" d="M49.6278 18.7693C44.9964 22.1819 38.2598 24.0001 32.4495 24.0001C24.3095 24.0001 17.0116 21.007 11.4539 16.028C11.0329 15.6363 11.3978 15.1049 11.9311 15.4126C17.9098 18.8811 25.2919 20.9511 32.9267 20.9511C38.0633 20.9511 43.7333 19.8881 48.9541 17.6783C49.74 17.3706 50.3856 18.2098 49.6278 18.7693Z" fill="#686F8B"/>
<path fill-rule="evenodd" clip-rule="evenodd" d="M51.5644 16.5594C50.9749 15.8042 47.6347 16.1958 46.1471 16.3916C45.698 16.4475 45.6138 16.0559 46.0348 15.7762C48.7013 13.9021 53.052 14.4615 53.5573 15.0769C54.0625 15.6923 53.4169 20.0559 50.9188 22.1259C50.5258 22.4336 50.1609 22.2657 50.3293 21.8461C50.8907 20.4475 52.1538 17.3426 51.5644 16.5594Z" fill="#686F8B"/>
<path fill-rule="evenodd" clip-rule="evenodd" d="M46.2313 2.62937L46.2313 0.811191C46.2313 0.531471 46.4278 0.363637 46.6804 0.363637L54.8204 0.363638C55.073 0.363638 55.2976 0.559444 55.2976 0.811192L55.2976 2.34965C55.2976 2.6014 55.073 2.93707 54.6801 3.49651L50.4697 9.48252C52.0416 9.45455 53.6977 9.67833 55.1011 10.4615C55.4099 10.6294 55.4941 10.9091 55.5221 11.1608L55.5221 13.0909C55.5221 13.3706 55.2415 13.6783 54.9327 13.5105C52.4346 12.1958 49.0944 12.0559 46.3436 13.5385C46.0629 13.6783 45.7541 13.3986 45.7541 13.1189L45.7541 11.2727C45.7541 10.993 45.7541 10.4895 46.0629 10.042L50.9469 3.07693L46.7085 3.07693C46.4559 3.07693 46.2313 2.88112 46.2313 2.62937ZM16.5624 13.9021L14.0923 13.9021C13.8678 13.8741 13.6713 13.7063 13.6432 13.4825L13.6432 0.839162C13.6432 0.587414 13.8678 0.391608 14.1204 0.391608L16.4221 0.391608C16.6747 0.391608 16.8431 0.587412 16.8712 0.811189L16.8712 2.46154L16.9273 2.46154C17.5168 0.867131 18.6676 0.111888 20.1833 0.111888C21.7271 0.111888 22.7095 0.867132 23.3832 2.46154C23.9726 0.867132 25.348 0.111889 26.8076 0.111889C27.8461 0.111889 28.9689 0.531469 29.6706 1.51049C30.4566 2.57343 30.2881 4.11189 30.2881 5.48252L30.2881 13.4825C30.2881 13.7343 30.0636 13.9301 29.811 13.9301L27.369 13.9301C27.1163 13.9021 26.9199 13.7063 26.9199 13.4825L26.9199 6.76923C26.9199 6.23776 26.976 4.8951 26.8637 4.39161C26.6672 3.55245 26.1339 3.3007 25.4041 3.3007C24.8147 3.3007 24.1691 3.69231 23.9165 4.33567C23.6639 4.97902 23.6919 6.04196 23.6919 6.76923L23.6919 13.4825C23.6919 13.7343 23.4674 13.9301 23.2148 13.9301L20.7447 13.9301C20.4921 13.9021 20.2956 13.7063 20.2956 13.4825L20.2956 6.76923C20.2956 5.37063 20.5201 3.27272 18.7799 3.27272C17.0115 3.27272 17.0676 5.28671 17.0676 6.76923L17.0676 13.4825C17.0396 13.7063 16.8431 13.9021 16.5624 13.9021ZM62.3148 0.111892C65.9919 0.111892 67.9848 3.24476 67.9848 7.24476C67.9848 11.1049 65.7954 14.1818 62.3148 14.1818C58.722 14.1818 56.7572 11.049 56.7572 7.13287C56.7291 3.18882 58.722 0.111892 62.3148 0.111892ZM62.3148 2.71329C60.4904 2.71329 60.3781 5.20281 60.3781 6.74127C60.3781 8.27973 60.35 11.5804 62.2868 11.5804C64.1955 11.5804 64.3077 8.92309 64.3077 7.30071C64.3077 6.23777 64.2516 4.95106 63.9428 3.94406C63.6621 3.04896 63.1008 2.71329 62.3148 2.71329ZM72.7284 13.9021L70.2584 13.9021C70.0057 13.8741 69.8093 13.6783 69.8093 13.4546L69.8093 0.78322C69.8373 0.559443 70.0338 0.363639 70.2864 0.363639L72.5881 0.363639C72.8126 0.363639 72.9811 0.531477 73.0372 0.727281L73.0372 2.65735L73.0933 2.65735C73.7951 0.923084 74.7494 0.111893 76.4616 0.111893C77.5563 0.111893 78.651 0.503498 79.3527 1.59441C79.9983 2.6014 79.9983 4.3077 79.9983 5.53847L79.9983 13.5105C79.9702 13.7343 79.7737 13.9021 79.5211 13.9021L77.0511 13.9021C76.8265 13.8741 76.63 13.7063 76.6019 13.5105L76.6019 6.62937C76.6019 5.23077 76.7704 3.21679 75.0582 3.21679C74.4687 3.21679 73.9073 3.6084 73.6266 4.22379C73.2898 5.007 73.2337 5.76224 73.2337 6.62937L73.2337 13.4546C73.2056 13.7063 72.9811 13.9021 72.7284 13.9021ZM39.7474 7.86015C39.7474 8.8112 39.7755 9.62238 39.2983 10.4895C38.9053 11.1888 38.2878 11.6084 37.5861 11.6084C36.6317 11.6084 36.0703 10.8811 36.0703 9.81819C36.0703 7.72029 37.951 7.32867 39.7474 7.32867L39.7474 7.86015ZM42.2455 13.8741C42.0771 14.014 41.8526 14.042 41.6561 13.9301C40.8421 13.2587 40.6737 12.9231 40.2246 12.2797C38.8772 13.6504 37.8948 14.0699 36.1545 14.0699C34.0774 14.0699 32.4494 12.7832 32.4494 10.2378C32.4494 8.22378 33.5441 6.88112 35.0879 6.20979C36.4352 5.62238 38.3159 5.5105 39.7474 5.34266L39.7474 5.03497C39.7474 4.44756 39.8035 3.74826 39.4386 3.24476C39.1299 2.79721 38.5685 2.6014 38.0632 2.6014C37.1089 2.6014 36.2668 3.07693 36.0703 4.08392C36.0142 4.3077 35.8739 4.53147 35.6493 4.53147L33.2634 4.27972C33.067 4.22378 32.8424 4.08392 32.8986 3.77623C33.4599 0.867136 36.0703 3.15322e-06 38.4281 3.35935e-06C39.6351 3.46486e-06 41.207 0.307694 42.1613 1.23077C43.3683 2.34965 43.256 3.86015 43.256 5.48252L43.256 9.31469C43.256 10.4615 43.7332 10.965 44.1823 11.6084C44.3507 11.8322 44.3788 12.1119 44.1823 12.2518C43.649 12.6713 42.7508 13.4546 42.2455 13.8741ZM7.32771 7.86014C7.32771 8.81119 7.35578 9.62238 6.87861 10.4895C6.48564 11.1888 5.86812 11.6084 5.1664 11.6084C4.21205 11.6084 3.65068 10.8811 3.65068 9.81819C3.65068 7.72028 5.5313 7.32867 7.32771 7.32867L7.32771 7.86014ZM9.79778 13.8741C9.62937 14.014 9.40482 14.042 9.20833 13.9301C8.39433 13.2587 8.22592 12.9231 7.77681 12.2797C6.4295 13.6504 5.44709 14.0699 3.70681 14.0699C1.62971 14.0699 0.00170787 12.7832 0.00170809 10.2378C0.00170827 8.22378 1.0964 6.88112 2.64019 6.20979C3.9875 5.62237 5.86812 5.51049 7.29964 5.34266L7.29964 5.03497C7.29964 4.44755 7.35578 3.74825 6.99088 3.24476C6.68212 2.79721 6.12075 2.6014 5.6155 2.6014C4.66116 2.6014 3.81909 3.07693 3.6226 4.08392C3.56647 4.3077 3.42612 4.53146 3.20157 4.53146L0.815707 4.27972C0.619224 4.22377 0.394676 4.08392 0.450814 3.77622C1.01219 0.867133 3.62261 3.16549e-07 5.9804 5.22674e-07C7.18737 6.2819e-07 8.75923 0.307691 9.71358 1.23077C10.9205 2.34965 10.8083 3.86014 10.8083 5.48252L10.8083 9.31468C10.8083 10.4615 11.2854 10.965 11.7345 11.6084C11.903 11.8322 11.931 12.1119 11.7345 12.2517C11.2012 12.6713 10.303 13.4546 9.79778 13.8741Z" fill="#686F8B"/>
</svg>
