<svg width="109" height="30" viewBox="0 0 109 30" fill="none" xmlns="http://www.w3.org/2000/svg">
<path d="M54.108 14.984C54.852 15.152 55.44 15.524 55.872 16.1C56.316 16.664 56.538 17.312 56.538 18.044C56.538 19.124 56.166 19.97 55.422 20.582C54.678 21.194 53.634 21.5 52.29 21.5H46.008V8.81H52.092C53.388 8.81 54.402 9.098 55.134 9.674C55.878 10.25 56.25 11.06 56.25 12.104C56.25 12.848 56.052 13.472 55.656 13.976C55.272 14.468 54.756 14.804 54.108 14.984ZM49.536 13.85H51.318C52.206 13.85 52.65 13.484 52.65 12.752C52.65 11.996 52.206 11.618 51.318 11.618H49.536V13.85ZM51.588 18.656C52.476 18.656 52.92 18.284 52.92 17.54C52.92 17.156 52.8 16.862 52.56 16.658C52.332 16.454 52.002 16.352 51.57 16.352H49.536V18.656H51.588Z" fill="white"/>
<path d="M67.7322 16.334C67.7322 16.61 67.7142 16.886 67.6782 17.162H61.0002C61.0362 17.714 61.1862 18.128 61.4502 18.404C61.7262 18.668 62.0742 18.8 62.4942 18.8C63.0822 18.8 63.5022 18.536 63.7542 18.008H67.5162C67.3602 18.704 67.0542 19.328 66.5982 19.88C66.1542 20.42 65.5902 20.846 64.9062 21.158C64.2222 21.47 63.4662 21.626 62.6382 21.626C61.6422 21.626 60.7542 21.416 59.9742 20.996C59.2062 20.576 58.6002 19.976 58.1562 19.196C57.7242 18.416 57.5082 17.498 57.5082 16.442C57.5082 15.386 57.7242 14.474 58.1562 13.706C58.5882 12.926 59.1882 12.326 59.9562 11.906C60.7362 11.486 61.6302 11.276 62.6382 11.276C63.6342 11.276 64.5162 11.48 65.2842 11.888C66.0522 12.296 66.6522 12.884 67.0842 13.652C67.5162 14.408 67.7322 15.302 67.7322 16.334ZM64.1322 15.452C64.1322 15.02 63.9882 14.684 63.7002 14.444C63.4122 14.192 63.0522 14.066 62.6202 14.066C62.1882 14.066 61.8342 14.186 61.5582 14.426C61.2822 14.654 61.1022 14.996 61.0182 15.452H64.1322Z" fill="white"/>
<path d="M75.782 11.312C76.946 11.312 77.87 11.702 78.554 12.482C79.238 13.25 79.58 14.294 79.58 15.614V21.5H76.052V16.082C76.052 15.506 75.902 15.056 75.602 14.732C75.302 14.396 74.9 14.228 74.396 14.228C73.868 14.228 73.454 14.396 73.154 14.732C72.854 15.056 72.704 15.506 72.704 16.082V21.5H69.176V11.402H72.704V12.842C73.016 12.386 73.436 12.02 73.964 11.744C74.492 11.456 75.098 11.312 75.782 11.312Z" fill="white"/>
<path d="M80.9398 16.442C80.9398 15.398 81.1258 14.486 81.4978 13.706C81.8818 12.926 82.4038 12.326 83.0638 11.906C83.7238 11.486 84.4558 11.276 85.2598 11.276C85.9078 11.276 86.4838 11.414 86.9878 11.69C87.5038 11.954 87.9058 12.32 88.1938 12.788V8.18H91.7398V21.5H88.1938V20.096C87.9178 20.564 87.5278 20.936 87.0238 21.212C86.5198 21.488 85.9258 21.626 85.2418 21.626C84.4378 21.626 83.7058 21.416 83.0458 20.996C82.3978 20.576 81.8818 19.976 81.4978 19.196C81.1258 18.404 80.9398 17.486 80.9398 16.442ZM88.2118 16.442C88.2118 15.794 88.0318 15.284 87.6718 14.912C87.3238 14.54 86.8918 14.354 86.3758 14.354C85.8478 14.354 85.4098 14.54 85.0618 14.912C84.7138 15.272 84.5398 15.782 84.5398 16.442C84.5398 17.09 84.7138 17.606 85.0618 17.99C85.4098 18.362 85.8478 18.548 86.3758 18.548C86.8918 18.548 87.3238 18.362 87.6718 17.99C88.0318 17.618 88.2118 17.102 88.2118 16.442Z" fill="white"/>
<path d="M95.5322 10.466C94.9082 10.466 94.4042 10.298 94.0202 9.962C93.6482 9.614 93.4622 9.182 93.4622 8.666C93.4622 8.138 93.6482 7.7 94.0202 7.352C94.4042 7.004 94.9082 6.83 95.5322 6.83C96.1442 6.83 96.6362 7.004 97.0082 7.352C97.3922 7.7 97.5842 8.138 97.5842 8.666C97.5842 9.182 97.3922 9.614 97.0082 9.962C96.6362 10.298 96.1442 10.466 95.5322 10.466ZM97.2782 11.402V21.5H93.7502V11.402H97.2782Z" fill="white"/>
<path d="M103.589 21.626C102.677 21.626 101.861 21.476 101.141 21.176C100.433 20.864 99.8693 20.444 99.4493 19.916C99.0413 19.376 98.8133 18.77 98.7653 18.098H102.185C102.233 18.422 102.383 18.674 102.635 18.854C102.887 19.034 103.199 19.124 103.571 19.124C103.859 19.124 104.087 19.064 104.255 18.944C104.423 18.824 104.507 18.668 104.507 18.476C104.507 18.224 104.369 18.038 104.093 17.918C103.817 17.798 103.361 17.666 102.725 17.522C102.005 17.378 101.405 17.216 100.925 17.036C100.445 16.856 100.025 16.562 99.6653 16.154C99.3173 15.746 99.1433 15.194 99.1433 14.498C99.1433 13.898 99.3053 13.358 99.6293 12.878C99.9533 12.386 100.427 11.996 101.051 11.708C101.687 11.42 102.449 11.276 103.337 11.276C104.657 11.276 105.695 11.6 106.451 12.248C107.207 12.896 107.645 13.748 107.765 14.804H104.579C104.519 14.48 104.375 14.234 104.147 14.066C103.931 13.886 103.637 13.796 103.265 13.796C102.977 13.796 102.755 13.85 102.599 13.958C102.455 14.066 102.383 14.216 102.383 14.408C102.383 14.648 102.521 14.834 102.797 14.966C103.073 15.086 103.517 15.212 104.129 15.344C104.861 15.5 105.467 15.674 105.947 15.866C106.439 16.058 106.865 16.37 107.225 16.802C107.597 17.222 107.783 17.798 107.783 18.53C107.783 19.118 107.609 19.646 107.261 20.114C106.925 20.582 106.439 20.954 105.803 21.23C105.179 21.494 104.441 21.626 103.589 21.626Z" fill="white"/>
<path fill-rule="evenodd" clip-rule="evenodd" d="M1 0.5C0.447715 0.5 0 0.947716 0 1.5V28.5C0 29.0523 0.447716 29.5 1 29.5H28C28.5523 29.5 29 29.0523 29 28.5V1.5C29 0.947715 28.5523 0.5 28 0.5H1ZM19.6154 14.6901C20.9578 14.9946 22.0188 15.6688 22.7983 16.7128C23.5994 17.735 24 18.9095 24 20.2362C24 22.1936 23.3288 23.7269 21.9863 24.8362C20.6439 25.9454 18.7601 26.5 16.335 26.5H5V3.5H15.9778C18.3162 3.5 20.1459 4.02199 21.4667 5.06596C22.8091 6.10993 23.4803 7.57801 23.4803 9.47021C23.4803 10.8187 23.1231 11.9496 22.4085 12.8631C21.7157 13.7548 20.7846 14.3638 19.6154 14.6901Z" fill="#FA5158"/>
</svg>
