<svg width="121" height="24" viewBox="0 0 121 24" fill="none" xmlns="http://www.w3.org/2000/svg">
<path d="M14.042 4.43882L7.021 8.86556L14.042 13.2923L7.021 17.719L1.52588e-05 13.2554L7.021 8.82867L1.52588e-05 4.43882L7.021 0.012085L14.042 4.43882ZM6.98366 19.1208L14.0046 14.6941L21.0256 19.1208L14.0046 23.5476L6.98366 19.1208ZM14.042 13.2554L21.063 8.82867L14.042 4.43882L21.0256 0.012085L28.0466 4.43882L21.0256 8.86556L28.0466 13.2923L21.0256 17.719L14.042 13.2554Z" fill="#686F8B"/>
<path d="M33.5363 4.43767H39.2129C42.8354 4.43767 45.823 6.50348 45.823 11.2253V12.2213C45.823 16.9801 43.0221 19.1197 39.3249 19.1197H33.5363V4.43767ZM36.7107 7.09371V16.4267H39.1382C41.1922 16.4267 42.574 15.0987 42.574 12.1476V11.3729C42.574 8.42173 41.1175 7.09371 39.0261 7.09371H36.7107ZM47.5036 7.24127H50.0431L50.4539 10.008C50.9394 8.12661 52.1718 7.1306 54.4125 7.1306H55.1968V10.3031H53.8897C51.3129 10.3031 50.678 11.1884 50.678 13.6969V19.1566H47.5409V7.24127H47.5036ZM55.8317 13.4387V13.1067C55.8317 9.12263 58.4085 6.94615 61.919 6.94615C65.5042 6.94615 68.0064 9.12263 68.0064 13.1067V13.4387C68.0064 17.349 65.5789 19.4517 61.919 19.4517C58.0351 19.4148 55.8317 17.349 55.8317 13.4387ZM64.7946 13.4018V13.1067C64.7946 10.8933 63.6743 9.5653 61.8817 9.5653C60.1264 9.5653 58.9687 10.7827 58.9687 13.1067V13.4018C58.9687 15.5414 60.0891 16.7588 61.8817 16.7588C63.6743 16.7219 64.7946 15.5414 64.7946 13.4018ZM69.6496 7.24127H72.2638L72.5625 9.49153C73.1974 7.97906 74.5419 6.94615 76.5212 6.94615C79.5835 6.94615 81.6002 9.12263 81.6002 13.1436V13.4756C81.6002 17.3859 79.3595 19.4517 76.5212 19.4517C74.6166 19.4517 73.3095 18.6032 72.6746 17.2383V23.2513H69.6122L69.6496 7.24127ZM78.4258 13.4018V13.1436C78.4258 10.7827 77.1934 9.60219 75.5502 9.60219C73.795 9.60219 72.6372 10.9302 72.6372 13.1436V13.3649C72.6372 15.4676 73.7576 16.7956 75.5129 16.7956C77.3054 16.7588 78.4258 15.6152 78.4258 13.4018ZM86.2311 16.9432L85.9696 19.1197H83.2808V3.2572H86.3431V9.34397C87.0153 7.79461 88.3598 6.94615 90.2644 6.94615C93.14 6.98304 95.2687 8.93818 95.2687 12.8854V13.2543C95.2687 17.2014 93.2521 19.4517 90.1897 19.4517C88.173 19.4148 86.8659 18.4926 86.2311 16.9432ZM92.057 13.2543V12.9591C92.057 10.7827 90.8619 9.5653 89.1814 9.5653C87.4635 9.5653 86.2684 10.9302 86.2684 12.996V13.2543C86.2684 15.4676 87.4261 16.7588 89.144 16.7588C90.974 16.7588 92.057 15.6152 92.057 13.2543ZM96.6132 13.4387V13.1067C96.6132 9.12263 99.19 6.94615 102.701 6.94615C106.286 6.94615 108.788 9.12263 108.788 13.1067V13.4387C108.788 17.349 106.323 19.4517 102.701 19.4517C98.8166 19.4148 96.6132 17.349 96.6132 13.4387ZM105.613 13.4018V13.1067C105.613 10.8933 104.493 9.5653 102.701 9.5653C100.945 9.5653 99.7876 10.7827 99.7876 13.1067V13.4018C99.7876 15.5414 100.908 16.7588 102.701 16.7588C104.493 16.7219 105.613 15.5414 105.613 13.4018ZM112.896 12.9591L108.676 7.24127H112.298L114.726 10.8195L117.191 7.24127H120.776L116.481 12.9222L121 19.1197H117.452L114.688 15.1725L112 19.1197H108.302L112.896 12.9591Z" fill="#686F8B"/>
</svg>
