<svg width="86" height="23" viewBox="0 0 86 23" fill="none" xmlns="http://www.w3.org/2000/svg">
<path d="M11.8253 21.513C10.5316 21.7377 9.2151 21.805 7.8533 21.9845L3.6996 9.9519V22.5009C2.4059 22.6355 1.22567 22.8151 0 22.9947V0.00695801H3.45008L8.17101 13.05V0.00695801H11.8253V21.513ZM18.9749 8.42533C20.3823 8.42533 22.5385 8.35796 23.8322 8.35796V11.9497C22.2206 11.9497 20.3368 11.9497 18.9749 12.0171V17.36C21.1085 17.2254 23.2421 17.0456 25.3982 16.9783V20.4352L15.3433 21.2211V0.00695801H25.3982V3.5988H18.9749V8.42533ZM38.9031 3.59888H35.1354V20.1213C33.9097 20.1213 32.684 20.1213 31.504 20.1661V3.59888H27.7363V0.00695801H38.9032L38.9031 3.59888ZM44.8043 8.17845H49.7751V11.7702H44.8043V19.9193H41.2406V0.00695801H51.3866V3.5988H44.8043V8.17845ZM57.2878 16.7763C59.3534 16.8211 61.4414 16.9785 63.4615 17.0906V20.6375C60.2159 20.4354 56.9701 20.2336 53.6564 20.1661V0.00695801H57.2878V16.7763ZM66.5256 20.8845C67.6832 20.952 68.9088 21.0193 70.0891 21.1538V0.00695801H66.5256V20.8845ZM86 0.00695801L81.3924 10.9396L86 22.9947C84.638 22.8151 83.2762 22.5682 81.9143 22.3436L79.3043 15.6989L76.6489 21.805C75.3322 21.5803 74.0612 21.513 72.745 21.3334L77.4206 10.8048L73.1988 0.00695801H77.1025L79.4857 6.04574L82.028 0.00695801H86Z" fill="#686F8B"/>
</svg>
