<svg width="80" height="22" viewBox="0 0 80 22" fill="none" xmlns="http://www.w3.org/2000/svg">
<path d="M11.0002 20.571C9.7968 20.7859 8.57219 20.8503 7.30539 21.0219L3.44148 9.51256V21.5159C2.23805 21.6447 1.14016 21.8165 0 21.9883V0H3.20938L7.60094 12.476V0H11.0002V20.571ZM17.6511 8.05235C18.9602 8.05235 20.966 7.98791 22.1695 7.98791V11.4235C20.6703 11.4235 18.918 11.4235 17.6511 11.4879V16.5986C19.6359 16.4698 21.6205 16.2979 23.6262 16.2334V19.5401L14.2728 20.2918V0H23.6262V3.43567H17.6511V8.05235ZM36.1889 3.43575H32.6841V19.2398C31.5439 19.2398 30.4037 19.2398 29.306 19.2826V3.43575H25.8012V0H36.1891L36.1889 3.43575ZM41.6784 7.81621H46.3024V11.2518H41.6784V19.0466H38.3634V0H47.8015V3.43567H41.6784V7.81621ZM53.291 16.0403C55.2124 16.0831 57.1548 16.2337 59.034 16.3408V19.7336C56.0148 19.5402 52.9955 19.3472 49.9129 19.2826V0H53.291V16.0403ZM61.8843 19.9698C62.9611 20.0343 64.1012 20.0988 65.1991 20.2274V0H61.8843V19.9698ZM80 0L75.7138 10.4573L80 21.9883C78.733 21.8165 77.4662 21.5803 76.1994 21.3655L73.7714 15.0097L71.3013 20.8503C70.0765 20.6354 68.8941 20.571 67.6698 20.3992L72.0191 10.3284L68.0919 0H71.7233L73.9402 5.77623L76.3051 0H80Z" fill="#C5E5FB"/>
</svg>
