<svg width="96" height="24" viewBox="0 0 96 24" fill="none" xmlns="http://www.w3.org/2000/svg">
<path fill-rule="evenodd" clip-rule="evenodd" d="M30.7123 18.8972L31.9104 16.1467C33.2045 17.1027 34.9286 17.5997 36.6297 17.5997C37.8854 17.5997 38.6803 17.1217 38.6803 16.3971C38.6611 14.3712 31.1577 15.957 31.1001 10.877C31.0809 8.29717 33.4003 6.30919 36.6873 6.30919C38.6419 6.30919 40.5926 6.78721 41.9866 7.87605L40.8653 10.6835C39.5904 9.87922 38.0045 9.30634 36.4953 9.30634C35.4701 9.30634 34.7942 9.78437 34.7942 10.3952C34.8134 12.3832 42.3744 11.2943 42.4512 16.1467C42.4512 18.7834 40.1894 20.6386 36.9408 20.6386C34.56 20.6348 32.375 20.0809 30.7123 18.8972ZM76.7194 15.1527C76.1203 16.1846 74.999 16.8903 73.7011 16.8903C71.785 16.8903 70.2413 15.3614 70.2413 13.472C70.2413 11.5827 71.7888 10.0537 73.7011 10.0537C74.9952 10.0537 76.1203 10.7594 76.7194 11.7913L80.0256 9.97786C78.7891 7.80018 76.4083 6.30919 73.7011 6.30919C69.696 6.30919 66.4474 9.5188 66.4474 13.4758C66.4474 17.4328 69.696 20.6424 73.7011 20.6424C76.4275 20.6424 78.7891 19.1704 80.0256 16.9737L76.7194 15.1527ZM44.1139 0.364197H48.2534V20.3693H44.1139V0.364197ZM81.6499 0.364197V20.3693H85.7894V14.3674L90.7008 20.3693H96L89.7523 13.2406L95.5354 6.58993H90.4665L85.7856 12.11V0.364197H81.6499Z" fill="#686F8B"/>
<path d="M60.5531 15.1906C59.9541 16.1656 58.7176 16.8902 57.3237 16.8902C55.4075 16.8902 53.8638 15.3613 53.8638 13.472C53.8638 11.5826 55.4114 10.0537 57.3237 10.0537C58.7176 10.0537 59.9541 10.8163 60.5531 11.8103V15.1906ZM60.5531 6.59369V8.21747C59.8773 7.09069 58.1954 6.30536 56.4328 6.30536C52.7963 6.30536 49.9355 9.47703 49.9355 13.453C49.9355 17.429 52.7963 20.6386 56.4328 20.6386C58.1915 20.6386 59.8734 19.8571 60.5531 18.7265V20.3503H64.6926V6.59369H60.5531Z" fill="#686F8B"/>
<path fill-rule="evenodd" clip-rule="evenodd" d="M5.12663 15.1716C5.12663 16.5677 3.98615 17.6945 2.57303 17.6945C1.15991 17.6945 0.0194321 16.564 0.0194321 15.1716C0.0194321 13.7793 1.15991 12.6487 2.57303 12.6487H5.12663V15.1716ZM6.40151 15.1716C6.40151 13.7755 7.54199 12.6487 8.95511 12.6487C10.3682 12.6487 11.5087 13.7755 11.5087 15.1716V21.477C11.5087 22.8732 10.3682 23.9999 8.95511 23.9999C7.54199 23.9999 6.40151 22.8732 6.40151 21.477V15.1716Z" fill="#686F8B"/>
<path fill-rule="evenodd" clip-rule="evenodd" d="M8.95488 5.04584C7.54176 5.04584 6.40128 3.91906 6.40128 2.52292C6.40128 1.12678 7.54176 0 8.95488 0C10.368 0 11.5085 1.12678 11.5085 2.52292V5.04584H8.95488ZM8.95488 6.32438C10.368 6.32438 11.5085 7.45115 11.5085 8.8473C11.5085 10.2434 10.368 11.3702 8.95488 11.3702H2.5536C1.14048 11.3702 0 10.2396 0 8.8473C0 7.45495 1.14048 6.32438 2.5536 6.32438H8.95488Z" fill="#686F8B"/>
<path fill-rule="evenodd" clip-rule="evenodd" d="M19.1847 8.8473C19.1847 7.45115 20.3252 6.32438 21.7383 6.32438C23.1514 6.32438 24.2919 7.45115 24.2919 8.8473C24.2919 10.2434 23.1514 11.3702 21.7383 11.3702H19.1847V8.8473ZM17.9098 8.8473C17.9098 10.2434 16.7693 11.3702 15.3562 11.3702C13.9431 11.3702 12.8026 10.2434 12.8026 8.8473V2.52292C12.8026 1.12678 13.9431 0 15.3562 0C16.7693 0 17.9098 1.12678 17.9098 2.52292V8.8473Z" fill="#686F8B"/>
<path fill-rule="evenodd" clip-rule="evenodd" d="M15.3562 18.9541C16.7693 18.9541 17.9098 20.0809 17.9098 21.477C17.9098 22.8732 16.7693 23.9999 15.3562 23.9999C13.9431 23.9999 12.8026 22.8732 12.8026 21.477V18.9541H15.3562ZM15.3562 17.6945C13.9431 17.6945 12.8026 16.5677 12.8026 15.1716C12.8026 13.7755 13.9431 12.6487 15.3562 12.6487H21.7575C23.1706 12.6487 24.3111 13.7755 24.3111 15.1716C24.3111 16.5677 23.1706 17.6945 21.7575 17.6945H15.3562Z" fill="#686F8B"/>
</svg>
