<svg width="104" height="26" viewBox="0 0 104 26" fill="none" xmlns="http://www.w3.org/2000/svg">
<g clip-path="url(#clip0)">
<path fill-rule="evenodd" clip-rule="evenodd" d="M33.2715 20.472L34.5694 17.4922C35.9713 18.528 37.8392 19.0664 39.682 19.0664C41.0424 19.0664 41.9035 18.5485 41.9035 17.7635C41.8827 15.5687 33.754 17.2867 33.6916 11.7834C33.6708 8.98859 36.1835 6.83494 39.7444 6.83494C41.8619 6.83494 43.9752 7.3528 45.4852 8.53238L44.2705 11.5738C42.8894 10.7025 41.1713 10.0819 39.5364 10.0819C38.4257 10.0819 37.6936 10.5997 37.6936 11.2614C37.7144 13.4151 45.9054 12.2355 45.9886 17.4922C45.9886 20.3487 43.5384 22.3585 40.019 22.3585C37.4398 22.3544 35.0728 21.7543 33.2715 20.472ZM83.1125 16.4154C82.4635 17.5333 81.2488 18.2978 79.8427 18.2978C77.7669 18.2978 76.0945 16.6415 76.0945 14.5947C76.0945 12.5479 77.771 10.8915 79.8427 10.8915C81.2446 10.8915 82.4635 11.656 83.1125 12.7739L86.6942 10.8093C85.3547 8.45018 82.7755 6.83494 79.8427 6.83494C75.5038 6.83494 71.9845 10.312 71.9845 14.5988C71.9845 18.8855 75.5038 22.3626 79.8427 22.3626C82.7963 22.3626 85.3547 20.7679 86.6942 18.3882L83.1125 16.4154ZM47.7899 0.394531H52.2744V22.0667H47.7899V0.394531ZM88.4539 0.394531V22.0667H92.9384V15.5646L98.259 22.0667H104L97.2315 14.3439L103.496 7.13908H98.0052L92.9342 13.1192V0.394531H88.4539Z" fill="black"/>
<path d="M65.5991 16.4565C64.9501 17.5128 63.6106 18.2978 62.1005 18.2978C60.0247 18.2978 58.3524 16.6414 58.3524 14.5946C58.3524 12.5479 60.0288 10.8915 62.1005 10.8915C63.6106 10.8915 64.9501 11.7176 65.5991 12.7945V16.4565ZM65.5991 7.14317V8.90226C64.8669 7.68159 63.0448 6.83081 61.1354 6.83081C57.1959 6.83081 54.0967 10.2668 54.0967 14.5741C54.0967 18.8814 57.1959 22.3585 61.1354 22.3585C63.0407 22.3585 64.8628 21.5118 65.5991 20.287V22.0461H70.0836V7.14317H65.5991Z" fill="black"/>
<path fill-rule="evenodd" clip-rule="evenodd" d="M5.55282 16.4359C5.55282 17.9484 4.3173 19.1691 2.78642 19.1691C1.25554 19.1691 0.0200195 17.9443 0.0200195 16.4359C0.0200195 14.9275 1.25554 13.7028 2.78642 13.7028H5.55282V16.4359ZM6.93394 16.4359C6.93394 14.9234 8.16946 13.7028 9.70034 13.7028C11.2312 13.7028 12.4667 14.9234 12.4667 16.4359V23.2668C12.4667 24.7793 11.2312 25.9999 9.70034 25.9999C8.16946 25.9999 6.93394 24.7793 6.93394 23.2668V16.4359Z" fill="#E01E5A"/>
<path fill-rule="evenodd" clip-rule="evenodd" d="M9.70112 5.46633C8.17024 5.46633 6.93472 4.24565 6.93472 2.73316C6.93472 1.22068 8.17024 0 9.70112 0C11.232 0 12.4675 1.22068 12.4675 2.73316V5.46633H9.70112ZM9.70112 6.85141C11.232 6.85141 12.4675 8.07208 12.4675 9.58457C12.4675 11.0971 11.232 12.3177 9.70112 12.3177H2.7664C1.23552 12.3177 0 11.0929 0 9.58457C0 8.07619 1.23552 6.85141 2.7664 6.85141H9.70112Z" fill="#36C5F0"/>
<path fill-rule="evenodd" clip-rule="evenodd" d="M20.7836 9.58457C20.7836 8.07208 22.0191 6.85141 23.5499 6.85141C25.0808 6.85141 26.3163 8.07208 26.3163 9.58457C26.3163 11.0971 25.0808 12.3177 23.5499 12.3177H20.7836V9.58457ZM19.4024 9.58457C19.4024 11.0971 18.1669 12.3177 16.636 12.3177C15.1051 12.3177 13.8696 11.0971 13.8696 9.58457V2.73316C13.8696 1.22068 15.1051 0 16.636 0C18.1669 0 19.4024 1.22068 19.4024 2.73316V9.58457Z" fill="#2EB67D"/>
<path fill-rule="evenodd" clip-rule="evenodd" d="M16.636 20.5336C18.1669 20.5336 19.4024 21.7543 19.4024 23.2668C19.4024 24.7793 18.1669 25.9999 16.636 25.9999C15.1051 25.9999 13.8696 24.7793 13.8696 23.2668V20.5336H16.636ZM16.636 19.1691C15.1051 19.1691 13.8696 17.9484 13.8696 16.4359C13.8696 14.9234 15.1051 13.7028 16.636 13.7028H23.5707C25.1016 13.7028 26.3371 14.9234 26.3371 16.4359C26.3371 17.9484 25.1016 19.1691 23.5707 19.1691H16.636Z" fill="#ECB22E"/>
</g>
<defs>
<clipPath id="clip0">
<rect width="104" height="26" fill="white"/>
</clipPath>
</defs>
</svg>
