<svg width="81" height="24" viewBox="0 0 81 24" fill="none" xmlns="http://www.w3.org/2000/svg">
<g clip-path="url(#clip0)">
<path d="M12.147 0C5.43853 0 0 5.37254 0 11.9998C0 18.6277 5.43853 24 12.147 24C18.8557 24 24.2939 18.6277 24.2939 11.9998C24.2939 5.37297 18.856 0.00057274 12.1468 0.00057274L12.147 0ZM17.7175 17.3071C17.4993 17.6606 17.0331 17.7714 16.6765 17.556C13.824 15.8338 10.2337 15.4447 6.00552 16.3989C5.59807 16.4912 5.19193 16.2389 5.09911 15.8365C5.00584 15.434 5.2601 15.0328 5.66857 14.9411C10.2957 13.896 14.2647 14.3458 17.4664 16.2786C17.8232 16.4949 17.9364 16.9549 17.7173 17.3074L17.7175 17.3071ZM19.2043 14.0402C18.9295 14.4805 18.3467 14.6186 17.9016 14.3482C14.6372 12.3659 9.65949 11.7917 5.79752 12.9498C5.29666 13.0993 4.76766 12.8204 4.61565 12.3265C4.4648 11.8317 4.74721 11.3101 5.2472 11.1596C9.65862 9.83733 15.1427 10.4778 18.8922 12.7541C19.3376 13.0249 19.4782 13.601 19.2041 14.0403L19.2043 14.0402ZM19.3319 10.6378C15.4164 8.34061 8.95787 8.12939 5.22006 9.2501C4.61985 9.42993 3.98511 9.09519 3.80321 8.50224C3.62132 7.909 3.95987 7.28237 4.56052 7.10211C8.85126 5.81533 15.9841 6.06394 20.4914 8.7073C21.0313 9.02383 21.2084 9.71264 20.8884 10.2453C20.5693 10.7786 19.8702 10.9544 19.332 10.6378H19.3319ZM33.0479 11.078C30.9506 10.5839 30.5772 10.2371 30.5772 9.50845C30.5772 8.82007 31.2333 8.3568 32.2089 8.3568C33.1546 8.3568 34.0924 8.70859 35.0755 9.4328C35.1053 9.45473 35.1425 9.46346 35.1792 9.45774C35.2159 9.45229 35.2484 9.43237 35.2699 9.40242L36.294 7.97635C36.336 7.9176 36.3246 7.83664 36.2679 7.79179C35.0977 6.86424 33.7801 6.41329 32.24 6.41329C29.9754 6.41329 28.3936 7.75582 28.3936 9.67669C28.3936 11.7365 29.7581 12.4659 32.1161 13.0289C34.123 13.4856 34.4617 13.8682 34.4617 14.5521C34.4617 15.31 33.7768 15.7812 32.6745 15.7812C31.4503 15.7812 30.4518 15.3738 29.3347 14.4182C29.307 14.3945 29.269 14.3838 29.2339 14.3858C29.1969 14.3888 29.1631 14.4057 29.1396 14.4336L27.9914 15.7836C27.9433 15.8396 27.9494 15.9233 28.0051 15.9718C29.3047 17.118 30.9032 17.7234 32.6281 17.7234C35.0683 17.7234 36.6451 16.4062 36.6451 14.3676C36.6495 12.6466 35.6066 11.6937 33.0522 11.0798L33.0479 11.078ZM42.1658 9.03458C41.1081 9.03458 40.2405 9.44612 39.5251 10.2894V9.34022C39.5251 9.26528 39.4636 9.20424 39.3879 9.20424H37.5099C37.4341 9.20424 37.3727 9.26528 37.3727 9.34022V19.887C37.3727 19.9619 37.4341 20.023 37.5099 20.023H39.3879C39.4636 20.023 39.5251 19.962 39.5251 19.887V16.5578C40.2406 17.3511 41.1083 17.7387 42.1658 17.7387C44.131 17.7387 46.1206 16.2442 46.1206 13.3872C46.1235 10.5294 44.1334 9.03444 42.1679 9.03444L42.1658 9.03458ZM43.9368 13.3872C43.9368 14.842 43.0297 15.8573 41.7307 15.8573C40.4466 15.8573 39.478 14.7959 39.478 13.3872C39.478 11.9786 40.4466 10.9171 41.7307 10.9171C43.0086 10.9169 43.937 11.9555 43.937 13.387L43.9368 13.3872ZM51.2198 9.03458C48.6888 9.03458 46.706 10.9599 46.706 13.4183C46.706 15.8498 48.6752 17.7549 51.1888 17.7549C53.7288 17.7549 55.7177 15.8361 55.7177 13.3872C55.7177 10.9467 53.7421 9.03487 51.2197 9.03487L51.2198 9.03458ZM51.2198 15.8717C49.8736 15.8717 48.8587 14.8032 48.8587 13.3864C48.8587 11.9637 49.8385 10.9312 51.1888 10.9312C52.5437 10.9312 53.5654 11.9998 53.5654 13.4175C53.5654 14.84 52.5791 15.8717 51.2199 15.8717H51.2198ZM61.1224 9.20425H59.0559V7.11702C59.0559 7.04222 58.9947 6.98117 58.9188 6.98117H57.0411C56.9651 6.98117 56.9035 7.04222 56.9035 7.11702V9.20425H56.0005C55.925 9.20425 55.8637 9.26528 55.8637 9.34023V10.9347C55.8637 11.0095 55.925 11.0707 56.0005 11.0707H56.9035V15.1963C56.9035 16.8635 57.7435 17.7088 59.4001 17.7088C60.0737 17.7088 60.6326 17.5714 61.1593 17.2763C61.202 17.2527 61.2286 17.2071 61.2286 17.1587V15.6403C61.2286 15.5935 61.2039 15.5492 61.1633 15.5247C61.1224 15.4993 61.0715 15.498 61.0296 15.5185C60.6678 15.6984 60.3181 15.7813 59.9272 15.7813C59.3246 15.7813 59.0559 15.5111 59.0559 14.9054V11.0714H61.1224C61.1983 11.0714 61.2593 11.0103 61.2593 10.9354V9.3411C61.2622 9.26616 61.2013 9.20512 61.1244 9.20512L61.1224 9.20425ZM68.3227 9.21241V8.95605C68.3227 8.20189 68.6154 7.86558 69.2719 7.86558C69.6634 7.86558 69.9779 7.94239 70.3301 8.05846C70.3735 8.07193 70.4187 8.0652 70.4539 8.03954C70.4902 8.01389 70.5107 7.97276 70.5107 7.9292V6.36586C70.5107 6.3061 70.4718 6.25323 70.4135 6.2356C70.0414 6.12626 69.5654 6.01406 68.8526 6.01406C67.1181 6.01406 66.2012 6.97901 66.2012 8.80358V9.19621H65.299C65.2233 9.19621 65.1612 9.25725 65.1612 9.33205V10.9347C65.1612 11.0095 65.2233 11.0706 65.299 11.0706H66.2012V17.4342C66.2012 17.5092 66.2624 17.5702 66.3382 17.5702H68.2161C68.292 17.5702 68.3538 17.5092 68.3538 17.4342V11.0711H70.1071L72.793 17.4331C72.4881 18.1016 72.1883 18.2345 71.779 18.2345C71.4481 18.2345 71.0997 18.1369 70.7435 17.9444C70.71 17.9262 70.6702 17.9231 70.6341 17.9342C70.5983 17.9466 70.5681 17.973 70.5529 18.0074L69.9164 19.3869C69.8861 19.4521 69.912 19.5286 69.9756 19.5624C70.64 19.918 71.2399 20.0697 71.9812 20.0697C73.3679 20.0697 74.1343 19.4316 74.81 17.7149L78.0679 9.39812C78.0843 9.35627 78.0794 9.30899 78.0534 9.27188C78.0276 9.23505 77.986 9.21284 77.9404 9.21284H75.9855C75.9269 9.21284 75.8745 9.24966 75.8553 9.30397L73.8526 14.9552L71.659 9.30025C71.639 9.24766 71.5877 9.21283 71.5308 9.21283H68.3223L68.3227 9.21241ZM64.1482 9.20425H62.2702C62.1943 9.20425 62.1325 9.26528 62.1325 9.34023V17.4342C62.1325 17.5092 62.1943 17.5702 62.2702 17.5702H64.1482C64.2239 17.5702 64.2858 17.5092 64.2858 17.4342V9.3408C64.2859 9.32292 64.2823 9.3052 64.2754 9.28868C64.2685 9.27215 64.2583 9.25714 64.2455 9.2445C64.2327 9.23186 64.2175 9.22185 64.2008 9.21504C64.184 9.20823 64.1661 9.20475 64.148 9.20482L64.1482 9.20425ZM63.2198 5.51885C62.4759 5.51885 61.8722 6.1138 61.8722 6.84877C61.8722 7.58416 62.476 8.17984 63.2198 8.17984C63.9635 8.17984 64.5666 7.58416 64.5666 6.84877C64.5666 6.11395 63.9632 5.51885 63.2206 5.51885H63.2198ZM79.6715 11.8066C78.9282 11.8066 78.3499 11.217 78.3499 10.5009C78.3499 9.78487 78.9358 9.18848 79.6784 9.18848C80.4217 9.18848 81 9.778 81 10.4935C81 11.2095 80.414 11.8066 79.6713 11.8066H79.6715ZM79.6787 9.3183C79.0018 9.3183 78.4896 9.84993 78.4896 10.5009C78.4896 11.1516 78.9981 11.6761 79.6719 11.6761C80.3487 11.6761 80.8615 11.1449 80.8615 10.4935C80.8615 9.84276 80.3523 9.3183 79.6793 9.3183H79.6787ZM79.9717 10.6277L80.3456 11.1447H80.0303L79.6938 10.6704H79.4045V11.1447H79.1406V9.77427H79.7593C80.0816 9.77427 80.2935 9.93719 80.2935 10.2115C80.2949 10.4362 80.1629 10.5734 79.9729 10.6277H79.9717V10.6277ZM79.7484 10.0094H79.4043V10.4429H79.7484C79.9201 10.4429 80.0226 10.3599 80.0226 10.2259C80.0226 10.0849 79.9197 10.0094 79.7485 10.0094H79.7484V10.0094Z" fill="#686F8B"/>
</g>
<defs>
<clipPath id="clip0">
<rect width="81" height="24" fill="white"/>
</clipPath>
</defs>
</svg>
