<svg width="67" height="28" viewBox="0 0 67 28" fill="none" xmlns="http://www.w3.org/2000/svg">
<g clip-path="url(#clip0)">
<path d="M4.70858 10.9237C4.70858 10.1981 5.30412 9.91888 6.29067 9.91888C7.705 9.91888 9.49162 10.347 10.9061 11.1098V6.73706C9.36142 6.12307 7.83534 5.88117 6.29067 5.88117C2.5125 5.88117 0 7.85358 0 11.1471C0 16.2825 7.07216 15.4639 7.07216 17.6782C7.07216 18.534 6.32784 18.8132 5.28554 18.8132C3.74088 18.8132 1.76804 18.1805 0.204664 17.3246V21.7531C1.93554 22.4974 3.685 22.8136 5.28554 22.8136C9.15662 22.8136 11.818 20.8972 11.818 17.5665C11.7995 12.0216 4.70858 13.0077 4.70858 10.9237ZM17.2897 2.1598L12.7486 3.1273L12.73 18.0316C12.73 20.7856 14.7959 22.8136 17.5503 22.8136C19.0764 22.8136 20.193 22.5346 20.8072 22.1996V18.4224C20.2118 18.6643 17.2711 19.5202 17.2711 16.7663V10.1608H20.8072V6.19752H17.2711L17.2897 2.1598ZM26.5953 7.57438L26.2975 6.19752H22.2775V22.4787H26.9303V11.4448C28.0282 10.012 29.8895 10.2725 30.4664 10.4771V6.19752C29.8709 5.97419 27.6934 5.56482 26.5953 7.57438ZM31.6016 6.19752H36.273V22.4787H31.6016V6.19752ZM31.6016 4.78336L36.273 3.77857V0.00134277L31.6016 0.987549V4.78323V4.78336ZM45.988 5.88117C44.1641 5.88117 42.9916 6.73706 42.3403 7.33261L42.0982 6.17894H38.0039V27.8747L42.6566 26.8886L42.6753 21.6228C43.3453 22.1066 44.3316 22.795 45.9695 22.795C49.3009 22.795 52.3345 20.1156 52.3345 14.2172C52.3159 8.82108 49.245 5.88117 45.988 5.88117ZM44.8714 18.7015C43.7734 18.7015 43.1218 18.3108 42.6753 17.827L42.6566 10.9237C43.1405 10.3841 43.8105 10.012 44.8714 10.012C46.565 10.012 47.7375 11.9099 47.7375 14.3474C47.7375 16.8408 46.5836 18.7015 44.8714 18.7015ZM67 14.4033C67 9.63982 64.6922 5.88117 60.2814 5.88117C55.8518 5.88117 53.1718 9.63995 53.1718 14.3661C53.1718 19.9667 56.3359 22.795 60.8768 22.795C63.0916 22.795 64.7666 22.2926 66.0322 21.5856V17.8641C64.7668 18.4968 63.315 18.8876 61.4725 18.8876C59.6672 18.8876 58.0666 18.2549 57.862 16.0593H66.9628C66.9628 15.8173 67 14.8498 67 14.4033ZM57.8061 12.6356C57.8061 10.533 59.0903 9.6584 60.2628 9.6584C61.398 9.6584 62.6078 10.533 62.6078 12.6356H57.8061Z" fill="#6772E5"/>
</g>
<defs>
<clipPath id="clip0">
<rect width="67" height="28" fill="white"/>
</clipPath>
</defs>
</svg>
