<svg width="58" height="24" viewBox="0 0 58 24" fill="none" xmlns="http://www.w3.org/2000/svg">
<g clip-path="url(#clip0)">
<path d="M4.07609 9.36437C4.07609 8.74244 4.59163 8.50313 5.44566 8.50313C6.67 8.50313 8.21663 8.87005 9.44109 9.52395V5.77586C8.10391 5.24958 6.78283 5.04223 5.44566 5.04223C2.175 5.04223 0 6.73287 0 9.55591C0 13.9577 6.12217 13.256 6.12217 15.154C6.12217 15.8875 5.47783 16.1268 4.57554 16.1268C3.23837 16.1268 1.53054 15.5845 0.177172 14.8509V18.6467C1.67554 19.2847 3.19 19.5558 4.57554 19.5558C7.92663 19.5558 10.2305 17.9131 10.2305 15.0582C10.2145 10.3055 4.07609 11.1507 4.07609 9.36437ZM14.9672 1.85249L11.0361 2.68177L11.02 15.4569C11.02 17.8175 12.8084 19.5558 15.1928 19.5558C16.5139 19.5558 17.4805 19.3166 18.0122 19.0295V15.7919C17.4967 15.9992 14.9511 16.7328 14.9511 14.3724V8.71048H18.0122V5.31339H14.9511L14.9672 1.85249ZM23.0228 6.49356L22.765 5.31339H19.285V19.2687H23.3128V9.81103C24.2633 8.58297 25.8745 8.80625 26.3739 8.98164V5.31339C25.8584 5.12196 23.9734 4.77107 23.0228 6.49356ZM27.3566 5.31339H31.4005V19.2687H27.3566V5.31339ZM27.3566 4.10125L31.4005 3.24001V0.00238037L27.3566 0.8477V4.10114V4.10125ZM39.8105 5.04223C38.2316 5.04223 37.2166 5.77586 36.6528 6.28632L36.4433 5.29746H32.8989V23.8938L36.9266 23.0486L36.9428 18.5351C37.5228 18.9497 38.3766 19.5398 39.7945 19.5398C42.6784 19.5398 45.3045 17.2432 45.3045 12.1874C45.2884 7.56215 42.63 5.04223 39.8105 5.04223ZM38.8439 16.0311C37.8934 16.0311 37.3293 15.6962 36.9428 15.2815L36.9266 9.36437C37.3455 8.9019 37.9255 8.58297 38.8439 8.58297C40.31 8.58297 41.325 10.2097 41.325 12.299C41.325 14.4362 40.3261 16.0311 38.8439 16.0311ZM58 12.3469C58 8.26393 56.0022 5.04223 52.1839 5.04223C48.3493 5.04223 46.0293 8.26404 46.0293 12.315C46.0293 17.1156 48.7684 19.5398 52.6993 19.5398C54.6166 19.5398 56.0666 19.1092 57.1622 18.5032V15.3133C56.0667 15.8557 54.81 16.1906 53.215 16.1906C51.6522 16.1906 50.2666 15.6483 50.0895 13.7664H57.9678C57.9678 13.5589 58 12.7296 58 12.3469ZM50.0411 10.8317C50.0411 9.02952 51.1528 8.27986 52.1678 8.27986C53.1505 8.27986 54.1978 9.02952 54.1978 10.8317H50.0411Z" fill="#686F8B"/>
</g>
<defs>
<clipPath id="clip0">
<rect width="58" height="24" fill="white"/>
</clipPath>
</defs>
</svg>
