<svg width="295" height="56" viewBox="0 0 295 56" fill="none" xmlns="http://www.w3.org/2000/svg">
<path d="M20.5472 43.4873L20.4261 39.3599C18.9672 40.8574 17.2397 42.0684 15.3334 42.9301C13.618 43.66 11.7716 44.0331 9.90684 44.0268C8.38086 44.0617 6.86019 43.8354 5.41082 43.3576C4.26536 42.9694 3.21741 42.3388 2.33864 41.5091C1.53995 40.739 0.932954 39.7929 0.566233 38.7467C0.18049 37.6419 -0.0113813 36.479 -0.000938345 35.3092C-0.000938345 32.2372 1.14621 29.8315 3.44049 28.0921C5.73478 26.3527 9.12304 25.483 13.6053 25.483H19.9682V22.7972C19.9682 20.9851 19.3873 19.5356 18.2253 18.4487C17.0634 17.3618 15.2891 16.8135 12.9022 16.8037C11.1779 16.8062 9.45952 17.004 7.77994 17.3933C6.00415 17.8119 4.26231 18.3628 2.56906 19.0413V14.2506C3.23962 14.0059 3.98994 13.7671 4.81411 13.5342C5.63828 13.3013 6.51267 13.092 7.42842 12.9092C8.34416 12.7264 9.30422 12.579 10.3027 12.4669C11.308 12.3546 12.3189 12.2985 13.3305 12.2989C15.0243 12.278 16.7132 12.4833 18.3524 12.9092C19.7252 13.2596 21.0093 13.8933 22.1217 14.7694C23.1524 15.6109 23.9633 16.6893 24.4849 17.9122C25.0635 19.3258 25.344 20.8432 25.3091 22.3698V43.4873H20.5472ZM19.9564 29.5397H13.2094C12.0545 29.519 10.9021 29.6529 9.78277 29.9377C8.92639 30.15 8.12231 30.5342 7.41955 31.0668C6.82628 31.5345 6.35923 32.1425 6.06071 32.8357C5.75577 33.5656 5.60493 34.3504 5.6176 35.1411C5.61535 35.7164 5.70817 36.2882 5.89233 36.8334C6.07552 37.3725 6.37848 37.8633 6.77853 38.2691C7.22879 38.712 7.77145 39.0502 8.36779 39.2597C9.13526 39.5224 9.94356 39.6462 10.7546 39.6253C11.9776 39.6253 13.3788 39.2538 14.9582 38.5109C16.7935 37.5884 18.4794 36.3959 19.9594 34.9731L19.9564 29.5397ZM87.2637 42.3582C85.8831 42.8872 84.4546 43.2821 82.9981 43.5374C81.5134 43.796 80.0092 43.9262 78.5021 43.9266C73.6476 43.9266 69.9118 42.6147 67.2945 39.9908C64.6773 37.367 63.3667 33.5344 63.3627 28.4931C63.3332 26.2452 63.7166 24.0109 64.4941 21.901C65.1929 20.002 66.2759 18.2669 67.6756 16.8037C69.0598 15.3916 70.7266 14.2866 72.5675 13.5607C74.5633 12.7791 76.692 12.3906 78.8359 12.4168C80.3314 12.4105 81.825 12.5239 83.3024 12.7559C84.6638 12.9729 85.9965 13.3418 87.2755 13.8555V18.9204C85.9964 18.2451 84.6351 17.7377 83.2255 17.411C81.8262 17.0924 80.3952 16.9332 78.9599 16.9363C77.6303 16.9288 76.3132 17.1937 75.0902 17.7146C73.8809 18.2325 72.7933 18.9967 71.8969 19.9582C70.9384 20.9914 70.1963 22.2052 69.7139 23.5284C69.1639 25.0586 68.8976 26.676 68.9281 28.3014C68.9281 32.0043 69.8301 34.7765 71.634 36.6181C73.4379 38.4598 75.9409 39.3806 79.1431 39.3806C80.5587 39.3832 81.9697 39.219 83.3467 38.8912C84.7112 38.5603 86.0305 38.0653 87.2755 37.4171L87.2637 42.3582ZM117.569 43.4873L117.445 39.3599C115.987 40.8572 114.261 42.0683 112.355 42.9301C110.642 43.6618 108.798 44.038 106.934 44.0357C105.41 44.0703 103.89 43.844 102.441 43.3665C101.295 42.9775 100.247 42.3471 99.3663 41.518C98.5695 40.7462 97.9629 39.8007 97.5939 38.7556C97.2081 37.6478 97.0173 36.4818 97.0297 35.3092C97.0297 32.2372 98.1758 29.8315 100.468 28.0921C102.76 26.3527 106.15 25.483 110.636 25.483H116.996V22.7972C116.996 20.9851 116.415 19.5356 115.253 18.4487C114.091 17.3618 112.319 16.8174 109.936 16.8155C108.211 16.8176 106.493 17.0154 104.814 17.4051C103.037 17.8237 101.294 18.3745 99.5997 19.0531V14.2506C100.273 14.0059 101.021 13.7671 101.848 13.5342C102.675 13.3013 103.543 13.092 104.462 12.9092C105.381 12.7264 106.338 12.579 107.336 12.4669C108.342 12.3546 109.352 12.2985 110.364 12.2989C112.058 12.2776 113.747 12.4828 115.386 12.9092C116.762 13.2595 118.048 13.8932 119.164 14.7694C120.195 15.6108 121.006 16.6892 121.527 17.9122C122.107 19.3256 122.388 20.843 122.354 22.3698V43.4873H117.569ZM116.978 29.5397H110.24C109.086 29.519 107.935 29.6529 106.816 29.9377C105.96 30.15 105.156 30.5342 104.453 31.0668C103.859 31.5343 103.391 32.1423 103.091 32.8357C102.786 33.5656 102.636 34.3504 102.648 35.1411C102.646 35.7164 102.739 36.2882 102.923 36.8334C103.108 37.3717 103.411 37.8621 103.809 38.2691C104.259 38.712 104.802 39.0502 105.398 39.2597C106.165 39.5221 106.972 39.6459 107.782 39.6253C109.005 39.6253 110.407 39.2538 111.989 38.5109C113.823 37.5883 115.508 36.3958 116.987 34.9731L116.978 29.5397ZM158.506 27.6175C158.506 30.3455 158.123 32.7256 157.357 34.7579C156.68 36.6549 155.601 38.3837 154.193 39.8257C152.844 41.17 151.215 42.2016 149.422 42.8476C147.51 43.5305 145.492 43.8708 143.461 43.8529C142.485 43.8536 141.51 43.8024 140.539 43.6996C139.544 43.5945 138.557 43.4212 137.585 43.1807V56.014H132.268V12.8473H136.995L137.361 17.9829C138.891 15.8878 140.523 14.4137 142.256 13.5607C144.004 12.7146 145.925 12.2818 147.868 12.296C149.476 12.2604 151.066 12.6381 152.485 13.3927C153.837 14.1467 154.987 15.2158 155.835 16.5089C156.791 17.9833 157.475 19.6169 157.853 21.332C158.321 23.394 158.547 25.5033 158.526 27.6175H158.506ZM153.061 27.8622C153.071 26.3808 152.953 24.9013 152.71 23.4399C152.523 22.2385 152.146 21.0743 151.593 19.9906C151.136 19.0936 150.465 18.323 149.638 17.7471C148.8 17.1985 147.816 16.9159 146.814 16.9363C146.118 16.9393 145.427 17.0477 144.764 17.2577C143.997 17.5065 143.272 17.8661 142.61 18.3249C141.76 18.9088 140.969 19.5733 140.247 20.309C139.295 21.2722 138.407 22.2964 137.588 23.3751V38.2396C138.594 38.6561 139.635 38.9808 140.699 39.2096C141.743 39.4391 142.808 39.5568 143.877 39.5604C146.753 39.5604 149.006 38.5885 150.636 36.6447C152.267 34.7009 153.082 31.7734 153.082 27.8622H153.061ZM177.157 17.2488H168.097V12.8473H182.572V39.0622H191.73V43.4844H167.087V39.0622H177.178L177.157 17.2488ZM179.042 -0.000759647C179.609 -0.00652799 180.17 0.102805 180.693 0.320588C181.194 0.526761 181.647 0.832729 182.026 1.21977C182.4 1.6043 182.7 2.05393 182.912 2.54644C183.129 3.06339 183.239 3.61911 183.234 4.17971C183.236 4.73524 183.126 5.28551 182.912 5.79824C182.702 6.2964 182.402 6.75129 182.026 7.13965C181.647 7.52668 181.194 7.83351 180.693 8.04178C179.634 8.46652 178.451 8.46652 177.391 8.04178C176.892 7.83274 176.44 7.52598 176.061 7.13965C175.683 6.75284 175.382 6.29756 175.175 5.79824C174.961 5.28551 174.852 4.73524 174.853 4.17971C174.847 3.61932 174.956 3.0636 175.172 2.54644C175.382 2.05276 175.683 1.60275 176.059 1.21977C176.438 0.83874 176.89 0.537926 177.388 0.335329C177.911 0.11273 178.474 -0.00160767 179.042 -0.000759647ZM225.89 43.0598C224.664 43.3701 223.417 43.5899 222.159 43.7173C220.858 43.8488 219.552 43.9147 218.245 43.9148C214.393 43.9148 211.519 43.0451 209.622 41.3057C207.726 39.5663 206.778 36.8963 206.78 33.2956V17.3019H198.187V12.8473H206.78V4.42146L212.098 3.04762V12.8473H225.89V17.3019H212.098V32.8681C212.098 35.0635 212.688 36.7056 213.87 37.7945C215.052 38.8833 216.779 39.4277 219.051 39.4277C220.125 39.4207 221.198 39.3449 222.262 39.2007C223.489 39.0354 224.704 38.7951 225.902 38.4814L225.89 43.0598ZM255.306 43.4873L255.185 39.3599C253.726 40.8574 251.998 42.0684 250.092 42.9301C248.377 43.66 246.53 44.0331 244.666 44.0268C243.137 44.0656 241.613 43.8422 240.161 43.3665C239.015 42.9782 237.967 42.3477 237.088 41.518C236.291 40.7468 235.684 39.8011 235.316 38.7556C234.932 37.6475 234.741 36.4817 234.752 35.3092C234.752 32.2372 235.899 29.8315 238.193 28.0921C240.488 26.3527 243.876 25.483 248.358 25.483H254.721V22.7972C254.721 20.9851 254.14 19.5356 252.978 18.4487C251.816 17.3618 250.044 16.8174 247.661 16.8155C245.937 16.818 244.218 17.0158 242.539 17.4051C240.763 17.8237 239.021 18.3746 237.328 19.0531V14.2506C237.998 14.0059 238.749 13.7671 239.573 13.5342C240.397 13.3013 241.271 13.092 242.187 12.9092C243.103 12.7264 244.063 12.579 245.061 12.4669C246.067 12.3546 247.078 12.2985 248.089 12.2989C249.783 12.278 251.472 12.4833 253.111 12.9092C254.484 13.2596 255.768 13.8933 256.88 14.7694C257.911 15.6109 258.722 16.6893 259.244 17.9122C259.822 19.3258 260.103 20.8432 260.068 22.3698V43.4873H255.306ZM254.715 29.5397H247.968C246.813 29.519 245.661 29.6529 244.541 29.9377C243.685 30.15 242.881 30.5342 242.178 31.0668C241.585 31.5345 241.118 32.1425 240.819 32.8357C240.514 33.5656 240.364 34.3504 240.376 35.1411C240.374 35.7164 240.467 36.2882 240.651 36.8334C240.834 37.3725 241.137 37.8633 241.537 38.2691C241.987 38.712 242.53 39.0502 243.127 39.2597C243.894 39.5224 244.702 39.6462 245.513 39.6253C246.736 39.6253 248.137 39.2538 249.717 38.5109C251.552 37.5884 253.238 36.3959 254.718 34.9731L254.715 29.5397ZM280.474 4.71627H271.391V0.36481H285.865V39.0622H295.023V43.4844H270.383V39.0622H280.474V4.71627ZM62.8694 47.998H28.4374V43.6023H62.8694V47.998Z" fill="#8FD8E7"/>
</svg>
