<svg width="297" height="59" viewBox="0 0 297 59" fill="none" xmlns="http://www.w3.org/2000/svg">
<path d="M152.534 5.61698H149.777C149.767 5.61532 149.756 5.61618 149.746 5.61951C149.736 5.62283 149.726 5.62852 149.719 5.63611C149.711 5.6437 149.706 5.65298 149.702 5.66318C149.699 5.67339 149.698 5.68423 149.7 5.69484V8.75878C149.7 9.32486 149.538 9.78875 148.944 9.78875C148.351 9.78875 148.179 9.34108 148.179 8.75878V0.798039C148.175 0.700383 148.19 0.60285 148.225 0.51149C148.26 0.420129 148.313 0.336889 148.381 0.266932C148.449 0.196975 148.531 0.141793 148.622 0.104807C148.712 0.0678213 148.809 0.0498211 148.907 0.0519228H152.54C152.724 0.0543822 152.901 0.128234 153.032 0.257975C153.163 0.387717 153.239 0.56326 153.244 0.747758C153.244 1.30086 152.879 1.55875 152.24 1.55875H149.773C149.762 1.55709 149.751 1.55796 149.741 1.56128C149.731 1.56461 149.722 1.57029 149.714 1.57788C149.706 1.58547 149.701 1.59475 149.697 1.60495C149.694 1.61516 149.693 1.62601 149.695 1.63661V4.03229C149.695 4.09717 149.721 4.11015 149.773 4.11015H152.529C152.727 4.11312 152.917 4.19396 153.057 4.3353C153.196 4.47664 153.275 4.66719 153.276 4.866C153.277 4.96423 153.259 5.06171 153.222 5.15277C153.185 5.24384 153.13 5.3267 153.061 5.39654C152.992 5.46638 152.91 5.52183 152.82 5.55967C152.729 5.59751 152.632 5.61699 152.534 5.61698Z" fill="#8FD8E7"/>
<path d="M154.943 6.48812C154.946 6.0488 155.035 5.6144 155.207 5.20988C155.378 4.80535 155.627 4.43866 155.941 4.13089C156.254 3.82312 156.625 3.58032 157.032 3.41645C157.44 3.25258 157.876 3.17087 158.315 3.17601C160.007 3.17601 161.633 4.56768 161.633 6.2578C161.633 6.44809 161.56 6.63109 161.43 6.76965C161.299 6.90822 161.121 6.99197 160.931 7.00391H156.921C156.758 7.00391 156.622 7.01689 156.478 7.02987C156.585 7.43685 156.823 7.79735 157.155 8.05585C157.487 8.31435 157.894 8.45652 158.315 8.46046C159.043 8.46046 159.472 8.16364 159.915 7.90736C160.009 7.83526 160.121 7.79038 160.239 7.77761C160.32 7.77567 160.401 7.78984 160.476 7.81929C160.551 7.84875 160.62 7.8929 160.679 7.94919C160.737 8.00548 160.783 8.07278 160.815 8.14718C160.847 8.22159 160.864 8.30161 160.865 8.38261C160.865 9.29741 159.198 9.82618 158.313 9.82618C157.872 9.83069 157.435 9.74767 157.026 9.58193C156.617 9.41619 156.245 9.17103 155.932 8.86061C155.618 8.55019 155.37 8.18069 155.2 7.77346C155.03 7.36623 154.943 6.92936 154.943 6.48812ZM156.504 5.88149C156.634 5.89699 156.764 5.90565 156.895 5.90745H159.72C159.863 5.90745 159.98 5.89447 160.111 5.89447C159.967 5.15971 159.108 4.60661 158.315 4.60661C157.522 4.60661 156.648 5.14187 156.504 5.87501V5.88149Z" fill="#8FD8E7"/>
<path d="M166.739 4.63903C166.556 4.63903 166.594 4.61307 166.335 4.61307C165.687 4.61307 165.059 5.01208 165.059 5.96582V8.56101C165.059 9.19196 164.915 9.77101 164.356 9.77101C163.822 9.77101 163.613 9.41093 163.613 8.767V4.18811C163.613 3.60744 163.796 3.21492 164.317 3.21492C164.72 3.21492 164.915 3.48579 165.006 3.89778C165.492 3.44686 165.978 3.18896 166.581 3.18896C167.185 3.18896 167.532 3.53607 167.532 3.85885C167.532 4.35518 167.259 4.63903 166.739 4.63903Z" fill="#8FD8E7"/>
<path d="M173.742 6.00121C173.732 5.62612 173.577 5.26959 173.31 5.00562C173.044 4.74165 172.686 4.59052 172.311 4.58358C171.568 4.58358 170.878 4.99557 170.878 5.93633V8.64505C170.878 9.25168 170.715 9.76585 170.176 9.76585C169.563 9.76585 169.472 9.34089 169.433 8.63046V4.31595C169.433 3.7369 169.563 3.19516 170.163 3.19516C170.297 3.19649 170.428 3.23755 170.539 3.31316C170.65 3.38878 170.736 3.49558 170.787 3.62012C171.23 3.314 171.759 3.15616 172.298 3.16921C173.964 3.16921 175.175 4.27703 175.175 5.91362V8.63208C175.175 9.28899 175.044 9.76747 174.472 9.76747C174.068 9.76747 173.742 9.48525 173.742 8.98243V6.00121Z" fill="#8FD8E7"/>
<path d="M183.129 3.31219C183.533 3.31219 183.755 3.69822 183.755 4.3681V8.63232C183.755 9.13514 183.664 9.70284 183.142 9.70284C182.7 9.70284 182.544 9.54064 182.388 9.16109C181.889 9.52884 181.299 9.75177 180.682 9.80532C180.064 9.85887 179.444 9.74098 178.89 9.46462C178.335 9.18826 177.867 8.76414 177.538 8.23897C177.209 7.71379 177.031 7.10792 177.024 6.48805C177.031 5.86854 177.209 5.2631 177.539 4.73881C177.869 4.21452 178.338 3.79184 178.893 3.51759C179.448 3.24334 180.069 3.12824 180.685 3.18503C181.302 3.24182 181.891 3.46828 182.387 3.83933C182.492 3.59441 182.57 3.31219 183.129 3.31219ZM180.396 8.40038C180.772 8.39622 181.138 8.28094 181.449 8.06905C181.759 7.85716 182 7.55811 182.142 7.2095C182.283 6.86089 182.318 6.47829 182.242 6.10981C182.167 5.74133 181.984 5.40342 181.717 5.13857C181.45 4.87371 181.111 4.69374 180.742 4.62129C180.373 4.54883 179.991 4.58713 179.644 4.73135C179.296 4.87558 179 5.1193 178.79 5.43187C178.581 5.74444 178.469 6.1119 178.468 6.48805C178.464 6.7416 178.512 6.9933 178.608 7.22809C178.703 7.46288 178.845 7.67593 179.025 7.85448C179.205 8.03302 179.419 8.1734 179.655 8.2672C179.89 8.361 180.142 8.4063 180.396 8.40038Z" fill="#8FD8E7"/>
<path d="M190.108 6.00121C190.098 5.62612 189.943 5.26959 189.676 5.00562C189.41 4.74165 189.052 4.59052 188.677 4.58358C187.934 4.58358 187.244 4.99557 187.244 5.93633V8.64505C187.244 9.25168 187.082 9.76585 186.542 9.76585C185.929 9.76585 185.838 9.34089 185.799 8.63046V4.31595C185.799 3.7369 185.929 3.19516 186.529 3.19516C186.663 3.19649 186.794 3.23755 186.905 3.31316C187.016 3.38878 187.102 3.49558 187.153 3.62012C187.596 3.314 188.125 3.15616 188.664 3.16921C190.329 3.16921 191.54 4.27703 191.54 5.91362V8.63208C191.54 9.28899 191.41 9.76747 190.838 9.76747C190.434 9.76747 190.108 9.48525 190.108 8.98243V6.00121Z" fill="#8FD8E7"/>
<path d="M198.761 9.16113C198.263 9.52844 197.673 9.75099 197.057 9.80421C196.441 9.85744 195.822 9.73927 195.268 9.46275C194.715 9.18623 194.248 8.76211 193.921 8.23719C193.593 7.71228 193.417 7.10698 193.411 6.48808C193.413 6.04908 193.502 5.61484 193.672 5.21015C193.842 4.80546 194.09 4.43825 194.402 4.12949C194.714 3.82072 195.084 3.57645 195.49 3.41062C195.896 3.24479 196.331 3.16065 196.77 3.163C197.463 3.16271 198.138 3.38376 198.696 3.79395V1.44369C198.696 0.927892 199.02 0.644043 199.413 0.644043C199.868 0.644043 200.142 0.968441 200.142 1.44369V8.98109C200.148 9.08115 200.134 9.18143 200.1 9.27582C200.067 9.37021 200.014 9.45675 199.946 9.53018C199.877 9.6036 199.795 9.66238 199.703 9.70294C199.612 9.7435 199.513 9.765 199.413 9.76613C199.144 9.76613 198.871 9.61204 198.761 9.16113ZM196.768 8.40041C197.145 8.39753 197.512 8.28334 197.823 8.07221C198.135 7.86109 198.377 7.56247 198.519 7.21397C198.661 6.86546 198.697 6.48265 198.622 6.11374C198.547 5.74483 198.365 5.40631 198.099 5.14081C197.832 4.87531 197.493 4.6947 197.123 4.62173C196.754 4.54875 196.372 4.58668 196.024 4.73072C195.677 4.87477 195.379 5.1185 195.17 5.43121C194.961 5.74393 194.848 6.11166 194.847 6.48808C194.845 6.7412 194.894 6.9922 194.99 7.22627C195.086 7.46034 195.228 7.67276 195.408 7.85099C195.588 8.02921 195.801 8.16965 196.036 8.26401C196.271 8.35838 196.522 8.40475 196.775 8.40041H196.768Z" fill="#8FD8E7"/>
<path d="M205.419 3.16926C206.075 3.17885 206.713 3.38216 207.253 3.7536C207.793 4.12503 208.212 4.64801 208.455 5.25675C208.699 5.86549 208.758 6.5328 208.624 7.17473C208.49 7.81667 208.169 8.40457 207.701 8.86447C207.234 9.32437 206.641 9.63575 205.997 9.75942C205.354 9.88309 204.688 9.81354 204.083 9.55951C203.479 9.30548 202.963 8.87833 202.601 8.33177C202.239 7.78522 202.046 7.14368 202.047 6.48785C202.048 6.04774 202.137 5.61225 202.307 5.20658C202.478 4.8009 202.727 4.43311 203.041 4.12448C203.355 3.81585 203.726 3.57251 204.134 3.40854C204.543 3.24458 204.979 3.16325 205.419 3.16926ZM205.419 8.38721C205.792 8.38082 206.155 8.26442 206.462 8.05262C206.769 7.84082 207.006 7.54304 207.145 7.19664C207.283 6.85023 207.317 6.47062 207.24 6.10542C207.164 5.74022 206.982 5.40568 206.716 5.14377C206.451 4.88186 206.114 4.70424 205.747 4.63319C205.381 4.56213 205.002 4.6008 204.658 4.74435C204.314 4.8879 204.02 5.12994 203.813 5.44011C203.605 5.75027 203.494 6.11476 203.493 6.48785C203.492 6.73993 203.541 6.98968 203.638 7.22244C203.735 7.4552 203.877 7.66626 204.057 7.84321C204.236 8.02017 204.449 8.15945 204.683 8.25287C204.917 8.34629 205.167 8.39197 205.419 8.38721Z" fill="#8FD8E7"/>
<path d="M222.293 1.33977C222.502 0.690969 222.854 0 223.608 0C224.533 0 224.845 0.721787 224.845 1.70147V9.04423C224.831 9.244 224.741 9.43081 224.593 9.56541C224.445 9.70002 224.25 9.77192 224.05 9.76602C223.958 9.76731 223.866 9.75033 223.78 9.71605C223.693 9.68178 223.615 9.63088 223.549 9.56627C223.482 9.50165 223.429 9.42458 223.393 9.33946C223.356 9.25434 223.336 9.16284 223.335 9.07018V3.54243C223.335 3.21803 223.335 2.91148 223.322 2.6033C223.229 2.80323 223.15 3.00978 223.087 3.22128C222.709 4.31612 220.98 9.16102 220.965 9.17399C220.92 9.34268 220.821 9.492 220.684 9.599C220.546 9.706 220.377 9.76476 220.202 9.76623C220.028 9.76771 219.858 9.71182 219.718 9.60716C219.579 9.50251 219.477 9.35487 219.43 9.18697C219.105 8.25919 217.841 4.54807 217.502 3.54243C217.385 3.2083 217.267 2.87255 217.137 2.56924C217.124 2.87742 217.111 3.18722 217.111 3.50999V9.00693C217.113 9.10682 217.095 9.20605 217.058 9.29872C217.02 9.39139 216.965 9.47563 216.894 9.54642C216.824 9.61722 216.74 9.67314 216.647 9.71086C216.555 9.74858 216.456 9.76734 216.356 9.76602C216.157 9.77137 215.964 9.69891 215.818 9.56408C215.673 9.42925 215.585 9.24272 215.574 9.04423V1.70147C215.574 0.747739 216.032 0 216.811 0C217.073 0.0126489 217.324 0.108043 217.528 0.272442C217.732 0.436841 217.878 0.66176 217.946 0.914804L220.146 7.17732C220.159 7.21462 220.185 7.2276 220.198 7.2276C220.211 7.2276 220.237 7.21462 220.25 7.17732C220.927 5.23093 221.608 3.28508 222.293 1.33977Z" fill="#8FD8E7"/>
<path d="M232.878 3.31201C233.281 3.31201 233.504 3.69805 233.504 4.36793V8.63215C233.504 9.13497 233.413 9.70266 232.891 9.70266C232.448 9.70266 232.292 9.54047 232.137 9.16092C231.638 9.52867 231.047 9.75159 230.43 9.80515C229.813 9.8587 229.193 9.74081 228.638 9.46444C228.083 9.18808 227.616 8.76397 227.287 8.23879C226.957 7.71362 226.779 7.10775 226.772 6.48788C226.778 5.86754 226.955 5.26094 227.285 4.73544C227.615 4.20995 228.083 3.78612 228.639 3.51104C229.195 3.23596 229.816 3.1204 230.433 3.17717C231.051 3.23395 231.64 3.46085 232.137 3.83267C232.241 3.59424 232.32 3.31201 232.878 3.31201ZM230.144 8.40021C230.52 8.39605 230.887 8.28077 231.197 8.06888C231.508 7.85699 231.749 7.55793 231.89 7.20933C232.031 6.86072 232.066 6.47812 231.991 6.10964C231.915 5.74116 231.733 5.40325 231.466 5.13839C231.199 4.87354 230.859 4.69357 230.491 4.62112C230.122 4.54866 229.739 4.58695 229.392 4.73118C229.045 4.87541 228.748 5.11913 228.539 5.4317C228.33 5.74427 228.218 6.11173 228.217 6.48788C228.213 6.74143 228.26 6.99313 228.356 7.22792C228.452 7.46271 228.594 7.67576 228.774 7.8543C228.954 8.03285 229.168 8.17323 229.404 8.26703C229.639 8.36083 229.891 8.40613 230.144 8.40021Z" fill="#8FD8E7"/>
<path d="M238.672 4.63903C238.49 4.63903 238.529 4.61307 238.268 4.61307C237.62 4.61307 236.992 5.01208 236.992 5.96582V8.56101C236.992 9.19196 236.85 9.77101 236.29 9.77101C235.755 9.77101 235.548 9.41093 235.548 8.767V4.18811C235.548 3.60744 235.729 3.21492 236.25 3.21492C236.655 3.21492 236.85 3.48579 236.94 3.89778C237.427 3.44686 237.913 3.18896 238.516 3.18896C239.119 3.18896 239.466 3.53607 239.466 3.85885C239.466 4.35518 239.192 4.63903 238.672 4.63903Z" fill="#8FD8E7"/>
<path d="M242.8 2.46042C242.8 1.90732 242.994 1.41748 243.529 1.41748C244.064 1.41748 244.231 1.82947 244.231 2.46042V3.32494H244.974C245.546 3.32494 245.924 3.48714 245.924 3.9559C245.924 4.4425 245.559 4.61281 244.974 4.61281H244.231V8.66779C244.231 9.26144 244.037 9.76264 243.529 9.76264C242.942 9.76264 242.8 9.35065 242.8 8.66779V4.61281H242.047C241.475 4.61281 241.123 4.48305 241.123 4.0078C241.123 3.49201 241.448 3.32494 242.047 3.32494H242.803L242.8 2.46042Z" fill="#8FD8E7"/>
<path d="M247.851 1.85567C247.86 1.66994 247.94 1.49474 248.075 1.36642C248.209 1.23809 248.388 1.1665 248.574 1.1665C248.759 1.1665 248.938 1.23809 249.073 1.36642C249.207 1.49474 249.287 1.66994 249.296 1.85567C249.287 2.04139 249.207 2.21659 249.073 2.34492C248.938 2.47324 248.759 2.54483 248.574 2.54483C248.388 2.54483 248.209 2.47324 248.075 2.34492C247.94 2.21659 247.86 2.04139 247.851 1.85567ZM247.851 4.01941C247.851 3.51821 248.176 3.22139 248.581 3.22139C248.959 3.22139 249.296 3.51821 249.296 4.01941V8.98108C249.296 9.4839 248.959 9.76613 248.581 9.76613C248.177 9.76613 247.851 9.4839 247.851 8.98108V4.01941Z" fill="#8FD8E7"/>
<path d="M255.649 6.00117C255.639 5.62609 255.484 5.26956 255.217 5.00559C254.951 4.74162 254.593 4.59048 254.218 4.58355C253.475 4.58355 252.786 4.99553 252.786 5.93629V8.64502C252.786 9.25164 252.624 9.76582 252.083 9.76582C251.47 9.76582 251.379 9.34085 251.34 8.63042V4.31592C251.34 3.73687 251.47 3.19512 252.07 3.19512C252.204 3.19624 252.335 3.23721 252.446 3.31286C252.557 3.3885 252.643 3.49542 252.694 3.62008C253.137 3.31427 253.666 3.15646 254.205 3.16917C255.871 3.16917 257.082 4.27699 257.082 5.91358V8.63204C257.082 9.28895 256.951 9.76744 256.379 9.76744C255.975 9.76744 255.649 9.48521 255.649 8.98239V6.00117Z" fill="#8FD8E7"/>
<path d="M258.944 6.48772C258.946 6.04819 259.035 5.61346 259.206 5.20849C259.377 4.80352 259.626 4.43631 259.939 4.12793C260.252 3.81956 260.623 3.5761 261.03 3.41156C261.437 3.24702 261.873 3.16463 262.312 3.16912C264.005 3.16912 265.633 4.56079 265.633 6.25091C265.632 6.44135 265.559 6.62436 265.428 6.76288C265.297 6.9014 265.119 6.9851 264.929 6.99702H260.92C260.758 6.99702 260.62 7.01 260.477 7.02298C260.584 7.42952 260.822 7.78962 261.153 8.04782C261.485 8.30603 261.892 8.44802 262.312 8.45195C263.042 8.45195 263.472 8.15513 263.914 7.89885C264.008 7.82623 264.12 7.78129 264.238 7.76909C264.319 7.76715 264.4 7.78133 264.475 7.81081C264.55 7.84028 264.619 7.88446 264.677 7.94077C264.735 7.99708 264.782 8.06439 264.813 8.13879C264.845 8.21318 264.862 8.29317 264.863 8.3741C264.863 9.2889 263.196 9.81767 262.311 9.81767C261.871 9.82152 261.434 9.7383 261.027 9.5728C260.619 9.4073 260.248 9.16278 259.935 8.85331C259.622 8.54384 259.373 8.17552 259.203 7.76955C259.033 7.36357 258.945 6.92794 258.944 6.48772ZM260.506 5.88109C260.636 5.89668 260.767 5.90535 260.897 5.90704H263.721C263.866 5.90704 263.982 5.89407 264.112 5.89407C263.969 5.15931 263.11 4.60621 262.316 4.60621C261.521 4.60621 260.649 5.14146 260.506 5.8746V5.88109Z" fill="#8FD8E7"/>
<path d="M267.628 1.44369C267.628 0.927892 267.953 0.644043 268.358 0.644043C268.736 0.644043 269.06 0.927892 269.06 1.44369V8.98109C269.06 9.4839 268.736 9.76613 268.358 9.76613C267.954 9.76613 267.628 9.4839 267.628 8.98109V1.44369Z" fill="#8FD8E7"/>
<path d="M271.13 1.44369C271.13 0.927892 271.454 0.644043 271.86 0.644043C272.238 0.644043 272.562 0.927892 272.562 1.44369V8.98109C272.562 9.4839 272.238 9.76613 271.86 9.76613C271.456 9.76613 271.13 9.4839 271.13 8.98109V1.44369Z" fill="#8FD8E7"/>
<path d="M274.593 1.85573C274.593 1.66387 274.669 1.47987 274.805 1.34421C274.941 1.20854 275.125 1.13232 275.316 1.13232C275.508 1.13232 275.692 1.20854 275.828 1.34421C275.963 1.47987 276.039 1.66387 276.039 1.85573C276.039 2.04759 275.963 2.2316 275.828 2.36726C275.692 2.50293 275.508 2.57914 275.316 2.57914C275.125 2.57914 274.941 2.50293 274.805 2.36726C274.669 2.2316 274.593 2.04759 274.593 1.85573ZM274.593 4.01947C274.593 3.51828 274.917 3.22145 275.323 3.22145C275.701 3.22145 276.039 3.51828 276.039 4.01947V8.98115C276.039 9.48397 275.701 9.76619 275.323 9.76619C274.919 9.76619 274.593 9.48397 274.593 8.98115V4.01947Z" fill="#8FD8E7"/>
<path d="M286.076 3.16926C286.732 3.17885 287.37 3.38216 287.91 3.7536C288.45 4.12503 288.869 4.64801 289.112 5.25675C289.356 5.86549 289.415 6.5328 289.281 7.17473C289.146 7.81667 288.826 8.40457 288.358 8.86447C287.891 9.32437 287.298 9.63575 286.654 9.75942C286.011 9.88309 285.345 9.81354 284.74 9.55951C284.136 9.30548 283.62 8.87833 283.258 8.33177C282.896 7.78522 282.703 7.14368 282.704 6.48785C282.705 6.04774 282.794 5.61225 282.964 5.20658C283.135 4.8009 283.384 4.43311 283.698 4.12448C284.012 3.81585 284.383 3.57251 284.791 3.40854C285.2 3.24458 285.636 3.16325 286.076 3.16926ZM286.076 8.38721C286.449 8.38082 286.812 8.26442 287.119 8.05262C287.426 7.84082 287.663 7.54304 287.802 7.19664C287.94 6.85023 287.974 6.47062 287.897 6.10542C287.821 5.74022 287.639 5.40568 287.373 5.14377C287.108 4.88186 286.771 4.70424 286.404 4.63319C286.038 4.56213 285.659 4.6008 285.315 4.74435C284.971 4.8879 284.677 5.12994 284.47 5.44011C284.262 5.75027 284.151 6.11476 284.15 6.48785C284.149 6.73993 284.198 6.98968 284.295 7.22244C284.392 7.4552 284.534 7.66626 284.714 7.84321C284.893 8.02017 285.106 8.15945 285.34 8.25287C285.574 8.34629 285.824 8.39197 286.076 8.38721Z" fill="#8FD8E7"/>
<path d="M292.028 2.60348C292.028 1.3659 292.872 0.618164 293.928 0.618164H294.019C295.1 0.618164 295.815 1.42916 295.815 1.95793C295.812 2.1108 295.749 2.25641 295.64 2.36283C295.53 2.46925 295.383 2.5278 295.23 2.52563C294.696 2.49968 294.631 1.87683 294.095 1.85574H294.017C293.678 1.85574 293.471 2.07471 293.471 2.67972V3.32851H294.737C295.257 3.32851 295.635 3.49071 295.635 3.9984C295.635 4.42336 295.296 4.61638 294.737 4.61638H293.474V8.73624C293.474 9.35422 293.252 9.79215 292.757 9.79215C292.185 9.79215 292.029 9.36719 292.029 8.73624V4.61313H291.543C290.997 4.61313 290.57 4.45093 290.57 3.95622C290.57 3.49233 290.948 3.32527 291.543 3.32527H292.029L292.028 2.60348Z" fill="#8FD8E7"/>
<path d="M44.2721 39.2974C40.3455 40.0613 35.8823 40.4684 31.2473 40.4684C26.6122 40.4684 22.149 40.0613 18.2208 39.2974C7.46731 40.9291 0 44.5169 0 48.6806C0 54.3803 13.9895 58.9997 31.2473 58.9997C48.5051 58.9997 62.493 54.3803 62.493 48.6806C62.493 44.5169 55.0256 40.9291 44.2721 39.2974Z" fill="#8FD8E7"/>
<path d="M16.5056 36.308C18.0376 36.6827 19.7059 37.0023 21.4811 37.2537C24.7171 37.7012 27.9805 37.9217 31.2473 37.9138C34.5152 37.9218 37.7796 37.7012 41.0167 37.2537C42.8001 37.0023 44.4586 36.6827 45.9906 36.308C52.0767 34.8174 56.0211 32.4282 56.0211 29.7341C56.0211 26.2355 49.3741 23.2461 40.0278 22.0815C37.1256 22.5489 34.1901 22.7789 31.2505 22.7693C28.3104 22.7789 25.3744 22.5489 22.4717 22.0815C13.1221 23.2526 6.48486 26.2355 6.48486 29.7341C6.48486 32.4282 10.4212 34.8174 16.5056 36.308Z" fill="#8FD8E7"/>
<path d="M20.6608 19.7513C22.197 20.0898 23.7509 20.3427 25.3153 20.5087C27.2855 20.7209 29.2657 20.826 31.2473 20.8234C33.2283 20.826 35.208 20.721 37.1777 20.5087C38.7404 20.3427 40.2927 20.0898 41.8273 19.7513C46.8304 18.6305 50.1182 16.736 50.1182 14.5885C50.1182 11.145 41.6668 8.35352 31.2424 8.35352C20.818 8.35352 12.3699 11.145 12.3699 14.5885C12.3699 16.736 15.6577 18.6305 20.6608 19.7513Z" fill="#8FD8E7"/>
<path d="M97.7333 31.212C99.074 29.59 100.217 27.6728 100.217 24.3299C100.217 18.627 95.7959 14.3027 89.8412 14.3027H83.7763C81.6898 14.3027 80.2501 16.022 80.2501 18.2831V47.4319C80.2501 49.5405 81.6898 51.1625 83.7763 51.1625H91.524C97.8322 51.1625 102.6 46.5415 102.6 40.3471C102.6 36.5208 100.812 33.1779 97.7333 31.212ZM86.0606 20.3966C86.0606 20.1516 86.1594 20.004 86.4091 20.004H89.6369C93.262 20.004 94.6043 22.7079 94.6043 24.7224C94.6043 26.6899 93.3074 29.4911 89.7861 29.5884H86.3589C86.1594 29.5884 86.0606 29.4895 86.0606 29.2429V20.3966ZM91.4251 45.4661H86.4107C86.1611 45.4661 86.0622 45.3688 86.0622 45.1222V35.0951C86.0622 34.9475 86.1611 34.8485 86.3605 34.7999H91.4268C95.2512 34.7999 96.7914 37.8476 96.7914 40.1524C96.7914 42.4573 95.2496 45.4661 91.4251 45.4661Z" fill="#8FD8E7"/>
<path d="M131.557 26.7385C129.422 26.7385 129.125 27.8204 128.726 28.753C126.53 27.1114 123.867 26.2157 121.126 26.1968C114.023 26.1968 108.263 31.8997 108.263 38.8791C108.263 45.9089 114.023 51.5615 121.126 51.5615C123.861 51.56 126.525 50.6811 128.724 49.0539C129.319 50.4796 129.916 51.1187 131.605 51.1187C133.591 51.1187 133.94 48.9566 133.94 47.0394V30.7692C133.941 28.2129 133.102 26.7385 131.557 26.7385ZM121.126 46.1554C117.005 46.1554 113.775 42.9601 113.775 38.8791C113.775 34.7982 117.005 31.6045 121.126 31.6045C125.247 31.6045 128.421 34.7998 128.421 38.8791C128.421 42.9585 125.249 46.1554 121.126 46.1554Z" fill="#8FD8E7"/>
<path d="M145.463 16.564C143.925 16.564 142.683 17.6442 142.683 19.6101V48.3664C142.683 50.2836 143.925 51.3654 145.463 51.3654C146.905 51.3654 148.147 50.2836 148.147 48.3664V19.6101C148.147 17.6442 146.905 16.564 145.463 16.564Z" fill="#8FD8E7"/>
<path d="M178.543 26.7385C176.406 26.7385 176.111 27.8204 175.712 28.753C173.518 27.1134 170.858 26.2177 168.12 26.1968C161.017 26.1968 155.256 31.8997 155.256 38.8791C155.256 45.9089 161.017 51.5615 168.12 51.5615C170.856 51.5601 173.52 50.6812 175.72 49.0539C176.315 50.4796 176.912 51.1187 178.599 51.1187C180.587 51.1187 180.934 48.9566 180.934 47.0394V30.7692C180.928 28.2129 180.083 26.7385 178.543 26.7385ZM168.12 46.1554C163.997 46.1554 160.769 42.9601 160.769 38.8791C160.769 34.7982 163.997 31.6045 168.12 31.6045C172.243 31.6045 175.415 34.7998 175.415 38.8791C175.415 42.9585 172.235 46.1554 168.12 46.1554Z" fill="#8FD8E7"/>
<path d="M199.502 26.1968C197.417 26.1968 195.33 26.7385 193.742 27.9177C193.548 27.4422 193.219 27.0346 192.794 26.746C192.37 26.4574 191.87 26.3007 191.357 26.2957C189.073 26.2957 188.575 28.3605 188.575 30.5729V47.0378C188.724 49.7416 189.073 51.3636 191.407 51.3636C193.492 51.3636 194.089 49.3978 194.089 47.0864V36.7657C194.089 33.1778 196.721 31.6045 199.552 31.6045C202.482 31.6045 205.016 34.1121 205.016 37.0122V48.3662C205.016 50.2834 206.257 51.3652 207.798 51.3652C209.983 51.3652 210.479 49.547 210.479 47.0394V36.6667C210.479 30.4253 205.86 26.1968 199.502 26.1968Z" fill="#8FD8E7"/>
<path d="M239.337 40.9929C238.343 40.9929 236.754 42.5176 236.059 43.3043C234.518 45.0739 232.581 46.1055 230.297 46.1055C226.174 46.1055 222.946 42.9101 222.946 38.8308C222.946 34.8488 226.174 31.6535 230.297 31.6535C233.377 31.6535 235.264 33.2268 236.704 34.8488C237.052 35.0954 238.045 35.7344 238.691 35.7344C240.081 35.7344 241.224 34.7012 241.224 33.3258C241.233 32.685 241.022 32.0604 240.627 31.5562C238.343 28.6058 234.518 26.2036 230.251 26.2036C223.1 26.2036 217.389 31.8579 217.389 38.8373C217.389 45.9157 223.1 51.5683 230.251 51.5683C235.219 51.5683 239.539 48.8109 241.626 44.5938C241.744 44.2788 241.811 43.947 241.825 43.6108C241.82 42.2711 240.827 40.9929 239.337 40.9929Z" fill="#8FD8E7"/>
<path d="M261.538 26.1968C254.385 26.1968 248.673 31.851 248.673 38.8305C248.673 45.9089 254.385 51.5615 261.538 51.5615C264.915 51.5615 271.265 49.547 271.265 46.0565C271.262 45.7474 271.198 45.4419 271.076 45.1578C270.955 44.8738 270.778 44.6167 270.556 44.4017C270.334 44.1866 270.071 44.0178 269.784 43.9051C269.496 43.7924 269.189 43.738 268.88 43.7451C268.434 43.7451 268.035 43.9917 267.638 44.2317C265.95 45.2146 264.311 46.3403 261.529 46.3403C258.152 46.3403 255.369 43.9803 254.526 40.8839C255.072 40.8336 255.618 40.785 256.215 40.785H271.513C272.953 40.7363 274.194 39.4582 274.194 37.9335C274.202 31.5056 267.995 26.1968 261.538 26.1968ZM266.902 36.6181H256.124C255.626 36.6115 255.129 36.5791 254.634 36.5208C255.181 33.718 258.459 31.6548 261.538 31.6548C264.568 31.6548 267.846 33.7634 268.392 36.571C267.896 36.5694 267.448 36.6181 266.902 36.6181Z" fill="#8FD8E7"/>
<path d="M293.375 26.2959C291.091 26.2959 289.202 27.2788 287.365 28.9998C287.017 27.4264 286.272 26.3948 284.732 26.3948C282.746 26.3948 282.051 27.8692 282.051 30.0816V47.5245C282.051 49.9819 282.845 51.3589 284.881 51.3589C287.017 51.3589 287.563 49.1465 287.563 46.7379V36.8648C287.563 33.2267 289.948 31.7036 292.427 31.7036C293.42 31.7036 293.271 31.8009 293.967 31.8009C295.953 31.8009 296.995 30.7191 296.995 28.8522C297.007 27.6227 295.611 26.2959 293.375 26.2959Z" fill="#8FD8E7"/>
</svg>
