<svg width="321" height="73" viewBox="0 0 321 73" fill="none" xmlns="http://www.w3.org/2000/svg">
<path d="M128.698 23.519C126.867 23.5202 125.055 23.8841 123.365 24.5899C121.674 25.2957 120.14 26.3294 118.85 27.6317C117.559 28.934 116.538 30.4792 115.846 32.1783C115.153 33.8775 114.802 35.6973 114.813 37.5329C114.839 45.2195 121.073 51.4772 128.683 51.4633C130.513 51.4639 132.325 51.1031 134.016 50.4014C135.707 49.6998 137.243 48.6711 138.538 47.3741C139.832 46.077 140.859 44.5371 141.56 42.8421C142.261 41.1471 142.622 39.3304 142.623 37.4955C142.623 35.6607 142.263 33.8437 141.564 32.1483C140.864 30.4529 139.838 28.9123 138.544 27.6145C137.25 26.3166 135.714 25.287 134.024 24.5843C132.333 23.8816 130.521 23.5196 128.691 23.519H128.698ZM128.677 47.7591C126.659 47.7512 124.688 47.1435 123.013 46.0128C121.339 44.8821 120.037 43.2792 119.271 41.4066C118.505 39.534 118.31 37.4758 118.71 35.4921C119.111 33.5083 120.089 31.6881 121.52 30.2615C122.952 28.8348 124.774 27.8658 126.755 27.4768C128.736 27.0878 130.788 27.2963 132.65 28.076C134.513 28.8556 136.104 30.1715 137.221 31.8572C138.338 33.5429 138.932 35.5229 138.927 37.5468C138.926 38.8929 138.659 40.2256 138.143 41.4681C137.627 42.7107 136.871 43.8389 135.918 44.7877C134.966 45.7366 133.836 46.4875 132.593 46.9974C131.351 47.5074 130.02 47.7662 128.677 47.7591Z" fill="#8FD8E7"/>
<path d="M203.639 27.2907C207.299 27.3028 212.345 27.3011 216.007 27.2907C216.257 27.2956 216.505 27.2502 216.737 27.1574C216.969 27.0646 217.18 26.9261 217.358 26.7502C217.536 26.5742 217.676 26.3644 217.772 26.133C217.868 25.9016 217.916 25.6534 217.914 25.4029C217.914 24.2991 217.127 23.4648 216.026 23.463C211.583 23.463 205.752 23.463 201.309 23.463C201.039 23.4597 200.772 23.5158 200.526 23.6272C200.281 23.7386 200.062 23.9027 199.887 24.1079C199.504 24.5373 199.4 25.0501 199.401 25.6046C199.401 29.5226 199.401 33.4395 199.401 37.3552V49.0016C199.398 49.1698 199.405 49.3381 199.421 49.5057C199.463 49.9693 199.677 50.4002 200.021 50.7131C200.365 51.026 200.813 51.198 201.277 51.1952C205.743 51.1952 211.25 51.2039 215.716 51.1952C216.006 51.1957 216.292 51.1283 216.551 50.9985C216.81 50.8687 217.036 50.68 217.21 50.4474C217.384 50.2149 217.501 49.9449 217.553 49.6589C217.604 49.3729 217.589 49.0788 217.507 48.7999C217.278 47.9395 216.571 47.4232 215.6 47.4197C211.973 47.4076 207.307 47.4006 203.68 47.3902C203.148 47.3902 203.221 47.4267 203.221 46.9139C203.221 44.456 203.221 41.9981 203.212 39.5402C203.212 39.2325 203.292 39.1491 203.601 39.1508C206.028 39.163 209.669 39.1508 212.096 39.1595C212.44 39.173 212.78 39.0913 213.081 38.9232C213.381 38.7551 213.629 38.5073 213.798 38.207C213.972 37.9148 214.066 37.5813 214.068 37.2409C214.071 36.9006 213.983 36.5657 213.813 36.2709C213.643 35.9761 213.398 35.732 213.103 35.5639C212.808 35.3957 212.473 35.3096 212.134 35.3145C209.707 35.3023 206.066 35.3041 203.639 35.3145C203.314 35.3145 203.207 35.2571 203.21 34.9008C203.23 32.4985 203.23 30.0968 203.21 27.6957C203.205 27.3446 203.318 27.2907 203.639 27.2907Z" fill="#8FD8E7"/>
<path d="M162.45 24.2542C160.743 23.5067 158.945 23.2946 157.1 23.458C154.231 23.7118 151.899 24.9547 150.231 27.3291C148.844 29.3038 148.31 31.5479 148.305 33.9345C148.3 36.3212 148.305 38.7147 148.305 41.1049C148.305 43.798 148.305 46.4906 148.305 49.1826C148.303 49.362 148.312 49.5414 148.333 49.7197C148.393 50.1337 148.589 50.5158 148.889 50.806C149.19 51.0961 149.579 51.2778 149.993 51.3224C150.408 51.3731 150.827 51.2875 151.189 51.0784C151.55 50.8692 151.834 50.5479 151.998 50.1629C152.099 49.8653 152.142 49.5505 152.122 49.2364V34.2596C152.095 33.1129 152.281 31.9712 152.67 30.8926C153.771 28.014 156.576 26.7851 159.496 27.3448C162.039 27.8315 163.504 29.5002 164.196 31.9286C164.411 32.7544 164.509 33.6063 164.487 34.4595C164.487 39.3961 164.487 44.3334 164.487 49.2712C164.487 49.8031 164.585 50.295 164.957 50.7018C165.223 50.9935 165.571 51.1977 165.955 51.2877C166.339 51.3776 166.741 51.3491 167.109 51.2059C167.863 50.9243 168.307 50.269 168.307 49.4016C168.307 44.3085 168.307 39.2142 168.307 34.1188C168.319 32.9264 168.156 31.7388 167.825 30.5936C166.958 27.7011 165.273 25.4883 162.45 24.2542Z" fill="#8FD8E7"/>
<path d="M242.062 30.5937C241.195 27.6943 239.513 25.4815 236.687 24.2473C234.977 23.4999 233.18 23.2878 231.335 23.4512C228.467 23.705 226.134 24.9478 224.466 27.3223C223.079 29.297 222.547 31.5428 222.54 33.9277C222.533 36.3126 222.54 38.7079 222.54 41.098C222.54 43.7912 222.54 46.4843 222.54 49.1775C222.537 49.3564 222.547 49.5353 222.569 49.7128C222.629 50.1272 222.824 50.5099 223.125 50.8002C223.426 51.0905 223.815 51.2718 224.23 51.3155C224.644 51.3665 225.064 51.2809 225.425 51.0717C225.786 50.8626 226.07 50.5412 226.233 50.1561C226.334 49.8585 226.377 49.5437 226.357 49.2296V34.2597C226.331 33.1131 226.517 31.9715 226.905 30.8927C228.006 28.0141 230.813 26.7852 233.731 27.3449C236.274 27.8316 237.741 29.5003 238.431 31.9287C238.646 32.7545 238.744 33.6065 238.722 34.4596C238.722 39.3963 238.722 44.3335 238.722 49.2713C238.722 49.7928 238.814 50.2726 239.17 50.6776C239.435 50.9768 239.786 51.1872 240.175 51.2805C240.564 51.3737 240.972 51.3453 241.344 51.1991C241.705 51.0699 242.017 50.8286 242.232 50.51C242.447 50.1915 242.556 49.8124 242.542 49.4278C242.542 44.2675 242.542 39.106 242.542 33.9433C242.545 32.8093 242.383 31.681 242.062 30.5937Z" fill="#8FD8E7"/>
<path d="M101.879 27.2734C104.086 27.5999 106.134 28.6192 107.727 30.185C107.901 30.3567 108.108 30.4918 108.335 30.5823C108.561 30.6729 108.804 30.7171 109.048 30.7124C109.292 30.7077 109.533 30.6542 109.756 30.555C109.98 30.4558 110.181 30.3128 110.348 30.1346C111.085 29.3784 111.08 28.3164 110.295 27.555C106.604 23.9777 102.217 22.6549 97.2189 23.783C89.6494 25.4934 84.9493 33.4512 86.924 40.9813C88.6681 47.6302 94.5021 51.4683 99.9807 51.463C102.167 51.4474 103.93 51.138 105.626 50.467C107.387 49.7636 108.982 48.6977 110.307 47.3382C110.567 47.071 110.739 46.7306 110.801 46.3626C110.863 45.9945 110.812 45.6162 110.654 45.2783C110.503 44.9429 110.251 44.6633 109.933 44.479C109.616 44.2947 109.249 44.2149 108.883 44.251C108.325 44.2806 107.897 44.55 107.496 44.9255C104.717 47.5554 101.409 48.3237 97.7823 47.3677C92.3627 45.9528 89.1848 40.472 90.4833 35.0104C91.0871 32.5332 92.5878 30.3695 94.6938 28.9396C96.7998 27.5097 99.3608 26.9159 101.879 27.2734Z" fill="#8FD8E7"/>
<path d="M296.516 23.8038C295.696 23.1885 294.64 23.3814 293.95 24.2749C291.072 28.0017 288.197 31.7291 285.325 35.4571C285.152 35.6727 285.086 35.69 284.911 35.4571C283.153 33.1765 281.388 30.9006 279.616 28.6292C278.468 27.15 277.326 25.6742 276.169 24.1967C276.018 23.9899 275.825 23.8178 275.602 23.692C275.379 23.5662 275.132 23.4896 274.877 23.4672C274.623 23.4448 274.366 23.4772 274.125 23.5623C273.884 23.6473 273.663 23.783 273.479 23.9603C272.704 24.6799 272.626 25.7315 273.305 26.5937C276.541 30.7656 279.786 34.9293 283.04 39.0849C283.198 39.2713 283.283 39.5094 283.278 39.7541C283.267 41.3359 283.278 42.9177 283.278 44.4996C283.278 46.1161 283.278 47.7327 283.278 49.3476C283.269 49.7604 283.402 50.1636 283.655 50.4898C283.907 50.816 284.264 51.0454 284.665 51.1397C285.062 51.2485 285.483 51.2222 285.864 51.065C286.245 50.9077 286.562 50.6283 286.768 50.2706C286.941 49.9168 287.017 49.5234 286.989 49.1303C286.989 46.0014 286.989 42.8725 286.989 39.7437C286.982 39.5101 287.061 39.282 287.21 39.1023C288.481 37.4648 289.752 35.8245 291.024 34.1812C292.99 31.6364 294.963 29.0951 296.919 26.5329C297.607 25.6081 297.43 24.487 296.516 23.8038Z" fill="#8FD8E7"/>
<path d="M257.695 34.0542C254.855 33.4771 252.875 31.8779 252.875 30.8036C252.875 29.6008 254.113 27.3271 258.797 27.3271C263.374 27.3271 264.31 30.7723 264.402 31.1652V31.1495L267.793 30.4247C267.31 28.151 264.808 23.8506 258.801 23.8506C252.349 23.8506 249.411 27.454 249.411 30.8036C249.411 33.8143 252.531 36.5521 257.01 37.4612C261.998 38.4728 264.527 40.258 264.527 42.7646C264.527 45.9213 260.898 47.8594 258.296 47.8594C255.593 47.8594 252.422 46.2498 251.848 42.7142C251.814 42.4874 251.734 42.2697 251.615 42.0737C251.496 41.8778 251.339 41.7075 251.154 41.5725C250.969 41.4376 250.759 41.3408 250.536 41.2877C250.313 41.2346 250.083 41.2262 249.857 41.263C249.631 41.2999 249.414 41.3812 249.22 41.5023C249.025 41.6235 248.857 41.782 248.724 41.9688C248.591 42.1556 248.496 42.3669 248.445 42.5906C248.394 42.8143 248.387 43.046 248.426 43.2722C249.284 48.5669 254.042 51.336 258.296 51.336C260.422 51.336 262.766 50.5398 264.565 49.2049C266.776 47.5639 267.995 45.2764 267.995 42.7733C267.991 39.7435 266.205 35.7803 257.695 34.0542Z" fill="#8FD8E7"/>
<path d="M310.704 34.0547C307.864 33.4776 305.884 31.8784 305.884 30.8041C305.884 29.6012 307.122 27.3276 311.806 27.3276C316.383 27.3276 317.319 30.7728 317.411 31.1657V31.15L320.803 30.4252C320.319 28.1515 317.817 23.8511 311.81 23.8511C305.358 23.8511 302.42 27.4545 302.42 30.8041C302.42 33.8148 305.541 36.5525 310.019 37.4617C315.007 38.4733 317.536 40.2585 317.536 42.7651C317.536 45.9218 313.907 47.8599 311.305 47.8599C308.602 47.8599 305.431 46.2503 304.857 42.7147C304.823 42.4878 304.743 42.2702 304.624 42.0742C304.505 41.8783 304.348 41.708 304.163 41.573C303.978 41.4381 303.768 41.3413 303.545 41.2882C303.323 41.2351 303.092 41.2267 302.866 41.2635C302.64 41.3003 302.423 41.3817 302.229 41.5028C302.034 41.6239 301.866 41.7825 301.733 41.9693C301.6 42.156 301.505 42.3674 301.454 42.5911C301.403 42.8148 301.396 43.0464 301.435 43.2727C302.293 48.5674 307.051 51.3364 311.305 51.3364C313.431 51.3364 315.775 50.5403 317.574 49.2053C319.785 47.5644 321.004 45.2769 321.004 42.7738C321 39.744 319.214 35.7808 310.704 34.0547Z" fill="#8FD8E7"/>
<path d="M183.351 34.0542C180.511 33.4771 178.532 31.8779 178.532 30.8036C178.532 29.6008 179.77 27.3271 184.453 27.3271C189.03 27.3271 189.968 30.7723 190.06 31.1652V31.1495L193.451 30.4247C192.967 28.151 190.466 23.8506 184.457 23.8506C178.005 23.8506 175.068 27.454 175.068 30.8036C175.068 33.8143 178.189 36.5521 182.666 37.4612C187.655 38.4728 190.183 40.258 190.183 42.7646C190.183 45.9213 186.554 47.8594 183.954 47.8594C181.249 47.8594 178.078 46.2498 177.504 42.7142C177.47 42.4874 177.39 42.2697 177.271 42.0737C177.152 41.8778 176.995 41.7075 176.81 41.5725C176.625 41.4376 176.415 41.3408 176.192 41.2877C175.969 41.2346 175.739 41.2262 175.513 41.263C175.287 41.2999 175.07 41.3812 174.876 41.5023C174.681 41.6235 174.513 41.782 174.38 41.9688C174.247 42.1556 174.152 42.3669 174.101 42.5906C174.05 42.8143 174.043 43.046 174.082 43.2722C174.949 48.5669 179.699 51.336 183.954 51.336C186.079 51.336 188.422 50.5398 190.223 49.2049C192.433 47.5639 193.651 45.2764 193.651 42.7733C193.647 39.7435 191.861 35.7803 183.351 34.0542Z" fill="#8FD8E7"/>
<path d="M47.2631 59.4835C47.2314 59.256 47.1517 59.038 47.0291 58.844C46.9065 58.65 46.7439 58.4846 46.5522 58.3588C46.1517 58.0668 45.6992 58.0737 45.2155 58.1293C45.5833 57.8045 45.8711 57.3988 46.0564 56.9439C46.1275 56.77 46.2298 56.843 46.3251 56.9126C47.6219 57.8026 49.3453 56.8708 49.4458 55.4611C49.4632 55.2334 49.5308 55.1934 49.7579 55.3012C50.0963 55.4763 50.4783 55.549 50.8572 55.5104C51.2361 55.4719 51.5957 55.3237 51.8921 55.0839C52.5683 54.5798 52.6775 53.8671 52.6081 53.031C53.4629 53.4065 54.2708 53.4152 54.9331 52.7251C55.5954 52.035 55.5971 51.2441 55.2035 50.4167C55.3665 50.3854 55.4411 50.474 55.5329 50.5158C55.8551 50.6587 56.2116 50.7051 56.5594 50.6496C56.9073 50.5941 57.2318 50.439 57.4938 50.2029C57.7401 49.9586 57.9095 49.6472 57.981 49.3073C58.0525 48.9674 58.023 48.614 57.896 48.2908C57.5285 47.3313 56.405 46.9402 55.4497 47.4338C55.344 47.4877 55.2191 47.6702 55.1238 47.5486C55.0282 47.3968 54.9844 47.2181 54.999 47.0392C54.999 46.8446 55.2053 46.9419 55.3162 46.9106C55.8279 46.7963 56.29 46.5218 56.6356 46.1267C56.7032 46.045 56.7466 45.8746 56.8905 45.932C56.9893 45.972 56.9511 46.1162 56.9598 46.2188C56.9911 46.5795 57.14 46.9198 57.3834 47.1872C57.6269 47.4546 57.9515 47.6341 58.3069 47.698C59.0888 47.7971 59.8898 47.3278 60.1221 46.6342C60.2399 46.2776 60.2356 45.8918 60.11 45.5379C59.9844 45.1841 59.7446 44.8823 59.4286 44.6804C59.1104 44.4804 58.7319 44.3997 58.3601 44.4525C57.9882 44.5053 57.647 44.6882 57.3967 44.969C57.3291 45.0402 57.2909 45.1567 57.1176 45.1532C57.1325 44.6906 57.0468 44.2303 56.8662 43.8043C56.776 43.5992 56.9875 43.6131 57.0985 43.594C58.5184 43.3576 59.198 41.6298 58.3121 40.4026C58.0954 40.0984 58.1474 40.0254 58.4647 39.9141C58.8956 39.7697 59.2573 39.4693 59.4789 39.0715C59.7005 38.6738 59.766 38.2075 59.6627 37.7639C59.5468 37.2253 59.2431 36.7458 58.8062 36.4115C58.8731 36.325 58.9672 36.2638 59.0732 36.2377C59.8742 35.9057 60.24 35.2921 60.2053 34.336C60.1828 33.7137 59.6315 33.0289 58.9709 32.8046C58.8756 32.7733 58.7282 32.7907 58.7299 32.6569C58.7317 32.523 58.8929 32.5595 58.9813 32.5317C59.3706 32.4168 59.7049 32.1639 59.9218 31.82C60.1388 31.4762 60.2235 31.065 60.1603 30.6631C60.1137 30.2549 59.9235 29.8767 59.6238 29.5964C59.3242 29.316 58.9348 29.152 58.5254 29.1335C58.116 29.1151 57.7134 29.2436 57.39 29.4959C57.0665 29.7481 56.8433 30.1077 56.7604 30.5101C56.6856 30.9044 56.7492 31.3126 56.9404 31.6652C57.1315 32.0179 57.4386 32.2933 57.8093 32.4448C57.8925 32.4796 57.9931 32.4761 58.0312 32.6291C57.2476 32.8429 56.6876 33.3244 56.5385 34.1448C56.3894 34.9653 56.7205 35.6345 57.4574 36.1038C57.1991 36.222 56.9893 36.2951 56.802 36.4063C55.8346 36.9782 55.6092 38.1272 56.2663 39.1719C56.3981 39.3805 56.4258 39.4969 56.1484 39.5439C55.1238 39.7177 54.3089 41.1448 54.836 42.2851C54.9209 42.4711 54.9833 42.5667 54.6817 42.6501C53.3779 42.9978 52.8318 43.8495 52.9792 45.228C53.0052 45.4731 52.8821 45.44 52.7382 45.4557C52.2005 45.4998 51.6965 45.7357 51.3176 46.1207C50.9387 46.5057 50.7101 47.0142 50.6733 47.5538C50.6594 47.8093 50.5831 47.8423 50.356 47.8545C49.2135 47.9205 48.3657 48.5498 48.1143 49.5423C48.038 49.8396 47.9288 49.9074 47.6375 49.8691C46.6181 49.7318 45.8223 50.1229 45.2745 50.9834C45.1271 51.2163 45.0404 51.2024 44.8289 51.079C43.7696 50.4601 42.575 50.7504 41.9388 51.7916C41.8035 52.0089 41.729 51.9759 41.5625 51.8455C40.5327 51.0355 39.3087 51.1676 38.4852 52.1932C38.3343 52.3809 38.2581 52.4105 38.0639 52.2471C37.1398 51.4683 36.1741 51.4318 35.2102 52.1306C35.0559 52.2436 34.9796 52.2853 34.8513 52.0802C34.2115 51.0651 33.0465 50.7348 32.0028 51.2806C31.7271 51.4249 31.656 51.3519 31.578 51.0911C31.4578 50.685 31.1907 50.3385 30.829 50.1194C30.5289 49.9329 30.192 49.8138 29.8415 49.7703C29.491 49.7267 29.1353 49.7599 28.7988 49.8674C28.57 49.9317 28.4781 49.9143 28.4191 49.6658C28.1261 48.449 27.502 47.9397 26.245 47.9101C26.0405 47.9101 25.9937 47.8475 26.0301 47.6598C26.2294 46.6168 25.4007 45.3896 24.194 45.2523C23.9704 45.2262 23.8924 45.1515 23.9756 44.9238C24.3796 43.8217 23.6861 42.8014 22.814 42.3998C22.5401 42.2747 22.5106 42.1947 22.651 41.9288C22.8959 41.4963 22.975 40.9891 22.8735 40.5024C22.772 40.0156 22.4969 39.5827 22.0997 39.2849C21.8483 39.0884 21.9263 38.9911 22.0997 38.8086C22.4833 38.4165 22.7034 37.8926 22.715 37.3435C22.7266 36.7944 22.5289 36.2615 22.1621 35.8535C22.0304 35.7058 22.0009 35.6258 22.176 35.485C23.1815 34.668 23.3896 33.8528 22.9059 32.6534C22.8331 32.4796 22.8868 32.4048 23.0394 32.3318C24.168 31.786 24.5616 31.0837 24.409 29.8583C24.3778 29.608 24.4368 29.4932 24.6986 29.4759C25.7856 29.4028 26.7998 28.4746 26.6837 27.2856C26.6681 27.1118 26.7374 27.0492 26.9385 27.0614C28.1938 27.1414 28.9271 26.6268 29.3328 25.3927C29.3952 25.1997 29.4386 25.118 29.6796 25.1963C30.8082 25.563 31.7254 25.2084 32.3356 24.1724C32.4657 23.9551 32.5437 23.9569 32.7483 24.089C33.7365 24.7269 34.7975 24.5774 35.5968 23.6892C35.758 23.5154 35.8412 23.5154 35.9851 23.6892C36.7428 24.5705 37.9304 24.5044 38.7591 23.9673C38.9897 23.8178 39.0764 23.8196 39.2289 24.0646C39.8479 25.0676 40.8621 25.3857 41.9284 24.9199C42.1728 24.8138 42.2404 24.8364 42.3306 25.0937C42.4714 25.5403 42.7622 25.9242 43.1535 26.18C43.5449 26.4357 44.0126 26.5476 44.4769 26.4965C44.9034 26.4391 45.0595 26.6095 45.1046 26.9745C45.1535 27.3671 45.3374 27.7304 45.6247 28.0018C45.9858 28.3609 46.3267 28.7398 46.6458 29.1369C48.2495 31.1133 49.2118 33.3087 48.8546 35.9161C48.8113 36.2412 48.8217 36.6236 49.1771 36.7696C49.5325 36.9156 49.7683 36.6497 49.9798 36.4133C51.549 34.7015 52.6126 32.5861 53.052 30.3033C53.3762 28.5876 53.5062 26.8615 53.0832 25.1372C53.0363 24.9735 53.0187 24.8029 53.0312 24.6331C53.1015 24.0675 53.0365 23.4932 52.8414 22.9579C52.6463 22.4226 52.3269 21.9415 51.9094 21.5546C51.8267 21.4839 51.7642 21.3924 51.7285 21.2894C51.6929 21.1864 51.6853 21.0757 51.7066 20.9688C51.7896 20.3355 51.6787 19.6918 51.3886 19.1231C51.0985 18.5544 50.6429 18.0875 50.0821 17.7843C49.9421 17.7215 49.8218 17.6217 49.7342 17.4955C49.6465 17.3693 49.5948 17.2216 49.5845 17.0681C49.3938 15.8809 48.6882 15.0778 47.5942 14.652C47.1694 14.4781 46.9302 14.3043 46.7533 13.8472C46.3078 12.686 45.3941 12.0689 44.1406 11.982C43.9863 11.9716 43.8285 12.0185 43.7262 11.796C43.0934 10.4315 42.0047 9.86132 40.5258 10.0195C40.464 10.0342 40.399 10.026 40.3429 9.99622C40.2867 9.96648 40.2433 9.9173 40.2206 9.85784C40.0416 9.50684 39.7812 9.20403 39.4613 8.9748C38.6707 8.42204 37.8125 8.38032 36.9179 8.64453C36.844 8.67848 36.7604 8.68433 36.6825 8.66098C36.6047 8.63763 36.538 8.58668 36.4949 8.51764C35.628 7.39646 34.3225 7.12703 33.0846 7.82234C33.051 7.85089 33.0117 7.87202 32.9693 7.88433C32.927 7.89664 32.8825 7.89987 32.8388 7.8938C32.7952 7.88774 32.7533 7.87251 32.7158 7.84911C32.6784 7.82572 32.6464 7.79468 32.6217 7.75802C31.5936 6.65596 30.1407 6.71506 29.2236 7.66068C29.0797 7.80843 28.9895 7.78931 28.8352 7.66068C27.6216 6.70637 26.2346 6.94452 25.399 8.25169C25.262 8.46376 25.1788 8.47071 24.9898 8.30384C24.7365 8.07725 24.4297 7.91916 24.0985 7.84449C23.7673 7.76981 23.4225 7.78102 23.0968 7.87706C22.7711 7.97309 22.4752 8.15078 22.237 8.39335C21.9989 8.63591 21.8263 8.93534 21.7356 9.26336C21.6663 9.50671 21.6385 9.58146 21.4045 9.37113C20.8323 8.84965 20.1909 8.64975 19.428 8.98523C18.6652 9.32072 18.1884 10.1012 18.2855 10.8591C18.4017 11.7543 18.979 12.3522 19.8459 12.4635C20.7387 12.5765 21.4912 12.1506 21.805 11.3145C21.9194 11.0086 21.9783 10.9877 22.2228 11.2224C22.4186 11.4198 22.654 11.5733 22.9135 11.6726C23.173 11.7719 23.4505 11.8147 23.7278 11.7983C24.005 11.7819 24.2756 11.7065 24.5216 11.5772C24.7675 11.448 24.9833 11.2678 25.1545 11.0485C25.3782 10.7617 25.5013 10.7722 25.7475 10.9999C26.1271 11.3573 26.6245 11.5626 27.1451 11.5767C27.6657 11.5908 28.1734 11.4127 28.5717 11.0764C28.8092 10.8712 28.9063 10.9286 29.0918 11.1268C29.2971 11.3562 29.548 11.54 29.8284 11.6663C30.1087 11.7927 30.4124 11.8588 30.7198 11.8603C31.1368 11.8577 31.5471 11.7546 31.9161 11.5596C32.0201 11.5075 32.1259 11.4292 32.2264 11.5596C32.2888 11.6413 32.3877 11.7334 32.3842 11.8169C32.3842 11.975 32.2108 11.9333 32.1051 11.9559C31.7704 12.0188 31.4572 12.166 31.1948 12.3835C30.9729 12.5765 30.8273 12.5574 30.5898 12.4044C29.5305 11.7091 28.1626 11.8238 27.3425 12.7225C27.0963 12.9919 26.942 12.9624 26.6646 12.8181C25.4909 12.2045 24.2374 12.5261 23.5092 13.6212C23.3463 13.8697 23.2353 13.9097 22.9631 13.7741C22.69 13.6337 22.3908 13.5517 22.0845 13.5333C21.7781 13.5149 21.4713 13.5605 21.1835 13.6672C20.8956 13.7739 20.633 13.9394 20.4123 14.1532C20.1916 14.367 20.0176 14.6245 19.9013 14.9092C19.7886 15.203 19.702 15.2464 19.4107 15.123C18.237 14.6224 16.7772 15.4012 16.5812 16.6544C16.5154 17.0751 16.3853 17.0542 16.0611 16.9447C15.7603 16.842 15.4391 16.8144 15.1252 16.8644C14.8114 16.9144 14.5145 17.0405 14.2603 17.2316C14.006 17.4228 13.8022 17.6733 13.6665 17.9613C13.5307 18.2494 13.4672 18.5663 13.4813 18.8846C13.4987 19.3244 13.4987 19.3244 13.086 19.1853C11.8638 18.7734 10.5981 19.8598 10.749 21.1548C10.8131 21.6884 11.12 22.05 11.4009 22.4463C11.4737 22.415 11.517 22.4707 11.5742 22.502C12.2209 22.8844 12.8971 22.9365 13.542 22.5471C14.187 22.1578 14.5268 21.5529 14.4089 20.7602C14.3725 20.5151 14.4817 20.536 14.6551 20.6003C16.042 21.1096 17.0684 20.5586 17.4602 19.0984C17.4932 18.9768 17.5348 18.8812 17.6648 18.9576C17.9908 19.1506 18.3583 19.1749 18.7796 19.2653C18.4537 19.6477 18.1745 20.0093 18.1173 20.4578C18.067 20.8489 17.8781 20.8906 17.5417 20.8697C16.29 20.795 15.137 21.9127 15.1891 23.1677C15.1995 23.4319 15.1249 23.4667 14.8874 23.4615C13.5437 23.4302 12.4394 24.7947 12.7705 26.0932C12.8416 26.3713 12.7705 26.4078 12.5364 26.4287C11.1096 26.5521 10.2375 27.9149 10.7767 29.236C10.9327 29.6201 10.8218 29.641 10.4993 29.6931C10.1805 29.7456 9.87989 29.8774 9.62502 30.0765C9.37016 30.2756 9.16919 30.5356 9.0405 30.8327C8.91182 31.1299 8.85953 31.4546 8.88844 31.7772C8.91734 32.0999 9.02651 32.4101 9.20595 32.6795C9.46428 33.0671 9.46428 33.0671 9.03258 33.1523C8.58052 33.249 8.18088 33.5118 7.91223 33.8889C7.64357 34.266 7.52533 34.7303 7.58074 35.1904C7.63615 35.6505 7.8612 36.0732 8.21166 36.3754C8.56212 36.6776 9.01265 36.8374 9.47468 36.8235C9.92867 36.8152 10.3635 36.6384 10.6949 36.3272C11.0264 36.0161 11.231 35.5928 11.2691 35.1391C11.3124 34.6367 11.1217 34.2213 10.8721 33.8163C10.7923 33.6877 10.7386 33.5469 10.964 33.5642C11.4477 33.6007 11.8152 33.3678 12.1654 33.0897C12.3093 32.975 12.37 33.0132 12.3908 33.1766C12.4298 33.5413 12.5375 33.8952 12.7081 34.2196C12.7809 34.3534 12.7272 34.4403 12.5937 34.4942C11.3142 35.0157 10.9588 36.8635 11.9192 37.9586C12.0441 38.1011 12.0631 38.1863 11.8724 38.3184C10.5808 39.2205 10.534 40.7102 11.7545 41.7549C11.8915 41.8731 11.9556 41.9444 11.7545 42.0661C10.5808 42.7857 10.5531 44.7986 12.1013 45.4818C12.4168 45.6208 12.3249 45.6869 12.129 45.8468C11.8949 46.0318 11.7088 46.2707 11.5864 46.5432C11.4641 46.8157 11.409 47.1138 11.4261 47.4122C11.4431 47.7105 11.5316 48.0004 11.6842 48.2571C11.8367 48.5139 12.0488 48.73 12.3024 48.887C12.6312 49.0739 12.9997 49.1794 13.3773 49.1947C12.3752 50.2064 12.1828 50.9329 12.6838 51.7395C13.06 52.3427 13.9581 52.7025 14.5909 52.5061C15.378 52.2627 15.9363 51.4927 15.8756 50.7452C15.8683 50.5131 15.8137 50.285 15.7153 50.0748C15.6169 49.8646 15.4768 49.6767 15.3034 49.5228C15.13 49.3688 14.9271 49.252 14.7071 49.1794C14.4871 49.1069 14.2547 49.0801 14.024 49.1008C14.0621 49.0278 14.0708 48.9791 14.0985 48.9635C14.7105 48.6158 15.085 48.1222 15.1388 47.3991C15.1509 47.2252 15.2341 47.2391 15.3416 47.3191C15.5283 47.4841 15.7441 47.6126 15.9779 47.698C16.238 47.771 16.2189 47.8719 16.0958 48.0839C15.9457 48.3221 15.8472 48.5892 15.8067 48.868C15.7661 49.1468 15.7844 49.431 15.8604 49.7022C15.9364 49.9734 16.0684 50.2256 16.2479 50.4424C16.4273 50.6592 16.6501 50.8358 16.902 50.9608C17.1932 51.1207 17.5175 51.1433 17.8538 51.2059C17.8404 51.26 17.8225 51.313 17.8001 51.364C17.6082 51.6824 17.51 52.0486 17.5167 52.4205C17.5235 52.7924 17.635 53.1548 17.8384 53.4659C18.0417 53.777 18.3287 54.0241 18.6661 54.1788C19.0035 54.3334 19.3776 54.3893 19.7453 54.3399C20.1128 54.2965 19.9187 54.5033 19.8667 54.6424C19.7404 54.9473 19.6995 55.281 19.7484 55.6076C19.7973 55.9341 19.9341 56.241 20.1441 56.4954C20.3392 56.7604 20.607 56.9628 20.9148 57.0779C21.2226 57.193 21.5572 57.2159 21.8778 57.1437C22.1188 57.0968 22.3563 57.0255 22.6181 56.9595C22.1968 58.1137 22.3528 58.9637 23.0481 59.433C23.3705 59.6611 23.7599 59.7742 24.1539 59.7544C24.548 59.7345 24.9241 59.5828 25.2221 59.3235C25.9156 58.6995 25.9694 57.9329 25.4129 56.8743C25.4735 56.7822 25.5776 56.8187 25.659 56.7909C25.9677 56.6848 26.122 56.7422 26.1532 57.1229C26.201 57.5178 26.3799 57.8852 26.6611 58.1658C26.7964 58.3119 27.0946 58.4231 27.0408 58.6022C26.9871 58.7812 26.6715 58.7117 26.4756 58.7673C26.2661 58.8202 26.0698 58.9162 25.8992 59.0492C25.7286 59.1821 25.5874 59.3492 25.4845 59.5397C25.3817 59.7303 25.3194 59.9402 25.3017 60.1561C25.284 60.372 25.3112 60.5893 25.3816 60.7941C25.6816 61.7606 26.5953 62.1291 27.2974 61.8962C28.3377 61.5485 28.7936 60.629 28.4486 59.7251C28.3169 59.3774 28.0308 59.1758 27.7846 58.8785C28.2718 58.8194 28.7139 58.8125 29.1196 58.6161C29.2929 58.5361 29.3571 58.6352 29.3866 58.7899C29.4457 59.127 29.5888 59.4438 29.8026 59.7107C30.0164 59.9775 30.294 60.1859 30.6097 60.3165C30.9253 60.4471 31.2687 60.4956 31.608 60.4575C31.9473 60.4195 32.2716 60.2961 32.5506 60.0988C32.9355 59.8346 32.932 59.8363 33.0863 60.2587C33.1829 60.5166 33.3392 60.7477 33.5423 60.9332C34.3832 61.7154 35.5829 61.6285 36.3943 60.742C36.4949 60.6307 36.5989 60.3456 36.741 60.742C37.0306 61.5763 37.6322 61.9761 38.5303 61.9587C38.9044 61.9438 39.2647 61.8129 39.5616 61.5841C39.8584 61.3553 40.0772 61.0398 40.1877 60.6811C40.2154 60.5959 40.2154 60.5073 40.3212 60.4656C40.7581 61.592 41.3285 62.0005 42.3011 61.8857C42.6818 61.8557 43.0406 61.6952 43.3172 61.4312C43.5938 61.1672 43.7713 60.8158 43.8199 60.436C43.9568 59.4661 43.5373 58.9394 42.1399 58.3623C42.1962 58.3104 42.2462 58.252 42.289 58.1884C42.4502 57.8408 42.6184 57.8147 42.9235 58.0702C43.1073 58.2186 43.3196 58.3275 43.5472 58.39C43.7748 58.4525 44.0128 58.4673 44.2464 58.4335C44.3382 58.4231 44.4544 58.3605 44.529 58.4822C43.936 59.2836 43.884 60.0953 44.3868 60.742C44.5965 61.0218 44.8938 61.223 45.231 61.3134C45.5683 61.4039 45.926 61.3783 46.2471 61.2408C46.5898 61.1064 46.8768 60.8593 47.0614 60.5401C47.2459 60.2209 47.317 59.8484 47.2631 59.4835Z" fill="#8FD8E7"/>
<path d="M6.71806 38.8156C6.80891 39.2614 7.06784 39.6548 7.4409 39.9139C7.81396 40.1729 8.27234 40.2777 8.72052 40.2062C9.57351 40.0654 10.1873 39.1441 10.0347 38.235C9.87691 37.2859 9.03606 36.7053 8.05303 36.8687C7.07001 37.0321 6.54295 37.8352 6.71806 38.8156Z" fill="#8FD8E7"/>
<path d="M9.51454 21.9475C9.10888 22.0813 8.76847 22.3636 8.5612 22.738C8.35393 23.1124 8.29504 23.5513 8.39629 23.9673C8.52168 24.4057 8.81387 24.7771 9.20986 25.0014C9.60586 25.2258 10.0739 25.2852 10.5132 25.1667C11.3142 24.9668 11.8187 24.0786 11.6574 23.199C11.6072 22.933 11.4216 22.721 11.4026 22.4498C11.2621 22.3594 11.1165 22.276 10.983 22.1786C10.7802 22.0139 10.5376 21.9058 10.2798 21.8652C10.0219 21.8246 9.75794 21.853 9.51454 21.9475Z" fill="#8FD8E7"/>
<path d="M57.7888 25.7125C56.7642 25.8863 56.2285 26.6216 56.4018 27.6246C56.5613 28.5528 57.3294 29.0621 58.3089 28.89C58.7275 28.805 59.0961 28.5587 59.3354 28.204C59.5747 27.8494 59.6655 27.4147 59.5884 26.9936C59.5557 26.7902 59.483 26.5955 59.3745 26.4206C59.2659 26.2458 59.1238 26.0943 58.9563 25.9751C58.7888 25.8558 58.5993 25.7712 58.3989 25.7261C58.1984 25.681 57.9911 25.6764 57.7888 25.7125Z" fill="#8FD8E7"/>
<path d="M17.0875 13.6422C17.9024 13.524 18.4936 12.5871 18.3532 11.751C18.3245 11.54 18.2529 11.3372 18.1428 11.1552C18.0328 10.9731 17.8865 10.8156 17.7132 10.6926C17.5399 10.5695 17.3433 10.4835 17.1354 10.4398C16.9276 10.3961 16.713 10.3957 16.505 10.4386C15.5896 10.6125 14.9447 11.4816 15.1458 12.3507C15.366 13.2981 16.1063 13.7848 17.0875 13.6422Z" fill="#8FD8E7"/>
<path d="M17.02 54.095C16.9894 53.8784 16.9156 53.6703 16.803 53.4829C16.6904 53.2955 16.5413 53.1328 16.3646 53.0045C16.1879 52.8762 15.9872 52.7849 15.7745 52.736C15.5619 52.6871 15.3416 52.6817 15.1268 52.7201C14.9219 52.7577 14.7265 52.8355 14.5516 52.9489C14.3768 53.0624 14.2259 53.2092 14.1077 53.3812C13.9896 53.5531 13.9063 53.7467 13.8628 53.9509C13.8193 54.1552 13.8164 54.366 13.8542 54.5713C14.0172 55.5326 14.7454 56.0784 15.6521 55.9202C16.6438 55.7481 17.1813 55.0372 17.02 54.095Z" fill="#8FD8E7"/>
<path d="M8.16062 43.6114C8.35745 43.5869 8.54723 43.5224 8.71842 43.422C8.88961 43.3216 9.03862 43.1872 9.15638 43.0272C9.27413 42.8672 9.35817 42.6848 9.40337 42.4912C9.44858 42.2976 9.454 42.0967 9.41931 41.901C9.27887 41.0023 8.52644 40.406 7.69425 40.5364C6.71989 40.6876 6.16683 41.376 6.30726 42.2625C6.33277 42.4766 6.40214 42.6831 6.51102 42.869C6.6199 43.055 6.76594 43.2163 6.93997 43.343C7.114 43.4696 7.31227 43.5589 7.52232 43.6051C7.73238 43.6512 7.94969 43.6534 8.16062 43.6114Z" fill="#8FD8E7"/>
<path d="M6.24143 26.6356C6.2679 26.8439 6.33729 27.0444 6.44518 27.2243C6.55307 27.4042 6.6971 27.5597 6.86813 27.6808C7.03916 27.8019 7.23345 27.8861 7.43865 27.9279C7.64385 27.9697 7.85549 27.9683 8.06011 27.9237C8.25599 27.892 8.4437 27.8219 8.61247 27.7173C8.78124 27.6127 8.92774 27.4757 9.04357 27.3142C9.15939 27.1527 9.24226 26.9698 9.28741 26.7761C9.33255 26.5824 9.3391 26.3817 9.30666 26.1854C9.14542 25.2781 8.39818 24.7183 7.54346 24.8678C6.65232 25.0156 6.08886 25.7839 6.24143 26.6356Z" fill="#8FD8E7"/>
<path d="M60.1067 41.5673C59.226 41.7202 58.7891 42.3599 58.9434 43.2673C59.0977 44.1747 59.8102 44.6944 60.6771 44.5449C60.8739 44.5171 61.0632 44.4504 61.2342 44.3489C61.4052 44.2473 61.5544 44.1128 61.6733 43.9532C61.7923 43.7936 61.8785 43.6119 61.9271 43.4187C61.9758 43.2255 61.9858 43.0246 61.9566 42.8275C61.9237 42.62 61.8489 42.4215 61.7365 42.2441C61.6242 42.0667 61.4769 41.9143 61.3035 41.7962C61.1302 41.6781 60.9346 41.5969 60.7288 41.5575C60.5229 41.5182 60.3112 41.5215 60.1067 41.5673Z" fill="#8FD8E7"/>
<path d="M31.5 61.9935C31.4652 61.7874 31.3901 61.5903 31.279 61.4134C31.1679 61.2366 31.0231 61.0835 30.8527 60.9629C30.6824 60.8424 30.49 60.7569 30.2866 60.7112C30.0832 60.6655 29.8728 60.6606 29.6674 60.6968C29.4782 60.7302 29.2976 60.801 29.136 60.9052C28.9744 61.0094 28.8351 61.1448 28.7263 61.3036C28.6176 61.4623 28.5414 61.6412 28.5024 61.8298C28.4633 62.0184 28.4621 62.2129 28.4989 62.402C28.6515 63.3042 29.4178 63.8865 30.2482 63.7318C30.4443 63.7001 30.6322 63.63 30.8012 63.5254C30.9702 63.4209 31.117 63.284 31.2333 63.1226C31.3495 62.9612 31.4329 62.7784 31.4787 62.5847C31.5244 62.3909 31.5317 62.1901 31.5 61.9935Z" fill="#8FD8E7"/>
<path d="M56.8041 22.3176C56.4175 22.3994 56.0791 22.6318 55.8633 22.9636C55.6474 23.2953 55.5717 23.6995 55.6529 24.0871C55.795 24.892 56.6411 25.4934 57.4143 25.3404C58.2274 25.1788 58.8238 24.3496 58.6799 23.5813C58.597 23.1651 58.3532 22.7986 58.0017 22.5619C57.6503 22.3251 57.2198 22.2373 56.8041 22.3176Z" fill="#8FD8E7"/>
<path d="M50.6977 58.7307C50.5677 57.9954 49.947 57.2566 48.8686 57.453C48.6815 57.4807 48.5017 57.545 48.3395 57.6424C48.1772 57.7397 48.0357 57.8682 47.923 58.0204C47.8102 58.1727 47.7286 58.3457 47.6826 58.5296C47.6366 58.7135 47.6272 58.9047 47.655 59.0922C47.7868 59.97 48.5773 60.5871 49.4026 60.4568C50.2279 60.3264 50.8381 59.5268 50.6977 58.7307Z" fill="#8FD8E7"/>
<path d="M18.6912 57.2914C18.6611 57.0942 18.5921 56.9049 18.4883 56.7346C18.3845 56.5643 18.248 56.4165 18.0866 56.2997C17.9252 56.1829 17.7423 56.0994 17.5484 56.0542C17.3546 56.009 17.1537 56.003 16.9574 56.0364C16.7592 56.0585 16.5676 56.1214 16.3948 56.2214C16.222 56.3213 16.0717 56.4559 15.9533 56.6169C15.8349 56.7779 15.751 56.9617 15.7069 57.1567C15.6628 57.3518 15.6595 57.5539 15.697 57.7503C15.7577 58.1486 15.9737 58.5065 16.2976 58.7451C16.6214 58.9837 17.0265 59.0836 17.4238 59.0227C17.8211 58.9619 18.178 58.7453 18.416 58.4206C18.654 58.0959 18.7536 57.6897 18.6929 57.2914H18.6912Z" fill="#8FD8E7"/>
<path d="M8.00273 47.2183C8.19368 47.1953 8.378 47.1338 8.54453 47.0373C8.71106 46.9409 8.85635 46.8115 8.97158 46.6572C9.08682 46.5028 9.16962 46.3266 9.21497 46.1392C9.26032 45.9518 9.26727 45.7571 9.23541 45.567C9.20653 45.3663 9.13694 45.1736 9.03093 45.0009C8.92493 44.8282 8.78475 44.6791 8.61905 44.5628C8.45334 44.4465 8.26563 44.3655 8.06749 44.3247C7.86936 44.284 7.66499 44.2843 7.46701 44.3258C7.10569 44.3917 6.78453 44.597 6.57253 44.8976C6.36052 45.1982 6.27457 45.5703 6.33315 45.9337C6.3858 46.3255 6.59093 46.6805 6.90374 46.9212C7.21656 47.1619 7.61164 47.2687 8.00273 47.2183Z" fill="#8FD8E7"/>
<path d="M53.9815 57.4044C53.9534 57.21 53.8862 57.0234 53.7841 56.8558C53.682 56.6883 53.547 56.5432 53.3874 56.4295C53.2277 56.3157 53.0467 56.2356 52.8553 56.194C52.6639 56.1525 52.466 56.1503 52.2737 56.1876C51.9025 56.2661 51.5761 56.486 51.3632 56.8009C51.1504 57.1159 51.0678 57.5013 51.1327 57.8761C51.1976 58.2509 51.4051 58.5859 51.7113 58.8104C52.0176 59.035 52.3989 59.1316 52.7748 59.08C52.9649 59.052 53.1476 58.9861 53.3119 58.8861C53.4761 58.7861 53.6188 58.6541 53.7313 58.4978C53.8438 58.3416 53.9239 58.1643 53.9669 57.9765C54.0098 57.7887 54.0148 57.5941 53.9815 57.4044Z" fill="#8FD8E7"/>
<path d="M63.2813 39.5039C63.2498 39.3093 63.1793 39.1232 63.0741 38.9567C62.9689 38.7902 62.8311 38.6468 62.6691 38.5351C62.507 38.4235 62.3241 38.346 62.1313 38.3073C61.9386 38.2685 61.74 38.2693 61.5475 38.3097C61.1749 38.3884 60.8469 38.6081 60.6318 38.9231C60.4167 39.2382 60.3311 39.6243 60.3929 40.001C60.4192 40.1923 60.4842 40.3761 60.584 40.5412C60.6837 40.7064 60.816 40.8493 60.9729 40.9613C61.1297 41.0733 61.3077 41.152 61.496 41.1925C61.6842 41.233 61.8788 41.2346 62.0676 41.197C62.259 41.1675 62.4426 41.1 62.6077 40.9985C62.7728 40.897 62.916 40.7636 63.029 40.6059C63.142 40.4483 63.2225 40.2696 63.2658 40.0804C63.3092 39.8912 63.3144 39.6952 63.2813 39.5039Z" fill="#8FD8E7"/>
<path d="M54.3473 20.7428C54.3815 20.9348 54.4536 21.1181 54.5592 21.2819C54.6648 21.4457 54.8018 21.5867 54.9624 21.6969C55.1229 21.807 55.3038 21.8839 55.4943 21.9232C55.6848 21.9625 55.8813 21.9634 56.0721 21.9258C56.263 21.8881 56.4445 21.8128 56.606 21.7041C56.7675 21.5954 56.9058 21.4555 57.0129 21.2926C57.1199 21.1298 57.1935 20.9472 57.2294 20.7555C57.2653 20.5638 57.2627 20.3669 57.2219 20.1762C57.1898 19.992 57.1219 19.8161 57.0219 19.6583C56.9219 19.5006 56.7918 19.3642 56.6391 19.257C56.4864 19.1497 56.3141 19.0738 56.132 19.0334C55.95 18.9931 55.7618 18.9892 55.5783 19.022C55.1897 19.091 54.8434 19.3096 54.6134 19.6311C54.3834 19.9527 54.2879 20.3517 54.3473 20.7428Z" fill="#8FD8E7"/>
<path d="M34.6849 63.4606C34.5428 62.6263 33.8649 62.1152 33.0691 62.2439C32.6818 62.3114 32.3351 62.5254 32.1006 62.8417C31.866 63.158 31.7616 63.5526 31.8087 63.9439C31.8753 64.3261 32.0893 64.6666 32.4042 64.892C32.7192 65.1174 33.11 65.2095 33.4921 65.1485C33.682 65.1183 33.8638 65.0503 34.0271 64.9486C34.1904 64.8469 34.3317 64.7135 34.4428 64.5563C34.554 64.399 34.6326 64.2211 34.6742 64.033C34.7158 63.8448 34.7194 63.6502 34.6849 63.4606Z" fill="#8FD8E7"/>
<path d="M13.8853 15.2706C14.0746 15.2526 14.258 15.1948 14.4235 15.1009C14.589 15.0071 14.733 14.8793 14.846 14.726C14.959 14.5727 15.0386 14.3972 15.0795 14.211C15.1203 14.0248 15.1216 13.8321 15.0833 13.6454C14.9515 12.7762 14.291 12.2756 13.4571 12.4077C12.6231 12.5398 12.0996 13.1899 12.2174 14.0052C12.3423 14.9195 12.989 15.408 13.8853 15.2706Z" fill="#8FD8E7"/>
<path d="M6.11143 30.8802C6.29215 30.8567 6.46603 30.7958 6.62205 30.7014C6.77808 30.607 6.91284 30.4812 7.01781 30.3318C7.12277 30.1824 7.19565 30.0128 7.23183 29.8338C7.268 29.6547 7.26668 29.47 7.22795 29.2915C7.08578 28.4849 6.43737 28.0069 5.66759 28.139C4.85447 28.2746 4.3933 28.9386 4.54067 29.7608C4.68803 30.583 5.31911 31.0228 6.11143 30.8802Z" fill="#8FD8E7"/>
<path d="M20.6954 60.2169C20.6505 59.9441 20.5255 59.6908 20.3363 59.4896C20.1471 59.2883 19.9024 59.1482 19.6334 59.0871C19.3644 59.026 19.0833 59.0467 18.8261 59.1466C18.5689 59.2464 18.3472 59.4209 18.1894 59.6477C18.0316 59.8745 17.9448 60.1434 17.9401 60.4199C17.9355 60.6964 18.0132 60.968 18.1632 61.2C18.3133 61.432 18.529 61.6139 18.7827 61.7224C19.0364 61.8309 19.3166 61.8611 19.5876 61.8092C19.9409 61.7374 20.2532 61.532 20.4595 61.2355C20.6658 60.939 20.7503 60.5742 20.6954 60.2169Z" fill="#8FD8E7"/>
<path d="M52.766 17.5896C52.7895 17.7581 52.8473 17.9199 52.9358 18.0651C53.0242 18.2103 53.1416 18.3357 53.2804 18.4335C53.4193 18.5313 53.5767 18.5994 53.7429 18.6337C53.9091 18.6679 54.0806 18.6675 54.2466 18.6325C55.0563 18.4848 55.54 17.7217 55.3649 16.8647C55.2331 16.2129 54.5154 15.78 53.7941 15.9191C53.0729 16.0582 52.6152 16.7952 52.766 17.5896Z" fill="#8FD8E7"/>
<path d="M57.0016 55.5638C56.9722 55.3929 56.9088 55.2298 56.8151 55.0841C56.7214 54.9384 56.5994 54.8131 56.4563 54.7158C56.3133 54.6184 56.1521 54.551 55.9825 54.5175C55.8128 54.484 55.6382 54.4851 55.469 54.5208C55.2898 54.5532 55.119 54.6212 54.9665 54.721C54.8141 54.8207 54.6832 54.9501 54.5815 55.1015C54.4798 55.2529 54.4094 55.4232 54.3746 55.6023C54.3397 55.7814 54.341 55.9657 54.3785 56.1443C54.5172 56.8918 55.1881 57.3142 55.9943 57.163C56.7103 57.0308 57.142 56.3442 57.0016 55.5638Z" fill="#8FD8E7"/>
<path d="M64.1618 35.9284C64.0543 35.2505 63.3695 34.7985 62.6379 34.9237C61.8299 35.0645 61.3896 35.6972 61.53 36.5159C61.66 37.2738 62.2755 37.6718 63.1008 37.531C63.8619 37.4007 64.2918 36.7523 64.1618 35.9284Z" fill="#8FD8E7"/>
<path d="M38.1318 64.5071C38.0035 63.7232 37.3412 63.2643 36.535 63.4016C35.7288 63.5389 35.3786 64.0813 35.5225 64.9104C35.6664 65.7396 36.3148 66.1793 37.1158 66.0281C37.2825 65.9959 37.4412 65.9309 37.5827 65.8368C37.7242 65.7427 37.8457 65.6215 37.9402 65.4801C38.0347 65.3386 38.1002 65.1798 38.1331 65.0128C38.166 64.8458 38.1656 64.674 38.1318 64.5071Z" fill="#8FD8E7"/>
<path d="M8.41709 50.6915C8.58752 50.6609 8.75016 50.5965 8.89551 50.5022C9.04087 50.4078 9.16602 50.2854 9.26366 50.142C9.3613 49.9986 9.42949 49.8372 9.46423 49.6671C9.49896 49.4971 9.49957 49.3217 9.46599 49.1514C9.44298 48.9757 9.38378 48.8066 9.29214 48.655C9.2005 48.5033 9.07843 48.3724 8.93368 48.2706C8.78892 48.1688 8.62463 48.0982 8.45124 48.0635C8.27785 48.0287 8.09914 48.0304 7.92644 48.0685C7.75168 48.0939 7.58382 48.1543 7.43288 48.2462C7.28194 48.3381 7.15101 48.4596 7.04793 48.6033C6.94485 48.7471 6.87172 48.9102 6.83291 49.0829C6.7941 49.2556 6.79041 49.4344 6.82206 49.6086C6.85197 49.7866 6.91759 49.9567 7.01494 50.1086C7.1123 50.2605 7.23937 50.391 7.38847 50.4922C7.53758 50.5935 7.70561 50.6633 7.88241 50.6976C8.05921 50.7318 8.2411 50.7298 8.41709 50.6915Z" fill="#8FD8E7"/>
<path d="M21.6197 61.7585C21.4485 61.782 21.2838 61.8398 21.1354 61.9284C20.987 62.017 20.8579 62.1347 20.7557 62.2743C20.6536 62.414 20.5805 62.5728 20.5408 62.7414C20.5011 62.9099 20.4957 63.0848 20.5247 63.2555C20.5538 63.4262 20.6168 63.5893 20.7101 63.7351C20.8033 63.8809 20.9248 64.0064 21.0674 64.1042C21.21 64.2019 21.3707 64.27 21.5401 64.3042C21.7094 64.3384 21.8839 64.3381 22.0531 64.3033C22.3903 64.2424 22.6907 64.0524 22.8907 63.7734C23.0907 63.4944 23.1745 63.1483 23.1245 62.8084C23.062 62.47 22.869 62.17 22.5872 61.9735C22.3055 61.7769 21.9578 61.6997 21.6197 61.7585Z" fill="#8FD8E7"/>
<path d="M10.9641 17.1432C11.1216 17.1195 11.2725 17.0637 11.4075 16.979C11.5425 16.8944 11.6586 16.7828 11.7487 16.6512C11.8388 16.5196 11.9009 16.3709 11.9312 16.2142C11.9615 16.0575 11.9592 15.8962 11.9246 15.7404C11.7894 15.0121 11.2467 14.5844 10.47 14.7322C9.7228 14.8747 9.34137 15.4275 9.49741 16.1593C9.52224 16.3239 9.58103 16.4815 9.67002 16.6221C9.75902 16.7627 9.87627 16.8831 10.0143 16.9757C10.1523 17.0682 10.3081 17.131 10.4716 17.1598C10.6352 17.1886 10.8029 17.183 10.9641 17.1432Z" fill="#8FD8E7"/>
<path d="M5.64846 32.5752C5.62728 32.4125 5.57238 32.2562 5.48729 32.1161C5.4022 31.976 5.28881 31.8553 5.15441 31.7619C5.02001 31.6684 4.86758 31.6041 4.70693 31.5732C4.54627 31.5424 4.38095 31.5456 4.2216 31.5826C4.0598 31.6065 3.90456 31.6632 3.76535 31.7492C3.62614 31.8353 3.50589 31.9489 3.41195 32.0831C3.318 32.2173 3.25233 32.3693 3.21894 32.5298C3.18556 32.6904 3.18516 32.856 3.21777 33.0167C3.24731 33.1777 3.3084 33.3314 3.39751 33.4686C3.48661 33.6059 3.60197 33.7241 3.7369 33.8163C3.87184 33.9086 4.02368 33.9732 4.18365 34.0063C4.34362 34.0394 4.50855 34.0404 4.6689 34.0092C5.37453 33.8858 5.77502 33.3035 5.64846 32.5752Z" fill="#8FD8E7"/>
<path d="M63.1928 31.4035C63.0226 31.4189 62.8573 31.4694 62.7075 31.5521C62.5578 31.6347 62.4267 31.7476 62.3227 31.8836C62.2186 32.0196 62.1439 32.1758 62.1031 32.3423C62.0623 32.5087 62.0564 32.6818 62.0857 32.8507C62.1151 33.0196 62.1791 33.1805 62.2736 33.3233C62.3681 33.4661 62.4912 33.5877 62.635 33.6804C62.7788 33.7731 62.9402 33.8349 63.1091 33.8619C63.2779 33.8888 63.4505 33.8804 63.6159 33.8371C63.7776 33.8157 63.9331 33.761 64.0727 33.6765C64.2123 33.592 64.333 33.4794 64.4271 33.3459C64.5212 33.2123 64.5867 33.0607 64.6196 32.9005C64.6524 32.7404 64.6519 32.5751 64.618 32.4152C64.5933 32.2537 64.5365 32.0988 64.4509 31.9598C64.3653 31.8208 64.2526 31.7005 64.1196 31.606C63.9866 31.5116 63.836 31.445 63.6768 31.4102C63.5175 31.3754 63.353 31.3732 63.1928 31.4035Z" fill="#8FD8E7"/>
<path d="M41.5559 65.0113C41.5275 64.8509 41.4678 64.6978 41.3802 64.5606C41.2926 64.4234 41.1788 64.3049 41.0455 64.2119C40.9121 64.1189 40.7617 64.0532 40.603 64.0185C40.4442 63.9839 40.2802 63.981 40.1204 64.0101C39.9596 64.0345 39.8055 64.0916 39.6674 64.1778C39.5294 64.264 39.4103 64.3775 39.3175 64.5114C39.2247 64.6453 39.16 64.7967 39.1276 64.9565C39.0951 65.1163 39.0955 65.281 39.1287 65.4407C39.25 66.1568 39.8222 66.5497 40.5434 66.4262C40.7049 66.4051 40.8603 66.3509 41 66.2671C41.1398 66.1833 41.2608 66.0716 41.3558 65.939C41.4507 65.8063 41.5174 65.6555 41.5519 65.496C41.5863 65.3364 41.5877 65.1714 41.5559 65.0113Z" fill="#8FD8E7"/>
<path d="M58.3902 52.5442C57.6742 52.6676 57.2806 53.2395 57.4055 53.9626C57.5234 54.6579 58.1111 55.0629 58.8375 54.9499C58.9981 54.9235 59.1517 54.8649 59.2893 54.7777C59.4268 54.6905 59.5455 54.5764 59.6381 54.4423C59.7308 54.3082 59.7956 54.1567 59.8288 53.997C59.8619 53.8372 59.8626 53.6725 59.831 53.5124C59.7096 52.8206 59.1201 52.4208 58.3902 52.5442Z" fill="#8FD8E7"/>
<path d="M52.0483 15.5317C52.7921 15.4256 53.1943 14.8816 53.0885 14.115C53.0692 13.9555 53.0182 13.8015 52.9385 13.6622C52.8588 13.5228 52.752 13.4009 52.6244 13.3036C52.4969 13.2064 52.3512 13.1358 52.1959 13.096C52.0407 13.0562 51.8791 13.0481 51.7206 13.072C51.3996 13.1198 51.1102 13.2926 50.9155 13.553C50.7207 13.8133 50.6363 14.1402 50.6804 14.4626C50.7983 15.2136 51.3288 15.6342 52.0483 15.5317Z" fill="#8FD8E7"/>
<path d="M10.2584 52.6953C10.137 51.9791 9.56487 51.5897 8.82977 51.7166C8.14667 51.8348 7.78953 52.372 7.89528 53.1072C7.95431 53.4311 8.13507 53.7198 8.40026 53.9139C8.66544 54.1079 8.99482 54.1925 9.32041 54.1502C9.93935 54.0407 10.3745 53.3645 10.2584 52.6953Z" fill="#8FD8E7"/>
<path d="M25.7597 65.0893C25.7408 64.9438 25.6932 64.8035 25.6195 64.6767C25.5459 64.55 25.4477 64.4392 25.3308 64.351C25.2139 64.2627 25.0805 64.1988 24.9387 64.1629C24.7968 64.127 24.6492 64.1199 24.5045 64.1419C23.811 64.2601 23.3741 64.8372 23.4798 65.4734C23.502 65.6284 23.5555 65.7771 23.637 65.9106C23.7186 66.0441 23.8264 66.1594 23.954 66.2496C24.0816 66.3398 24.2263 66.4029 24.3791 66.435C24.5319 66.4671 24.6896 66.4676 24.8426 66.4364C24.9943 66.4152 25.1399 66.3624 25.27 66.2814C25.4002 66.2004 25.512 66.0931 25.5984 65.9663C25.6847 65.8394 25.7437 65.6959 25.7715 65.5449C25.7993 65.3938 25.7952 65.2387 25.7597 65.0893Z" fill="#8FD8E7"/>
<path d="M49.6124 12.8406C50.2573 12.7224 50.6093 12.1853 50.4792 11.5056C50.3492 10.8259 49.8586 10.4957 49.0923 10.6365C48.5045 10.7408 48.1595 11.2848 48.2722 11.928C48.3953 12.599 48.931 12.9657 49.6124 12.8406Z" fill="#8FD8E7"/>
<path d="M63.2291 27.8766C63.0817 27.9056 62.9416 27.9637 62.8168 28.0476C62.6921 28.1315 62.5853 28.2394 62.5027 28.3652C62.42 28.4909 62.3632 28.6319 62.3355 28.7799C62.3078 28.928 62.3099 29.08 62.3415 29.2272C62.4169 29.5201 62.5971 29.7749 62.8477 29.9431C63.0983 30.1114 63.4019 30.1814 63.7007 30.1398C64.259 30.039 64.7097 29.3472 64.5953 28.7649C64.5218 28.471 64.3401 28.216 64.0866 28.0512C63.8331 27.8864 63.5267 27.824 63.2291 27.8766Z" fill="#8FD8E7"/>
<path d="M60.9805 50.1209C60.8337 50.1471 60.6937 50.2025 60.5685 50.2837C60.4433 50.365 60.3356 50.4705 60.2516 50.594C60.1677 50.7175 60.1091 50.8566 60.0795 51.0031C60.0498 51.1496 60.0497 51.3006 60.079 51.4472C60.1934 52.0625 60.7725 52.438 61.4313 52.3267C62.052 52.2224 62.4022 51.6836 62.2843 51.0178C62.1664 50.3521 61.6706 50.001 60.9805 50.1209Z" fill="#8FD8E7"/>
<path d="M45.077 65.051C45.0219 64.7672 44.8574 64.5167 44.6191 64.3539C44.3807 64.1912 44.088 64.1293 43.8044 64.1818C43.1335 64.2948 42.7642 64.785 42.8613 65.4142C42.9775 66.1095 43.5253 66.5215 44.1876 66.4016C44.4829 66.3384 44.7416 66.1614 44.908 65.9087C45.0743 65.6561 45.135 65.348 45.077 65.051Z" fill="#8FD8E7"/>
<path d="M3.60274 37.449C3.74829 37.434 3.88945 37.3903 4.01811 37.3205C4.14676 37.2506 4.26036 37.1559 4.35237 37.0419C4.44438 36.9278 4.51298 36.7966 4.55423 36.6559C4.59547 36.5151 4.60855 36.3676 4.5927 36.2217C4.57442 36.0656 4.52507 35.9147 4.44757 35.778C4.37007 35.6413 4.26599 35.5216 4.14151 35.4259C4.01702 35.3303 3.87466 35.2607 3.72285 35.2212C3.57104 35.1817 3.41288 35.1732 3.25772 35.1962C2.97417 35.2536 2.72343 35.418 2.55728 35.6554C2.39113 35.8928 2.32224 36.1852 2.36485 36.4721C2.38093 36.6182 2.42588 36.7597 2.49708 36.8882C2.56827 37.0167 2.66428 37.1298 2.77952 37.2207C2.89475 37.3117 3.02689 37.3787 3.16823 37.4179C3.30957 37.457 3.45728 37.4676 3.60274 37.449Z" fill="#8FD8E7"/>
<path d="M11.453 56.0366C11.3907 55.7535 11.2222 55.5054 10.9824 55.3436C10.7425 55.1817 10.4498 55.1187 10.1648 55.1675C10.0278 55.1956 9.89763 55.2506 9.78188 55.3294C9.66614 55.4081 9.56706 55.5091 9.49037 55.6264C9.41367 55.7436 9.36086 55.875 9.33497 56.0128C9.30909 56.1506 9.31064 56.2922 9.33954 56.4294C9.36218 56.5709 9.41366 56.7063 9.49077 56.8269C9.56788 56.9476 9.66897 57.051 9.78772 57.1308C9.90648 57.2106 10.0404 57.2649 10.181 57.2905C10.3216 57.3161 10.466 57.3123 10.6052 57.2795C10.8805 57.2246 11.1235 57.0638 11.282 56.8315C11.4405 56.5991 11.5019 56.3138 11.453 56.0366Z" fill="#8FD8E7"/>
<path d="M8.22819 19.4895C8.74831 19.413 9.19041 18.7942 9.10719 18.2362C9.05603 17.9574 8.89752 17.7099 8.6659 17.5473C8.43428 17.3847 8.14814 17.3199 7.86931 17.3671C7.72927 17.3836 7.59415 17.4289 7.47242 17.5003C7.3507 17.5716 7.24501 17.6675 7.16198 17.7817C7.07894 17.896 7.02037 18.0262 6.98994 18.1643C6.9595 18.3023 6.95786 18.4452 6.98511 18.5839C7.04778 18.8601 7.20834 19.1042 7.43697 19.2708C7.66559 19.4374 7.94674 19.5151 8.22819 19.4895Z" fill="#8FD8E7"/>
<path d="M28.7902 67.0121C28.7423 66.7399 28.5898 66.4973 28.3655 66.3364C28.1412 66.1756 27.863 66.1093 27.5905 66.1517C27.4545 66.1729 27.3239 66.2208 27.2064 66.2926C27.0888 66.3644 26.9865 66.4587 26.9052 66.5702C26.824 66.6816 26.7655 66.808 26.733 66.9422C26.7005 67.0763 26.6947 67.2156 26.7158 67.352C26.737 67.4883 26.7848 67.6192 26.8564 67.7371C26.928 67.855 27.0221 67.9576 27.1333 68.039C27.2444 68.1204 27.3705 68.1791 27.5043 68.2117C27.6381 68.2443 27.7769 68.2501 27.913 68.2289C28.0514 68.2092 28.1843 68.1617 28.304 68.0892C28.4237 68.0168 28.5275 67.9209 28.6094 67.8074C28.6913 67.6938 28.7495 67.5648 28.7806 67.4282C28.8116 67.2916 28.8149 67.1501 28.7902 67.0121Z" fill="#8FD8E7"/>
<path d="M63.2812 47.3662C63.1415 47.381 63.0065 47.4256 62.8853 47.497C62.7641 47.5685 62.6596 47.665 62.5786 47.7802C62.4977 47.8954 62.4423 48.0267 62.416 48.1651C62.3898 48.3035 62.3934 48.446 62.4265 48.583C62.4478 48.7191 62.4956 48.8497 62.5673 48.9674C62.6389 49.085 62.7329 49.1873 62.844 49.2685C62.9551 49.3497 63.0811 49.4082 63.2147 49.4406C63.3483 49.473 63.487 49.4786 63.6228 49.4573C63.7586 49.436 63.8889 49.388 64.0062 49.3162C64.1235 49.2443 64.2256 49.1501 64.3066 49.0387C64.3875 48.9273 64.4458 48.801 64.4782 48.6671C64.5105 48.5331 64.5161 48.3941 64.4948 48.2579C64.4746 48.119 64.4269 47.9855 64.3547 47.8652C64.2825 47.745 64.1872 47.6403 64.0742 47.5573C63.9613 47.4743 63.833 47.4147 63.6969 47.3819C63.5607 47.349 63.4194 47.3437 63.2812 47.3662Z" fill="#8FD8E7"/>
<path d="M48.5877 64.7849C48.4733 64.14 47.9983 63.7767 47.4105 63.881C46.8228 63.9853 46.3807 64.5502 46.4778 65.0752C46.5294 65.3529 46.6867 65.5997 46.9163 65.7635C47.146 65.9273 47.4301 65.9952 47.7087 65.953C48.3103 65.8435 48.6865 65.3446 48.5877 64.7849Z" fill="#8FD8E7"/>
<path d="M62.9048 24.3638C62.6331 24.4113 62.3903 24.5624 62.2274 24.7856C62.0644 25.0087 61.9941 25.2865 62.0311 25.5605C62.0682 25.8346 62.2097 26.0836 62.4259 26.2552C62.6422 26.4269 62.9164 26.5078 63.1909 26.481C63.3295 26.4589 63.4623 26.4094 63.5817 26.3355C63.7011 26.2617 63.8048 26.1648 63.8867 26.0505C63.9685 25.9363 64.027 25.8069 64.0588 25.6699C64.0905 25.5328 64.0949 25.3908 64.0716 25.2521C63.9642 24.6454 63.4666 24.2665 62.9048 24.3638Z" fill="#8FD8E7"/>
<path d="M45.5573 9.63531C45.5731 9.77271 45.6171 9.90534 45.6865 10.0249C45.756 10.1444 45.8493 10.2482 45.9607 10.3298C46.072 10.4115 46.199 10.4691 46.3337 10.4992C46.4683 10.5292 46.6077 10.531 46.7431 10.5044C46.9466 10.4731 47.1362 10.3818 47.288 10.2423C47.4397 10.1028 47.5467 9.92132 47.5955 9.7208C47.6443 9.52027 47.6327 9.30973 47.562 9.11585C47.4914 8.92196 47.365 8.75345 47.1988 8.63164C47.0326 8.50983 46.8341 8.4402 46.6284 8.43158C46.4227 8.42295 46.2191 8.47571 46.0433 8.58318C45.8675 8.69065 45.7275 8.84799 45.641 9.03528C45.5545 9.22258 45.5253 9.4314 45.5573 9.63531Z" fill="#8FD8E7"/>
<path d="M12.0129 58.444C11.7626 58.4844 11.5378 58.6209 11.3863 58.8247C11.2348 59.0285 11.1684 59.2835 11.2014 59.5355C11.2343 59.7875 11.3639 60.0168 11.5627 60.1745C11.7615 60.3323 12.0138 60.4062 12.266 60.3804C12.7861 60.2988 13.1935 59.7981 13.1329 59.3375C13.0583 58.8195 12.4966 58.3728 12.0129 58.444Z" fill="#8FD8E7"/>
<path d="M2.66634 38.979C2.48246 39.0233 2.31538 39.1203 2.18542 39.258C2.05546 39.3958 1.96821 39.5684 1.93429 39.755C1.90036 39.9415 1.92123 40.1339 1.99433 40.3088C2.06744 40.4837 2.18965 40.6335 2.3461 40.7401C2.50255 40.8466 2.6865 40.9053 2.87559 40.909C3.06468 40.9127 3.25077 40.8612 3.41123 40.7608C3.57168 40.6604 3.6996 40.5155 3.77943 40.3436C3.85926 40.1717 3.88755 39.9802 3.86088 39.7925C3.80554 39.5282 3.65012 39.2958 3.42734 39.1441C3.20455 38.9924 2.93176 38.9332 2.66634 38.979Z" fill="#8FD8E7"/>
<path d="M30.9454 67.7174C30.8222 67.7319 30.7032 67.7714 30.5958 67.8336C30.4884 67.8958 30.3948 67.9794 30.3208 68.0792C30.2467 68.1789 30.1938 68.2929 30.1653 68.4139C30.1367 68.5349 30.1332 68.6605 30.1548 68.783C30.2328 69.3427 30.6628 69.7043 31.1708 69.633C31.4251 69.6025 31.6584 69.4761 31.8232 69.2795C31.988 69.0829 32.0721 68.8308 32.0584 68.5744C32.0425 68.4444 32.0008 68.319 31.936 68.2053C31.8712 68.0916 31.7845 67.992 31.6809 67.9123C31.5773 67.8325 31.4589 67.7742 31.3327 67.7408C31.2064 67.7073 31.0748 67.6994 30.9454 67.7174Z" fill="#8FD8E7"/>
<path d="M65.1606 44.3537C64.9116 44.4028 64.6909 44.5461 64.5444 44.7538C64.3979 44.9616 64.3367 45.2179 64.3735 45.4697C64.3952 45.5922 64.4416 45.709 64.5098 45.8129C64.5781 45.9168 64.6668 46.0057 64.7705 46.074C64.8742 46.1424 64.9908 46.1888 65.113 46.2104C65.2352 46.232 65.3606 46.2284 65.4814 46.1998C66.0396 46.1076 66.3482 45.6783 66.2459 45.0907C66.2279 44.9685 66.1847 44.8514 66.1191 44.7467C66.0535 44.6421 65.9669 44.5523 65.8649 44.483C65.7628 44.4137 65.6475 44.3664 65.5263 44.3442C65.4051 44.3219 65.2805 44.3252 65.1606 44.3537Z" fill="#8FD8E7"/>
<path d="M43.6086 8.54353C44.1513 8.46705 44.4755 8.00815 44.3749 7.42931C44.3618 7.30579 44.323 7.1864 44.2611 7.07883C44.1991 6.97125 44.1154 6.87786 44.0153 6.80467C43.9152 6.73148 43.8009 6.68012 43.6798 6.65388C43.5587 6.62763 43.4335 6.6271 43.3122 6.6523C43.0609 6.69681 42.8375 6.83957 42.6912 7.04917C42.5449 7.25878 42.4876 7.51806 42.532 7.77001C42.5486 7.89325 42.5901 8.01179 42.6541 8.11836C42.718 8.22492 42.803 8.31726 42.9038 8.38969C43.0047 8.46213 43.1192 8.51314 43.2404 8.5396C43.3616 8.56605 43.4869 8.56739 43.6086 8.54353Z" fill="#8FD8E7"/>
<path d="M61.2543 22.0972C61.3514 22.643 61.7745 22.9229 62.3501 22.8203C62.9257 22.7177 63.2048 22.2762 63.0921 21.6974C63.0692 21.5746 63.022 21.4577 62.9532 21.3536C62.8844 21.2495 62.7955 21.1603 62.6917 21.0912C62.5879 21.0222 62.4714 20.9747 62.349 20.9516C62.2265 20.9285 62.1008 20.9303 61.979 20.9569C61.7375 21.021 61.5289 21.1739 61.3947 21.3852C61.2604 21.5964 61.2103 21.8506 61.2543 22.0972Z" fill="#8FD8E7"/>
<path d="M50.9023 63.1163C50.7799 63.1351 50.6625 63.1781 50.5568 63.2428C50.4512 63.3075 50.3595 63.3927 50.2871 63.4934C50.2146 63.594 50.1629 63.7081 50.1348 63.829C50.1068 63.9499 50.103 64.0751 50.1238 64.1975C50.2035 64.7537 50.6179 65.0492 51.1849 64.9589C51.7518 64.8685 52.0656 64.4704 51.9806 63.8777C51.965 63.7542 51.9239 63.6354 51.8599 63.5288C51.7959 63.4222 51.7104 63.3301 51.609 63.2585C51.5075 63.1868 51.3922 63.1372 51.2705 63.1127C51.1489 63.0882 51.0234 63.0895 50.9023 63.1163Z" fill="#8FD8E7"/>
<path d="M5.75426 22.0377C6.31426 21.9438 6.59859 21.5527 6.49803 21.0139C6.39748 20.475 6.00912 20.183 5.50981 20.2751C5.38738 20.2894 5.26932 20.3293 5.16329 20.3923C5.05726 20.4553 4.96563 20.54 4.89434 20.6408C4.82306 20.7416 4.77372 20.8563 4.74952 20.9775C4.72533 21.0987 4.72682 21.2236 4.7539 21.3441C4.77172 21.4567 4.81211 21.5645 4.87265 21.661C4.93319 21.7575 5.01262 21.8406 5.10612 21.9055C5.19963 21.9703 5.30528 22.0154 5.41668 22.0382C5.52808 22.0609 5.64292 22.0607 5.75426 22.0377Z" fill="#8FD8E7"/>
<path d="M67.6414 41.7343C67.5946 41.5216 67.4682 41.335 67.2882 41.2131C67.1082 41.0911 66.8883 41.0431 66.674 41.079C66.557 41.0973 66.4449 41.1392 66.3445 41.2021C66.2441 41.2651 66.1575 41.3478 66.0899 41.4453C66.0224 41.5428 65.9752 41.6531 65.9513 41.7694C65.9275 41.8857 65.9274 42.0056 65.951 42.1219C66.0256 42.5826 66.4296 42.8329 66.9583 42.7477C67.0728 42.7329 67.1828 42.6939 67.281 42.6332C67.3793 42.5725 67.4635 42.4915 67.5281 42.3956C67.5927 42.2998 67.6363 42.1912 67.6558 42.0772C67.6753 41.9632 67.6704 41.8463 67.6414 41.7343Z" fill="#8FD8E7"/>
<path d="M60.984 19.3419C61.4798 19.2794 61.7364 18.9022 61.6636 18.3424C61.6554 18.2411 61.6261 18.1427 61.5774 18.0535C61.5288 17.9643 61.4621 17.8864 61.3815 17.8248C61.3009 17.7631 61.2082 17.7192 61.1096 17.6958C61.0109 17.6724 60.9085 17.67 60.8089 17.6889C60.6886 17.6986 60.5716 17.7329 60.465 17.7894C60.3584 17.846 60.2643 17.9237 60.1886 18.0178C60.1128 18.112 60.057 18.2206 60.0244 18.3371C59.9919 18.4535 59.9833 18.5754 59.9992 18.6953C60.053 19.1525 60.4448 19.4097 60.984 19.3419Z" fill="#8FD8E7"/>
<path d="M40.3232 6.93246C40.5321 6.90476 40.7215 6.79515 40.8499 6.62766C40.9782 6.46017 41.0351 6.24848 41.0081 6.039C40.9728 5.81085 40.8515 5.60498 40.6692 5.46394C40.4869 5.3229 40.2576 5.25745 40.0285 5.28111C39.5413 5.35412 39.2587 5.76956 39.3472 6.28757C39.4286 6.7795 39.7927 7.01764 40.3232 6.93246Z" fill="#8FD8E7"/>
<path d="M14.0433 61.5713C13.9379 61.5913 13.8378 61.6327 13.7489 61.6928C13.6601 61.7529 13.5843 61.8306 13.5264 61.9211C13.4685 62.0115 13.4296 62.1128 13.412 62.2189C13.3945 62.3249 13.3986 62.4334 13.4243 62.5378C13.511 63.0454 13.8838 63.3217 14.364 63.2331C14.4744 63.2217 14.581 63.1865 14.6765 63.1299C14.7721 63.0732 14.8542 62.9965 14.9173 62.905C14.9804 62.8135 15.023 62.7093 15.0421 62.5997C15.0612 62.4901 15.0564 62.3777 15.028 62.2701C15.0161 62.1562 14.9801 62.0462 14.9224 61.9474C14.8647 61.8487 14.7866 61.7633 14.6934 61.6972C14.6002 61.6311 14.494 61.5856 14.3819 61.5639C14.2698 61.5422 14.1543 61.5447 14.0433 61.5713Z" fill="#8FD8E7"/>
<path d="M34.4024 68.8024C34.1866 68.85 33.9953 68.9742 33.8637 69.1522C33.7321 69.3301 33.6691 69.5498 33.6864 69.7706C33.6998 69.8837 33.7372 69.9925 33.7961 70.0898C33.855 70.1871 33.934 70.2706 34.0278 70.3347C34.1217 70.3988 34.2281 70.4419 34.34 70.4613C34.4518 70.4806 34.5665 70.4757 34.6764 70.4468C34.7827 70.4343 34.8853 70.3998 34.9777 70.3455C35.07 70.2912 35.1502 70.2183 35.2131 70.1314C35.2759 70.0446 35.3202 69.9456 35.343 69.8407C35.3658 69.7358 35.3667 69.6273 35.3456 69.5221C35.3154 69.3014 35.1992 69.1017 35.0224 68.9667C34.8456 68.8318 34.6226 68.7727 34.4024 68.8024Z" fill="#8FD8E7"/>
<path d="M54.304 61.8824C53.8029 61.9728 53.5342 62.3465 53.6226 62.828C53.7162 63.3495 54.0404 63.5824 54.5242 63.499C55.0443 63.4086 55.3477 63.0192 55.2731 62.5447C55.2573 62.4352 55.2189 62.3303 55.1605 62.2365C55.1021 62.1428 55.0249 62.0622 54.9338 61.9999C54.8426 61.9376 54.7396 61.895 54.6312 61.8748C54.5228 61.8546 54.4113 61.8571 54.304 61.8824Z" fill="#8FD8E7"/>
<path d="M2.88138 44.3746C2.99141 44.3623 3.09755 44.3266 3.19261 44.2697C3.28767 44.2128 3.36945 44.1362 3.4324 44.0449C3.49535 43.9536 3.53802 43.8498 3.55751 43.7405C3.57701 43.6313 3.57288 43.5191 3.5454 43.4116C3.53447 43.3046 3.5007 43.2013 3.44641 43.1086C3.39211 43.0159 3.31855 42.936 3.23072 42.8743C3.1429 42.8126 3.04286 42.7706 2.93741 42.7512C2.83196 42.7317 2.72357 42.7352 2.61959 42.7614C2.50953 42.7741 2.40342 42.8101 2.30827 42.8669C2.21312 42.9238 2.13111 43.0003 2.06767 43.0914C2.00423 43.1824 1.96081 43.2859 1.94029 43.3951C1.91977 43.5042 1.92261 43.6165 1.94863 43.7244C1.96157 43.8312 1.99686 43.934 2.0522 44.0261C2.10754 44.1183 2.18168 44.1976 2.26975 44.259C2.35782 44.3204 2.45784 44.3624 2.56325 44.3823C2.66865 44.4022 2.77707 44.3996 2.88138 44.3746Z" fill="#8FD8E7"/>
<path d="M36.821 5.83567C36.9182 5.82491 37.012 5.79366 37.0964 5.74395C37.1807 5.69424 37.2536 5.62722 37.3102 5.54727C37.3669 5.46732 37.406 5.37626 37.4251 5.28007C37.4442 5.18388 37.4427 5.08473 37.4208 4.98914C37.4101 4.89135 37.3793 4.79684 37.3305 4.7115C37.2817 4.62615 37.2159 4.5518 37.1372 4.49309C37.0584 4.43438 36.9685 4.39256 36.8729 4.37024C36.7773 4.34792 36.6782 4.34558 36.5817 4.36336C36.15 4.42768 35.9177 4.7649 35.9905 5.22033C35.9967 5.31879 36.0242 5.41471 36.0712 5.50137C36.1183 5.58802 36.1837 5.66331 36.2628 5.72194C36.3419 5.78058 36.4329 5.82114 36.5293 5.84079C36.6257 5.86044 36.7253 5.85869 36.821 5.83567Z" fill="#8FD8E7"/>
<path d="M38.0797 69.4923C37.6099 69.5636 37.3862 69.8539 37.44 70.3024C37.4452 70.4055 37.4732 70.5061 37.522 70.597C37.5708 70.6879 37.6392 70.7667 37.7222 70.8278C37.8052 70.8889 37.9008 70.9307 38.0019 70.9502C38.103 70.9696 38.2072 70.9662 38.3068 70.9403C38.4016 70.9311 38.4934 70.9018 38.5759 70.8542C38.6585 70.8066 38.73 70.7419 38.7856 70.6644C38.8413 70.5869 38.8798 70.4984 38.8986 70.4048C38.9173 70.3112 38.916 70.2146 38.8946 70.1216C38.8183 69.6488 38.5305 69.4245 38.0797 69.4923Z" fill="#8FD8E7"/>
<path d="M59.2 16.0374C59.2982 16.0302 59.3935 16.0012 59.4791 15.9526C59.5647 15.904 59.6385 15.837 59.6952 15.7564C59.7519 15.6758 59.7901 15.5836 59.807 15.4864C59.8239 15.3892 59.8191 15.2895 59.793 15.1944C59.7825 15.0965 59.7515 15.0021 59.7019 14.9172C59.6523 14.8323 59.5853 14.7589 59.5053 14.7019C59.4254 14.6449 59.3342 14.6055 59.238 14.5864C59.1417 14.5674 59.0425 14.569 58.9469 14.5912C58.849 14.6011 58.7545 14.6321 58.6696 14.682C58.5848 14.732 58.5118 14.7997 58.4555 14.8806C58.3992 14.9615 58.3609 15.0536 58.3434 15.1507C58.3259 15.2477 58.3295 15.3474 58.354 15.4429C58.3656 15.54 58.3974 15.6335 58.4475 15.7174C58.4976 15.8012 58.5647 15.8736 58.6446 15.9297C58.7244 15.9858 58.8151 16.0244 58.9108 16.0429C59.0066 16.0615 59.1051 16.0596 59.2 16.0374Z" fill="#8FD8E7"/>
<path d="M67.6536 37.7201C67.5558 37.7286 67.4612 37.7584 67.3761 37.8073C67.291 37.8562 67.2175 37.923 67.1608 38.0032C67.104 38.0834 67.0654 38.1751 67.0475 38.2718C67.0296 38.3684 67.0329 38.4679 67.0571 38.5631C67.1386 39.0238 67.4351 39.2306 67.8945 39.1507C68.354 39.0707 68.5776 38.7683 68.5013 38.3198C68.4905 38.2221 68.459 38.1278 68.4092 38.0432C68.3593 37.9586 68.292 37.8855 68.2119 37.8288C68.1318 37.7722 68.0406 37.7332 67.9444 37.7144C67.8481 37.6957 67.749 37.6976 67.6536 37.7201Z" fill="#8FD8E7"/>
<path d="M57.4594 60.2207C57.0173 60.3024 56.8058 60.6222 56.8959 61.0759C56.9095 61.17 56.9415 61.2606 56.9902 61.3422C57.0388 61.4239 57.1031 61.495 57.1794 61.5516C57.2557 61.6082 57.3423 61.649 57.4344 61.6718C57.5265 61.6946 57.6222 61.6988 57.716 61.6843C57.9105 61.6493 58.084 61.5402 58.2001 61.3798C58.3161 61.2194 58.3657 61.0201 58.3384 60.8239C58.3265 60.7234 58.2933 60.6267 58.2411 60.5402C58.1888 60.4536 58.1187 60.3793 58.0355 60.3222C57.9522 60.2651 57.8578 60.2265 57.7584 60.2089C57.659 60.1914 57.5571 60.1954 57.4594 60.2207Z" fill="#8FD8E7"/>
<path d="M16.564 64.3382C16.4702 64.3554 16.381 64.3918 16.302 64.4452C16.2229 64.4985 16.1556 64.5676 16.1044 64.6482C16.0531 64.7288 16.019 64.8191 16.0041 64.9135C15.9892 65.0079 15.9939 65.1044 16.0179 65.1969C16.0389 65.2824 16.0767 65.3629 16.129 65.4337C16.1813 65.5045 16.2471 65.5641 16.3225 65.6092C16.398 65.6544 16.4817 65.684 16.5687 65.6965C16.6556 65.7089 16.7442 65.7039 16.8293 65.6818C17.0079 65.6349 17.1617 65.5208 17.2586 65.3631C17.3555 65.2054 17.388 65.0164 17.3494 64.8353C17.2991 64.5346 16.8934 64.2791 16.564 64.3382Z" fill="#8FD8E7"/>
<path d="M3.62853 24.7148C4.00822 24.6557 4.218 24.3255 4.14865 23.9013C4.0793 23.5172 3.81231 23.3381 3.41008 23.4094C3.22785 23.4324 3.06216 23.5269 2.94937 23.6723C2.83659 23.8176 2.78592 24.0019 2.80848 24.1847C2.84996 24.3624 2.95866 24.517 3.11165 24.6159C3.26464 24.7148 3.44996 24.7503 3.62853 24.7148Z" fill="#8FD8E7"/>
<path d="M3.60622 47.0148C3.57029 46.8416 3.46762 46.6897 3.32054 46.592C3.17346 46.4944 2.99388 46.4589 2.82084 46.4933C2.64848 46.5283 2.49584 46.6277 2.3938 46.7713C2.29176 46.9149 2.24796 47.092 2.27125 47.2668C2.28406 47.3534 2.31438 47.4365 2.36033 47.5109C2.40627 47.5853 2.4669 47.6496 2.53847 47.6997C2.61005 47.7498 2.69108 47.7847 2.7766 47.8024C2.86212 47.82 2.95033 47.8199 3.03582 47.8022C3.12627 47.7912 3.21349 47.7617 3.29202 47.7154C3.37056 47.6691 3.43873 47.6071 3.49227 47.5332C3.5458 47.4593 3.58355 47.3751 3.60316 47.2859C3.62277 47.1967 3.62381 47.1044 3.60622 47.0148Z" fill="#8FD8E7"/>
<path d="M60.3755 58.1293C60.0704 58.1745 59.8329 58.5465 59.8797 58.9081C59.915 59.0813 60.0148 59.2344 60.1588 59.3365C60.3027 59.4385 60.48 59.4817 60.6547 59.4574C60.738 59.4433 60.8176 59.4122 60.8885 59.3659C60.9593 59.3196 61.0199 59.2592 61.0664 59.1884C61.1129 59.1176 61.1444 59.038 61.1589 58.9545C61.1733 58.8709 61.1705 58.7853 61.1505 58.703C61.1427 58.6119 61.1157 58.5236 61.0712 58.4438C61.0266 58.3641 60.9657 58.2948 60.8924 58.2405C60.819 58.1862 60.735 58.1482 60.6459 58.129C60.5568 58.1099 60.4646 58.11 60.3755 58.1293Z" fill="#8FD8E7"/>
<path d="M57.1022 13.0369C57.268 12.9982 57.4122 12.8964 57.5044 12.7531C57.5966 12.6097 57.6296 12.4359 57.5963 12.2686C57.5853 12.1847 57.5566 12.1041 57.5122 12.0322C57.4677 11.9602 57.4086 11.8986 57.3386 11.8512C57.2686 11.8039 57.1894 11.772 57.1062 11.7577C57.0231 11.7433 56.9378 11.7468 56.8561 11.768C56.7714 11.7742 56.6891 11.799 56.615 11.8406C56.5409 11.8822 56.4768 11.9396 56.4272 12.0087C56.3776 12.0778 56.3437 12.157 56.328 12.2406C56.3122 12.3243 56.3149 12.4104 56.3359 12.4929C56.3484 12.5801 56.3784 12.6638 56.4242 12.739C56.47 12.8142 56.5307 12.8792 56.6024 12.9301C56.6741 12.9811 56.7554 13.0168 56.8413 13.0351C56.9273 13.0535 57.0161 13.0541 57.1022 13.0369Z" fill="#8FD8E7"/>
<path d="M68.231 34.1953C68.0655 34.2366 67.9209 34.3376 67.8249 34.479C67.729 34.6204 67.6884 34.7923 67.7109 34.9619C67.7267 35.0453 67.7588 35.1248 67.8055 35.1957C67.8521 35.2667 67.9123 35.3276 67.9827 35.375C68.053 35.4223 68.132 35.4553 68.2151 35.4718C68.2982 35.4883 68.3838 35.4881 68.4668 35.4712C68.5511 35.461 68.6323 35.4329 68.7048 35.3887C68.7774 35.3445 68.8397 35.2853 68.8877 35.2151C68.9356 35.1448 68.968 35.0651 68.9827 34.9812C68.9975 34.8974 68.9942 34.8114 68.9731 34.7289C68.9394 34.5625 68.8442 34.415 68.7066 34.316C68.5689 34.217 68.3991 34.1739 68.231 34.1953Z" fill="#8FD8E7"/>
<path d="M33.2391 5.21479C33.3222 5.1989 33.4012 5.16645 33.4715 5.11935C33.5418 5.07225 33.6019 5.01147 33.6484 4.94061C33.6948 4.86976 33.7265 4.79028 33.7417 4.70689C33.7569 4.6235 33.7552 4.5379 33.7367 4.45517C33.7207 4.37265 33.6886 4.29411 33.6422 4.22403C33.5959 4.15395 33.5363 4.0937 33.4667 4.04673C33.3972 3.99976 33.3191 3.96699 33.2369 3.95027C33.1547 3.93356 33.0701 3.93324 32.9878 3.94934C32.8215 3.98184 32.675 4.07921 32.5804 4.22004C32.5335 4.28977 32.5008 4.36807 32.4842 4.45047C32.4675 4.53286 32.4672 4.61775 32.4832 4.70027C32.52 4.86652 32.6187 5.0124 32.7593 5.10805C32.8998 5.2037 33.0715 5.24189 33.2391 5.21479Z" fill="#8FD8E7"/>
<path d="M41.6235 69.7671C41.5392 69.7776 41.4582 69.8061 41.3858 69.8507C41.3135 69.8953 41.2515 69.955 41.2042 70.0257C41.1568 70.0964 41.1252 70.1765 41.1114 70.2606C41.0976 70.3446 41.102 70.4306 41.1242 70.5128C41.1339 70.5912 41.1605 70.6664 41.2024 70.7333C41.2442 70.8001 41.3002 70.8569 41.3663 70.8997C41.4325 70.9425 41.5072 70.9702 41.5852 70.9808C41.6632 70.9915 41.7426 70.9848 41.8177 70.9613C42.2061 70.8935 42.3794 70.6554 42.3222 70.2782C42.3154 70.1962 42.291 70.1167 42.2508 70.045C42.2106 69.9733 42.1556 69.9111 42.0893 69.8627C42.023 69.8142 41.9471 69.7806 41.8668 69.7641C41.7864 69.7476 41.7035 69.7486 41.6235 69.7671Z" fill="#8FD8E7"/>
<path d="M19.3119 66.8848C19.2352 66.8958 19.1616 66.9224 19.0955 66.963C19.0294 67.0035 18.9723 67.0572 18.9276 67.1207C18.883 67.1842 18.8518 67.2561 18.8359 67.3321C18.8199 67.4082 18.8197 67.4866 18.8351 67.5628C18.8684 67.7093 18.9567 67.8374 19.0815 67.9206C19.2064 68.0037 19.3584 68.0356 19.5061 68.0095C19.6548 67.9837 19.7872 67.8997 19.8742 67.776C19.9612 67.6523 19.9956 67.499 19.9698 67.3498C19.9441 67.2007 19.8603 67.0679 19.7369 66.9807C19.6135 66.8935 19.4606 66.859 19.3119 66.8848Z" fill="#8FD8E7"/>
<path d="M29.5133 5.0184C29.6671 4.98721 29.8028 4.89715 29.8914 4.76734C29.9801 4.63752 30.0149 4.47817 29.9883 4.32309C29.9398 3.99977 29.756 3.84159 29.4266 3.88157C29.0972 3.92155 28.8302 4.26051 28.8874 4.52994C28.9446 4.79937 29.2723 5.0549 29.5133 5.0184Z" fill="#8FD8E7"/>
<path d="M63.1078 55.8122C62.9738 55.8408 62.8556 55.9193 62.777 56.0319C62.6985 56.1445 62.6656 56.2828 62.6848 56.4189C62.6884 56.4938 62.7072 56.5672 62.7401 56.6346C62.773 56.702 62.8193 56.7619 62.8761 56.8107C62.9329 56.8596 62.9991 56.8962 63.0705 56.9185C63.142 56.9408 63.2172 56.9482 63.2916 56.9403C63.5846 56.8951 63.8395 56.6048 63.8117 56.3511C63.7814 56.19 63.6928 56.0458 63.5628 55.9463C63.4329 55.8468 63.2708 55.7991 63.1078 55.8122Z" fill="#8FD8E7"/>
<path d="M54.6663 10.2212C54.9575 10.1604 55.1448 10.0039 55.0945 9.67541C55.084 9.59753 55.0579 9.52259 55.0178 9.45509C54.9777 9.38758 54.9243 9.32893 54.861 9.28264C54.7977 9.23635 54.7257 9.2034 54.6493 9.18576C54.5729 9.16812 54.4938 9.16616 54.4166 9.18C54.1479 9.23563 53.9277 9.51201 53.9676 9.73972C53.9979 9.89576 54.0881 10.0336 54.2187 10.1237C54.3494 10.2137 54.5101 10.2487 54.6663 10.2212Z" fill="#8FD8E7"/>
<path d="M68.3906 30.7307C68.075 30.795 67.9606 30.9949 68.0351 31.3895C68.0837 31.6711 68.3056 31.831 68.6541 31.7615C68.954 31.7024 69.117 31.5234 69.0788 31.2105C69.0673 31.1326 69.04 31.0579 68.9986 30.991C68.9572 30.9241 68.9025 30.8665 68.8381 30.8215C68.7736 30.7766 68.7006 30.7453 68.6237 30.7297C68.5467 30.7141 68.4674 30.7144 68.3906 30.7307Z" fill="#8FD8E7"/>
<path d="M2.23304 27.1674C2.22503 27.0999 2.20255 27.0349 2.16714 26.977C2.13173 26.919 2.08423 26.8694 2.0279 26.8316C1.97157 26.7938 1.90774 26.7686 1.8408 26.7579C1.77386 26.7471 1.7054 26.751 1.6401 26.7693C1.57385 26.7789 1.51015 26.8015 1.45272 26.836C1.39528 26.8704 1.34526 26.916 1.30557 26.97C1.26587 27.0241 1.2373 27.0855 1.22151 27.1507C1.20572 27.2159 1.20304 27.2836 1.21361 27.3499C1.22581 27.4173 1.25166 27.4814 1.28956 27.5383C1.32747 27.5953 1.37662 27.6438 1.43398 27.681C1.49134 27.7181 1.55569 27.7431 1.62305 27.7543C1.69041 27.7655 1.75935 27.7628 1.82561 27.7462C1.89322 27.7418 1.95898 27.7223 2.01808 27.6891C2.07719 27.6559 2.12814 27.6098 2.1672 27.5544C2.20626 27.4989 2.23245 27.4353 2.24384 27.3683C2.25523 27.3014 2.25154 27.2327 2.23304 27.1674Z" fill="#8FD8E7"/>
<path d="M45.2748 69.6697C45.2058 69.6755 45.139 69.6962 45.0788 69.7304C45.0187 69.7646 44.9667 69.8116 44.9264 69.868C44.8862 69.9244 44.8587 69.9889 44.8458 70.057C44.8329 70.1251 44.8349 70.1952 44.8517 70.2625C44.8925 70.3787 44.973 70.4766 45.0789 70.539C45.1847 70.6014 45.3093 70.6242 45.4303 70.6034C45.5514 70.5826 45.6612 70.5195 45.7403 70.4253C45.8194 70.3311 45.8627 70.2118 45.8625 70.0887C45.8581 70.0196 45.8383 69.9523 45.8047 69.8918C45.771 69.8313 45.7243 69.7791 45.6681 69.739C45.6118 69.6989 45.5472 69.6718 45.4792 69.6599C45.4112 69.6479 45.3413 69.6513 45.2748 69.6697Z" fill="#8FD8E7"/>
<path d="M3.43617 50.2149C3.30354 50.2488 3.18894 50.3324 3.11603 50.4485C3.04311 50.5647 3.01745 50.7044 3.04435 50.839C3.05064 50.9041 3.07087 50.9671 3.10364 51.0237C3.13642 51.0803 3.18098 51.1292 3.23429 51.167C3.2876 51.2047 3.34841 51.2306 3.41257 51.2426C3.47672 51.2547 3.54273 51.2528 3.60608 51.237C3.67354 51.2305 3.73881 51.2095 3.79748 51.1754C3.85615 51.1414 3.90684 51.0951 3.94612 51.0398C3.98541 50.9844 4.01238 50.9212 4.0252 50.8545C4.03802 50.7877 4.0364 50.719 4.02044 50.653C4.01177 50.5853 3.98964 50.5201 3.95534 50.4611C3.92105 50.4022 3.8753 50.3508 3.8208 50.3099C3.7663 50.2691 3.70417 50.2396 3.6381 50.2233C3.57203 50.207 3.50336 50.2041 3.43617 50.2149Z" fill="#8FD8E7"/>
<path d="M65.4882 53.1772C65.366 53.1981 65.2568 53.2662 65.1842 53.367C65.1115 53.4678 65.0813 53.5931 65.0998 53.716C65.1107 53.775 65.1339 53.831 65.1677 53.8804C65.2016 53.9298 65.2455 53.9715 65.2965 54.0028C65.3475 54.0342 65.4045 54.0544 65.4638 54.0621C65.5231 54.0699 65.5834 54.0651 65.6408 54.048C65.6985 54.0478 65.7555 54.0346 65.8076 54.0094C65.8596 53.9843 65.9054 53.9478 65.9416 53.9027C65.9778 53.8576 66.0035 53.8049 66.0169 53.7486C66.0302 53.6922 66.0308 53.6336 66.0187 53.577C65.9892 53.2988 65.7621 53.1685 65.4882 53.1772Z" fill="#8FD8E7"/>
<path d="M51.8541 7.80291C51.9159 7.79588 51.9754 7.77533 52.0284 7.74271C52.0814 7.7101 52.1266 7.66621 52.1608 7.61415C52.1951 7.56209 52.2175 7.50313 52.2265 7.44143C52.2355 7.37973 52.2309 7.31681 52.213 7.25709C52.2076 7.19859 52.19 7.14189 52.1612 7.09072C52.1324 7.03955 52.0931 6.99509 52.046 6.96027C51.9988 6.92544 51.9447 6.90104 51.8875 6.88869C51.8302 6.87633 51.7709 6.8763 51.7136 6.88858C51.5927 6.90725 51.4841 6.97333 51.4118 7.07226C51.3394 7.1712 51.3093 7.2949 51.3279 7.41615C51.3465 7.53739 51.4124 7.64626 51.5111 7.71879C51.6098 7.79132 51.7331 7.82158 51.8541 7.80291Z" fill="#8FD8E7"/>
<path d="M22.28 69.1117C22.02 69.1552 21.8986 69.2856 21.9333 69.5672C21.9376 69.6583 21.9698 69.746 22.0255 69.8182C22.0811 69.8904 22.1576 69.9437 22.2445 69.9709C22.3314 69.998 22.4245 69.9978 22.5113 69.9701C22.598 69.9424 22.6742 69.8886 22.7294 69.8161C22.7847 69.7435 22.8163 69.6557 22.8201 69.5645C22.8239 69.4733 22.7996 69.3832 22.7505 69.3063C22.7015 69.2294 22.63 69.1695 22.5458 69.1347C22.4617 69.0999 22.3689 69.0919 22.28 69.1117Z" fill="#8FD8E7"/>
<path d="M67.8566 27.6664C67.8597 27.726 67.8757 27.7841 67.9035 27.8368C67.9314 27.8895 67.9703 27.9355 68.0177 27.9716C68.0651 28.0077 68.1197 28.033 68.1778 28.0457C68.2359 28.0584 68.2961 28.0583 68.3542 28.0453C68.6073 27.9984 68.7443 27.8002 68.6714 27.4004C68.6402 27.2266 68.4495 27.1241 68.1825 27.1745C68.127 27.1814 68.0736 27.2002 68.0261 27.2297C67.9785 27.2592 67.9379 27.2987 67.9069 27.3454C67.876 27.3921 67.8554 27.445 67.8468 27.5004C67.8381 27.5558 67.8414 27.6124 67.8566 27.6664Z" fill="#8FD8E7"/>
<path d="M25.8047 5.06167C26.2156 4.98519 26.3093 4.76964 26.2624 4.52107C26.256 4.46534 26.2371 4.41178 26.2072 4.36436C26.1773 4.31695 26.1371 4.2769 26.0896 4.24717C26.0422 4.21745 25.9886 4.19883 25.933 4.19268C25.8774 4.18653 25.8211 4.19302 25.7683 4.21166C25.51 4.2725 25.3418 4.4359 25.3973 4.71402C25.4008 4.76385 25.4142 4.81248 25.4366 4.85707C25.4591 4.90166 25.4902 4.9413 25.5282 4.97367C25.5661 5.00605 25.6101 5.03051 25.6576 5.04562C25.7051 5.06073 25.7551 5.06619 25.8047 5.06167Z" fill="#8FD8E7"/>
<path d="M48.8044 69.1829C48.7559 69.1914 48.7097 69.2101 48.6689 69.2378C48.6282 69.2655 48.5938 69.3016 48.568 69.3437C48.5423 69.3859 48.5257 69.433 48.5196 69.482C48.5134 69.531 48.5177 69.5807 48.5322 69.6279C48.5401 69.6851 48.5602 69.74 48.5911 69.7886C48.6221 69.8373 48.6632 69.8787 48.7117 69.9099C48.7601 69.9411 48.8147 69.9614 48.8717 69.9695C48.9287 69.9775 48.9868 69.9731 49.042 69.9565C49.2153 69.8783 49.4008 69.7827 49.3332 69.5115C49.324 69.453 49.3023 69.3973 49.2696 69.348C49.2369 69.2987 49.194 69.257 49.1438 69.2258C49.0937 69.1947 49.0374 69.1747 48.9788 69.1673C48.9202 69.1599 48.8608 69.1652 48.8044 69.1829Z" fill="#8FD8E7"/>
<path d="M4.45384 53.8532C4.40043 53.8564 4.34848 53.872 4.30208 53.8987C4.25567 53.9254 4.21605 53.9625 4.18633 54.0071C4.15661 54.0517 4.13759 54.1026 4.13077 54.1558C4.12394 54.209 4.12948 54.2631 4.14697 54.3138C4.19205 54.5676 4.37929 54.6406 4.61681 54.5919C4.90981 54.5537 4.93235 54.3277 4.89941 54.1226C4.86647 53.9175 4.68096 53.8132 4.45384 53.8532Z" fill="#8FD8E7"/>
<path d="M22.3807 5.57126C22.4271 5.56619 22.4717 5.55107 22.5116 5.52694C22.5515 5.50281 22.5857 5.47025 22.6117 5.43154C22.6378 5.39283 22.6552 5.34889 22.6626 5.30277C22.67 5.25666 22.6673 5.20948 22.6547 5.16451C22.6447 5.11752 22.6251 5.07312 22.5972 5.03409C22.5693 4.99506 22.5336 4.96227 22.4923 4.93777C22.4511 4.91327 22.4053 4.8976 22.3577 4.89175C22.3102 4.8859 22.2619 4.88999 22.216 4.90377C22.1705 4.91068 22.1271 4.92754 22.0888 4.95315C22.0506 4.97876 22.0184 5.0125 21.9945 5.05198C21.9707 5.09146 21.9558 5.1357 21.951 5.18159C21.9461 5.22747 21.9514 5.27386 21.9664 5.31748C21.9744 5.36279 21.992 5.40587 22.0179 5.44387C22.0438 5.48187 22.0774 5.51393 22.1166 5.53792C22.1557 5.56191 22.1995 5.57729 22.2451 5.58304C22.2906 5.58879 22.3369 5.58477 22.3807 5.57126Z" fill="#8FD8E7"/>
<path d="M67.6329 50.3333C67.5874 50.3401 67.5438 50.3562 67.5048 50.3806C67.4658 50.405 67.4322 50.4372 67.4062 50.4752C67.3802 50.5132 67.3622 50.5562 67.3535 50.6015C67.3448 50.6467 67.3454 50.6933 67.3555 50.7383C67.3815 50.9625 67.5687 51.0077 67.7646 51.0234C67.8471 51.003 67.9188 50.9521 67.9651 50.8807C68.0115 50.8094 68.0291 50.7231 68.0143 50.6392C68.0123 50.5929 68.0004 50.5475 67.9795 50.5061C67.9586 50.4647 67.929 50.4283 67.8929 50.3994C67.8568 50.3704 67.8149 50.3495 67.77 50.3381C67.7252 50.3267 67.6784 50.3251 67.6329 50.3333Z" fill="#8FD8E7"/>
<path d="M25.4493 70.9995C25.3019 71.0795 25.1702 71.1733 25.2066 71.3819C25.243 71.5905 25.3435 71.7296 25.5637 71.7105C25.6062 71.7076 25.6478 71.6963 25.686 71.6772C25.7241 71.6582 25.7581 71.6317 25.786 71.5994C25.8139 71.567 25.8351 71.5295 25.8485 71.4889C25.8618 71.4483 25.8669 71.4054 25.8636 71.3628C25.8463 71.1351 25.6591 71.0464 25.4493 70.9995Z" fill="#8FD8E7"/>
<path d="M48.9155 5.54499C48.961 5.5367 49.0042 5.51886 49.0423 5.49263C49.0804 5.46641 49.1126 5.4324 49.1367 5.39283C49.1607 5.35327 49.1762 5.30904 49.182 5.26307C49.1878 5.21709 49.1838 5.1704 49.1704 5.12607C49.1357 4.94007 48.9831 4.8549 48.7092 4.90009C48.6704 4.91109 48.6341 4.9297 48.6025 4.95484C48.5709 4.97997 48.5446 5.01115 48.5251 5.04655C48.5056 5.08195 48.4933 5.12088 48.4889 5.16108C48.4845 5.20129 48.4881 5.24197 48.4994 5.28077C48.5079 5.32632 48.5257 5.36962 48.5516 5.40798C48.5775 5.44634 48.6111 5.47894 48.6501 5.50373C48.6891 5.52852 48.7329 5.54498 48.7785 5.55208C48.8242 5.55918 48.8708 5.55676 48.9155 5.54499Z" fill="#8FD8E7"/>
<path d="M67.7387 24.3443C67.7847 24.3394 67.8291 24.3247 67.8689 24.3013C67.9088 24.2778 67.9432 24.2461 67.97 24.2083C67.9967 24.1705 68.0151 24.1274 68.0239 24.082C68.0328 24.0365 68.0319 23.9896 68.0213 23.9445C68.0057 23.7498 67.8479 23.6647 67.652 23.6838C67.6045 23.685 67.5579 23.6965 67.5153 23.7175C67.4727 23.7386 67.4352 23.7687 67.4053 23.8057C67.3755 23.8428 67.354 23.8859 67.3424 23.932C67.3308 23.9782 67.3294 24.0264 67.3382 24.0731C67.36 24.1598 67.4129 24.2354 67.4868 24.2854C67.5607 24.3355 67.6504 24.3564 67.7387 24.3443Z" fill="#8FD8E7"/>
<path d="M0.220129 30.2825C0.179451 30.292 0.141307 30.3102 0.108315 30.3359C0.0753223 30.3616 0.0482624 30.3941 0.0289923 30.4313C0.0097223 30.4685 -0.00130164 30.5093 -0.00332288 30.5512C-0.00534413 30.593 0.00168518 30.6348 0.0172826 30.6736C0.022426 30.7191 0.0378933 30.7627 0.0624951 30.8012C0.0870968 30.8397 0.120177 30.872 0.159193 30.8957C0.198208 30.9194 0.242119 30.9338 0.287548 30.9377C0.332977 30.9417 0.378714 30.9352 0.421241 30.9187C0.462805 30.9112 0.502265 30.8948 0.536949 30.8706C0.571632 30.8464 0.600729 30.8151 0.622267 30.7786C0.643805 30.7422 0.657282 30.7015 0.661784 30.6594C0.666286 30.6173 0.661708 30.5747 0.64836 30.5346C0.62241 30.4458 0.563653 30.3703 0.484076 30.3234C0.4045 30.2766 0.310098 30.262 0.220129 30.2825Z" fill="#8FD8E7"/>
<path d="M52.3586 68.2911C52.3189 68.2955 52.2807 68.3085 52.2465 68.329C52.2123 68.3496 52.1829 68.3774 52.1604 68.4104C52.1378 68.4434 52.1226 68.4808 52.1159 68.5203C52.1091 68.5597 52.1109 68.6001 52.1211 68.6388C52.1401 68.83 52.2944 68.8839 52.4678 68.8647C52.6793 68.8352 52.7053 68.6614 52.7227 68.4875C52.6998 68.4134 52.6489 68.3513 52.5807 68.3146C52.5126 68.2778 52.4328 68.2694 52.3586 68.2911Z" fill="#8FD8E7"/>
<path d="M45.812 3.6765C45.8439 3.67025 45.8741 3.65727 45.9006 3.63841C45.9271 3.61956 45.9493 3.59526 45.9657 3.56714C45.9821 3.53903 45.9923 3.50773 45.9957 3.47533C45.9991 3.44294 45.9956 3.41019 45.9854 3.37926C45.9635 3.30967 45.9177 3.25013 45.8561 3.21128C45.7945 3.17244 45.7211 3.15681 45.649 3.16719C45.5034 3.20717 45.5069 3.32885 45.5242 3.44532C45.552 3.60176 45.6386 3.72344 45.812 3.6765Z" fill="#8FD8E7"/>
<path d="M66.7261 20.7845C66.8873 20.7515 66.9861 20.6646 66.9515 20.5116C66.9448 20.4761 66.9312 20.4423 66.9115 20.4122C66.8917 20.382 66.8662 20.3561 66.8363 20.3358C66.8065 20.3156 66.773 20.3016 66.7377 20.2944C66.7024 20.2873 66.666 20.2873 66.6307 20.2943C66.4868 20.3135 66.4573 20.4317 66.4781 20.562C66.499 20.6924 66.5752 20.7984 66.7261 20.7845Z" fill="#8FD8E7"/>
<path d="M69.4602 47.2895C69.3371 47.3087 69.2383 47.3713 69.2608 47.5207C69.2833 47.6702 69.377 47.7867 69.5434 47.7693C69.5778 47.7699 69.6118 47.7626 69.6428 47.7478C69.6738 47.7329 69.701 47.7111 69.7222 47.684C69.7434 47.6568 69.758 47.6252 69.7649 47.5914C69.7717 47.5576 69.7707 47.5227 69.7618 47.4895C69.7457 47.4243 69.7058 47.3675 69.6499 47.3305C69.594 47.2935 69.5263 47.2789 69.4602 47.2895Z" fill="#8FD8E7"/>
<path d="M18.8559 6.48206C18.9426 6.42818 19.0969 6.38994 19.0657 6.22654C19.0634 6.19057 19.0533 6.15553 19.0361 6.12387C19.0189 6.09221 18.995 6.06467 18.9662 6.04317C18.9373 6.02168 18.9041 6.00673 18.8689 5.99937C18.8337 5.99201 18.7973 5.99242 18.7623 6.00057C18.7333 6.00333 18.7053 6.01241 18.6802 6.02718C18.6551 6.04196 18.6336 6.06206 18.617 6.08608C18.6005 6.1101 18.5894 6.13746 18.5846 6.16623C18.5797 6.195 18.5812 6.22448 18.5889 6.25261C18.6045 6.39168 18.6566 6.50466 18.8559 6.48206Z" fill="#8FD8E7"/>
<path d="M5.83573 57.3626C5.80556 57.3641 5.77617 57.3727 5.74988 57.3876C5.7236 57.4025 5.70115 57.4234 5.68431 57.4486C5.66748 57.4737 5.65673 57.5024 5.65292 57.5325C5.64911 57.5625 5.65234 57.593 5.66236 57.6216C5.66557 57.6514 5.6755 57.6802 5.69139 57.7056C5.70729 57.731 5.72873 57.7525 5.75411 57.7684C5.77948 57.7843 5.80813 57.7942 5.83789 57.7974C5.86764 57.8006 5.89773 57.7969 5.92588 57.7868C5.95576 57.7853 5.98503 57.7777 6.01189 57.7645C6.03875 57.7513 6.06264 57.7327 6.08211 57.7099C6.10158 57.6872 6.11621 57.6606 6.12512 57.632C6.13403 57.6034 6.13703 57.5732 6.13393 57.5434C6.06805 57.4252 5.9935 57.3278 5.83573 57.3626Z" fill="#8FD8E7"/>
<path d="M28.8352 72.6261C28.809 72.6267 28.7832 72.6334 28.7599 72.6455C28.7366 72.6576 28.7164 72.6748 28.7007 72.6959C28.685 72.717 28.6743 72.7414 28.6693 72.7672C28.6644 72.7931 28.6654 72.8197 28.6722 72.8451C28.6913 72.9981 28.8075 73.0068 28.9306 72.9963C28.9524 72.9976 28.9742 72.9937 28.9942 72.9848C29.0142 72.976 29.0319 72.9626 29.0457 72.9457C29.0596 72.9287 29.0693 72.9087 29.074 72.8873C29.0786 72.8659 29.0782 72.8437 29.0727 72.8225C29.0734 72.7928 29.0673 72.7633 29.055 72.7363C29.0427 72.7093 29.0244 72.6854 29.0015 72.6665C28.9787 72.6476 28.9518 72.6341 28.923 72.6271C28.8942 72.6201 28.8642 72.6198 28.8352 72.6261Z" fill="#8FD8E7"/>
<path d="M55.7723 67.0571C55.7499 67.0594 55.7283 67.0666 55.7088 67.0779C55.6893 67.0893 55.6725 67.1047 55.6593 67.1231C55.6462 67.1415 55.6372 67.1625 55.6327 67.1847C55.6283 67.2068 55.6286 67.2297 55.6337 67.2517C55.6364 67.2748 55.6438 67.2971 55.6553 67.3173C55.6668 67.3375 55.6822 67.3551 55.7006 67.3692C55.719 67.3833 55.7401 67.3936 55.7625 67.3994C55.785 67.4052 55.8084 67.4064 55.8313 67.403C55.918 67.3839 56.0047 67.3282 55.9804 67.2291C55.9561 67.1301 55.9076 67.0345 55.7723 67.0571Z" fill="#8FD8E7"/>
<path d="M70.8489 44.0353C70.7743 44.0735 70.6633 44.1083 70.6755 44.2196C70.6795 44.2422 70.6884 44.2637 70.7015 44.2826C70.7145 44.3015 70.7315 44.3174 70.7513 44.3291C70.771 44.3408 70.7931 44.3481 70.8159 44.3505C70.8387 44.3529 70.8618 44.3503 70.8835 44.343C70.9962 44.3221 71.0153 44.2369 71.0032 44.1379C70.991 44.0388 70.939 43.9884 70.8489 44.0353Z" fill="#8FD8E7"/>
<path d="M170.946 12.2813C171.891 12.2813 172.381 11.732 172.381 10.7464V1.0799C172.385 0.936615 172.416 0.795415 172.474 0.664432C172.532 0.53345 172.616 0.415274 172.719 0.316713C172.823 0.218152 172.945 0.141154 173.079 0.0901548C173.212 0.0391556 173.355 0.0151633 173.498 0.01956C173.64 0.0118965 173.783 0.0337831 173.917 0.0838554C174.051 0.133928 174.173 0.211112 174.276 0.310596C174.379 0.41008 174.46 0.52973 174.514 0.662088C174.569 0.794445 174.596 0.936671 174.593 1.0799V10.2562C174.593 12.5298 173.271 14.4645 170.888 14.4645C170.198 14.46 169.523 14.2624 168.938 13.8938C168.354 13.5253 167.884 13.0005 167.58 12.3786C167.509 12.214 167.47 12.0367 167.468 11.8571C167.468 11.7187 167.495 11.5816 167.549 11.4539C167.602 11.3263 167.68 11.2105 167.779 11.1134C167.877 11.0163 167.994 10.9399 168.122 10.8885C168.25 10.8371 168.387 10.8119 168.525 10.8142C168.73 10.7998 168.935 10.8439 169.115 10.9415C169.296 11.039 169.446 11.1859 169.547 11.3652C169.765 11.7876 170.237 12.2813 170.946 12.2813Z" fill="#8FD8E7"/>
<path d="M182.373 4.68133C183.337 4.68512 184.279 4.97569 185.079 5.51628C185.879 6.05687 186.501 6.82319 186.867 7.71832C187.232 8.61344 187.325 9.59714 187.133 10.545C186.941 11.4929 186.472 12.3623 185.787 13.0433C185.102 13.7243 184.231 14.1863 183.284 14.3709C182.337 14.5555 181.357 14.4543 180.467 14.0802C179.578 13.7061 178.819 13.0758 178.286 12.2692C177.754 11.4625 177.472 10.5157 177.477 9.54846C177.477 8.90578 177.604 8.26945 177.85 7.67621C178.097 7.08296 178.458 6.54455 178.913 6.09205C179.368 5.63954 179.908 5.28191 180.502 5.03978C181.096 4.79765 181.732 4.67582 182.373 4.68133ZM182.373 12.3558C182.92 12.3509 183.453 12.1841 183.906 11.8762C184.358 11.5683 184.71 11.1331 184.917 10.6253C185.123 10.1175 185.176 9.55978 185.067 9.02227C184.958 8.48476 184.694 7.99145 184.306 7.60437C183.919 7.21728 183.426 6.95371 182.889 6.84679C182.353 6.73987 181.797 6.79437 181.291 7.00345C180.785 7.21252 180.352 7.56683 180.047 8.02183C179.742 8.47683 179.577 9.0122 179.574 9.56063C179.57 9.92974 179.64 10.296 179.779 10.6377C179.918 10.9794 180.124 11.2897 180.385 11.5502C180.646 11.8107 180.956 12.0162 181.298 12.1546C181.639 12.293 182.005 12.3614 182.373 12.3558Z" fill="#8FD8E7"/>
<path d="M192.976 14.4605C191.18 14.4605 189.914 13.5114 189.914 12.5641C189.914 12.4423 189.939 12.3218 189.987 12.21C190.036 12.0982 190.106 11.9976 190.195 11.9142C190.283 11.8308 190.388 11.7665 190.502 11.7252C190.616 11.6839 190.738 11.6665 190.859 11.6741C191.69 11.6741 192.012 12.5258 193.051 12.5258C193.77 12.5258 194.091 12.1469 194.091 11.768C194.091 11.389 193.827 11.0101 192.844 10.499L191.955 10.0436C190.5 9.30485 190.008 8.45136 190.008 7.33366C190.008 5.98825 191.222 4.7002 193.165 4.7002C195.206 4.7002 196.019 5.95 196.019 6.51842C196.019 6.99296 195.66 7.3719 195.093 7.3719C194.337 7.3719 193.879 6.70789 192.938 6.70789C192.447 6.70789 192.201 7.05554 192.201 7.35278C192.201 7.75084 192.409 7.95943 193.222 8.43398L193.448 8.56609C193.751 8.75556 194.129 8.91374 194.45 9.08757C195.887 9.86457 196.246 10.7928 196.246 11.7402C196.246 13.1134 195.169 14.4605 192.976 14.4605Z" fill="#8FD8E7"/>
<path d="M199.044 9.56059C199.045 8.91838 199.173 8.28272 199.42 7.69011C199.667 7.09751 200.028 6.55963 200.483 6.10738C200.938 5.65513 201.477 5.29741 202.07 5.05477C202.663 4.81212 203.298 4.68934 203.939 4.69346C206.397 4.69346 208.758 6.73939 208.758 9.22337C208.759 9.50195 208.654 9.77038 208.465 9.97434C208.276 10.1783 208.016 10.3026 207.739 10.3219H201.917C201.69 10.3219 201.482 10.3411 201.274 10.3602C201.426 10.9556 201.769 11.4843 202.251 11.8645C202.732 12.2446 203.326 12.4552 203.939 12.4635C204.998 12.4635 205.622 12.0272 206.264 11.6482C206.401 11.5425 206.565 11.4769 206.737 11.4588C206.855 11.4567 206.972 11.4782 207.082 11.5219C207.192 11.5657 207.291 11.6308 207.376 11.7136C207.46 11.7964 207.527 11.8952 207.573 12.0043C207.619 12.1133 207.643 12.2304 207.644 12.3488C207.644 13.6959 205.216 14.4729 203.939 14.4729C203.295 14.4759 202.656 14.3509 202.061 14.105C201.465 13.8591 200.924 13.4973 200.469 13.0405C200.014 12.5837 199.654 12.0409 199.409 11.4436C199.165 10.8463 199.041 10.2063 199.044 9.56059ZM201.312 8.66886C201.5 8.69176 201.689 8.70453 201.879 8.7071H205.981C206.189 8.7071 206.359 8.68798 206.548 8.68798C206.34 7.60852 205.092 6.79328 203.947 6.79328C202.803 6.79328 201.52 7.58071 201.312 8.66017V8.66886Z" fill="#8FD8E7"/>
<path d="M213.635 5.64752C214.468 5.01813 215.484 4.67877 216.527 4.68104C217.174 4.6688 217.817 4.78598 218.418 5.02574C219.019 5.26549 219.567 5.62301 220.029 6.07739C220.491 6.53176 220.857 7.07389 221.108 7.67207C221.358 8.27024 221.487 8.91247 221.487 9.56121C221.487 10.21 221.358 10.8522 221.108 11.4504C220.857 12.0485 220.491 12.5907 220.029 13.045C219.567 13.4994 219.019 13.8569 218.418 14.0967C217.817 14.3364 217.174 14.4536 216.527 14.4414C215.522 14.4443 214.542 14.1252 213.731 13.5305V17.0071C213.731 17.7475 213.257 18.1821 212.69 18.1821C212.047 18.1821 211.65 17.6902 211.65 17.0071V5.91C211.65 5.24598 212.104 4.75231 212.69 4.75231C213.126 4.75579 213.503 4.96438 213.635 5.64752ZM216.527 6.76522C215.974 6.76522 215.433 6.92976 214.973 7.23804C214.512 7.54632 214.154 7.98449 213.942 8.49713C213.73 9.00978 213.675 9.57388 213.783 10.1181C213.891 10.6623 214.157 11.1622 214.548 11.5546C214.94 11.947 215.438 12.2142 215.981 12.3224C216.524 12.4307 217.087 12.3751 217.598 12.1628C218.109 11.9504 218.546 11.5908 218.854 11.1295C219.161 10.6681 219.325 10.1257 219.325 9.57077C219.332 9.20059 219.264 8.83292 219.125 8.48966C218.987 8.14641 218.781 7.83459 218.52 7.57279C218.259 7.311 217.948 7.10458 217.605 6.96584C217.263 6.82709 216.896 6.75887 216.527 6.76522Z" fill="#8FD8E7"/>
<path d="M224.353 2.44432C224.353 1.68644 224.542 0.966797 225.411 0.966797C226.167 0.966797 226.432 1.53521 226.432 2.42694V5.24987C227.055 4.87724 227.766 4.68081 228.492 4.68146C230.919 4.68146 232.67 6.31021 232.67 8.7177V12.9069C232.67 13.7204 232.323 14.3844 231.649 14.3844C230.782 14.3844 230.591 13.5501 230.591 12.6218V9.13488C230.591 7.88334 229.816 6.76563 228.511 6.76563C227.396 6.76563 226.43 7.41053 226.43 8.81331V13.2285C226.43 13.816 226.071 14.3844 225.373 14.3844C225.275 14.3878 225.177 14.3681 225.088 14.3271H225.05C224.902 14.3086 224.767 14.2339 224.672 14.1185L224.615 14.0629C224.428 13.8491 224.333 13.5696 224.351 13.2859L224.353 2.44432Z" fill="#8FD8E7"/>
<path d="M248.849 14.3077H243.84C243.273 14.3077 242.707 13.9288 242.707 13.2474V1.06046C242.706 0.9178 242.734 0.776496 242.79 0.645067C242.845 0.513639 242.926 0.394805 243.029 0.295729C243.131 0.196653 243.252 0.119385 243.385 0.0685813C243.518 0.0177778 243.66 -0.00550924 243.802 0.000123413C243.945 -0.00778764 244.088 0.0139153 244.222 0.0638763C244.356 0.113837 244.478 0.190983 244.581 0.290493C244.684 0.390003 244.766 0.509739 244.821 0.64222C244.875 0.774701 244.902 0.91708 244.9 1.06046V11.9402C244.897 11.9637 244.9 11.9874 244.908 12.0096C244.916 12.0318 244.928 12.0519 244.945 12.0686C244.962 12.0853 244.982 12.098 245.004 12.1059C245.026 12.1137 245.05 12.1165 245.073 12.1141H248.853C248.997 12.1085 249.141 12.1333 249.276 12.1868C249.41 12.2403 249.532 12.3213 249.634 12.4247C249.735 12.5281 249.814 12.6516 249.865 12.7872C249.916 12.9229 249.939 13.0678 249.931 13.2126C249.934 13.3564 249.908 13.4993 249.855 13.6329C249.802 13.7664 249.723 13.8879 249.622 13.9901C249.521 14.0922 249.4 14.173 249.268 14.2276C249.135 14.2821 248.993 14.3094 248.849 14.3077Z" fill="#8FD8E7"/>
<path d="M254.974 10.2714C254.982 10.8222 255.204 11.3483 255.592 11.7379C255.981 12.1274 256.506 12.3496 257.055 12.3573C258.132 12.3573 259.135 11.7697 259.135 10.3878V6.40547C259.135 5.45812 259.382 4.75586 260.157 4.75586C261.063 4.75586 261.178 5.439 261.233 6.42459V12.7727C261.233 13.6836 261.008 14.4032 260.176 14.4032C259.979 14.4047 259.786 14.3454 259.624 14.2335C259.462 14.1215 259.338 13.9623 259.269 13.7774C258.629 14.2338 257.861 14.4732 257.076 14.4606C254.649 14.4606 252.897 12.811 252.897 10.4035V6.43154C252.897 5.48419 253.071 4.76281 253.919 4.76281C254.505 4.76281 254.978 5.17999 254.978 5.93788L254.974 10.2714Z" fill="#8FD8E7"/>
<path d="M265.261 14.3839C264.675 14.3648 264.22 13.8903 264.22 13.228V2.14137C264.22 1.44607 264.617 0.966309 265.261 0.966309C265.828 0.966309 266.301 1.38349 266.301 2.14137V5.61789C267.111 5.01755 268.092 4.69234 269.099 4.68966C270.393 4.68966 271.633 5.20483 272.548 6.12183C273.462 7.03883 273.976 8.28255 273.976 9.57939C273.976 10.8762 273.462 12.1199 272.548 13.037C271.633 13.954 270.393 14.4691 269.099 14.4691C268.056 14.4706 267.041 14.1314 266.207 13.5026C266.032 14.118 265.654 14.3839 265.261 14.3839ZM269.097 6.76515C268.544 6.7648 268.003 6.92905 267.542 7.23712C267.082 7.54519 266.723 7.98324 266.511 8.49586C266.299 9.00847 266.243 9.57263 266.351 10.117C266.459 10.6613 266.725 11.1614 267.116 11.5539C267.508 11.9464 268.006 12.2138 268.549 12.3222C269.092 12.4306 269.655 12.3752 270.166 12.1629C270.678 11.9506 271.115 11.591 271.422 11.1296C271.73 10.6682 271.894 10.1257 271.894 9.5707C271.9 9.20044 271.832 8.83272 271.693 8.48946C271.555 8.1462 271.349 7.8344 271.087 7.57263C270.826 7.31086 270.515 7.10446 270.173 6.96574C269.83 6.82702 269.463 6.7588 269.094 6.76515H269.097Z" fill="#8FD8E7"/>
<path d="M276.863 2.74845C276.874 2.47404 276.989 2.21437 277.187 2.02361C277.384 1.83286 277.646 1.72574 277.92 1.72461C278.19 1.73261 278.448 1.84249 278.64 2.03228C278.833 2.22208 278.948 2.47783 278.961 2.74845C278.961 2.88655 278.933 3.0233 278.881 3.15089C278.828 3.27848 278.751 3.39442 278.653 3.49207C278.556 3.58973 278.44 3.66719 278.313 3.72004C278.186 3.77289 278.049 3.80009 277.912 3.80009C277.774 3.80009 277.638 3.77289 277.51 3.72004C277.383 3.66719 277.267 3.58973 277.17 3.49207C277.073 3.39442 276.995 3.27848 276.943 3.15089C276.89 3.0233 276.863 2.88655 276.863 2.74845ZM276.863 5.9312C276.863 5.19244 277.334 4.75614 277.92 4.75614C278.468 4.75614 278.961 5.19244 278.961 5.9312V13.2319C278.961 13.9707 278.468 14.3878 277.92 14.3878C277.334 14.3878 276.863 13.9707 276.863 13.2319V5.9312Z" fill="#8FD8E7"/>
<path d="M288.184 8.84962C288.173 8.29974 287.951 7.77536 287.563 7.38647C287.175 6.99758 286.652 6.77438 286.104 6.7637C285.027 6.7637 284.023 7.37036 284.023 8.75401V12.7346C284.023 13.6264 283.796 14.3842 283.002 14.3842C282.114 14.3842 281.981 13.7585 281.925 12.7155V6.36738C281.925 5.51563 282.114 4.71951 282.983 4.71951C283.179 4.72175 283.369 4.78227 283.531 4.89337C283.692 5.00448 283.817 5.16116 283.89 5.34354C284.532 4.89421 285.3 4.66218 286.083 4.68127C288.51 4.68127 290.261 6.31002 290.261 8.71751V12.7155C290.261 13.6837 290.07 14.3842 289.24 14.3842C288.654 14.3842 288.181 13.9671 288.181 13.2283L288.184 8.84962Z" fill="#8FD8E7"/>
<path d="M304.837 4.68138C305.801 4.68619 306.741 4.97732 307.541 5.51799C308.34 6.05865 308.961 6.82461 309.326 7.71911C309.691 8.61361 309.784 9.59653 309.592 10.5437C309.4 11.4909 308.933 12.3599 308.249 13.0409C307.565 13.7219 306.695 14.1843 305.748 14.3698C304.802 14.5554 303.823 14.4556 302.933 14.0832C302.044 13.7109 301.284 13.0825 300.751 12.2776C300.217 11.4726 299.933 10.5272 299.935 9.56068C299.934 8.91653 300.06 8.27846 300.306 7.68346C300.552 7.08846 300.913 6.54837 301.369 6.09451C301.825 5.64064 302.366 5.28202 302.962 5.03945C303.557 4.79687 304.194 4.67517 304.837 4.68138ZM304.837 12.3558C305.384 12.3513 305.917 12.1848 306.37 11.8771C306.823 11.5694 307.175 11.1343 307.382 10.6265C307.589 10.1188 307.641 9.56099 307.533 9.02337C307.424 8.48574 307.16 7.99226 306.772 7.60501C306.385 7.21775 305.892 6.95401 305.355 6.84695C304.819 6.73989 304.263 6.79429 303.757 7.00332C303.251 7.21234 302.818 7.56665 302.513 8.02169C302.207 8.47673 302.043 9.01217 302.04 9.56068C302.036 9.92958 302.106 10.2955 302.245 10.637C302.384 10.9785 302.59 11.2886 302.851 11.5491C303.111 11.8095 303.421 12.0151 303.762 12.1536C304.103 12.2922 304.469 12.3609 304.837 12.3558Z" fill="#8FD8E7"/>
<path d="M313.476 3.84725C313.476 2.02903 314.703 0.928711 316.234 0.928711H316.368C317.928 0.928711 318.968 2.1229 318.968 2.8999C318.965 3.12335 318.874 3.33661 318.715 3.49298C318.556 3.64936 318.341 3.73612 318.119 3.73426C317.344 3.69602 317.252 2.78691 316.473 2.74867H316.361C315.868 2.74867 315.567 3.07025 315.567 3.96545V4.91281H317.399C318.155 4.91281 318.705 5.1579 318.705 5.8984C318.705 6.52243 318.212 6.80751 317.399 6.80751H315.573V12.8636C315.573 13.7727 315.253 14.4176 314.533 14.4176C313.701 14.4176 313.476 13.7918 313.476 12.8636V6.80403H312.782C311.988 6.80403 311.366 6.5572 311.366 5.83756C311.366 5.15442 311.914 4.90933 312.782 4.90933H313.476V3.84725Z" fill="#8FD8E7"/>
</svg>
