<svg width="346" height="356" viewBox="0 0 346 356" fill="none" xmlns="http://www.w3.org/2000/svg">
<path d="M326 0H20C8.9543 0 0 8.9543 0 20V336C0 347.046 8.9543 356 20 356H326C337.046 356 346 347.046 346 336V20C346 8.9543 337.046 0 326 0Z" fill="url(#paint0_linear)"/>
<path d="M176.114 120.375C162.882 107.143 143.066 104.444 127.134 112.212L151.032 136.109C153.599 138.677 153.599 142.824 151.032 145.392L140.564 155.859C137.997 158.493 133.849 158.493 131.282 155.859L107.384 131.962C99.6819 147.959 102.381 167.644 115.614 180.876C127.859 193.121 145.765 196.347 160.973 190.619L213.376 243.023C220.157 249.804 231.085 249.804 237.8 243.023C244.581 236.242 244.581 225.314 237.8 218.599L185.66 166.393C191.717 150.988 188.557 132.818 176.114 120.375Z" fill="white"/>
<defs>
<linearGradient id="paint0_linear" x1="173" y1="0" x2="173" y2="356" gradientUnits="userSpaceOnUse">
<stop stop-color="#8FD8E7"/>
<stop offset="1" stop-color="#8FD8E7" stop-opacity="0"/>
</linearGradient>
</defs>
</svg>
