<svg width="341" height="84" viewBox="0 0 341 84" fill="none" xmlns="http://www.w3.org/2000/svg">
<path fill-rule="evenodd" clip-rule="evenodd" d="M34.55 7.13732V17.1348H16.92C13.695 17.1348 12.9425 17.6723 11.0075 19.7148C9.45949 21.3488 9.14419 23.9073 9.17999 24.9823V33.7973H3.37499V1.86982C3.37499 1.33232 3.09548 0.257324 1.97748 0.257324C0.859477 0.257324 0.866648 1.33232 1.00998 1.86982V56.4798C1.00998 58.1998 2.15665 58.9165 2.72998 59.0598H9.17999V80.3448C9.17999 82.7528 12.1183 83.9998 13.5875 84.3223H72.175C75.443 84.3223 76.3317 81.6706 76.3675 80.3448V59.0598C77.6217 59.0956 80.646 59.1458 82.71 59.0598C84.774 58.9738 84.9317 57.304 84.7525 56.4798V1.86982C84.645 1.33232 84.215 0.257324 83.355 0.257324C82.495 0.257324 82.1367 1.33232 82.065 1.86982V33.7973H76.3675V26.1648C76.3317 24.8748 75.83 21.7788 74.11 19.7148C72.39 17.6508 69.38 17.1348 68.09 17.1348H51.2125V7.13732C50.1375 4.84399 46.934 0.257324 42.72 0.257324C38.506 0.257324 35.5175 4.84399 34.55 7.13732ZM25.735 54.9748C32.7408 54.9748 38.42 49.2956 38.42 42.2898C38.42 35.284 32.7408 29.6048 25.735 29.6048C18.7292 29.6048 13.05 35.284 13.05 42.2898C13.05 49.2956 18.7292 54.9748 25.735 54.9748ZM25.735 50.9973C30.544 50.9973 34.4425 47.0988 34.4425 42.2898C34.4425 37.4808 30.544 33.5823 25.735 33.5823C20.926 33.5823 17.0275 37.4808 17.0275 42.2898C17.0275 47.0988 20.926 50.9973 25.735 50.9973ZM72.4975 42.2898C72.4975 49.2956 66.8183 54.9748 59.8125 54.9748C52.8067 54.9748 47.1275 49.2956 47.1275 42.2898C47.1275 35.284 52.8067 29.6048 59.8125 29.6048C66.8183 29.6048 72.4975 35.284 72.4975 42.2898ZM68.52 42.2898C68.52 47.0988 64.6215 50.9973 59.8125 50.9973C55.0035 50.9973 51.105 47.0988 51.105 42.2898C51.105 37.4808 55.0035 33.5823 59.8125 33.5823C64.6215 33.5823 68.52 37.4808 68.52 42.2898ZM37.4525 52.9323L42.8656 43.0423L48.4175 52.9323H37.4525ZM65.295 58.8448H19.93C18.554 58.8448 17.78 60.4215 17.565 61.2098V68.5198C17.565 72.9918 21.865 75.8298 25.735 75.8298H58.63C68.7613 75.8298 68.4878 68.3102 68.3365 64.1533V64.1529C68.3201 63.7007 68.305 63.2883 68.305 62.9298C68.305 60.0058 66.2983 58.9881 65.295 58.8448ZM30.7875 63.2523H37.6675V71.7448H30.7875V63.2523ZM46.375 63.2523H39.495V71.7448H46.375V63.2523ZM48.2025 63.2523H55.0825V71.7448H48.2025V63.2523ZM56.5875 63.1448V71.5298H60.0275C61.3175 71.7448 63.8975 71.2718 63.8975 67.6598C63.8975 64.0478 61.3175 63.1448 60.0275 63.1448H56.5875ZM29.39 71.6373V63.2523H25.95C24.66 63.2523 22.08 64.1553 22.08 67.7673C22.08 71.3793 24.66 71.8523 25.95 71.6373H29.39Z" fill="#8FD8E7"/>
<path d="M129.015 45.6147H127.536V50.0973H121.517V32.7368H128.833C131.514 32.7368 133.434 33.186 134.593 34.0842C135.752 34.9652 136.331 36.6149 136.331 39.0332C136.331 41.4343 135.69 43.1531 134.411 44.1895L136.123 50.0973H130L129.015 45.6147ZM128.989 40.873C129.837 40.873 130.26 40.3115 130.26 39.1887C130.26 38.0486 129.784 37.4785 128.833 37.4785H127.511V40.873H128.989Z" fill="#8FD8E7"/>
<path d="M143.301 41.4169C143.301 42.8852 143.44 43.9475 143.716 44.604C144.011 45.2431 144.607 45.5627 145.506 45.5627C146.423 45.5627 147.02 45.2431 147.296 44.604C147.573 43.9649 147.711 42.9025 147.711 41.4169C147.711 39.9141 147.573 38.8517 147.296 38.2298C147.037 37.5908 146.449 37.2712 145.532 37.2712C144.616 37.2712 144.011 37.5994 143.716 38.2557C143.44 38.8949 143.301 39.9487 143.301 41.4169ZM153.781 41.4169C153.781 44.5781 153.125 46.8755 151.81 48.3092C150.496 49.7258 148.395 50.434 145.506 50.434C142.635 50.434 140.534 49.7171 139.202 48.2833C137.888 46.8496 137.231 44.5608 137.231 41.4169C137.231 38.2557 137.888 35.967 139.202 34.5505C140.517 33.1168 142.618 32.3999 145.506 32.3999C148.395 32.3999 150.496 33.1168 151.81 34.5505C153.125 35.967 153.781 38.2557 153.781 41.4169Z" fill="#8FD8E7"/>
<path d="M155.038 32.7368H162.898C167.136 32.7368 169.255 34.1707 169.255 37.0381C169.255 38.1263 169.133 38.9642 168.892 39.5515C168.667 40.1388 168.191 40.6916 167.465 41.2097C168.312 41.5726 168.892 42.0217 169.202 42.5572C169.531 43.0754 169.696 43.9477 169.696 45.1741C169.696 48.4562 167.465 50.0973 163.003 50.0973H155.038V32.7368ZM162.458 43.2309H161.057V46.081H162.458C163.063 46.081 163.469 45.9861 163.677 45.796C163.884 45.5888 163.989 45.2173 163.989 44.6819C163.989 44.1291 163.876 43.749 163.651 43.5417C163.426 43.3345 163.029 43.2309 162.458 43.2309ZM162.38 36.7012H161.057V39.4737H162.406C162.924 39.4737 163.288 39.3615 163.495 39.1369C163.703 38.9124 163.807 38.5583 163.807 38.0745C163.807 37.5736 163.694 37.2195 163.469 37.0122C163.245 36.8049 162.881 36.7012 162.38 36.7012Z" fill="#8FD8E7"/>
<path d="M176.568 41.4169C176.568 42.8852 176.707 43.9475 176.983 44.604C177.278 45.2431 177.874 45.5627 178.774 45.5627C179.69 45.5627 180.287 45.2431 180.564 44.604C180.84 43.9649 180.979 42.9025 180.979 41.4169C180.979 39.9141 180.84 38.8517 180.564 38.2298C180.304 37.5908 179.716 37.2712 178.8 37.2712C177.883 37.2712 177.278 37.5994 176.983 38.2557C176.707 38.8949 176.568 39.9487 176.568 41.4169ZM187.049 41.4169C187.049 44.5781 186.393 46.8755 185.078 48.3092C183.763 49.7258 181.662 50.434 178.774 50.434C175.903 50.434 173.801 49.7171 172.469 48.2833C171.156 46.8496 170.498 44.5608 170.498 41.4169C170.498 38.2557 171.156 35.967 172.469 34.5505C173.784 33.1168 175.886 32.3999 178.774 32.3999C181.662 32.3999 183.763 33.1168 185.078 34.5505C186.393 35.967 187.049 38.2557 187.049 41.4169Z" fill="#8FD8E7"/>
<path d="M187.457 37.6341V32.7368H200.428V37.6341H197.056V50.0973H191.037V37.6341H187.457Z" fill="#8FD8E7"/>
<path d="M232.676 32.7368L229.277 50.0973H220.405L216.876 32.7368H223.258L224.607 44.0341H225.074L226.293 32.7368H232.676Z" fill="#8FD8E7"/>
<path d="M233.406 50.0973V32.7368H246.429V37.5305H239.424V39.0073H244.873V43.749H239.424V45.3037H246.429V50.0973H233.406Z" fill="#8FD8E7"/>
<path d="M247.708 50.0973V32.7368H253.623L257.619 39.3183H257.982V32.7368H264V50.0973H258.06L254.117 43.0236H253.727V50.0973H247.708Z" fill="#8FD8E7"/>
<path d="M265.089 37.6341V32.7368H278.061V37.6341H274.688V50.0973H268.67V37.6341H265.089Z" fill="#8FD8E7"/>
<path d="M285.067 32.7368V44.1118C285.067 44.6128 285.187 44.9669 285.43 45.1741C285.689 45.3815 286.113 45.4851 286.701 45.4851C287.289 45.4851 287.704 45.3815 287.947 45.1741C288.189 44.9669 288.309 44.6128 288.309 44.1118V32.7368H294.328V43.7749C294.328 46.2279 293.714 47.9553 292.487 48.9572C291.259 49.9418 289.322 50.4341 286.675 50.4341C284.047 50.4341 282.118 49.9505 280.89 48.9831C279.662 48.0158 279.048 46.3143 279.048 43.8787V32.7368H285.067Z" fill="#8FD8E7"/>
<path d="M303.333 45.6147H301.855V50.0973H295.836V32.7368H303.152C305.833 32.7368 307.753 33.186 308.911 34.0842C310.07 34.9652 310.65 36.6149 310.65 39.0332C310.65 41.4343 310.009 43.1531 308.73 44.1895L310.442 50.0973H304.319L303.333 45.6147ZM303.307 40.873C304.155 40.873 304.579 40.3115 304.579 39.1887C304.579 38.0486 304.103 37.4785 303.152 37.4785H301.829V40.873H303.307Z" fill="#8FD8E7"/>
<path d="M311.913 50.0973V32.7368H324.935V37.5305H317.931V39.0073H323.379V43.749H317.931V45.3037H324.935V50.0973H311.913Z" fill="#8FD8E7"/>
<path d="M339.446 37.7376C337.008 37.4784 335.235 37.3489 334.128 37.3489C333.021 37.3489 332.372 37.3835 332.182 37.4525C332.009 37.5044 331.923 37.6253 331.923 37.8153C331.923 38.0053 332.026 38.1521 332.234 38.2557C332.441 38.3595 333.091 38.5321 334.179 38.774C335.287 39.0159 336.187 39.2576 336.878 39.4995C337.587 39.7241 338.218 40.0523 338.772 40.4841C339.343 40.8987 339.715 41.4169 339.888 42.0388C340.078 42.6434 340.173 43.4639 340.173 44.5003C340.173 46.6424 339.602 48.1711 338.46 49.0866C337.318 50.0022 335.598 50.4599 333.298 50.4599C332.191 50.4599 331.023 50.3822 329.796 50.2267C328.585 50.0713 327.651 49.9157 326.994 49.7603L325.982 49.5271L326.242 44.9409C328.887 45.3209 331.058 45.5109 332.753 45.5109C333.653 45.5109 334.102 45.3123 334.102 44.9149C334.102 44.7422 333.998 44.6213 333.79 44.5521C333.583 44.4658 333.021 44.3536 332.105 44.2153C329.683 43.8353 328.032 43.2479 327.149 42.4534C326.285 41.6415 325.853 40.3201 325.853 38.489C325.853 36.157 326.415 34.5591 327.538 33.6955C328.663 32.8317 330.392 32.3999 332.727 32.3999C334.37 32.3999 336.298 32.5641 338.513 32.8923L339.602 33.0736L339.446 37.7376Z" fill="#8FD8E7"/>
</svg>
