<svg width="250" height="54" viewBox="0 0 250 54" fill="none" xmlns="http://www.w3.org/2000/svg">
<path d="M239.5 0.5H10.5C4.97715 0.5 0.5 4.97715 0.5 10.5V43.5C0.5 49.0228 4.97715 53.5 10.5 53.5H239.5C245.023 53.5 249.5 49.0228 249.5 43.5V10.5C249.5 4.97715 245.023 0.5 239.5 0.5Z" fill="#1C2328" stroke="#8FD8E7"/>
<path d="M53.6855 12.5312H58.2778V13.6694H55.0303V15.1592H57.8735V16.2842H55.0303V19H53.6855V12.5312ZM63.9775 13.6694H60.5498V15.0449H63.6963V16.1699H60.5498V17.8354H64.1357V19H59.2271V12.5225H63.9775V13.6694ZM66.9614 16.5522H68.605L67.7964 14.0034L66.9614 16.5522ZM67.0449 12.5225H68.5742L70.8682 19H69.4004L68.9829 17.6685H66.5967L66.1484 19H64.7334L67.0449 12.5225ZM75.7329 12.5225V13.6694H73.7949V19H72.4326V13.6694H70.4858V12.5225H75.7329ZM76.5283 12.5225H77.9038V16.5039C77.9038 16.9492 77.9565 17.2744 78.062 17.4795C78.2261 17.8428 78.5835 18.0244 79.1343 18.0244C79.6821 18.0244 80.0381 17.8428 80.2021 17.4795C80.3076 17.2744 80.3604 16.9492 80.3604 16.5039V12.5225H81.7358V16.5039C81.7358 17.1924 81.6289 17.7285 81.415 18.1123C81.0166 18.8154 80.2563 19.167 79.1343 19.167C78.0122 19.167 77.2505 18.8154 76.8491 18.1123C76.6353 17.7285 76.5283 17.1924 76.5283 16.5039V12.5225ZM84.3857 13.6475V15.3877H85.9194C86.2241 15.3877 86.4526 15.3525 86.605 15.2822C86.8745 15.1592 87.0093 14.916 87.0093 14.5527C87.0093 14.1602 86.8789 13.8965 86.6182 13.7617C86.4717 13.6855 86.252 13.6475 85.959 13.6475H84.3857ZM86.2402 12.5225C86.6943 12.5312 87.043 12.5869 87.2861 12.6895C87.5322 12.792 87.7402 12.9429 87.9102 13.1421C88.0508 13.3062 88.1621 13.4878 88.2441 13.687C88.3262 13.8862 88.3672 14.1133 88.3672 14.3682C88.3672 14.6758 88.2896 14.979 88.1343 15.2778C87.979 15.5737 87.7227 15.7832 87.3652 15.9062C87.6641 16.0264 87.875 16.1978 87.998 16.4204C88.124 16.6401 88.187 16.9771 88.187 17.4312V17.8662C88.187 18.1621 88.1987 18.3628 88.2222 18.4683C88.2573 18.6353 88.3394 18.7583 88.4683 18.8374V19H86.9785C86.9375 18.8564 86.9082 18.7407 86.8906 18.6528C86.8555 18.4712 86.8364 18.2852 86.8335 18.0947L86.8247 17.4927C86.8188 17.0796 86.7427 16.8042 86.5962 16.6665C86.4526 16.5288 86.1816 16.46 85.7832 16.46H84.3857V19H83.063V12.5225H86.2402ZM94.3262 13.6694H90.8984V15.0449H94.0449V16.1699H90.8984V17.8354H94.4844V19H89.5757V12.5225H94.3262V13.6694ZM96.853 13.6475V17.875H98.1011C98.7397 17.875 99.1851 17.5601 99.437 16.9302C99.5747 16.5845 99.6436 16.1729 99.6436 15.6953C99.6436 15.0361 99.5396 14.5308 99.3315 14.1792C99.1265 13.8247 98.7163 13.6475 98.1011 13.6475H96.853ZM98.3296 12.5225C98.731 12.5283 99.0649 12.5752 99.3315 12.6631C99.7856 12.8125 100.153 13.0864 100.435 13.4849C100.66 13.8071 100.814 14.1558 100.896 14.5308C100.978 14.9058 101.019 15.2632 101.019 15.603C101.019 16.4644 100.846 17.1938 100.5 17.7915C100.032 18.5972 99.3081 19 98.3296 19H95.5391V12.5225H98.3296ZM107.413 18.0332C107.949 18.0332 108.374 17.8354 108.688 17.4399C109.004 17.0444 109.162 16.4819 109.162 15.7524C109.162 15.0259 109.004 14.4648 108.688 14.0693C108.374 13.6709 107.949 13.4717 107.413 13.4717C106.877 13.4717 106.449 13.6694 106.13 14.0649C105.811 14.4604 105.651 15.0229 105.651 15.7524C105.651 16.4819 105.811 17.0444 106.13 17.4399C106.449 17.8354 106.877 18.0332 107.413 18.0332ZM110.516 15.7524C110.516 16.9155 110.189 17.8062 109.536 18.4243C109.046 18.9282 108.339 19.1802 107.413 19.1802C106.487 19.1802 105.78 18.9282 105.291 18.4243C104.634 17.8062 104.306 16.9155 104.306 15.7524C104.306 14.5659 104.634 13.6753 105.291 13.0806C105.78 12.5767 106.487 12.3247 107.413 12.3247C108.339 12.3247 109.046 12.5767 109.536 13.0806C110.189 13.6753 110.516 14.5659 110.516 15.7524ZM111.531 12.5225H112.95L115.53 17.0444V12.5225H116.791V19H115.438L112.792 14.3989V19H111.531V12.5225Z" fill="#8FD8E7"/>
<path d="M62.1104 27.6948C62.1104 26.9087 61.9019 26.3481 61.4849 26.0132C61.0747 25.6782 60.4971 25.5107 59.752 25.5107H56.8091V29.9609H59.752C60.4971 29.9609 61.0747 29.7798 61.4849 29.4175C61.9019 29.0552 62.1104 28.481 62.1104 27.6948ZM65.2378 27.6743C65.2378 29.4585 64.7866 30.7197 63.8843 31.458C62.9819 32.1963 61.6934 32.5654 60.0186 32.5654H56.8091V38H53.6714V22.8857H60.2544C61.772 22.8857 62.9819 23.2754 63.8843 24.0547C64.7866 24.834 65.2378 26.0405 65.2378 27.6743ZM73.4409 26.5566C73.4956 26.5566 73.54 26.5601 73.5742 26.5669C73.6152 26.5669 73.7007 26.5703 73.8306 26.5771V29.5713C73.646 29.5508 73.4819 29.5371 73.3384 29.5303C73.1948 29.5234 73.0786 29.52 72.9897 29.52C71.814 29.52 71.0244 29.9028 70.6211 30.6685C70.3955 31.0991 70.2827 31.7622 70.2827 32.6577V38H67.3398V26.8232H70.1289V28.7715C70.5801 28.0264 70.9731 27.5171 71.3081 27.2437C71.855 26.7856 72.5659 26.5566 73.4409 26.5566ZM80.5674 35.939C81.4219 35.939 82.0781 35.6348 82.5361 35.0264C82.9941 34.418 83.2231 33.5532 83.2231 32.4321C83.2231 31.311 82.9941 30.4497 82.5361 29.8481C82.0781 29.2397 81.4219 28.9355 80.5674 28.9355C79.7129 28.9355 79.0532 29.2397 78.5884 29.8481C78.1304 30.4497 77.9014 31.311 77.9014 32.4321C77.9014 33.5532 78.1304 34.418 78.5884 35.0264C79.0532 35.6348 79.7129 35.939 80.5674 35.939ZM86.2891 32.4321C86.2891 34.0728 85.8174 35.4775 84.874 36.6465C83.9307 37.8086 82.4985 38.3896 80.5776 38.3896C78.6567 38.3896 77.2246 37.8086 76.2812 36.6465C75.3379 35.4775 74.8662 34.0728 74.8662 32.4321C74.8662 30.8188 75.3379 29.4209 76.2812 28.2383C77.2246 27.0557 78.6567 26.4644 80.5776 26.4644C82.4985 26.4644 83.9307 27.0557 84.874 28.2383C85.8174 29.4209 86.2891 30.8188 86.2891 32.4321ZM92.5132 26.5566C93.1899 26.5566 93.7915 26.707 94.3179 27.0078C94.8442 27.3018 95.2715 27.7119 95.5996 28.2383V22.9062H98.563V38H95.7227V36.4517C95.3057 37.1147 94.8306 37.5967 94.2974 37.8975C93.7642 38.1982 93.1011 38.3486 92.3081 38.3486C91.0024 38.3486 89.9019 37.8223 89.0063 36.7695C88.1177 35.71 87.6733 34.353 87.6733 32.6987C87.6733 30.7915 88.1108 29.291 88.9858 28.1973C89.8677 27.1035 91.0435 26.5566 92.5132 26.5566ZM93.1489 35.8877C93.9761 35.8877 94.605 35.5801 95.0356 34.9648C95.4663 34.3496 95.6816 33.5532 95.6816 32.5757C95.6816 31.2085 95.3364 30.231 94.646 29.6431C94.2222 29.2876 93.73 29.1099 93.1694 29.1099C92.3149 29.1099 91.686 29.4346 91.2827 30.084C90.8862 30.7266 90.688 31.5264 90.688 32.4834C90.688 33.5156 90.8896 34.3428 91.293 34.9648C91.7031 35.5801 92.3218 35.8877 93.1489 35.8877ZM104.141 26.8232V33.5601C104.141 34.1958 104.216 34.6743 104.367 34.9956C104.633 35.563 105.156 35.8467 105.936 35.8467C106.934 35.8467 107.617 35.4434 107.986 34.6367C108.178 34.1992 108.273 33.6216 108.273 32.9038V26.8232H111.237V38H108.396V36.4209C108.369 36.4551 108.301 36.5576 108.191 36.7285C108.082 36.8994 107.952 37.0498 107.802 37.1797C107.344 37.5898 106.899 37.8701 106.469 38.0205C106.045 38.1709 105.546 38.2461 104.972 38.2461C103.317 38.2461 102.203 37.6514 101.629 36.4619C101.308 35.8057 101.147 34.8384 101.147 33.5601V26.8232H104.141ZM120.742 30.8325C120.688 30.4155 120.547 30.0396 120.322 29.7046C119.994 29.2534 119.484 29.0278 118.794 29.0278C117.81 29.0278 117.136 29.5166 116.774 30.4941C116.583 31.0137 116.487 31.7041 116.487 32.5654C116.487 33.3857 116.583 34.0454 116.774 34.5444C117.123 35.4741 117.779 35.939 118.743 35.939C119.426 35.939 119.912 35.7544 120.199 35.3853C120.486 35.0161 120.66 34.5376 120.722 33.9497H123.706C123.637 34.8384 123.316 35.6792 122.742 36.4722C121.826 37.7505 120.469 38.3896 118.671 38.3896C116.873 38.3896 115.55 37.8564 114.703 36.79C113.855 35.7236 113.431 34.3394 113.431 32.6372C113.431 30.7163 113.899 29.2227 114.836 28.1562C115.772 27.0898 117.064 26.5566 118.712 26.5566C120.113 26.5566 121.258 26.8711 122.147 27.5C123.042 28.1289 123.572 29.2397 123.736 30.8325H120.742ZM124.608 29.0073V26.9258H126.167V23.8086H129.058V26.9258H130.873V29.0073H129.058V34.9136C129.058 35.3716 129.116 35.6587 129.232 35.7749C129.349 35.8843 129.704 35.939 130.299 35.939C130.388 35.939 130.48 35.939 130.576 35.939C130.678 35.9321 130.777 35.9253 130.873 35.9185V38.1025L129.489 38.1538C128.108 38.2017 127.165 37.9624 126.659 37.436C126.331 37.1011 126.167 36.585 126.167 35.8877V29.0073H124.608ZM138.81 38V22.8857H141.937V28.6484H147.843V22.8857H150.981V38H147.843V31.2529H141.937V38H138.81ZM156.682 26.8232V33.5601C156.682 34.1958 156.757 34.6743 156.908 34.9956C157.174 35.563 157.697 35.8467 158.477 35.8467C159.475 35.8467 160.158 35.4434 160.527 34.6367C160.719 34.1992 160.814 33.6216 160.814 32.9038V26.8232H163.778V38H160.938V36.4209C160.91 36.4551 160.842 36.5576 160.732 36.7285C160.623 36.8994 160.493 37.0498 160.343 37.1797C159.885 37.5898 159.44 37.8701 159.01 38.0205C158.586 38.1709 158.087 38.2461 157.513 38.2461C155.858 38.2461 154.744 37.6514 154.17 36.4619C153.849 35.8057 153.688 34.8384 153.688 33.5601V26.8232H156.682ZM172.801 26.5566C173.957 26.5566 174.9 26.8608 175.631 27.4692C176.37 28.0708 176.739 29.0723 176.739 30.4736V38H173.745V31.2017C173.745 30.6138 173.666 30.1626 173.509 29.8481C173.222 29.2739 172.675 28.9868 171.868 28.9868C170.877 28.9868 170.197 29.4072 169.828 30.248C169.636 30.6924 169.541 31.2598 169.541 31.9502V38H166.628V26.8438H169.448V28.4741C169.824 27.8999 170.18 27.4863 170.515 27.2334C171.116 26.7822 171.878 26.5566 172.801 26.5566ZM178.297 29.0073V26.9258H179.856V23.8086H182.748V26.9258H184.562V29.0073H182.748V34.9136C182.748 35.3716 182.806 35.6587 182.922 35.7749C183.038 35.8843 183.394 35.939 183.988 35.939C184.077 35.939 184.169 35.939 184.265 35.939C184.368 35.9321 184.467 35.9253 184.562 35.9185V38.1025L183.178 38.1538C181.797 38.2017 180.854 37.9624 180.348 37.436C180.02 37.1011 179.856 36.585 179.856 35.8877V29.0073H178.297Z" fill="#8FD8E7"/>
<path fill-rule="evenodd" clip-rule="evenodd" d="M227.003 23H216L221.501 13L227.003 23Z" fill="#8FD8E7"/>
<path d="M213.806 39C213.823 38.3398 213.965 37.7368 214.232 37.1909C214.49 36.5773 215.099 35.9277 216.06 35.2422C216.893 34.6455 217.433 34.2181 217.678 33.96C218.055 33.5579 218.243 33.1178 218.243 32.6396C218.243 32.2503 218.135 31.9266 217.92 31.6685C217.704 31.4103 217.395 31.2812 216.993 31.2812C216.443 31.2812 216.068 31.4865 215.869 31.897C215.755 32.134 215.687 32.5106 215.666 33.0269H213.908C213.937 32.244 214.079 31.6113 214.333 31.1289C214.816 30.2106 215.672 29.7515 216.904 29.7515C217.877 29.7515 218.652 30.0223 219.227 30.564C219.803 31.1014 220.09 31.8145 220.09 32.7031C220.09 33.3844 219.887 33.9896 219.481 34.5186C219.214 34.8698 218.776 35.2612 218.167 35.6929L217.443 36.207C216.991 36.5286 216.68 36.7614 216.51 36.9053C216.345 37.0492 216.206 37.2163 216.091 37.4067H220.109V39H213.806ZM222.858 36.3276C222.858 36.7804 222.974 37.1317 223.207 37.3813C223.444 37.631 223.77 37.7559 224.185 37.7559C224.599 37.7559 224.923 37.631 225.156 37.3813C225.393 37.1317 225.511 36.7804 225.511 36.3276C225.511 35.8579 225.391 35.5024 225.15 35.2612C224.913 35.0158 224.591 34.8931 224.185 34.8931C223.778 34.8931 223.455 35.0158 223.214 35.2612C222.977 35.5024 222.858 35.8579 222.858 36.3276ZM220.979 36.4482C220.979 35.932 221.095 35.4644 221.328 35.0454C221.565 34.6265 221.91 34.3112 222.363 34.0996C221.919 33.8034 221.629 33.4839 221.493 33.1411C221.362 32.7941 221.297 32.4704 221.297 32.1699C221.297 31.5013 221.548 30.9321 222.052 30.4624C222.555 29.9884 223.266 29.7515 224.185 29.7515C225.103 29.7515 225.814 29.9884 226.318 30.4624C226.821 30.9321 227.073 31.5013 227.073 32.1699C227.073 32.4704 227.005 32.7941 226.87 33.1411C226.739 33.4839 226.451 33.7822 226.006 34.0361C226.459 34.29 226.8 34.6265 227.028 35.0454C227.257 35.4644 227.371 35.932 227.371 36.4482C227.371 37.2227 227.083 37.8828 226.508 38.4287C225.937 38.9704 225.137 39.2412 224.109 39.2412C223.08 39.2412 222.302 38.9704 221.773 38.4287C221.244 37.8828 220.979 37.2227 220.979 36.4482ZM223.023 32.373C223.023 32.7074 223.125 32.9803 223.328 33.1919C223.535 33.4035 223.821 33.5093 224.185 33.5093C224.553 33.5093 224.836 33.4035 225.035 33.1919C225.238 32.9803 225.34 32.7074 225.34 32.373C225.34 32.0091 225.238 31.7256 225.035 31.5225C224.836 31.3151 224.553 31.2114 224.185 31.2114C223.821 31.2114 223.535 31.3151 223.328 31.5225C223.125 31.7256 223.023 32.0091 223.023 32.373Z" fill="#8FD8E7"/>
<path fill-rule="evenodd" clip-rule="evenodd" d="M42 27.5C42 36.0604 35.0604 43 26.5 43C17.9396 43 11 36.0604 11 27.5C11 18.9396 17.9396 12 26.5 12C35.0604 12 42 18.9396 42 27.5Z" fill="#8FD8E7"/>
<path fill-rule="evenodd" clip-rule="evenodd" d="M28.4329 27.9561V27.9562H24.0929V23.3062H28.4329V23.3061C29.7019 23.3061 30.7306 24.347 30.7306 25.6311C30.7306 26.9151 29.7019 27.9561 28.4329 27.9561ZM28.4329 20.2061V20.2062L21.0294 20.2061V35.7061H24.0929V31.0562H28.4329V31.0561C31.3938 31.0561 33.7941 28.6272 33.7941 25.6311C33.7941 22.6349 31.3938 20.2061 28.4329 20.2061Z" fill="#1C2328"/>
</svg>
