<svg width="160" height="49" viewBox="0 0 160 49" fill="none" xmlns="http://www.w3.org/2000/svg">
<path d="M145.147 17.7939C144.889 17.7939 144.627 17.8147 144.356 17.8607C144.235 17.8774 144.118 17.8983 144.006 17.9276C143.893 17.9568 143.835 18.0112 143.835 18.0864V31.9085C143.835 32.0297 143.797 32.13 143.722 32.2055C143.647 32.2806 143.547 32.3181 143.426 32.3181H143.043C142.906 32.3181 142.802 32.2638 142.726 32.1594L133.089 18.9098V30.9555C133.089 31.0309 133.147 31.0811 133.272 31.1019C133.393 31.1228 133.514 31.1521 133.634 31.1814C133.893 31.2105 134.155 31.2316 134.426 31.2398C134.697 31.2483 134.964 31.2524 135.218 31.2524V32.3225C134.31 32.2765 133.405 32.2556 132.497 32.2556C131.576 32.2556 130.659 32.2765 129.755 32.3225V31.2524C130.026 31.2524 130.301 31.2483 130.572 31.2398C130.843 31.2316 131.11 31.2149 131.364 31.1814C131.485 31.1521 131.601 31.1228 131.714 31.1019C131.826 31.0811 131.885 31.0309 131.885 30.9555V17.7939H129.755V16.728H134.81C134.96 16.728 135.068 16.7824 135.126 16.8869L142.626 27.2274V18.0906C142.626 18.0154 142.568 17.961 142.456 17.9318C142.343 17.9025 142.227 17.8774 142.106 17.8649C141.835 17.8189 141.56 17.798 141.289 17.798C141.018 17.798 140.751 17.798 140.497 17.798V16.728C141.405 16.774 142.31 16.7949 143.218 16.7949C144.139 16.7949 145.056 16.774 145.96 16.728V17.798C145.689 17.7939 145.418 17.7939 145.147 17.7939Z" fill="white"/>
<path d="M124.536 32.2512C123.245 32.2512 121.957 32.2724 120.674 32.3181V31.2483H122.916V17.7939H120.674V16.728C121.957 16.774 123.245 16.7949 124.536 16.7949C125.828 16.7949 127.107 16.774 128.378 16.728V17.798H126.136V31.2566H128.378V32.3266C127.107 32.2765 125.828 32.2512 124.536 32.2512Z" fill="white"/>
<path d="M115.925 32.2511H115.904C114.666 32.2511 113.425 32.2722 112.187 32.318V31.2482H114.066L112.979 28.1802H108.016L107.041 30.9554C107.012 31.0182 107.058 31.0558 107.179 31.081C107.299 31.1018 107.42 31.1312 107.541 31.1602C107.753 31.1895 107.962 31.2148 108.174 31.2271C108.387 31.2438 108.595 31.2482 108.808 31.2482V32.318C108.008 32.2722 107.208 32.2511 106.408 32.2511H106.091H106.07C105.299 32.2511 104.529 32.2722 103.758 32.318V31.2482C104.016 31.2482 104.258 31.2482 104.483 31.2482C104.724 31.2482 104.974 31.2271 105.229 31.1813C105.333 31.1646 105.445 31.1435 105.558 31.1144C105.67 31.0851 105.741 31.0308 105.774 30.9554L110.716 16.8408C110.762 16.7195 110.837 16.6192 110.941 16.544C111.045 16.4688 111.166 16.4312 111.304 16.4312H111.712C111.833 16.4312 111.945 16.4688 112.054 16.544C112.158 16.6192 112.237 16.7195 112.278 16.8408L117.333 31.2523H119.237V32.3224C118.145 32.2764 117.045 32.2511 115.925 32.2511ZM110.508 21.0915L108.399 27.1144H112.616L110.508 21.0915Z" fill="white"/>
<path d="M98.4594 32.2512C97.2051 32.2512 95.9593 32.2724 94.7218 32.3181V31.2483H96.8509V24.7488H91.3428V31.2483H93.4719V32.3181C92.2176 32.2724 90.9718 32.2512 89.7343 32.2512C88.48 32.2512 87.2342 32.2724 85.9966 32.3181V31.2483H88.1258V17.7939H85.9966V16.728C87.2342 16.774 88.48 16.7949 89.7343 16.7949C90.9718 16.7949 92.2176 16.774 93.4719 16.728V17.798H91.3428V23.6872H96.8509V17.7939H94.7218V16.728C95.9593 16.774 97.2051 16.7949 98.4594 16.7949C99.697 16.7949 100.943 16.774 102.197 16.728V17.798H100.068V31.2566H102.197V32.3266C100.943 32.2765 99.697 32.2512 98.4594 32.2512Z" fill="white"/>
<path d="M83.8707 29.1957C83.5624 29.8687 83.1456 30.4579 82.625 30.9553C82.104 31.457 81.4915 31.8499 80.7874 32.1383C80.0831 32.4267 79.3416 32.5687 78.5539 32.5687C77.4833 32.5687 76.4373 32.3933 75.4165 32.0462C74.3956 31.6994 73.4997 31.1351 72.733 30.3661C71.9456 29.5929 71.379 28.6942 71.033 27.6743C70.6872 26.6503 70.5123 25.6012 70.5123 24.527C70.5123 23.4529 70.6872 22.4038 71.033 21.3797C71.379 20.3557 71.9456 19.4571 72.733 18.688C73.5041 17.9148 74.3997 17.3547 75.4165 17.0078C76.4373 16.6609 77.4833 16.4854 78.5539 16.4854C79.2623 16.4854 79.9208 16.6107 80.5248 16.8615C81.1291 17.1123 81.6749 17.455 82.1581 17.8939L83.6332 16.5522C83.6917 16.5062 83.7625 16.4854 83.8374 16.4854H84.0208C84.2332 16.4854 84.3376 16.5898 84.3376 16.803V22.3285C84.3376 22.4038 84.3083 22.4748 84.2457 22.5459C84.1831 22.6128 84.1083 22.6462 84.0208 22.6462H83.4542C83.2708 22.6462 83.1667 22.5459 83.1374 22.3494C83.0748 21.7141 82.9333 21.1039 82.7083 20.5187C82.4834 19.9336 82.1874 19.4236 81.825 18.9848C81.4623 18.5459 81.0373 18.199 80.554 17.9399C80.0708 17.6807 79.5417 17.5553 78.9666 17.5553C78.1956 17.5553 77.4666 17.7058 76.779 18.0109C76.0916 18.316 75.5291 18.7675 75.0915 19.3735C74.579 20.084 74.2622 20.8865 74.1496 21.7726C74.0373 22.6587 73.9788 23.5783 73.9788 24.5354C73.9788 25.0035 73.9914 25.4717 74.0122 25.9314C74.0332 26.3954 74.0832 26.8426 74.1581 27.2856C74.233 27.7245 74.3456 28.1508 74.4998 28.5604C74.6498 28.97 74.854 29.3503 75.1123 29.6974C75.5499 30.3033 76.1123 30.759 76.7997 31.06C77.4874 31.3649 78.2166 31.5154 78.9874 31.5154C79.575 31.5154 80.1331 31.3983 80.6541 31.1645C81.175 30.9303 81.629 30.6084 82.0125 30.1988C82.3956 29.7892 82.7042 29.3128 82.9292 28.7652C83.1541 28.2177 83.2708 27.6367 83.2708 27.014C83.2708 26.8175 83.3709 26.7172 83.5665 26.7172H84.0208C84.2332 26.7172 84.3376 26.8175 84.3376 27.014C84.3332 27.7872 84.179 28.5186 83.8707 29.1957Z" fill="white"/>
<path d="M70.5278 17.8064C70.2862 17.8147 70.0446 17.8315 69.803 17.8649C69.6819 17.8942 69.5611 17.9234 69.4403 17.9443C69.3195 17.9652 69.2361 18.0154 69.1902 18.0906L64.6362 26.0905V31.2524H66.7654V32.3225C65.5403 32.2765 64.3194 32.2556 63.0944 32.2556C61.8694 32.2556 60.6485 32.2765 59.4235 32.3225V31.2524H61.5526V26.0905L56.8193 17.7939H54.9151V16.728C56.0193 16.774 57.1194 16.7949 58.2236 16.7949H58.2444C59.5276 16.7949 60.807 16.774 62.0736 16.728V17.798H60.3735L64.182 24.4562L67.807 18.0906C67.8362 18.0321 67.807 17.9903 67.7154 17.9652C67.6236 17.9443 67.5279 17.9151 67.4194 17.8858C67.2237 17.8566 67.0321 17.8315 66.8402 17.8189C66.6527 17.8022 66.4652 17.798 66.2862 17.798V16.728C67.1945 16.774 68.0986 16.7949 69.0071 16.7949H69.0279C69.7697 16.7949 70.5153 16.774 71.2696 16.728V17.798C71.0195 17.7939 70.7695 17.798 70.5278 17.8064Z" fill="white"/>
<path d="M55.8584 32.3181H44.6874V31.2483H46.8165V17.7939H44.6874V16.728C45.925 16.774 47.1707 16.7949 48.425 16.7949C49.8457 16.7949 51.2708 16.774 52.7084 16.728V17.798H50.0332V31.2566H51.6665C52.179 31.2566 52.6584 31.148 53.1042 30.9265C53.55 30.7049 53.9375 30.3998 54.2707 30.0069C54.7083 29.4761 54.9999 28.8658 55.1418 28.1762C55.2833 27.4865 55.396 26.7927 55.4708 26.0947H56.5376L55.8584 32.3181Z" fill="white"/>
<path d="M42.8814 27.7162C42.5772 28.7235 42.0733 29.622 41.3648 30.4078C40.6856 31.1352 39.8897 31.6786 38.973 32.0339C38.0607 32.3889 37.1021 32.5688 36.1065 32.5688C35.1105 32.5688 34.1522 32.3889 33.2396 32.0339C32.3273 31.6786 31.527 31.1352 30.8481 30.4078C30.1397 29.622 29.6313 28.7235 29.3312 27.7162C29.0271 26.7089 28.8771 25.6723 28.8771 24.6149C28.8771 23.524 29.0229 22.4665 29.3189 21.4425C29.6146 20.4185 30.123 19.5073 30.8481 18.7048C31.527 17.9483 32.3229 17.3882 33.2396 17.0246C34.1522 16.661 35.1105 16.4771 36.1065 16.4771C37.1021 16.4771 38.0607 16.6568 38.973 17.0246C39.8856 17.3882 40.6856 17.9483 41.3648 18.7048C42.0899 19.5073 42.598 20.4227 42.894 21.4425C43.1897 22.4665 43.3357 23.524 43.3357 24.6149C43.3357 25.6765 43.1816 26.7089 42.8814 27.7162ZM39.7522 21.6222C39.6774 20.7779 39.4273 19.9671 39.0063 19.198C38.7021 18.6714 38.2982 18.2367 37.7939 17.8939C37.2855 17.5554 36.7231 17.384 36.1065 17.384C35.4855 17.384 34.923 17.5554 34.4187 17.8939C33.9106 18.2325 33.5105 18.6672 33.2063 19.198C32.7813 19.9671 32.5356 20.7779 32.4604 21.6222C32.3814 22.4707 32.3437 23.3233 32.3437 24.1844C32.3437 25.1206 32.3814 26.0485 32.4563 26.9722C32.5315 27.8917 32.7813 28.7695 33.2022 29.6012C33.5023 30.174 33.9062 30.6461 34.4023 31.0181C34.9022 31.3902 35.4688 31.5741 36.1021 31.5741C36.7356 31.5741 37.3022 31.3902 37.8021 31.0181C38.3023 30.6461 38.7021 30.1781 39.0023 29.6012C39.4232 28.7695 39.673 27.8959 39.7481 26.9722C39.823 26.0527 39.8605 25.1206 39.8605 24.1844C39.8648 23.3233 39.8274 22.4707 39.7522 21.6222Z" fill="white"/>
<path d="M27.1029 22.8972C26.8529 23.449 26.4946 23.9171 26.0279 24.2932C25.4821 24.7321 24.8737 25.0414 24.2029 25.2128C23.532 25.3883 22.8487 25.4761 22.1528 25.4761H19.3903V31.2483H21.5195V32.3181C20.2653 32.2724 19.0195 32.2512 17.7819 32.2512C16.5278 32.2512 15.2819 32.2724 14.0444 32.3181V31.2483H16.1736V17.7939H14.0402V16.728H22.1528C22.8487 16.728 23.532 16.82 24.2029 16.9997C24.8737 17.1836 25.4821 17.4929 26.0279 17.9318C26.5112 18.3247 26.8737 18.8053 27.1154 19.3654C27.3571 19.9255 27.4779 20.5232 27.4779 21.1627C27.4779 21.7646 27.3529 22.3455 27.1029 22.8972ZM23.9987 20.4354C23.9904 20.193 23.9779 19.9589 23.9529 19.7249C23.9321 19.4908 23.8904 19.2776 23.8404 19.0812C23.7862 18.8847 23.707 18.7259 23.6029 18.6047C23.332 18.2745 22.982 18.0572 22.5612 17.9485C22.1362 17.844 21.707 17.7897 21.2695 17.7897H19.2736V24.473H21.2695C21.707 24.473 22.1362 24.4186 22.5612 24.3141C22.982 24.2097 23.332 23.984 23.6029 23.637C23.707 23.5158 23.7862 23.357 23.8404 23.1647C23.8946 22.9683 23.9321 22.7593 23.9529 22.5336C23.9737 22.3079 23.9904 22.0738 23.9987 21.8356C24.0071 21.5932 24.0112 21.3633 24.0112 21.1376C24.0112 20.9119 24.0071 20.6778 23.9987 20.4354Z" fill="white"/>
</svg>
