<svg width="104" height="95" viewBox="0 0 104 95" fill="none" xmlns="http://www.w3.org/2000/svg">
<path d="M50 95C62.1503 95 72 85.1503 72 73C72 60.8497 62.1503 51 50 51C37.8497 51 28 60.8497 28 73C28 85.1503 37.8497 95 50 95Z" fill="white"/>
<path d="M63.8773 60.234L62.6692 61.4421C65.552 64.5947 67.1506 68.7119 67.1506 72.9838C67.1506 77.2556 65.552 81.3729 62.6692 84.5254L63.8773 85.7335C67.0833 82.2561 68.8632 77.6995 68.8632 72.9697C68.8632 68.2399 67.0833 63.6833 63.8773 60.2058V60.234Z" fill="#5A5564"/>
<path d="M38.4704 60.3388C41.623 57.456 45.7402 55.8573 50.0121 55.8573C54.284 55.8573 58.4012 57.456 61.5537 60.3388L62.7619 59.1307C59.2844 55.9247 54.7278 54.1448 49.998 54.1448C45.2682 54.1448 40.7116 55.9247 37.2341 59.1307L38.4704 60.3388Z" fill="#5A5564"/>
<path d="M37.3388 84.5376C34.4594 81.3858 32.8629 77.2711 32.8629 73.002C32.8629 68.733 34.4594 64.6183 37.3388 61.4664L36.1307 60.2583C32.9247 63.7358 31.1448 68.2924 31.1448 73.0222C31.1448 77.752 32.9247 82.3086 36.1307 85.786L37.3388 84.5376Z" fill="#5A5564"/>
<path d="M61.5376 85.6531C58.3851 88.5359 54.2679 90.1345 49.996 90.1345C45.7241 90.1345 41.6069 88.5359 38.4543 85.6531L37.2462 86.8612C40.7237 90.0672 45.2803 91.8471 50.0101 91.8471C54.7399 91.8471 59.2965 90.0672 62.7739 86.8612L61.5376 85.6531Z" fill="#5A5564"/>
<path d="M57.6273 68.9688C57.3856 66.4478 55.211 65.6021 52.4605 65.3444V61.873H50.3342V65.28C49.7744 65.28 49.2026 65.28 48.6348 65.28V61.873H46.5246V65.3686H42.2115V67.6439C42.2115 67.6439 43.7821 67.6157 43.758 67.6439C44.0411 67.6127 44.3254 67.6927 44.5507 67.867C44.7761 68.0413 44.925 68.2962 44.9661 68.5782V78.1465C44.96 78.246 44.9341 78.3431 44.8898 78.4324C44.8456 78.5216 44.7839 78.6011 44.7083 78.666C44.6343 78.7322 44.5475 78.7828 44.4534 78.8146C44.3593 78.8464 44.2597 78.8589 44.1607 78.8513C44.1889 78.8754 42.6143 78.8513 42.6143 78.8513L42.2115 81.3924H46.4843V84.9443H48.6106V81.4447H50.31V84.9281H52.4404V81.4165C56.0325 81.1991 58.5374 80.3131 58.8515 76.9505C59.1052 74.2443 57.8326 73.0361 55.799 72.5489C57.0353 71.9408 57.8004 70.8132 57.6273 68.9688ZM54.6472 76.5317C54.6472 79.1734 50.1208 78.8714 48.6791 78.8714V74.1839C50.1208 74.1879 54.6472 73.7731 54.6472 76.5317ZM53.6606 69.9272C53.6606 72.3435 49.8832 72.0495 48.6831 72.0495V67.7888C49.8832 67.7888 53.6606 67.4103 53.6606 69.9272Z" fill="#F09242"/>
<path d="M49.996 95C45.6451 94.9992 41.3922 93.7084 37.775 91.2907C34.1577 88.873 31.3385 85.437 29.6739 81.4172C28.0093 77.3974 27.5739 72.9742 28.4229 68.707C29.2719 64.4398 31.3671 60.5202 34.4437 57.4437C37.5202 54.3671 41.4398 52.2719 45.707 51.4229C49.9742 50.5739 54.3974 51.0093 58.4172 52.6739C62.437 54.3385 65.873 57.1577 68.2907 60.775C70.7084 64.3922 71.9992 68.6451 72 72.996C72.0005 75.8857 71.4318 78.7473 70.3261 81.4172C69.2205 84.0871 67.5997 86.513 65.5564 88.5564C63.513 90.5997 61.0871 92.2205 58.4172 93.3261C55.7473 94.4318 52.8857 95.0005 49.996 95ZM49.996 52.7156C45.9875 52.7187 42.07 53.9102 38.7385 56.1393C35.407 58.3685 32.8111 61.5352 31.279 65.2393C29.7469 68.9434 29.3472 73.0186 30.1306 76.9498C30.914 80.881 32.8452 84.4917 35.6802 87.3255C38.5152 90.1594 42.1266 92.0891 46.0581 92.871C49.9896 93.6528 54.0646 93.2515 57.7681 91.7179C61.4716 90.1843 64.6373 87.5872 66.8652 84.2548C69.093 80.9225 70.2829 77.0045 70.2845 72.996C70.2855 70.3317 69.7614 67.6934 68.7421 65.2319C67.7228 62.7703 66.2283 60.5339 64.344 58.6503C62.4597 56.7668 60.2226 55.2732 57.7607 54.2548C55.2988 53.2365 52.6602 52.7134 49.996 52.7156Z" fill="#282138"/>
<g filter="url(#filter0_d)">
<path d="M26 46C38.1503 46 48 36.1503 48 24C48 11.8497 38.1503 2 26 2C13.8497 2 4 11.8497 4 24C4 36.1503 13.8497 46 26 46Z" fill="#627EEA"/>
<path d="M26.6844 7.50024V19.6963L36.9928 24.3026L26.6844 7.50024Z" fill="white" fill-opacity="0.602"/>
<path d="M26.6845 7.50024L16.3748 24.3026L26.6845 19.6963V7.50024Z" fill="white"/>
<path d="M26.6844 32.206V40.4932L36.9998 26.2217L26.6844 32.206Z" fill="white" fill-opacity="0.602"/>
<path d="M26.6845 40.4932V32.2046L16.3748 26.2217L26.6845 40.4932Z" fill="white"/>
<path d="M26.6844 30.2878L36.9928 24.3024L26.6844 19.699V30.2878Z" fill="white" fill-opacity="0.2"/>
</g>
<g filter="url(#filter1_d)">
<path d="M78 0C90.1496 0 100 9.85037 100 22C100 34.1496 90.1493 44 78 44C65.8507 44 56 34.1524 56 22C56 9.84755 65.849 0 78 0Z" fill="#53AE94"/>
</g>
<path d="M80.7153 20.0688V16.7962H88.1992V11.8098H78.0097H67.8202V16.7962H75.3051V20.0663C69.2222 20.3458 64.6483 21.5503 64.6483 22.9935C64.6483 24.4367 69.2243 25.6416 75.3051 25.9225V36.4058H80.7171V25.9218C86.7891 25.6416 91.3535 24.4378 91.3535 22.9957C91.3535 21.5539 86.7891 20.35 80.7171 20.0698L80.7153 20.0688ZM80.7171 25.0337V25.0313C80.5643 25.0408 79.7797 25.0879 78.0331 25.0879C76.6364 25.0879 75.6539 25.0485 75.3076 25.0302V25.0348C69.9336 24.7968 65.9222 23.8609 65.9222 22.7412C65.9222 21.6211 69.9339 20.6865 75.3076 20.4482V24.1024C75.6596 24.1266 76.6663 24.1861 78.056 24.1861C79.7248 24.1861 80.564 24.1164 80.7178 24.1024V20.4482C86.0816 20.6872 90.0838 21.6239 90.0838 22.7398C90.0838 23.8556 86.0791 24.7923 80.7171 25.0313" fill="white"/>
<defs>
<filter id="filter0_d" x="0" y="2" width="52" height="52" filterUnits="userSpaceOnUse" color-interpolation-filters="sRGB">
<feFlood flood-opacity="0" result="BackgroundImageFix"/>
<feColorMatrix in="SourceAlpha" type="matrix" values="0 0 0 0 0 0 0 0 0 0 0 0 0 0 0 0 0 0 127 0" result="hardAlpha"/>
<feOffset dy="4"/>
<feGaussianBlur stdDeviation="2"/>
<feColorMatrix type="matrix" values="0 0 0 0 0 0 0 0 0 0 0 0 0 0 0 0 0 0 0.25 0"/>
<feBlend mode="normal" in2="BackgroundImageFix" result="effect1_dropShadow"/>
<feBlend mode="normal" in="SourceGraphic" in2="effect1_dropShadow" result="shape"/>
</filter>
<filter id="filter1_d" x="52" y="0" width="52" height="52" filterUnits="userSpaceOnUse" color-interpolation-filters="sRGB">
<feFlood flood-opacity="0" result="BackgroundImageFix"/>
<feColorMatrix in="SourceAlpha" type="matrix" values="0 0 0 0 0 0 0 0 0 0 0 0 0 0 0 0 0 0 127 0" result="hardAlpha"/>
<feOffset dy="4"/>
<feGaussianBlur stdDeviation="2"/>
<feColorMatrix type="matrix" values="0 0 0 0 0 0 0 0 0 0 0 0 0 0 0 0 0 0 0.25 0"/>
<feBlend mode="normal" in2="BackgroundImageFix" result="effect1_dropShadow"/>
<feBlend mode="normal" in="SourceGraphic" in2="effect1_dropShadow" result="shape"/>
</filter>
</defs>
</svg>
