<svg width="70" height="90" viewBox="0 0 70 90" fill="none" xmlns="http://www.w3.org/2000/svg">
<g filter="url(#filter0_d)">
<path d="M9.55487 36.5759L8.86219 37.5792C1.05115 48.8931 2.79574 63.7099 13.0562 73.2026C19.0929 78.7871 27.004 81.5798 34.9154 81.5804C34.9154 81.5804 34.9154 81.5804 9.55487 36.5759Z" fill="#00A3FF"/>
<path opacity="0.6" d="M34.9154 50.2538L9.57495 36.5759C34.9154 81.5804 34.9154 81.5804 34.9154 81.5804C34.9154 71.779 34.9154 60.5478 34.9154 50.2538Z" fill="#00A3FF"/>
<path opacity="0.6" d="M60.4451 36.5759L61.1377 37.5792C68.9489 48.8931 67.2042 63.7099 56.9437 73.2026C50.9076 78.7871 42.9962 81.5798 35.0845 81.5804C35.0845 81.5804 35.0845 81.5804 60.4451 36.5759Z" fill="#00A3FF"/>
<path opacity="0.2" d="M35.0845 50.2538L60.4251 36.5759C35.0845 81.5804 35.0845 81.5804 35.0845 81.5804C35.0845 71.779 35.0845 60.5478 35.0845 50.2538Z" fill="#00A3FF"/>
<path opacity="0.2" d="M35.0845 19.7195V43.4144L56.8775 31.5747L35.0845 19.7195Z" fill="#00A3FF"/>
<path opacity="0.6" d="M35.0848 19.7195L13.123 31.5743L35.0848 43.4144V19.7195Z" fill="#00A3FF"/>
<path d="M35.0848 0L13.123 31.4872L35.0848 19.7122V0Z" fill="#00A3FF"/>
<path opacity="0.6" d="M35.0845 19.7175L56.8775 31.4872L35.0845 0V19.7175Z" fill="#00A3FF"/>
</g>
<defs>
<filter id="filter0_d" x="0" y="0" width="70" height="89.5803" filterUnits="userSpaceOnUse" color-interpolation-filters="sRGB">
<feFlood flood-opacity="0" result="BackgroundImageFix"/>
<feColorMatrix in="SourceAlpha" type="matrix" values="0 0 0 0 0 0 0 0 0 0 0 0 0 0 0 0 0 0 127 0" result="hardAlpha"/>
<feOffset dy="4"/>
<feGaussianBlur stdDeviation="2"/>
<feComposite in2="hardAlpha" operator="out"/>
<feColorMatrix type="matrix" values="0 0 0 0 0 0 0 0 0 0 0 0 0 0 0 0 0 0 0.25 0"/>
<feBlend mode="normal" in2="BackgroundImageFix" result="effect1_dropShadow"/>
<feBlend mode="normal" in="SourceGraphic" in2="effect1_dropShadow" result="shape"/>
</filter>
</defs>
</svg>
