<svg width="72" height="72" viewBox="0 0 72 72" fill="none" xmlns="http://www.w3.org/2000/svg">
<g filter="url(#filter0_d)">
<path d="M36 0C53.6747 0 68 14.3281 68 32C68 49.6747 53.6747 64 36 64C18.3281 64 4 49.6733 4 32C4 14.3281 18.3281 0 36 0Z" fill="#F5AC37"/>
<path d="M37.169 34.2596H49.3285C49.5877 34.2596 49.7101 34.2596 49.7288 33.9198C49.8282 32.6828 49.8282 31.4387 49.7288 30.2002C49.7288 29.9598 49.6093 29.8604 49.3487 29.8604H25.1492C24.8497 29.8604 24.7691 29.9598 24.7691 30.2406V33.8003C24.7691 34.2596 24.7691 34.2596 25.2486 34.2596H37.169ZM48.3709 25.7002C48.4055 25.6095 48.4055 25.5101 48.3709 25.4208C48.1679 24.9788 47.9274 24.5568 47.648 24.1608C47.2275 23.484 46.7322 22.8605 46.1677 22.3003C45.9013 21.9619 45.5931 21.6581 45.2475 21.4003C43.5166 19.9272 41.4588 18.8846 39.247 18.3604C38.1309 18.1099 36.9905 17.9904 35.8471 18.0004H25.1075C24.8079 18.0004 24.7676 18.12 24.7676 18.3806V25.4799C24.7676 25.7794 24.7676 25.86 25.1478 25.86H48.2269C48.2269 25.86 48.4271 25.8197 48.4674 25.7002H48.3694H48.3709ZM48.3709 38.4198C48.031 38.3824 47.6883 38.3824 47.3485 38.4198H25.1694C24.8699 38.4198 24.7691 38.4198 24.7691 38.8202V45.761C24.7691 46.0807 24.7691 46.1614 25.1694 46.1614H35.4093C35.8989 46.1988 36.3885 46.1642 36.8681 46.062C38.3542 45.9554 39.8158 45.6329 41.2097 45.1015C41.7166 44.9258 42.2062 44.6969 42.6684 44.4218H42.8081C45.2086 43.1733 47.1584 41.212 48.3882 38.8043C48.3882 38.8043 48.5279 38.5019 48.3709 38.4227V38.4198ZM20.75 49.76V49.6404V44.9805V43.4009V38.7006C20.75 38.44 20.75 38.4011 20.4303 38.4011H16.0901C15.8496 38.4011 15.7502 38.4011 15.7502 38.0814V34.2812H20.39C20.6492 34.2812 20.75 34.2812 20.75 33.9414V30.1815C20.75 29.941 20.75 29.882 20.4303 29.882H16.0901C15.8496 29.882 15.7502 29.882 15.7502 29.5623V26.0429C15.7502 25.8226 15.7502 25.7636 16.0699 25.7636H20.3698C20.6693 25.7636 20.75 25.7636 20.75 25.3834V14.6034C20.75 14.2838 20.75 14.2031 21.1503 14.2031H36.1495C37.2381 14.2463 38.3196 14.3658 39.3895 14.5631C41.5942 14.9707 43.7124 15.7583 45.6493 16.883C46.9338 17.639 48.116 18.552 49.1687 19.6032C49.9607 20.4254 50.6749 21.3154 51.3085 22.2629C51.9378 23.2234 52.4605 24.2501 52.8709 25.3229C52.9213 25.6023 53.1892 25.7909 53.4685 25.7434H57.0484C57.5078 25.7434 57.5078 25.7434 57.5279 26.184V29.4644C57.5279 29.7841 57.4084 29.8647 57.0873 29.8647H54.3268C54.0474 29.8647 53.9668 29.8647 53.9869 30.2247C54.0964 31.443 54.0964 32.6656 53.9869 33.8838C53.9869 34.2236 53.9869 34.264 54.3685 34.264H57.5265C57.6662 34.444 57.5265 34.624 57.5265 34.8054C57.5467 35.0373 57.5467 35.272 57.5265 35.5038V37.9245C57.5265 38.2643 57.4271 38.3651 57.1262 38.3651H53.3461C53.0826 38.3147 52.8263 38.4832 52.7658 38.7453C51.8658 41.0853 50.4258 43.1834 48.5653 44.8654C47.8856 45.4774 47.1714 46.0534 46.4254 46.5847C45.6248 47.0455 44.8457 47.5251 44.0249 47.9052C42.5144 48.5849 40.9303 49.086 39.3046 49.4043C37.7609 49.6808 36.1956 49.806 34.6245 49.7844H20.7442V49.7643L20.75 49.76Z" fill="#FEFEFD"/>
</g>
<defs>
<filter id="filter0_d" x="0" y="0" width="72" height="72" filterUnits="userSpaceOnUse" color-interpolation-filters="sRGB">
<feFlood flood-opacity="0" result="BackgroundImageFix"/>
<feColorMatrix in="SourceAlpha" type="matrix" values="0 0 0 0 0 0 0 0 0 0 0 0 0 0 0 0 0 0 127 0" result="hardAlpha"/>
<feOffset dy="4"/>
<feGaussianBlur stdDeviation="2"/>
<feComposite in2="hardAlpha" operator="out"/>
<feColorMatrix type="matrix" values="0 0 0 0 0 0 0 0 0 0 0 0 0 0 0 0 0 0 0.25 0"/>
<feBlend mode="normal" in2="BackgroundImageFix" result="effect1_dropShadow"/>
<feBlend mode="normal" in="SourceGraphic" in2="effect1_dropShadow" result="shape"/>
</filter>
</defs>
</svg>
