<svg width="150" height="35" viewBox="0 0 150 35" fill="none" xmlns="http://www.w3.org/2000/svg">
<path d="M60.1397 10.9907C59.2842 10.9912 58.4372 11.1613 57.6474 11.4911C56.8576 11.8209 56.1407 12.3039 55.5377 12.9125C54.9347 13.521 54.4577 14.243 54.134 15.037C53.8102 15.831 53.6462 16.6813 53.6513 17.5391C53.6635 21.1309 56.5767 24.055 60.1324 24.0485C60.9876 24.0488 61.8344 23.8802 62.6246 23.5523C63.4147 23.2244 64.1327 22.7437 64.7376 22.1377C65.3425 21.5316 65.8224 20.812 66.1499 20.02C66.4774 19.228 66.6461 18.379 66.6463 17.5216C66.6466 16.6643 66.4784 15.8152 66.1514 15.023C65.8244 14.2308 65.345 13.5109 64.7405 12.9044C64.136 12.298 63.4183 11.8168 62.6283 11.4885C61.8384 11.1601 60.9916 10.991 60.1365 10.9907H60.1397ZM60.13 22.3176C59.1867 22.3139 58.2657 22.0299 57.4834 21.5016C56.701 20.9732 56.0924 20.2242 55.7345 19.3492C55.3766 18.4742 55.2854 17.5124 55.4725 16.5855C55.6597 15.6585 56.1166 14.808 56.7857 14.1413C57.4548 13.4747 58.306 13.0219 59.2317 12.8401C60.1574 12.6583 61.116 12.7558 61.9865 13.1201C62.857 13.4844 63.6002 14.0993 64.1223 14.887C64.6443 15.6747 64.9218 16.5999 64.9195 17.5456C64.9189 18.1746 64.7944 18.7973 64.5531 19.378C64.3118 19.9586 63.9585 20.4858 63.5135 20.9291C63.0685 21.3725 62.5405 21.7234 61.9598 21.9617C61.3792 22.2 60.7574 22.3209 60.13 22.3176Z" fill="white"/>
<path d="M95.1578 12.753C96.868 12.7587 99.2263 12.7579 100.937 12.753C101.054 12.7553 101.17 12.7341 101.278 12.6907C101.387 12.6473 101.485 12.5826 101.569 12.5004C101.652 12.4182 101.717 12.3202 101.762 12.212C101.807 12.1039 101.829 11.9879 101.829 11.8709C101.829 11.3551 101.461 10.9652 100.946 10.9644C98.8699 10.9644 96.1454 10.9644 94.069 10.9644C93.943 10.9629 93.8183 10.9891 93.7035 11.0411C93.5887 11.0932 93.4867 11.1699 93.4047 11.2658C93.2257 11.4664 93.1771 11.706 93.1779 11.9651C93.1779 13.7959 93.1779 15.6262 93.1779 17.4559V22.898C93.1764 22.9767 93.1793 23.0553 93.1868 23.1336C93.2065 23.3503 93.3065 23.5516 93.4672 23.6978C93.6279 23.844 93.8375 23.9244 94.0544 23.9231C96.1413 23.9231 98.7143 23.9272 100.801 23.9231C100.937 23.9233 101.07 23.8918 101.192 23.8312C101.313 23.7705 101.418 23.6823 101.499 23.5737C101.581 23.465 101.635 23.3388 101.66 23.2052C101.684 23.0716 101.676 22.9341 101.638 22.8038C101.531 22.4018 101.201 22.1605 100.747 22.1589C99.0522 22.1532 96.8721 22.15 95.1773 22.1451C94.9286 22.1451 94.9626 22.1621 94.9626 21.9225C94.9626 20.774 94.9626 19.6255 94.9585 18.477C94.9585 18.3332 94.9958 18.2942 95.14 18.295C96.2742 18.3007 97.9755 18.295 99.1097 18.2991C99.2703 18.3054 99.4295 18.2672 99.5699 18.1886C99.7102 18.1101 99.8263 17.9943 99.9052 17.854C99.9866 17.7174 100.03 17.5616 100.031 17.4025C100.033 17.2435 99.9914 17.087 99.9121 16.9493C99.8328 16.8115 99.7183 16.6974 99.5804 16.6189C99.4425 16.5403 99.2861 16.5001 99.1275 16.5024C97.9933 16.4967 96.292 16.4975 95.1578 16.5024C95.0063 16.5024 94.9561 16.4756 94.9577 16.309C94.9669 15.1865 94.9669 14.0643 94.9577 12.9423C94.9553 12.7782 95.008 12.753 95.1578 12.753Z" fill="white"/>
<path d="M75.9114 11.3342C75.1134 10.9849 74.2733 10.8858 73.4113 10.9622C72.0705 11.0808 70.9809 11.6615 70.2015 12.7711C69.5534 13.6938 69.3039 14.7424 69.3015 15.8576C69.299 16.9729 69.3015 18.0913 69.3015 19.2082C69.3015 20.4666 69.3015 21.7248 69.3015 22.9827C69.3005 23.0666 69.3048 23.1504 69.3144 23.2337C69.3426 23.4272 69.4342 23.6057 69.5747 23.7413C69.7152 23.8769 69.8966 23.9618 70.0905 23.9826C70.2841 24.0063 70.4802 23.9663 70.6491 23.8686C70.818 23.7709 70.9507 23.6207 71.0271 23.4408C71.0746 23.3017 71.0944 23.1546 71.0854 23.0079V16.0095C71.0727 15.4737 71.1595 14.9402 71.3414 14.4362C71.8558 13.0911 73.1666 12.5168 74.5309 12.7784C75.7194 13.0058 76.4039 13.7856 76.7272 14.9203C76.8275 15.3062 76.8733 15.7043 76.8633 16.1029C76.8633 18.4097 76.8633 20.7168 76.8633 23.0241C76.8633 23.2727 76.9086 23.5026 77.0828 23.6926C77.2072 23.8289 77.3697 23.9244 77.5492 23.9664C77.7286 24.0084 77.9165 23.9951 78.0882 23.9282C78.4406 23.7966 78.648 23.4904 78.648 23.0851C78.648 20.7052 78.648 18.3247 78.648 15.9437C78.6535 15.3866 78.5777 14.8316 78.4228 14.2965C78.0177 12.9449 77.2303 11.9109 75.9114 11.3342Z" fill="white"/>
<path d="M113.112 14.2963C112.707 12.9415 111.921 11.9075 110.601 11.3308C109.802 10.9815 108.962 10.8824 108.1 10.9588C106.76 11.0774 105.669 11.6581 104.89 12.7677C104.242 13.6904 103.993 14.7398 103.99 15.8542C103.987 16.9686 103.99 18.0879 103.99 19.2048C103.99 20.4632 103.99 21.7217 103.99 22.9801C103.989 23.0637 103.993 23.1473 104.004 23.2303C104.031 23.4239 104.123 23.6027 104.263 23.7384C104.404 23.874 104.586 23.9588 104.78 23.9792C104.973 24.003 105.169 23.963 105.338 23.8653C105.507 23.7675 105.639 23.6173 105.715 23.4374C105.763 23.2983 105.783 23.1512 105.774 23.0045V16.0094C105.762 15.4736 105.848 14.9401 106.03 14.436C106.544 13.0909 107.856 12.5167 109.219 12.7782C110.408 13.0056 111.093 13.7854 111.416 14.9201C111.516 15.306 111.562 15.7041 111.552 16.1028C111.552 18.4096 111.552 20.7166 111.552 23.024C111.552 23.2677 111.595 23.4918 111.761 23.6811C111.885 23.8209 112.049 23.9192 112.231 23.9628C112.412 24.0064 112.603 23.9931 112.777 23.9248C112.946 23.8644 113.091 23.7516 113.192 23.6028C113.292 23.454 113.343 23.2768 113.336 23.0971C113.336 20.6858 113.336 18.2739 113.336 15.8615C113.338 15.3316 113.262 14.8044 113.112 14.2963Z" fill="white"/>
<path d="M47.6077 12.7448C48.6391 12.8973 49.5958 13.3736 50.3403 14.1053C50.4217 14.1855 50.5182 14.2486 50.6242 14.291C50.7302 14.3333 50.8436 14.354 50.9577 14.3518C51.0718 14.3496 51.1843 14.3246 51.2886 14.2782C51.393 14.2318 51.487 14.165 51.5652 14.0818C51.9095 13.7284 51.9071 13.2321 51.5401 12.8764C49.8153 11.2048 47.7657 10.5866 45.4301 11.1138C41.893 11.913 39.6968 15.6315 40.6195 19.1502C41.4345 22.2571 44.1606 24.0505 46.7206 24.0481C47.7422 24.0408 48.5661 23.8962 49.3584 23.5827C50.1815 23.254 50.9266 22.7559 51.5458 22.1206C51.6673 21.9958 51.7479 21.8367 51.7769 21.6648C51.8058 21.4928 51.7817 21.316 51.7078 21.1581C51.6374 21.0013 51.5197 20.8707 51.3713 20.7846C51.2229 20.6985 51.0513 20.6612 50.8807 20.6781C50.6198 20.6919 50.4197 20.8178 50.2326 20.9932C48.9339 22.2222 47.3882 22.5812 45.6934 22.1344C43.1609 21.4733 41.6759 18.9122 42.2827 16.3601C42.5648 15.2026 43.2661 14.1915 44.2502 13.5234C45.2343 12.8552 46.431 12.5777 47.6077 12.7448Z" fill="white"/>
<path d="M138.558 11.1236C138.174 10.8361 137.681 10.9262 137.359 11.3437C136.014 13.0852 134.67 14.8269 133.328 16.569C133.247 16.6697 133.216 16.6778 133.135 16.569C132.313 15.5033 131.488 14.4398 130.66 13.3784C130.124 12.6872 129.59 11.9976 129.05 11.3072C128.979 11.2105 128.889 11.1302 128.785 11.0714C128.681 11.0126 128.565 10.9768 128.446 10.9663C128.327 10.9559 128.207 10.971 128.095 11.0107C127.982 11.0505 127.879 11.1139 127.793 11.1967C127.43 11.533 127.394 12.0244 127.712 12.4273C129.224 14.3767 130.74 16.3223 132.26 18.2641C132.334 18.3513 132.374 18.4625 132.371 18.5768C132.367 19.316 132.371 20.0551 132.371 20.7943C132.371 21.5497 132.371 22.3051 132.371 23.0597C132.367 23.2526 132.43 23.441 132.548 23.5934C132.666 23.7458 132.832 23.8531 133.02 23.8971C133.205 23.948 133.402 23.9357 133.58 23.8622C133.758 23.7887 133.906 23.6581 134.002 23.491C134.083 23.3256 134.119 23.1418 134.106 22.9581C134.106 21.4961 134.106 20.034 134.106 18.572C134.103 18.4628 134.139 18.3562 134.209 18.2723C134.803 17.5071 135.397 16.7406 135.991 15.9728C136.91 14.7836 137.832 13.5961 138.746 12.3988C139.067 11.9667 138.985 11.4428 138.558 11.1236Z" fill="white"/>
<path d="M120.417 15.9139C119.09 15.6443 118.165 14.897 118.165 14.395C118.165 13.8329 118.743 12.7705 120.932 12.7705C123.071 12.7705 123.508 14.3804 123.551 14.564V14.5566L125.136 14.2179C124.91 13.1555 123.741 11.146 120.934 11.146C117.919 11.146 116.546 12.8298 116.546 14.395C116.546 15.8018 118.004 17.0811 120.097 17.5059C122.428 17.9787 123.61 18.8129 123.61 19.9841C123.61 21.4592 121.914 22.3648 120.698 22.3648C119.435 22.3648 117.953 21.6127 117.685 19.9606C117.669 19.8546 117.632 19.7529 117.576 19.6613C117.521 19.5697 117.447 19.4901 117.361 19.4271C117.274 19.3641 117.176 19.3188 117.072 19.294C116.968 19.2692 116.86 19.2653 116.755 19.2825C116.649 19.2997 116.548 19.3377 116.457 19.3943C116.366 19.4509 116.287 19.525 116.225 19.6122C116.163 19.6995 116.119 19.7983 116.095 19.9028C116.071 20.0074 116.068 20.1156 116.086 20.2213C116.487 22.6954 118.71 23.9893 120.698 23.9893C121.691 23.9893 122.787 23.6173 123.628 22.9935C124.66 22.2268 125.23 21.1578 125.23 19.9882C125.228 18.5724 124.394 16.7205 120.417 15.9139Z" fill="white"/>
<path d="M145.187 15.9139C143.86 15.6443 142.935 14.897 142.935 14.395C142.935 13.8329 143.513 12.7705 145.702 12.7705C147.841 12.7705 148.278 14.3804 148.321 14.564V14.5566L149.906 14.2179C149.68 13.1555 148.511 11.146 145.704 11.146C142.689 11.146 141.316 12.8298 141.316 14.395C141.316 15.8018 142.774 17.0811 144.867 17.5059C147.198 17.9787 148.38 18.8129 148.38 19.9841C148.38 21.4592 146.684 22.3648 145.468 22.3648C144.205 22.3648 142.723 21.6127 142.455 19.9606C142.439 19.8546 142.402 19.7529 142.346 19.6613C142.29 19.5697 142.217 19.4901 142.131 19.4271C142.044 19.3641 141.946 19.3188 141.842 19.294C141.738 19.2692 141.63 19.2653 141.524 19.2825C141.419 19.2997 141.318 19.3377 141.227 19.3943C141.136 19.4509 141.057 19.525 140.995 19.6122C140.933 19.6995 140.889 19.7983 140.865 19.9028C140.841 20.0074 140.838 20.1156 140.856 20.2213C141.257 22.6954 143.48 23.9893 145.468 23.9893C146.461 23.9893 147.557 23.6173 148.397 22.9935C149.43 22.2268 150 21.1578 150 19.9882C149.998 18.5724 149.164 16.7205 145.187 15.9139Z" fill="white"/>
<path d="M85.6776 15.9139C84.3506 15.6443 83.4262 14.897 83.4262 14.395C83.4262 13.8329 84.0047 12.7705 86.1928 12.7705C88.3316 12.7705 88.7699 14.3804 88.8128 14.564V14.5566L90.3974 14.2179C90.1714 13.1555 89.0024 11.146 86.1945 11.146C83.18 11.146 81.8076 12.8298 81.8076 14.395C81.8076 15.8018 83.2658 17.0811 85.3576 17.5059C87.6891 17.9787 88.8703 18.8129 88.8703 19.9841C88.8703 21.4592 87.1747 22.3648 85.9595 22.3648C84.6957 22.3648 83.214 21.6127 82.9458 19.9606C82.9295 19.8546 82.8925 19.7529 82.8368 19.6613C82.7811 19.5697 82.7079 19.4901 82.6214 19.4271C82.5348 19.3641 82.4367 19.3188 82.3327 19.294C82.2286 19.2692 82.1207 19.2653 82.0151 19.2825C81.9095 19.2997 81.8084 19.3377 81.7175 19.3943C81.6267 19.4509 81.5479 19.525 81.4858 19.6122C81.4236 19.6995 81.3793 19.7983 81.3554 19.9028C81.3316 20.0074 81.3286 20.1156 81.3466 20.2213C81.7517 22.6954 83.9715 23.9893 85.9595 23.9893C86.9527 23.9893 88.0472 23.6173 88.889 22.9935C89.9219 22.2268 90.4906 21.1578 90.4906 19.9882C90.489 18.5724 89.6545 16.7205 85.6776 15.9139Z" fill="white"/>
<path d="M22.0868 27.7959C22.072 27.6897 22.0347 27.5878 21.9774 27.4971C21.9201 27.4065 21.8442 27.3292 21.7546 27.2704C21.5675 27.134 21.356 27.1372 21.13 27.1632C21.3018 27.0114 21.4363 26.8218 21.5229 26.6092C21.5561 26.528 21.6039 26.5621 21.6485 26.5946C22.2545 27.0105 23.0597 26.5751 23.1067 25.9164C23.1148 25.81 23.1464 25.7913 23.2525 25.8417C23.4107 25.9235 23.5892 25.9575 23.7662 25.9394C23.9433 25.9214 24.1113 25.8522 24.2498 25.7401C24.5658 25.5046 24.6168 25.1716 24.5844 24.7809C24.9838 24.9563 25.3613 24.9604 25.6708 24.6379C25.9803 24.3154 25.9811 23.9459 25.7972 23.5592C25.8733 23.5446 25.9082 23.586 25.9511 23.6055C26.1016 23.6723 26.2682 23.694 26.4308 23.6681C26.5933 23.6421 26.7449 23.5697 26.8674 23.4593C26.9825 23.3452 27.0616 23.1997 27.095 23.0409C27.1285 22.882 27.1146 22.7169 27.0553 22.5659C26.8836 22.1175 26.3586 21.9347 25.9122 22.1654C25.8628 22.1906 25.8045 22.2759 25.7599 22.219C25.7152 22.1481 25.6948 22.0646 25.7016 21.981C25.7016 21.8901 25.798 21.9355 25.8498 21.9209C26.0889 21.8675 26.3048 21.7392 26.4664 21.5546C26.498 21.5164 26.5182 21.4368 26.5854 21.4636C26.6316 21.4823 26.6138 21.5497 26.6179 21.5976C26.6325 21.7662 26.702 21.9252 26.8158 22.0502C26.9296 22.1751 27.0812 22.259 27.2473 22.2889C27.6127 22.3352 27.987 22.1159 28.0955 21.7918C28.1506 21.6251 28.1486 21.4449 28.0899 21.2795C28.0312 21.1141 27.9191 20.9731 27.7715 20.8788C27.6228 20.7853 27.4459 20.7476 27.2722 20.7723C27.0984 20.797 26.939 20.8825 26.822 21.0136C26.7904 21.0469 26.7726 21.1014 26.6916 21.0997C26.6986 20.8836 26.6585 20.6685 26.5741 20.4694C26.532 20.3736 26.6308 20.3801 26.6827 20.3711C27.3462 20.2607 27.6637 19.4533 27.2498 18.8798C27.1485 18.7377 27.1728 18.7036 27.321 18.6516C27.5224 18.5841 27.6914 18.4437 27.795 18.2579C27.8985 18.072 27.9291 17.8541 27.8809 17.6468C27.8267 17.3952 27.6848 17.1711 27.4806 17.0149C27.5119 16.9745 27.5559 16.9459 27.6054 16.9337C27.9797 16.7785 28.1506 16.4918 28.1344 16.0451C28.1239 15.7543 27.8663 15.4343 27.5576 15.3295C27.5131 15.3149 27.4442 15.323 27.445 15.2604C27.4458 15.1979 27.5212 15.215 27.5625 15.202C27.7444 15.1483 27.9006 15.0301 28.0019 14.8694C28.1033 14.7087 28.1429 14.5166 28.1134 14.3288C28.0916 14.138 28.0027 13.9613 27.8627 13.8303C27.7227 13.6993 27.5407 13.6227 27.3494 13.6141C27.1581 13.6055 26.97 13.6655 26.8189 13.7834C26.6677 13.9013 26.5634 14.0693 26.5247 14.2573C26.4897 14.4416 26.5194 14.6323 26.6088 14.7971C26.6981 14.9619 26.8416 15.0906 27.0148 15.1613C27.0537 15.1776 27.1007 15.176 27.1185 15.2474C26.7523 15.3474 26.4907 15.5723 26.421 15.9557C26.3513 16.3391 26.5061 16.6518 26.8504 16.8711C26.7296 16.9264 26.6316 16.9605 26.5441 17.0125C26.0921 17.2797 25.9868 17.8166 26.2938 18.3048C26.3554 18.4022 26.3683 18.4567 26.2387 18.4786C25.7599 18.5598 25.3792 19.2267 25.6254 19.7595C25.6651 19.8464 25.6943 19.8911 25.5533 19.9301C24.9441 20.0925 24.6889 20.4905 24.7578 21.1347C24.7699 21.2492 24.7124 21.2338 24.6452 21.2411C24.3939 21.2617 24.1584 21.3719 23.9814 21.5518C23.8043 21.7317 23.6975 21.9693 23.6803 22.2215C23.6738 22.3409 23.6382 22.3563 23.532 22.362C22.9982 22.3928 22.602 22.6869 22.4845 23.1507C22.4489 23.2896 22.3979 23.3212 22.2617 23.3034C21.7854 23.2392 21.4135 23.422 21.1575 23.824C21.0887 23.9329 21.0482 23.9264 20.9493 23.8687C20.4543 23.5795 19.8962 23.7152 19.5988 24.2017C19.5356 24.3033 19.5008 24.2878 19.423 24.2269C18.9418 23.8484 18.3699 23.9101 17.985 24.3894C17.9146 24.4771 17.8789 24.4909 17.7882 24.4145C17.3564 24.0506 16.9051 24.0336 16.4547 24.3601C16.3826 24.4129 16.3469 24.4324 16.287 24.3366C15.9881 23.8622 15.4436 23.7079 14.9559 23.9629C14.8271 24.0303 14.7939 23.9962 14.7575 23.8744C14.7013 23.6846 14.5765 23.5227 14.4075 23.4203C14.2672 23.3332 14.1098 23.2775 13.946 23.2572C13.7823 23.2368 13.616 23.2523 13.4588 23.3026C13.3519 23.3326 13.3089 23.3245 13.2814 23.2083C13.1445 22.6398 12.8528 22.4018 12.2655 22.388C12.1699 22.388 12.148 22.3587 12.165 22.271C12.2582 21.7837 11.8709 21.2102 11.3071 21.146C11.2026 21.1338 11.1661 21.0989 11.205 20.9925C11.3938 20.4775 11.0697 20.0008 10.6622 19.8131C10.5342 19.7546 10.5204 19.7173 10.5861 19.593C10.7005 19.3909 10.7375 19.1539 10.69 18.9265C10.6426 18.699 10.514 18.4968 10.3284 18.3576C10.211 18.2658 10.2474 18.2203 10.3284 18.135C10.5077 17.9518 10.6105 17.707 10.616 17.4504C10.6214 17.1938 10.529 16.9448 10.3576 16.7542C10.296 16.6851 10.2823 16.6478 10.3641 16.582C10.834 16.2002 10.9312 15.8193 10.7052 15.2588C10.6711 15.1776 10.6962 15.1427 10.7675 15.1086C11.2949 14.8535 11.4788 14.5254 11.4075 13.9527C11.393 13.8358 11.4205 13.7821 11.5428 13.774C12.0508 13.7399 12.5247 13.3062 12.4704 12.7506C12.4632 12.6694 12.4956 12.6401 12.5895 12.6458C13.1761 12.6832 13.5188 12.4427 13.7083 11.866C13.7375 11.7759 13.7578 11.7377 13.8704 11.7743C14.3978 11.9456 14.8263 11.7799 15.1115 11.2958C15.1722 11.1943 15.2087 11.1951 15.3043 11.2568C15.7661 11.5549 16.2619 11.4851 16.6354 11.07C16.7107 10.9888 16.7496 10.9888 16.8168 11.07C17.1709 11.4818 17.7258 11.451 18.113 11.2C18.2208 11.1301 18.2613 11.1309 18.3326 11.2455C18.6218 11.7141 19.0957 11.8628 19.594 11.6451C19.7082 11.5956 19.7398 11.6061 19.7819 11.7263C19.8477 11.935 19.9836 12.1144 20.1665 12.2339C20.3493 12.3534 20.5679 12.4057 20.7849 12.3818C20.9842 12.355 21.0571 12.4346 21.0781 12.6052C21.101 12.7887 21.187 12.9584 21.3212 13.0852C21.4899 13.253 21.6492 13.4301 21.7983 13.6156C22.5477 14.5392 22.9974 15.565 22.8305 16.7834C22.8102 16.9353 22.8151 17.114 22.9811 17.1822C23.1472 17.2505 23.2574 17.1262 23.3562 17.0157C24.0895 16.2159 24.5865 15.2274 24.7918 14.1607C24.9433 13.359 25.0041 12.5524 24.8064 11.7466C24.7845 11.6702 24.7762 11.5904 24.7821 11.5111C24.815 11.2468 24.7846 10.9785 24.6934 10.7283C24.6023 10.4782 24.453 10.2534 24.2579 10.0726C24.2192 10.0396 24.1901 9.99677 24.1734 9.94865C24.1567 9.90052 24.1532 9.84881 24.1631 9.79885C24.2019 9.50291 24.1501 9.20214 24.0145 8.93639C23.879 8.67065 23.6661 8.45248 23.404 8.31081C23.3386 8.28146 23.2824 8.2348 23.2415 8.17584C23.2005 8.11688 23.1763 8.04785 23.1715 7.97616C23.0824 7.42139 22.7527 7.04613 22.2415 6.84712C22.043 6.7659 21.9312 6.68467 21.8486 6.47105C21.6404 5.92847 21.2134 5.64012 20.6277 5.5995C20.5556 5.59463 20.4819 5.61656 20.4341 5.51259C20.1384 4.87497 19.6296 4.60855 18.9386 4.68247C18.9097 4.68935 18.8793 4.68549 18.8531 4.67159C18.8269 4.65769 18.8066 4.63471 18.796 4.60693C18.7123 4.44292 18.5906 4.30142 18.4411 4.19431C18.0717 3.93601 17.6707 3.91651 17.2527 4.03998C17.2182 4.05584 17.1791 4.05857 17.1427 4.04766C17.1063 4.03675 17.0752 4.01294 17.055 3.98068C16.6499 3.45678 16.0399 3.33088 15.4615 3.65578C15.4457 3.66912 15.4274 3.679 15.4076 3.68475C15.3878 3.6905 15.367 3.69201 15.3466 3.68918C15.3262 3.68634 15.3066 3.67923 15.2891 3.66829C15.2717 3.65736 15.2567 3.64286 15.2452 3.62573C14.7648 3.11076 14.0859 3.13838 13.6573 3.58024C13.5901 3.64928 13.5479 3.64035 13.4758 3.58024C12.9087 3.13431 12.2606 3.24559 11.8701 3.85641C11.8061 3.9555 11.7672 3.95875 11.6789 3.88078C11.5606 3.7749 11.4172 3.70103 11.2624 3.66613C11.1077 3.63124 10.9466 3.63648 10.7944 3.68135C10.6422 3.72623 10.5039 3.80926 10.3926 3.9226C10.2813 4.03595 10.2007 4.17586 10.1583 4.32914C10.1259 4.44285 10.113 4.47778 10.0036 4.3795C9.73624 4.13582 9.43649 4.04241 9.08003 4.19918C8.72357 4.35594 8.50078 4.72065 8.54615 5.07479C8.60043 5.4931 8.8702 5.77251 9.27527 5.8245C9.69249 5.87729 10.0441 5.67829 10.1907 5.2876C10.2442 5.14464 10.2717 5.13489 10.386 5.24455C10.4775 5.33682 10.5875 5.40853 10.7087 5.45493C10.83 5.50132 10.9597 5.52134 11.0892 5.51366C11.2188 5.50598 11.3452 5.47077 11.4601 5.41037C11.5751 5.34997 11.6759 5.26576 11.7559 5.16332C11.8604 5.0293 11.9179 5.03418 12.033 5.14058C12.2104 5.3076 12.4428 5.40351 12.686 5.4101C12.9293 5.41669 13.1665 5.3335 13.3527 5.17632C13.4637 5.08047 13.509 5.10728 13.5957 5.19987C13.6916 5.30708 13.8089 5.39297 13.9399 5.45201C14.0709 5.51104 14.2128 5.54192 14.3564 5.54265C14.5513 5.54142 14.743 5.49323 14.9154 5.40213C14.964 5.37776 15.0135 5.34121 15.0605 5.40213C15.0896 5.4403 15.1358 5.48335 15.1342 5.52234C15.1342 5.59625 15.0532 5.57676 15.0037 5.58732C14.8474 5.61672 14.701 5.68548 14.5784 5.78713C14.4747 5.87729 14.4067 5.86836 14.2957 5.79688C13.8007 5.47198 13.1615 5.52559 12.7783 5.94552C12.6633 6.07142 12.5912 6.05761 12.4615 5.9902C11.9131 5.70347 11.3273 5.85374 10.9871 6.36546C10.9109 6.48161 10.8591 6.50029 10.7319 6.43694C10.6043 6.37132 10.4645 6.33299 10.3213 6.32439C10.1782 6.31578 10.0348 6.33709 9.90031 6.38695C9.7658 6.43682 9.64309 6.51416 9.53996 6.61407C9.43683 6.71397 9.35552 6.83427 9.30119 6.96734C9.24854 7.10461 9.20803 7.12492 9.07193 7.06725C8.52346 6.83332 7.84133 7.19721 7.74978 7.78284C7.719 7.97941 7.65824 7.96966 7.50674 7.91849C7.36619 7.87048 7.21607 7.85759 7.06942 7.88096C6.92277 7.90432 6.78403 7.96322 6.66524 8.05254C6.54645 8.14187 6.45121 8.25892 6.38777 8.39353C6.32434 8.52814 6.29465 8.67623 6.30126 8.82496C6.30936 9.03046 6.30936 9.03046 6.11655 8.96548C5.5454 8.77298 4.95401 9.28064 5.02449 9.88576C5.05446 10.1351 5.19786 10.3041 5.3291 10.4893C5.36312 10.4746 5.38338 10.5006 5.41011 10.5153C5.71229 10.694 6.02825 10.7183 6.32962 10.5364C6.63099 10.3544 6.78977 10.0718 6.73468 9.70138C6.71767 9.58686 6.76871 9.5966 6.84972 9.62666C7.49783 9.86465 7.97743 9.60716 8.16052 8.92487C8.17592 8.86801 8.19536 8.82334 8.25612 8.85908C8.40842 8.94924 8.58017 8.96061 8.77704 9.00285C8.62473 9.18154 8.4943 9.35049 8.46757 9.56005C8.44407 9.74281 8.35577 9.7623 8.1986 9.75255C7.61368 9.71763 7.07494 10.2399 7.09925 10.8264C7.10411 10.9498 7.06927 10.9661 6.95828 10.9636C6.33043 10.949 5.81437 11.5866 5.96911 12.1934C6.00232 12.3233 5.96911 12.3404 5.85974 12.3501C5.193 12.4078 4.7855 13.0446 5.03745 13.6619C5.11036 13.8414 5.05851 13.8512 4.90783 13.8756C4.75885 13.9001 4.61838 13.9617 4.49929 14.0547C4.3802 14.1477 4.28629 14.2692 4.22615 14.4081C4.16602 14.5469 4.14159 14.6987 4.1551 14.8494C4.1686 15.0002 4.21962 15.1451 4.30347 15.271C4.42418 15.4521 4.42418 15.4521 4.22245 15.4919C4.01121 15.5371 3.82447 15.6599 3.69893 15.8361C3.5734 16.0124 3.51815 16.2293 3.54404 16.4443C3.56993 16.6593 3.67509 16.8568 3.83885 16.998C4.00262 17.1392 4.21314 17.2139 4.42904 17.2074C4.64118 17.2035 4.84434 17.1209 4.99923 16.9755C5.15412 16.8301 5.24971 16.6323 5.26753 16.4203C5.28778 16.1856 5.19867 15.9915 5.08201 15.8022C5.04474 15.7421 5.01963 15.6763 5.12494 15.6844C5.35097 15.7015 5.52272 15.5927 5.68637 15.4627C5.75361 15.4091 5.78196 15.427 5.79169 15.5033C5.8099 15.6737 5.86021 15.8391 5.93994 15.9907C5.97397 16.0532 5.94885 16.0938 5.88647 16.119C5.28859 16.3627 5.12251 17.2261 5.57133 17.7378C5.62966 17.8044 5.63857 17.8442 5.54946 17.906C4.9459 18.3275 4.92403 19.0236 5.49437 19.5118C5.55837 19.567 5.58834 19.6003 5.49437 19.6572C4.9459 19.9934 4.93294 20.934 5.65639 21.2533C5.80384 21.3182 5.7609 21.3491 5.66936 21.4238C5.55997 21.5103 5.473 21.6219 5.41581 21.7492C5.35863 21.8766 5.33292 22.0159 5.34087 22.1553C5.34882 22.2947 5.3902 22.4302 5.46148 22.5501C5.53277 22.6701 5.63187 22.7711 5.75037 22.8445C5.90399 22.9318 6.0762 22.9811 6.25265 22.9882C5.7844 23.461 5.69447 23.8005 5.9286 24.1774C6.1044 24.4592 6.52405 24.6273 6.81975 24.5356C7.18755 24.4219 7.44841 24.062 7.42006 23.7128C7.41663 23.6043 7.39114 23.4977 7.34517 23.3995C7.29919 23.3013 7.23369 23.2135 7.15268 23.1415C7.07167 23.0696 6.97685 23.015 6.87405 22.9811C6.77125 22.9472 6.66262 22.9347 6.55483 22.9444C6.57266 22.9102 6.57671 22.8875 6.58967 22.8802C6.87565 22.7177 7.05064 22.4871 7.07575 22.1492C7.08142 22.0679 7.12031 22.0744 7.17054 22.1118C7.25778 22.1889 7.35861 22.2489 7.46786 22.2889C7.58938 22.323 7.58047 22.3701 7.52295 22.4692C7.45281 22.5805 7.40678 22.7053 7.38784 22.8356C7.36889 22.9658 7.37746 23.0986 7.41297 23.2254C7.44849 23.3521 7.51016 23.4699 7.594 23.5713C7.67784 23.6726 7.78198 23.7551 7.89966 23.8135C8.03576 23.8882 8.18726 23.8988 8.34442 23.928C8.33819 23.9533 8.32978 23.978 8.31931 24.0019C8.22965 24.1507 8.18376 24.3218 8.18692 24.4956C8.19009 24.6694 8.24219 24.8387 8.33722 24.9841C8.43224 25.1294 8.56631 25.2449 8.72398 25.3172C8.88164 25.3894 9.05646 25.4156 9.22828 25.3925C9.40003 25.3722 9.3093 25.4688 9.28499 25.5338C9.22599 25.6763 9.20688 25.8323 9.22972 25.9848C9.25256 26.1374 9.31649 26.2808 9.41461 26.3997C9.5058 26.5235 9.63093 26.6181 9.77477 26.6719C9.91861 26.7257 10.075 26.7364 10.2248 26.7027C10.3374 26.6807 10.4483 26.6474 10.5707 26.6166C10.3738 27.1559 10.4467 27.5531 10.7716 27.7724C10.9223 27.879 11.1042 27.9318 11.2884 27.9225C11.4725 27.9133 11.6482 27.8424 11.7875 27.7212C12.1116 27.4296 12.1367 27.0714 11.8766 26.5768C11.905 26.5337 11.9536 26.5508 11.9917 26.5378C12.1359 26.4882 12.208 26.515 12.2225 26.6929C12.2449 26.8775 12.3285 27.0491 12.4599 27.1803C12.5231 27.2485 12.6624 27.3005 12.6373 27.3841C12.6122 27.4678 12.4648 27.4353 12.3732 27.4613C12.2753 27.486 12.1836 27.5309 12.1039 27.593C12.0242 27.6552 11.9582 27.7332 11.9101 27.8223C11.8621 27.9113 11.833 28.0094 11.8247 28.1103C11.8164 28.2112 11.8291 28.3127 11.862 28.4084C12.0022 28.86 12.4291 29.0322 12.7572 28.9234C13.2433 28.7609 13.4564 28.3312 13.2952 27.9089C13.2336 27.7464 13.0999 27.6522 12.9849 27.5133C13.2125 27.4857 13.4191 27.4824 13.6087 27.3906C13.6897 27.3533 13.7197 27.3996 13.7334 27.4719C13.7611 27.6294 13.8279 27.7774 13.9279 27.9021C14.0278 28.0268 14.1575 28.1242 14.305 28.1852C14.4525 28.2462 14.6129 28.2689 14.7715 28.2511C14.93 28.2333 15.0816 28.1757 15.2119 28.0835C15.3918 27.96 15.3902 27.9608 15.4623 28.1582C15.5074 28.2787 15.5804 28.3867 15.6753 28.4734C16.0683 28.8389 16.6289 28.7983 17.008 28.384C17.055 28.332 17.1036 28.1988 17.17 28.384C17.3053 28.7739 17.5865 28.9607 18.0061 28.9526C18.1809 28.9456 18.3493 28.8845 18.488 28.7775C18.6267 28.6706 18.7289 28.5232 18.7806 28.3556C18.7936 28.3158 18.7936 28.2744 18.843 28.2549C19.0471 28.7812 19.3137 28.9721 19.7682 28.9185C19.946 28.9045 20.1137 28.8295 20.2429 28.7061C20.3722 28.5827 20.4551 28.4185 20.4778 28.2411C20.5418 27.7878 20.3458 27.5417 19.6928 27.272C19.7191 27.2478 19.7425 27.2205 19.7625 27.1908C19.8378 27.0284 19.9164 27.0162 20.059 27.1356C20.1449 27.2049 20.2441 27.2558 20.3504 27.285C20.4568 27.3142 20.568 27.3211 20.6771 27.3053C20.7201 27.3005 20.7743 27.2712 20.8092 27.3281C20.5321 27.7025 20.5078 28.0819 20.7427 28.384C20.8407 28.5148 20.9796 28.6088 21.1372 28.6511C21.2948 28.6933 21.462 28.6814 21.612 28.6171C21.7721 28.5543 21.9063 28.4389 21.9925 28.2897C22.0787 28.1406 22.112 27.9665 22.0868 27.7959Z" fill="white"/>
<path d="M3.14092 18.1384C3.18337 18.3467 3.30437 18.5305 3.47869 18.6516C3.65301 18.7726 3.86721 18.8216 4.07663 18.7882C4.47522 18.7224 4.76201 18.2919 4.69071 17.8671C4.61699 17.4236 4.22408 17.1523 3.76473 17.2286C3.30538 17.305 3.0591 17.6803 3.14092 18.1384Z" fill="white"/>
<path d="M4.44766 10.2563C4.2581 10.3189 4.09903 10.4508 4.00218 10.6257C3.90533 10.8007 3.87781 11.0058 3.92512 11.2002C3.98371 11.405 4.12025 11.5786 4.30529 11.6834C4.49033 11.7882 4.70905 11.816 4.9143 11.7606C5.28858 11.6672 5.52433 11.2522 5.44899 10.8412C5.42549 10.7169 5.33881 10.6178 5.3299 10.4911C5.26428 10.4488 5.19622 10.4098 5.13384 10.3644C5.03908 10.2874 4.92572 10.2368 4.80523 10.2179C4.68474 10.1989 4.5614 10.2122 4.44766 10.2563Z" fill="white"/>
<path d="M27.0052 12.0156C26.5264 12.0968 26.2761 12.4404 26.3571 12.9091C26.4317 13.3428 26.7905 13.5808 27.2483 13.5004C27.4439 13.4607 27.6161 13.3456 27.7279 13.1799C27.8397 13.0141 27.8822 12.811 27.8462 12.6142C27.8309 12.5192 27.7969 12.4282 27.7462 12.3465C27.6955 12.2648 27.629 12.194 27.5508 12.1383C27.4725 12.0826 27.384 12.0431 27.2903 12.022C27.1966 12.0009 27.0997 11.9988 27.0052 12.0156Z" fill="white"/>
<path d="M7.98637 6.37565C8.36713 6.32042 8.64339 5.88262 8.57777 5.49192C8.56438 5.39334 8.53092 5.29857 8.47948 5.2135C8.42804 5.12842 8.35972 5.05484 8.27874 4.99734C8.19776 4.93984 8.10586 4.89963 8.00874 4.87922C7.91162 4.85881 7.81136 4.85862 7.71416 4.87867C7.28641 4.9599 6.98504 5.36602 7.07902 5.77215C7.18191 6.21483 7.52783 6.44226 7.98637 6.37565Z" fill="white"/>
<path d="M7.95481 25.2783C7.94051 25.1771 7.90602 25.0798 7.85339 24.9923C7.80077 24.9047 7.7311 24.8287 7.64854 24.7687C7.56597 24.7088 7.47221 24.6661 7.37283 24.6433C7.27346 24.6204 7.17052 24.6179 7.07015 24.6358C6.97442 24.6534 6.88309 24.6897 6.80139 24.7428C6.71968 24.7958 6.6492 24.8644 6.59397 24.9447C6.53874 25.0251 6.49985 25.1156 6.47953 25.211C6.4592 25.3064 6.45783 25.4049 6.47551 25.5009C6.55166 25.95 6.89192 26.2051 7.31562 26.1312C7.77902 26.0508 8.03016 25.7185 7.95481 25.2783Z" fill="white"/>
<path d="M3.815 20.3793C3.90698 20.3678 3.99566 20.3377 4.07565 20.2908C4.15565 20.2439 4.22527 20.1811 4.2803 20.1063C4.33532 20.0316 4.37459 19.9463 4.39572 19.8559C4.41684 19.7654 4.41937 19.6715 4.40316 19.58C4.33754 19.1601 3.98594 18.8815 3.59708 18.9424C3.14178 19.0131 2.88335 19.3347 2.94897 19.749C2.96089 19.849 2.9933 19.9455 3.04418 20.0324C3.09506 20.1193 3.1633 20.1947 3.24462 20.2539C3.32594 20.3131 3.41859 20.3548 3.51674 20.3763C3.6149 20.3979 3.71644 20.3989 3.815 20.3793Z" fill="white"/>
<path d="M2.9182 12.4472C2.93057 12.5445 2.96299 12.6382 3.01341 12.7222C3.06382 12.8063 3.13113 12.879 3.21105 12.9356C3.29097 12.9922 3.38175 13.0315 3.47764 13.051C3.57353 13.0706 3.67242 13.0699 3.76803 13.0491C3.85956 13.0343 3.94728 13.0015 4.02614 12.9526C4.105 12.9037 4.17346 12.8397 4.22758 12.7643C4.28171 12.6888 4.32043 12.6033 4.34152 12.5128C4.36262 12.4223 4.36568 12.3285 4.35052 12.2368C4.27518 11.8128 3.92601 11.5513 3.52661 11.6211C3.1102 11.6902 2.84691 12.0492 2.9182 12.4472Z" fill="white"/>
<path d="M28.0883 19.424C27.6768 19.4955 27.4726 19.7944 27.5447 20.2184C27.6168 20.6424 27.9498 20.8853 28.3549 20.8154C28.4468 20.8024 28.5353 20.7713 28.6152 20.7238C28.6951 20.6764 28.7648 20.6135 28.8204 20.5389C28.876 20.4643 28.9163 20.3795 28.939 20.2892C28.9617 20.1989 28.9664 20.105 28.9527 20.0129C28.9374 19.916 28.9024 19.8232 28.8499 19.7403C28.7974 19.6574 28.7286 19.5862 28.6476 19.531C28.5666 19.4758 28.4752 19.4379 28.379 19.4195C28.2828 19.4011 28.1839 19.4026 28.0883 19.424Z" fill="white"/>
<path d="M14.721 28.9692C14.7047 28.8729 14.6696 28.7807 14.6177 28.6981C14.5658 28.6155 14.4981 28.5439 14.4186 28.4876C14.339 28.4313 14.2491 28.3913 14.154 28.37C14.059 28.3486 13.9606 28.3463 13.8647 28.3632C13.7763 28.3788 13.6919 28.4119 13.6163 28.4606C13.5408 28.5093 13.4758 28.5726 13.4249 28.6468C13.3741 28.721 13.3385 28.8046 13.3203 28.8927C13.302 28.9808 13.3015 29.0717 13.3187 29.16C13.39 29.5816 13.748 29.8537 14.1361 29.7814C14.2277 29.7666 14.3155 29.7338 14.3945 29.685C14.4734 29.6362 14.5421 29.5722 14.5964 29.4968C14.6507 29.4213 14.6897 29.3359 14.711 29.2454C14.7324 29.1549 14.7358 29.061 14.721 28.9692Z" fill="white"/>
<path d="M26.5451 10.4291C26.3644 10.4673 26.2063 10.5759 26.1055 10.7309C26.0046 10.886 25.9692 11.0748 26.0071 11.256C26.0736 11.632 26.4689 11.9131 26.8302 11.8416C27.2102 11.7661 27.4889 11.3786 27.4216 11.0196C27.3829 10.8251 27.2689 10.6539 27.1047 10.5432C26.9405 10.4326 26.7393 10.3916 26.5451 10.4291Z" fill="white"/>
<path d="M23.6917 27.4445C23.6309 27.101 23.3409 26.7557 22.837 26.8475C22.7496 26.8604 22.6656 26.8905 22.5897 26.936C22.5139 26.9815 22.4478 27.0415 22.3951 27.1127C22.3424 27.1838 22.3043 27.2646 22.2828 27.3506C22.2613 27.4365 22.2569 27.5259 22.2699 27.6135C22.3315 28.0237 22.7009 28.312 23.0865 28.2511C23.4721 28.1902 23.7573 27.8166 23.6917 27.4445Z" fill="white"/>
<path d="M8.73571 26.7717C8.72165 26.6795 8.68943 26.591 8.64092 26.5115C8.59242 26.4319 8.52861 26.3628 8.4532 26.3082C8.3778 26.2537 8.29231 26.2147 8.20172 26.1936C8.11114 26.1724 8.01726 26.1696 7.92557 26.1852C7.83293 26.1955 7.74341 26.225 7.66266 26.2717C7.58191 26.3183 7.51167 26.3813 7.45635 26.4565C7.40103 26.5317 7.36183 26.6176 7.34123 26.7087C7.32062 26.7999 7.31905 26.8943 7.3366 26.9861C7.36497 27.1722 7.46591 27.3394 7.61723 27.4509C7.76855 27.5624 7.95786 27.6091 8.1435 27.5807C8.32914 27.5522 8.49591 27.451 8.60712 27.2993C8.71833 27.1476 8.76488 26.9578 8.73652 26.7717H8.73571Z" fill="white"/>
<path d="M3.74122 22.065C3.83045 22.0543 3.91658 22.0255 3.9944 21.9804C4.07221 21.9354 4.1401 21.8749 4.19395 21.8028C4.24779 21.7306 4.28648 21.6483 4.30768 21.5607C4.32887 21.4732 4.33212 21.3822 4.31723 21.2934C4.30373 21.1996 4.27122 21.1095 4.22168 21.0288C4.17214 20.9481 4.10664 20.8785 4.02921 20.8241C3.95178 20.7698 3.86407 20.7319 3.77149 20.7129C3.6789 20.6938 3.5834 20.694 3.49089 20.7134C3.32205 20.7442 3.17198 20.8401 3.07292 20.9806C2.97385 21.1211 2.93369 21.2949 2.96106 21.4647C2.98567 21.6478 3.08152 21.8137 3.22769 21.9262C3.37386 22.0386 3.55847 22.0885 3.74122 22.065Z" fill="white"/>
<path d="M25.2261 26.8246C25.213 26.7338 25.1816 26.6466 25.1339 26.5683C25.0862 26.49 25.0231 26.4222 24.9485 26.369C24.8739 26.3159 24.7893 26.2785 24.6999 26.259C24.6104 26.2396 24.518 26.2386 24.4281 26.256C24.2547 26.2927 24.1021 26.3954 24.0027 26.5426C23.9032 26.6898 23.8646 26.8699 23.895 27.045C23.9253 27.2202 24.0222 27.3767 24.1653 27.4816C24.3085 27.5865 24.4866 27.6317 24.6623 27.6076C24.7511 27.5945 24.8365 27.5637 24.9132 27.517C24.99 27.4702 25.0566 27.4086 25.1092 27.3355C25.1618 27.2625 25.1992 27.1797 25.2193 27.0919C25.2394 27.0042 25.2417 26.9133 25.2261 26.8246Z" fill="white"/>
<path d="M29.5717 18.4602C29.557 18.3692 29.5241 18.2822 29.4749 18.2044C29.4258 18.1266 29.3614 18.0596 29.2857 18.0075C29.2099 17.9553 29.1245 17.9191 29.0344 17.901C28.9443 17.8829 28.8515 17.8833 28.7616 17.9021C28.5875 17.9389 28.4342 18.0416 28.3337 18.1888C28.2332 18.336 28.1932 18.5164 28.222 18.6925C28.2343 18.7818 28.2647 18.8677 28.3113 18.9449C28.3579 19.022 28.4198 19.0888 28.4931 19.1412C28.5664 19.1935 28.6495 19.2303 28.7375 19.2492C28.8255 19.2681 28.9164 19.2689 29.0046 19.2513C29.0941 19.2375 29.1799 19.206 29.257 19.1586C29.3341 19.1111 29.401 19.0488 29.4539 18.9751C29.5067 18.9014 29.5443 18.818 29.5645 18.7295C29.5848 18.6411 29.5872 18.5495 29.5717 18.4602Z" fill="white"/>
<path d="M25.3971 9.6933C25.4131 9.78302 25.4467 9.86864 25.4961 9.94518C25.5454 10.0217 25.6095 10.0876 25.6845 10.1391C25.7595 10.1905 25.844 10.2265 25.9331 10.2449C26.0221 10.2632 26.1139 10.2636 26.2031 10.2461C26.2923 10.2285 26.3771 10.1933 26.4525 10.1425C26.528 10.0917 26.5926 10.0263 26.6426 9.95021C26.6927 9.87411 26.727 9.78878 26.7438 9.69921C26.7606 9.60964 26.7594 9.51761 26.7403 9.42851C26.7253 9.34247 26.6936 9.26023 26.6469 9.18652C26.6001 9.11282 26.5393 9.04908 26.468 8.99897C26.3966 8.94887 26.3161 8.91338 26.2311 8.89453C26.146 8.87569 26.0581 8.87387 25.9723 8.88917C25.7907 8.92141 25.6289 9.02357 25.5214 9.17383C25.4139 9.32408 25.3693 9.51051 25.3971 9.6933Z" fill="white"/>
<path d="M16.2093 29.6545C16.1428 29.2646 15.8261 29.0258 15.4542 29.0859C15.2732 29.1174 15.1112 29.2174 15.0016 29.3652C14.8921 29.5131 14.8432 29.6974 14.8652 29.8803C14.8964 30.0589 14.9964 30.218 15.1435 30.3233C15.2907 30.4286 15.4733 30.4717 15.6519 30.4432C15.7406 30.429 15.8256 30.3973 15.9019 30.3498C15.9782 30.3022 16.0442 30.2399 16.0961 30.1664C16.1481 30.093 16.1848 30.0098 16.2042 29.9219C16.2237 29.834 16.2254 29.743 16.2093 29.6545Z" fill="white"/>
<path d="M6.49002 7.13617C6.57847 7.12773 6.66417 7.10071 6.74152 7.05686C6.81886 7.01302 6.88613 6.95333 6.93894 6.88168C6.99175 6.81004 7.02892 6.72804 7.04803 6.64104C7.06713 6.55403 7.06774 6.46397 7.04982 6.37671C6.98825 5.97058 6.67959 5.73665 6.28991 5.79839C5.90024 5.86012 5.65558 6.1639 5.71067 6.54485C5.769 6.97209 6.07118 7.20034 6.49002 7.13617Z" fill="white"/>
<path d="M2.85745 14.4303C2.9419 14.4193 3.02315 14.3908 3.09606 14.3467C3.16897 14.3026 3.23194 14.2438 3.28099 14.174C3.33003 14.1042 3.36409 14.025 3.38099 13.9413C3.39789 13.8576 3.39728 13.7713 3.37918 13.6879C3.31275 13.311 3.00976 13.0876 2.65006 13.1494C2.2701 13.2127 2.05461 13.523 2.12347 13.9072C2.19233 14.2914 2.48722 14.4969 2.85745 14.4303Z" fill="white"/>
<path d="M9.67224 28.1387C9.65126 28.0112 9.59284 27.8929 9.50444 27.7989C9.41604 27.7048 9.30168 27.6393 9.17598 27.6108C9.05028 27.5822 8.91894 27.5919 8.79875 27.6386C8.67856 27.6852 8.57497 27.7668 8.50123 27.8728C8.42749 27.9787 8.38694 28.1044 8.38477 28.2336C8.38259 28.3628 8.41889 28.4897 8.48902 28.5981C8.55915 28.7065 8.65993 28.7915 8.77849 28.8422C8.89704 28.8929 9.02798 28.907 9.15457 28.8828C9.3197 28.8492 9.46561 28.7532 9.56201 28.6147C9.6584 28.4761 9.69788 28.3057 9.67224 28.1387Z" fill="white"/>
<path d="M24.6582 8.21999C24.6692 8.29872 24.6961 8.37436 24.7375 8.4422C24.7788 8.51003 24.8337 8.56862 24.8985 8.61433C24.9634 8.66003 25.037 8.69187 25.1146 8.70787C25.1923 8.72387 25.2724 8.72369 25.35 8.70734C25.7284 8.6383 25.9544 8.28172 25.8726 7.88128C25.811 7.57668 25.4756 7.37443 25.1386 7.43941C24.8016 7.50439 24.5877 7.84879 24.6582 8.21999Z" fill="white"/>
<path d="M26.6374 25.9646C26.6236 25.8848 26.594 25.8086 26.5502 25.7405C26.5064 25.6724 26.4494 25.6139 26.3826 25.5684C26.3157 25.5229 26.2404 25.4914 26.1611 25.4757C26.0819 25.4601 26.0003 25.4606 25.9212 25.4773C25.8375 25.4924 25.7577 25.5242 25.6864 25.5708C25.6152 25.6174 25.554 25.6779 25.5065 25.7486C25.459 25.8194 25.4261 25.8989 25.4098 25.9826C25.3935 26.0663 25.3941 26.1525 25.4116 26.2359C25.4764 26.5852 25.79 26.7826 26.1667 26.7119C26.5013 26.6502 26.703 26.3293 26.6374 25.9646Z" fill="white"/>
<path d="M29.9832 16.7893C29.933 16.4725 29.613 16.2613 29.2711 16.3198C28.8936 16.3856 28.6878 16.6812 28.7534 17.0638C28.8142 17.418 29.1018 17.604 29.4874 17.5382C29.843 17.4772 30.044 17.1743 29.9832 16.7893Z" fill="white"/>
<path d="M17.8199 30.1436C17.76 29.7773 17.4505 29.5628 17.0738 29.627C16.6971 29.6912 16.5334 29.9446 16.6006 30.332C16.6679 30.7195 16.9709 30.925 17.3452 30.8543C17.4231 30.8393 17.4972 30.8089 17.5633 30.7649C17.6295 30.721 17.6862 30.6643 17.7304 30.5982C17.7745 30.5321 17.8052 30.4579 17.8205 30.3799C17.8359 30.3019 17.8357 30.2216 17.8199 30.1436Z" fill="white"/>
<path d="M3.93484 23.6879C4.01448 23.6736 4.09048 23.6435 4.1584 23.5994C4.22632 23.5553 4.2848 23.4981 4.33043 23.4311C4.37605 23.3641 4.40791 23.2887 4.42415 23.2092C4.44038 23.1298 4.44066 23.0478 4.42497 22.9683C4.41422 22.8861 4.38655 22.8071 4.34373 22.7363C4.30091 22.6654 4.24387 22.6043 4.17623 22.5567C4.10859 22.5091 4.03182 22.4761 3.9508 22.4599C3.86978 22.4436 3.78627 22.4444 3.70557 22.4622C3.62391 22.4741 3.54547 22.5023 3.47494 22.5453C3.40441 22.5882 3.34323 22.645 3.29506 22.7121C3.24689 22.7793 3.21272 22.8555 3.19459 22.9362C3.17645 23.0169 3.17473 23.1005 3.18951 23.1819C3.20349 23.2651 3.23415 23.3446 3.27965 23.4155C3.32514 23.4865 3.38452 23.5475 3.45419 23.5948C3.52386 23.6421 3.60238 23.6747 3.68499 23.6907C3.76761 23.7067 3.8526 23.7058 3.93484 23.6879Z" fill="white"/>
<path d="M10.1041 28.8591C10.0242 28.8701 9.94721 28.8971 9.87785 28.9385C9.8085 28.9799 9.74817 29.0349 9.70043 29.1001C9.6527 29.1654 9.61854 29.2396 9.6 29.3184C9.58146 29.3971 9.5789 29.4788 9.59249 29.5586C9.60608 29.6384 9.63553 29.7146 9.67909 29.7827C9.72265 29.8508 9.77944 29.9095 9.84607 29.9552C9.91269 30.0009 9.98781 30.0326 10.0669 30.0486C10.1461 30.0646 10.2276 30.0645 10.3067 30.0482C10.4642 30.0198 10.6046 29.931 10.6981 29.8006C10.7915 29.6702 10.8307 29.5085 10.8073 29.3497C10.7781 29.1916 10.6879 29.0514 10.5563 28.9595C10.4246 28.8677 10.2621 28.8316 10.1041 28.8591Z" fill="white"/>
<path d="M5.12503 8.01127C5.1986 8.00023 5.26912 7.97413 5.33219 7.93458C5.39526 7.89503 5.44954 7.84289 5.49164 7.7814C5.53374 7.71991 5.56277 7.65039 5.57691 7.57717C5.59105 7.50394 5.59001 7.42859 5.57384 7.35578C5.51065 7.01545 5.25708 6.81563 4.89414 6.88468C4.54497 6.95128 4.36674 7.20958 4.43965 7.55154C4.45125 7.62846 4.47873 7.70211 4.52031 7.7678C4.5619 7.83348 4.61669 7.88974 4.68118 7.93301C4.74567 7.97627 4.81845 8.00557 4.89488 8.01905C4.9713 8.03252 5.04968 8.02987 5.12503 8.01127Z" fill="white"/>
<path d="M2.64112 15.2226C2.63122 15.1466 2.60557 15.0736 2.56581 15.0081C2.52605 14.9426 2.47307 14.8863 2.41026 14.8426C2.34746 14.7989 2.27623 14.7689 2.20116 14.7544C2.12609 14.74 2.04884 14.7415 1.97438 14.7588C1.89878 14.77 1.82623 14.7965 1.76118 14.8367C1.69614 14.8769 1.63995 14.93 1.59605 14.9927C1.55215 15.0554 1.52146 15.1264 1.50586 15.2014C1.49026 15.2764 1.49007 15.3538 1.50531 15.4289C1.51912 15.5042 1.54766 15.576 1.5893 15.6401C1.63094 15.7042 1.68484 15.7595 1.74789 15.8026C1.81094 15.8457 1.88189 15.8759 1.95665 15.8914C2.0314 15.9068 2.10846 15.9073 2.1834 15.8927C2.51312 15.8351 2.70026 15.5629 2.64112 15.2226Z" fill="white"/>
<path d="M29.5304 14.6749C29.4509 14.6821 29.3736 14.7058 29.3037 14.7444C29.2337 14.783 29.1724 14.8357 29.1238 14.8993C29.0752 14.9628 29.0402 15.0358 29.0212 15.1136C29.0021 15.1914 28.9994 15.2723 29.0131 15.3512C29.0268 15.4301 29.0567 15.5053 29.1009 15.572C29.1451 15.6388 29.2026 15.6956 29.2698 15.7389C29.337 15.7822 29.4124 15.8111 29.4913 15.8237C29.5702 15.8363 29.6508 15.8323 29.7281 15.8121C29.8036 15.8021 29.8763 15.7766 29.9416 15.7371C30.0068 15.6976 30.0632 15.645 30.1072 15.5826C30.1511 15.5202 30.1818 15.4493 30.1971 15.3745C30.2125 15.2996 30.2122 15.2224 30.1964 15.1477C30.1848 15.0722 30.1583 14.9998 30.1183 14.9349C30.0783 14.8699 30.0256 14.8137 29.9635 14.7696C29.9013 14.7255 29.831 14.6943 29.7565 14.6781C29.6821 14.6618 29.6052 14.6608 29.5304 14.6749Z" fill="white"/>
<path d="M19.4199 30.379C19.4066 30.304 19.3787 30.2325 19.3378 30.1684C19.2969 30.1043 19.2437 30.0489 19.1814 30.0054C19.1191 29.962 19.0488 29.9313 18.9746 29.9151C18.9005 29.8989 18.8238 29.8976 18.7491 29.9111C18.674 29.9226 18.602 29.9492 18.5375 29.9895C18.473 30.0298 18.4173 30.0828 18.3739 30.1454C18.3306 30.2079 18.3004 30.2787 18.2852 30.3534C18.2701 30.428 18.2702 30.505 18.2857 30.5796C18.3424 30.9143 18.6098 31.0978 18.9468 31.0402C19.0223 31.0303 19.0949 31.005 19.1602 30.9658C19.2255 30.9266 19.282 30.8744 19.3264 30.8125C19.3708 30.7505 19.4019 30.68 19.418 30.6054C19.4341 30.5309 19.4348 30.4538 19.4199 30.379Z" fill="white"/>
<path d="M27.2863 24.5534C26.9517 24.611 26.7678 24.8783 26.8261 25.2162C26.8812 25.5411 27.1558 25.7303 27.4953 25.6775C27.5703 25.6651 27.6421 25.6378 27.7064 25.597C27.7706 25.5563 27.8261 25.503 27.8694 25.4403C27.9127 25.3776 27.943 25.3069 27.9585 25.2322C27.9739 25.1576 27.9743 25.0806 27.9595 25.0058C27.9028 24.6825 27.6273 24.4957 27.2863 24.5534Z" fill="white"/>
<path d="M24.3228 7.25815C24.6703 7.20861 24.8583 6.95437 24.8089 6.59617C24.7999 6.52164 24.776 6.44969 24.7388 6.38457C24.7015 6.31945 24.6516 6.26249 24.592 6.21705C24.5324 6.1716 24.4643 6.13861 24.3918 6.12002C24.3192 6.10143 24.2437 6.09762 24.1697 6.10881C24.0197 6.13114 23.8845 6.2119 23.7935 6.33356C23.7025 6.45522 23.663 6.60796 23.6836 6.75862C23.7387 7.10951 23.9866 7.30608 24.3228 7.25815Z" fill="white"/>
<path d="M4.79523 24.6242C4.73852 24.2895 4.47118 24.1076 4.12768 24.1669C3.80848 24.2221 3.6416 24.4731 3.69101 24.8167C3.7186 24.968 3.80306 25.1029 3.92698 25.1936C4.05089 25.2843 4.20481 25.3238 4.35695 25.304C4.64617 25.2528 4.84951 24.9369 4.79523 24.6242Z" fill="white"/>
<path d="M12.0387 30.4153C12.0299 30.3473 12.0076 30.2818 11.9732 30.2226C11.9388 30.1633 11.8929 30.1116 11.8383 30.0703C11.7836 30.0291 11.7213 29.9992 11.655 29.9824C11.5887 29.9657 11.5198 29.9623 11.4521 29.9726C11.1281 30.0279 10.9239 30.2975 10.9734 30.5948C10.9837 30.6672 11.0087 30.7368 11.0468 30.7991C11.0849 30.8615 11.1353 30.9154 11.1949 30.9575C11.2546 30.9997 11.3221 31.0291 11.3935 31.0442C11.4649 31.0592 11.5386 31.0594 11.6101 31.0448C11.681 31.0349 11.749 31.0102 11.8099 30.9724C11.8707 30.9346 11.9229 30.8844 11.9633 30.8251C12.0036 30.7659 12.0312 30.6988 12.0442 30.6282C12.0572 30.5576 12.0553 30.4851 12.0387 30.4153Z" fill="white"/>
<path d="M23.1846 6.00094C23.4859 5.9457 23.6504 5.69472 23.5896 5.37713C23.5289 5.05953 23.2996 4.90521 22.9415 4.971C22.6669 5.01973 22.5057 5.27397 22.5583 5.5745C22.6158 5.88803 22.8662 6.05942 23.1846 6.00094Z" fill="white"/>
<path d="M29.5474 13.0271C29.4785 13.0406 29.413 13.0678 29.3547 13.107C29.2964 13.1462 29.2465 13.1966 29.2079 13.2554C29.1693 13.3141 29.1427 13.38 29.1298 13.4492C29.1169 13.5183 29.1178 13.5894 29.1326 13.6582C29.1678 13.795 29.252 13.9141 29.3691 13.9927C29.4862 14.0713 29.6281 14.1041 29.7677 14.0846C30.0286 14.0375 30.2392 13.7142 30.1858 13.4421C30.1514 13.3048 30.0665 13.1857 29.948 13.1086C29.8296 13.0316 29.6864 13.0025 29.5474 13.0271Z" fill="white"/>
<path d="M28.4966 23.421C28.4281 23.4333 28.3626 23.4591 28.3041 23.4971C28.2456 23.5351 28.1953 23.5844 28.156 23.6421C28.1168 23.6998 28.0895 23.7648 28.0756 23.8333C28.0618 23.9017 28.0617 23.9723 28.0754 24.0408C28.1288 24.3283 28.3994 24.5037 28.7073 24.4518C28.9973 24.403 29.161 24.1512 29.1059 23.8401C29.0508 23.529 28.8191 23.365 28.4966 23.421Z" fill="white"/>
<path d="M21.0653 30.3976C21.0395 30.265 20.9626 30.1479 20.8513 30.0719C20.7399 29.9958 20.6031 29.9669 20.4706 29.9914C20.1571 30.0442 19.9845 30.2733 20.0299 30.5673C20.0842 30.8922 20.3402 31.0847 20.6497 31.0287C20.7876 30.9991 20.9085 30.9164 20.9863 30.7984C21.064 30.6803 21.0924 30.5364 21.0653 30.3976Z" fill="white"/>
<path d="M1.6852 17.5C1.75321 17.493 1.81917 17.4726 1.87929 17.4399C1.93941 17.4073 1.99249 17.363 2.03549 17.3097C2.07848 17.2564 2.11054 17.1951 2.12981 17.1294C2.14908 17.0636 2.15519 16.9947 2.14778 16.9265C2.13925 16.8535 2.11619 16.783 2.07997 16.7191C2.04376 16.6553 1.99512 16.5993 1.93695 16.5546C1.87878 16.51 1.81226 16.4774 1.74132 16.459C1.67039 16.4405 1.59648 16.4366 1.52398 16.4473C1.39148 16.4741 1.27432 16.5509 1.19668 16.6619C1.11904 16.7728 1.08685 16.9094 1.10676 17.0435C1.11427 17.1118 1.13528 17.1779 1.16854 17.2379C1.20181 17.298 1.24668 17.3508 1.30052 17.3933C1.35437 17.4358 1.41611 17.4671 1.48216 17.4854C1.54821 17.5037 1.61723 17.5087 1.6852 17.5Z" fill="white"/>
<path d="M5.35344 26.1856C5.32435 26.0534 5.24561 25.9374 5.13354 25.8618C5.02147 25.7862 4.88467 25.7567 4.75151 25.7795C4.68747 25.7926 4.62666 25.8184 4.57258 25.8552C4.51849 25.892 4.4722 25.9391 4.43636 25.9939C4.40052 26.0487 4.37584 26.1101 4.36375 26.1745C4.35165 26.2389 4.35238 26.3051 4.36588 26.3692C4.37646 26.4353 4.40052 26.4985 4.43655 26.5549C4.47258 26.6113 4.51982 26.6597 4.57531 26.6969C4.6308 26.7342 4.69336 26.7596 4.75908 26.7715C4.8248 26.7835 4.89227 26.7817 4.95728 26.7664C5.08596 26.7408 5.1995 26.6656 5.27356 26.5571C5.34762 26.4485 5.3763 26.3151 5.35344 26.1856Z" fill="white"/>
<path d="M3.84658 9.10767C4.08962 9.07193 4.2962 8.78277 4.25732 8.52204C4.23341 8.39175 4.15934 8.27611 4.05111 8.20012C3.94288 8.12413 3.80917 8.09388 3.67888 8.11591C3.61344 8.12362 3.5503 8.14481 3.49342 8.17816C3.43655 8.2115 3.38716 8.25627 3.34836 8.30966C3.30956 8.36305 3.28219 8.42391 3.26797 8.48842C3.25374 8.55292 3.25298 8.61967 3.26571 8.68449C3.295 8.81359 3.37002 8.92765 3.47686 9.00548C3.58369 9.08331 3.71506 9.11962 3.84658 9.10767Z" fill="white"/>
<path d="M13.4548 31.3142C13.4324 31.1869 13.3611 31.0736 13.2563 30.9984C13.1515 30.9233 13.0215 30.8923 12.8942 30.9121C12.8306 30.922 12.7696 30.9444 12.7147 30.978C12.6597 31.0115 12.6119 31.0556 12.574 31.1077C12.536 31.1597 12.5087 31.2188 12.4935 31.2815C12.4783 31.3442 12.4756 31.4092 12.4855 31.473C12.4954 31.5367 12.5177 31.5979 12.5512 31.6529C12.5846 31.708 12.6286 31.756 12.6805 31.794C12.7325 31.8321 12.7914 31.8595 12.8539 31.8747C12.9164 31.8899 12.9813 31.8927 13.0449 31.8827C13.1095 31.8735 13.1717 31.8513 13.2276 31.8175C13.2835 31.7836 13.332 31.7388 13.3703 31.6858C13.4086 31.6327 13.4358 31.5724 13.4503 31.5086C13.4648 31.4447 13.4663 31.3786 13.4548 31.3142Z" fill="white"/>
<path d="M29.5717 22.1338C29.5064 22.1407 29.4433 22.1616 29.3867 22.195C29.3301 22.2283 29.2812 22.2734 29.2434 22.3273C29.2056 22.3811 29.1797 22.4424 29.1674 22.5071C29.1552 22.5718 29.1568 22.6384 29.1723 22.7024C29.1823 22.766 29.2046 22.8271 29.2381 22.882C29.2716 22.937 29.3155 22.9848 29.3674 23.0227C29.4193 23.0607 29.4782 23.088 29.5406 23.1031C29.603 23.1183 29.6678 23.1209 29.7313 23.111C29.7948 23.101 29.8557 23.0786 29.9105 23.045C29.9653 23.0114 30.013 22.9674 30.0508 22.9153C30.0887 22.8633 30.1159 22.8043 30.131 22.7417C30.1461 22.6791 30.1488 22.6141 30.1388 22.5505C30.1293 22.4856 30.1071 22.4232 30.0733 22.367C30.0396 22.3108 29.995 22.2619 29.9423 22.2231C29.8895 22.1843 29.8296 22.1565 29.7659 22.1411C29.7023 22.1258 29.6363 22.1233 29.5717 22.1338Z" fill="white"/>
<path d="M22.7058 30.2734C22.6523 29.9721 22.4303 29.8023 22.1557 29.8511C21.881 29.8998 21.6744 30.1638 21.7198 30.4091C21.744 30.5389 21.8174 30.6542 21.9247 30.7307C22.0321 30.8072 22.1648 30.839 22.295 30.8193C22.5761 30.7681 22.7519 30.535 22.7058 30.2734Z" fill="white"/>
<path d="M29.3958 11.3855C29.2689 11.4077 29.1554 11.4783 29.0793 11.5826C29.0031 11.6869 28.9703 11.8167 28.9876 11.9447C29.0049 12.0728 29.071 12.1891 29.1721 12.2693C29.2731 12.3495 29.4012 12.3873 29.5295 12.3748C29.5943 12.3645 29.6563 12.3414 29.7121 12.3069C29.7679 12.2723 29.8164 12.2271 29.8546 12.1737C29.8929 12.1203 29.9202 12.0598 29.9351 11.9958C29.9499 11.9318 29.9519 11.8654 29.9411 11.8006C29.8908 11.5171 29.6583 11.34 29.3958 11.3855Z" fill="white"/>
<path d="M21.2897 4.50285C21.2971 4.56705 21.3176 4.62903 21.3501 4.68488C21.3825 4.74073 21.4261 4.78925 21.4782 4.82739C21.5302 4.86553 21.5896 4.89247 21.6525 4.90651C21.7154 4.92055 21.7805 4.92139 21.8438 4.90898C21.9389 4.89431 22.0275 4.85168 22.0984 4.7865C22.1693 4.72131 22.2193 4.6365 22.2421 4.54279C22.2649 4.44909 22.2595 4.35071 22.2265 4.26011C22.1935 4.16951 22.1344 4.09077 22.0567 4.03385C21.9791 3.97693 21.8863 3.9444 21.7902 3.94037C21.6941 3.93634 21.5989 3.96099 21.5168 4.01121C21.4347 4.06143 21.3692 4.13495 21.3288 4.22247C21.2884 4.30999 21.2748 4.40756 21.2897 4.50285Z" fill="white"/>
<path d="M5.61508 27.3101C5.49812 27.329 5.39309 27.3928 5.32229 27.488C5.25149 27.5833 5.22049 27.7024 5.23589 27.8202C5.25128 27.9379 5.31185 28.0451 5.40474 28.1188C5.49762 28.1925 5.61551 28.227 5.73336 28.215C5.9764 28.1768 6.16679 27.9429 6.13843 27.7276C6.10359 27.4856 5.84111 27.2768 5.61508 27.3101Z" fill="white"/>
<path d="M1.24763 18.2146C1.16171 18.2353 1.08364 18.2806 1.02291 18.345C0.962179 18.4093 0.921411 18.49 0.90556 18.5772C0.889709 18.6644 0.899456 18.7543 0.933619 18.836C0.967781 18.9177 1.02489 18.9877 1.09799 19.0375C1.1711 19.0873 1.25705 19.1147 1.34541 19.1164C1.43377 19.1181 1.52072 19.0941 1.5957 19.0472C1.67068 19.0003 1.73045 18.9326 1.76776 18.8522C1.80506 18.7719 1.81828 18.6824 1.80582 18.5947C1.77996 18.4712 1.70734 18.3626 1.60323 18.2917C1.49913 18.2208 1.37166 18.1932 1.24763 18.2146Z" fill="white"/>
<path d="M14.4619 31.6436C14.4043 31.6503 14.3487 31.6688 14.2985 31.6979C14.2483 31.7269 14.2046 31.766 14.17 31.8126C14.1354 31.8592 14.1107 31.9124 14.0973 31.969C14.084 32.0256 14.0823 32.0842 14.0924 32.1415C14.1289 32.403 14.3298 32.572 14.5672 32.5387C14.686 32.5244 14.795 32.4654 14.872 32.3735C14.9491 32.2816 14.9884 32.1638 14.982 32.044C14.9745 31.9833 14.955 31.9246 14.9247 31.8715C14.8945 31.8184 14.8539 31.7719 14.8055 31.7346C14.7571 31.6973 14.7018 31.6701 14.6428 31.6545C14.5838 31.6388 14.5223 31.6351 14.4619 31.6436Z" fill="white"/>
<path d="M30.4499 20.7261C30.3336 20.7491 30.2304 20.816 30.162 20.9131C30.0935 21.0102 30.0649 21.1299 30.0821 21.2476C30.0922 21.3048 30.1139 21.3594 30.1458 21.408C30.1777 21.4565 30.2192 21.4981 30.2676 21.53C30.3161 21.5619 30.3706 21.5836 30.4277 21.5937C30.4848 21.6038 30.5434 21.6021 30.5998 21.5887C30.8607 21.5457 31.0049 21.3451 30.9571 21.0705C30.9486 21.0134 30.9284 20.9587 30.8978 20.9098C30.8671 20.8609 30.8267 20.8189 30.779 20.7865C30.7313 20.7541 30.6774 20.7321 30.6208 20.7217C30.5641 20.7113 30.506 20.7128 30.4499 20.7261Z" fill="white"/>
<path d="M20.3791 3.99297C20.6327 3.95723 20.7842 3.7428 20.7372 3.47232C20.7311 3.4146 20.7129 3.35881 20.684 3.30854C20.655 3.25827 20.6159 3.21464 20.5691 3.18044C20.5224 3.14624 20.469 3.12223 20.4124 3.10997C20.3558 3.09771 20.2973 3.09746 20.2406 3.10924C20.1232 3.13004 20.0188 3.19674 19.9504 3.29469C19.8821 3.39263 19.8553 3.51379 19.876 3.63152C19.8838 3.68911 19.9032 3.7445 19.9331 3.79429C19.963 3.84409 20.0027 3.88723 20.0498 3.92108C20.0969 3.95493 20.1504 3.97877 20.207 3.99113C20.2637 4.00349 20.3222 4.00412 20.3791 3.99297Z" fill="white"/>
<path d="M28.6246 10.326C28.67 10.5811 28.8676 10.7118 29.1366 10.6639C29.4056 10.616 29.536 10.4097 29.4833 10.1392C29.4726 10.0818 29.4506 10.0272 29.4184 9.97855C29.3863 9.9299 29.3448 9.8882 29.2963 9.85594C29.2478 9.82367 29.1933 9.80149 29.1361 9.79071C29.0789 9.77993 29.0201 9.78077 28.9632 9.79317C28.8504 9.82315 28.7529 9.8946 28.6902 9.99331C28.6274 10.092 28.604 10.2108 28.6246 10.326Z" fill="white"/>
<path d="M23.7873 29.4937C23.7301 29.5025 23.6752 29.5226 23.6259 29.5529C23.5765 29.5831 23.5337 29.6229 23.4998 29.6699C23.466 29.717 23.4418 29.7703 23.4287 29.8268C23.4156 29.8832 23.4138 29.9418 23.4235 29.999C23.4608 30.2589 23.6544 30.397 23.9193 30.3547C24.1843 30.3125 24.3309 30.1265 24.2912 29.8495C24.2839 29.7918 24.2647 29.7363 24.2348 29.6865C24.2049 29.6367 24.1649 29.5937 24.1175 29.5602C24.0701 29.5267 24.0162 29.5035 23.9594 29.4921C23.9025 29.4806 23.8439 29.4812 23.7873 29.4937Z" fill="white"/>
<path d="M2.69056 10.2983C2.95223 10.2544 3.0851 10.0717 3.03811 9.81986C2.99112 9.56806 2.80965 9.4316 2.57633 9.47465C2.51912 9.48133 2.46396 9.49999 2.41441 9.52943C2.36486 9.55887 2.32204 9.59843 2.28874 9.64553C2.25543 9.69264 2.23237 9.74624 2.22107 9.80287C2.20976 9.85949 2.21046 9.91786 2.22311 9.97419C2.23144 10.0268 2.25031 10.0772 2.2786 10.1222C2.30689 10.1673 2.344 10.2062 2.3877 10.2365C2.43139 10.2668 2.48076 10.2879 2.53281 10.2985C2.58487 10.3091 2.63853 10.309 2.69056 10.2983Z" fill="white"/>
<path d="M31.6092 19.5021C31.5873 19.4027 31.5282 19.3155 31.4441 19.2585C31.36 19.2015 31.2572 19.1791 31.1571 19.1958C31.1024 19.2044 31.05 19.224 31.0031 19.2534C30.9562 19.2828 30.9158 19.3215 30.8842 19.367C30.8526 19.4126 30.8306 19.4641 30.8194 19.5185C30.8082 19.5728 30.8082 19.6288 30.8193 19.6832C30.8541 19.8984 31.0429 20.0154 31.29 19.9756C31.3434 19.9687 31.3948 19.9505 31.4407 19.9221C31.4867 19.8937 31.526 19.8559 31.5562 19.8111C31.5864 19.7663 31.6067 19.7156 31.6159 19.6623C31.625 19.609 31.6227 19.5544 31.6092 19.5021Z" fill="white"/>
<path d="M28.4983 9.03859C28.73 9.00935 28.8499 8.83309 28.8158 8.57154C28.812 8.52421 28.7983 8.47821 28.7756 8.43654C28.7529 8.39486 28.7217 8.35844 28.684 8.32964C28.6463 8.30084 28.603 8.28031 28.5569 8.26937C28.5109 8.25842 28.463 8.25732 28.4164 8.26613C28.3603 8.27071 28.3056 8.2867 28.2557 8.31312C28.2059 8.33955 28.162 8.37586 28.1266 8.41986C28.0912 8.46385 28.0651 8.5146 28.0499 8.56902C28.0347 8.62345 28.0307 8.6804 28.0381 8.73643C28.0632 8.95005 28.2463 9.07026 28.4983 9.03859Z" fill="white"/>
<path d="M18.8439 3.24017C18.9415 3.22722 19.03 3.176 19.09 3.09774C19.15 3.01948 19.1766 2.92056 19.1639 2.82267C19.1475 2.71606 19.0908 2.61986 19.0056 2.55396C18.9204 2.48805 18.8132 2.45747 18.7062 2.46853C18.4786 2.50264 18.3465 2.69677 18.3878 2.93882C18.4259 3.16869 18.596 3.27997 18.8439 3.24017Z" fill="white"/>
<path d="M6.56384 28.7715C6.51462 28.7809 6.46782 28.8002 6.42629 28.8283C6.38477 28.8564 6.3494 28.8927 6.32233 28.9349C6.29526 28.9772 6.27707 29.0246 6.26887 29.0741C6.26067 29.1237 6.26262 29.1744 6.27462 29.2231C6.31513 29.4603 6.48931 29.5894 6.71371 29.548C6.7653 29.5427 6.81512 29.5263 6.85975 29.4998C6.90439 29.4733 6.94277 29.4375 6.97226 29.3947C7.00174 29.3519 7.02164 29.3033 7.03057 29.2521C7.0395 29.2008 7.03726 29.1483 7.024 29.098C7.01842 29.0448 7.0016 28.9934 6.97463 28.9473C6.94767 28.9011 6.9112 28.8612 6.86764 28.8303C6.82409 28.7994 6.77446 28.7782 6.72207 28.7681C6.66968 28.7579 6.61574 28.7591 6.56384 28.7715Z" fill="white"/>
<path d="M16.0773 32.1505C15.9764 32.1727 15.887 32.2308 15.8255 32.3139C15.764 32.3971 15.7346 32.4997 15.7427 32.6029C15.7489 32.6557 15.7664 32.7066 15.7939 32.752C15.8214 32.7975 15.8584 32.8365 15.9022 32.8665C15.9461 32.8964 15.9958 32.9166 16.0481 32.9256C16.1003 32.9347 16.1539 32.9324 16.2053 32.9189C16.2549 32.913 16.3029 32.8969 16.346 32.8715C16.3892 32.8462 16.4267 32.8121 16.456 32.7715C16.4854 32.7309 16.5061 32.6846 16.5168 32.6356C16.5274 32.5866 16.5278 32.5359 16.518 32.4868C16.5039 32.3836 16.4496 32.2903 16.3669 32.2273C16.2843 32.1642 16.1801 32.1366 16.0773 32.1505Z" fill="white"/>
<path d="M25.3768 28.9171C25.1427 28.9593 25.0171 29.1339 25.0584 29.3589C25.1022 29.6026 25.2537 29.7115 25.4797 29.6725C25.7228 29.6302 25.8645 29.4483 25.8297 29.2265C25.8223 29.1754 25.8044 29.1264 25.7771 29.0826C25.7498 29.0387 25.7137 29.0011 25.6711 28.972C25.6285 28.9429 25.5804 28.923 25.5297 28.9135C25.4791 28.9041 25.427 28.9053 25.3768 28.9171Z" fill="white"/>
<path d="M1.34812 20.736C1.39954 20.7303 1.44913 20.7136 1.49355 20.6871C1.53797 20.6605 1.57618 20.6246 1.6056 20.582C1.63502 20.5393 1.65496 20.4908 1.66406 20.4398C1.67317 20.3887 1.67124 20.3363 1.6584 20.2861C1.65329 20.2361 1.63752 20.1878 1.61215 20.1445C1.58677 20.1012 1.5524 20.0638 1.51136 20.035C1.47032 20.0062 1.42358 19.9866 1.3743 19.9775C1.32503 19.9684 1.27438 19.97 1.22579 19.9823C1.17436 19.9882 1.12478 20.005 1.08032 20.0316C1.03586 20.0581 0.997534 20.0939 0.967891 20.1364C0.938247 20.179 0.917959 20.2274 0.90837 20.2784C0.898781 20.3294 0.90011 20.3818 0.912269 20.4323C0.918313 20.4821 0.934805 20.5302 0.960664 20.5732C0.986524 20.6163 1.02117 20.6534 1.06232 20.682C1.10347 20.7107 1.15021 20.7304 1.19946 20.7397C1.24872 20.749 1.29938 20.7477 1.34812 20.736Z" fill="white"/>
<path d="M17.2074 2.72767C17.2528 2.72265 17.2967 2.70804 17.3361 2.68481C17.3755 2.66159 17.4095 2.63027 17.436 2.59291C17.4625 2.55555 17.4808 2.513 17.4897 2.46805C17.4986 2.4231 17.4979 2.37677 17.4877 2.33211C17.4827 2.28641 17.4683 2.24225 17.4455 2.20237C17.4227 2.16249 17.3919 2.12775 17.3551 2.10031C17.3183 2.07288 17.2763 2.05333 17.2317 2.04291C17.187 2.03248 17.1407 2.03138 17.0956 2.03969C16.8939 2.06975 16.7853 2.22733 16.8193 2.44014C16.8222 2.48615 16.8351 2.53097 16.8571 2.57146C16.879 2.61195 16.9096 2.64713 16.9466 2.67453C16.9835 2.70193 17.026 2.72088 17.0711 2.73006C17.1162 2.73924 17.1627 2.73843 17.2074 2.72767Z" fill="white"/>
<path d="M17.7956 32.4728C17.576 32.5061 17.4715 32.6418 17.4966 32.8513C17.4991 32.8995 17.5121 32.9465 17.535 32.989C17.5578 33.0315 17.5897 33.0683 17.6285 33.0969C17.6673 33.1254 17.7119 33.1449 17.7592 33.154C17.8065 33.1631 17.8551 33.1616 17.9017 33.1494C17.946 33.1451 17.9889 33.1314 18.0274 33.1092C18.066 33.087 18.0994 33.0567 18.1254 33.0205C18.1514 32.9843 18.1694 32.9429 18.1782 32.8992C18.187 32.8555 18.1863 32.8103 18.1763 32.7669C18.1407 32.5459 18.0062 32.4412 17.7956 32.4728Z" fill="white"/>
<path d="M27.6647 7.49472C27.7105 7.49134 27.7551 7.47781 27.7951 7.4551C27.8351 7.4324 27.8696 7.40108 27.8961 7.36341C27.9226 7.32574 27.9404 7.28264 27.9483 7.23723C27.9562 7.19182 27.954 7.14522 27.9417 7.10078C27.9368 7.05507 27.9223 7.01093 27.8992 6.97126C27.876 6.93159 27.8447 6.8973 27.8073 6.87066C27.77 6.84402 27.7274 6.82564 27.6824 6.81672C27.6374 6.8078 27.5911 6.80856 27.5464 6.81893C27.5007 6.82357 27.4565 6.83805 27.4168 6.86139C27.3772 6.88473 27.3431 6.91638 27.3167 6.95417C27.2904 6.99196 27.2726 7.03501 27.2644 7.08036C27.2562 7.12571 27.2579 7.1723 27.2693 7.21693C27.2747 7.26228 27.2896 7.30598 27.313 7.34517C27.3364 7.38436 27.3678 7.41817 27.4051 7.44438C27.4424 7.47059 27.4848 7.48862 27.5295 7.4973C27.5743 7.50597 27.6203 7.5051 27.6647 7.49472Z" fill="white"/>
<path d="M31.6148 17.6263C31.5692 17.6303 31.5249 17.6442 31.4852 17.667C31.4454 17.6899 31.4111 17.7211 31.3846 17.7586C31.358 17.7961 31.34 17.8389 31.3316 17.8841C31.3233 17.9292 31.3248 17.9757 31.3361 18.0202C31.3742 18.2355 31.5127 18.3321 31.7274 18.2948C31.9421 18.2574 32.0466 18.1161 32.011 17.9065C32.0059 17.8609 31.9912 17.8168 31.9679 17.7773C31.9446 17.7377 31.9132 17.7036 31.8757 17.6771C31.8383 17.6506 31.7957 17.6324 31.7507 17.6236C31.7057 17.6149 31.6594 17.6158 31.6148 17.6263Z" fill="white"/>
<path d="M26.8513 28.1404C26.6447 28.1785 26.5459 28.328 26.588 28.54C26.5943 28.584 26.6093 28.6263 26.632 28.6644C26.6548 28.7026 26.6848 28.7358 26.7205 28.7623C26.7561 28.7887 26.7966 28.8078 26.8396 28.8184C26.8827 28.8291 26.9274 28.8311 26.9712 28.8243C27.0621 28.808 27.1432 28.757 27.1974 28.682C27.2516 28.607 27.2748 28.5139 27.262 28.4222C27.2565 28.3753 27.241 28.3301 27.2166 28.2897C27.1921 28.2492 27.1594 28.2145 27.1205 28.1878C27.0816 28.1611 27.0374 28.1431 26.991 28.1349C26.9446 28.1267 26.8969 28.1286 26.8513 28.1404Z" fill="white"/>
<path d="M7.74173 30.0645C7.69792 30.0726 7.65624 30.0896 7.61928 30.1146C7.58233 30.1395 7.5509 30.1718 7.52695 30.2094C7.503 30.2471 7.48705 30.2893 7.4801 30.3334C7.47315 30.3775 7.47534 30.4226 7.48654 30.4658C7.49637 30.5058 7.51402 30.5434 7.53845 30.5765C7.56289 30.6095 7.59364 30.6374 7.6289 30.6585C7.66417 30.6796 7.70326 30.6934 7.7439 30.6993C7.78454 30.7051 7.82594 30.7028 7.86568 30.6924C7.94917 30.6705 8.02102 30.6172 8.06629 30.5435C8.11156 30.4698 8.12675 30.3815 8.10872 30.2969C8.08523 30.1563 7.89565 30.0369 7.74173 30.0645Z" fill="white"/>
<path d="M1.69725 11.5493C1.87467 11.5217 1.9727 11.3674 1.94029 11.1692C1.90788 10.9897 1.78312 10.906 1.59517 10.9393C1.51002 10.9501 1.4326 10.9942 1.37989 11.0621C1.32719 11.1301 1.30351 11.2162 1.31405 11.3016C1.33344 11.3846 1.38423 11.4569 1.45572 11.5031C1.52721 11.5493 1.61381 11.5659 1.69725 11.5493Z" fill="white"/>
<path d="M1.68683 21.9699C1.67004 21.889 1.62206 21.818 1.55333 21.7723C1.48461 21.7267 1.40069 21.7101 1.31983 21.7262C1.23929 21.7426 1.16797 21.789 1.12029 21.8561C1.07261 21.9232 1.05214 22.006 1.06302 22.0877C1.06901 22.1281 1.08317 22.1669 1.10465 22.2017C1.12612 22.2365 1.15444 22.2665 1.18789 22.2899C1.22134 22.3133 1.2592 22.3297 1.29916 22.3379C1.33912 22.3462 1.38034 22.3461 1.42029 22.3378C1.46255 22.3327 1.50331 22.3189 1.54001 22.2973C1.57671 22.2756 1.60856 22.2467 1.63358 22.2121C1.65859 22.1776 1.67623 22.1383 1.6854 22.0966C1.69456 22.0549 1.69504 22.0118 1.68683 21.9699Z" fill="white"/>
<path d="M28.2139 27.1636C28.0714 27.1847 27.9604 27.3585 27.9823 27.5274C27.9988 27.6084 28.0454 27.6799 28.1127 27.7276C28.1799 27.7753 28.2628 27.7955 28.3444 27.7841C28.3833 27.7775 28.4205 27.763 28.4536 27.7414C28.4867 27.7197 28.515 27.6915 28.5368 27.6584C28.5585 27.6254 28.5732 27.5881 28.58 27.5491C28.5867 27.5101 28.5854 27.4701 28.5761 27.4316C28.5724 27.3891 28.5598 27.3478 28.539 27.3105C28.5182 27.2732 28.4897 27.2409 28.4555 27.2155C28.4212 27.1901 28.3819 27.1724 28.3403 27.1634C28.2986 27.1545 28.2556 27.1545 28.2139 27.1636Z" fill="white"/>
<path d="M26.6844 6.09253C26.7618 6.07446 26.8292 6.02689 26.8723 5.95988C26.9154 5.89288 26.9308 5.8117 26.9153 5.73352C26.9101 5.69432 26.8967 5.65666 26.8759 5.62304C26.8552 5.58942 26.8275 5.5606 26.7948 5.53849C26.7621 5.51638 26.7251 5.50148 26.6863 5.49477C26.6474 5.48806 26.6076 5.48971 26.5694 5.49959C26.5298 5.50251 26.4913 5.51409 26.4567 5.53352C26.4221 5.55295 26.3921 5.57976 26.369 5.61205C26.3458 5.64434 26.33 5.68134 26.3226 5.72043C26.3152 5.75952 26.3165 5.79975 26.3263 5.8383C26.3321 5.87905 26.3462 5.91819 26.3676 5.95332C26.389 5.98845 26.4173 6.01884 26.4508 6.04264C26.4843 6.06643 26.5223 6.08312 26.5625 6.0917C26.6027 6.10028 26.6441 6.10056 26.6844 6.09253Z" fill="white"/>
<path d="M31.8847 15.9796C31.8073 15.9988 31.7397 16.046 31.6949 16.1121C31.6501 16.1782 31.6311 16.2585 31.6416 16.3378C31.649 16.3768 31.664 16.4139 31.6858 16.447C31.7076 16.4802 31.7357 16.5086 31.7686 16.5308C31.8015 16.5529 31.8384 16.5683 31.8772 16.576C31.9161 16.5837 31.956 16.5836 31.9948 16.5757C32.0342 16.571 32.0721 16.5578 32.1061 16.5372C32.14 16.5166 32.1691 16.4889 32.1915 16.4561C32.2139 16.4232 32.229 16.386 32.2359 16.3468C32.2428 16.3076 32.2413 16.2674 32.2314 16.2289C32.2157 16.1511 32.1712 16.0822 32.1069 16.036C32.0426 15.9897 31.9632 15.9696 31.8847 15.9796Z" fill="white"/>
<path d="M15.5337 2.43767C15.5725 2.43025 15.6094 2.41508 15.6423 2.39307C15.6751 2.37106 15.7032 2.34266 15.7249 2.30955C15.7466 2.27645 15.7614 2.23931 15.7685 2.20034C15.7756 2.16137 15.7748 2.12137 15.7662 2.08272C15.7587 2.04416 15.7437 2.00746 15.722 1.97471C15.7004 1.94196 15.6725 1.91381 15.64 1.89186C15.6075 1.86991 15.571 1.8546 15.5326 1.84679C15.4942 1.83898 15.4547 1.83883 15.4162 1.84635C15.3385 1.86154 15.2701 1.90704 15.2259 1.97285C15.204 2.00543 15.1887 2.04202 15.1809 2.08052C15.1731 2.11902 15.173 2.15869 15.1805 2.19725C15.1976 2.27493 15.2438 2.3431 15.3094 2.3878C15.3751 2.43249 15.4553 2.45033 15.5337 2.43767Z" fill="white"/>
<path d="M19.4515 32.6016C19.4121 32.6065 19.3743 32.6198 19.3404 32.6406C19.3066 32.6615 19.2777 32.6894 19.2556 32.7224C19.2334 32.7555 19.2187 32.7929 19.2122 32.8322C19.2058 32.8714 19.2078 32.9116 19.2182 32.95C19.2227 32.9866 19.2352 33.0218 19.2547 33.053C19.2743 33.0843 19.3004 33.1108 19.3313 33.1308C19.3622 33.1508 19.3972 33.1638 19.4336 33.1687C19.4701 33.1737 19.5071 33.1706 19.5423 33.1596C19.7237 33.1279 19.8047 33.0166 19.778 32.8404C19.7748 32.8021 19.7634 32.7649 19.7447 32.7314C19.7259 32.6979 19.7001 32.6689 19.6692 32.6462C19.6382 32.6236 19.6027 32.6079 19.5652 32.6002C19.5276 32.5925 19.4889 32.5929 19.4515 32.6016Z" fill="white"/>
<path d="M9.02576 31.2544C8.98992 31.2595 8.95551 31.272 8.92464 31.2909C8.89376 31.3099 8.86707 31.3349 8.84621 31.3646C8.82535 31.3943 8.81075 31.4279 8.80332 31.4634C8.79588 31.4989 8.79577 31.5356 8.80297 31.5712C8.81854 31.6397 8.85977 31.6995 8.91813 31.7384C8.97648 31.7772 9.0475 31.7921 9.1165 31.7799C9.186 31.7679 9.24788 31.7286 9.28853 31.6708C9.32917 31.613 9.34524 31.5414 9.33321 31.4717C9.32118 31.402 9.28202 31.3399 9.22437 31.2992C9.16671 31.2584 9.09527 31.2423 9.02576 31.2544Z" fill="white"/>
<path d="M13.7927 2.34558C13.8645 2.33101 13.9279 2.28893 13.9694 2.22827C14.0108 2.16761 14.027 2.09314 14.0146 2.02068C13.9919 1.8696 13.9061 1.79568 13.7521 1.81437C13.5982 1.83305 13.4735 1.99144 13.5002 2.11734C13.5269 2.24324 13.68 2.36264 13.7927 2.34558Z" fill="white"/>
<path d="M29.4907 26.0806C29.4281 26.0939 29.3728 26.1306 29.3361 26.1833C29.2994 26.2359 29.284 26.3005 29.293 26.3641C29.2947 26.3991 29.3035 26.4334 29.3189 26.4649C29.3342 26.4964 29.3559 26.5244 29.3824 26.5472C29.409 26.57 29.4399 26.5871 29.4733 26.5976C29.5066 26.608 29.5418 26.6114 29.5766 26.6077C29.7135 26.5866 29.8326 26.451 29.8196 26.3324C29.8054 26.2571 29.764 26.1897 29.7033 26.1433C29.6426 26.0968 29.5668 26.0744 29.4907 26.0806Z" fill="white"/>
<path d="M25.5461 4.77693C25.6822 4.7485 25.7697 4.67539 25.7462 4.52188C25.7413 4.48549 25.7291 4.45047 25.7104 4.41893C25.6916 4.38739 25.6667 4.35998 25.6371 4.33835C25.6075 4.31672 25.5739 4.30132 25.5382 4.29308C25.5025 4.28483 25.4655 4.28392 25.4295 4.29039C25.3039 4.31638 25.201 4.44553 25.2196 4.55193C25.2338 4.62484 25.276 4.68927 25.337 4.73135C25.3981 4.77342 25.4732 4.78979 25.5461 4.77693Z" fill="white"/>
<path d="M31.9592 14.3603C31.8118 14.3904 31.7583 14.4838 31.7931 14.6682C31.8158 14.7997 31.9195 14.8745 32.0823 14.842C32.2225 14.8144 32.2986 14.7307 32.2808 14.5845C32.2754 14.5481 32.2627 14.5132 32.2433 14.482C32.224 14.4507 32.1984 14.4237 32.1683 14.4027C32.1382 14.3817 32.1041 14.3671 32.0681 14.3599C32.0322 14.3526 31.9951 14.3527 31.9592 14.3603Z" fill="white"/>
<path d="M1.04517 12.6956C1.04143 12.664 1.03092 12.6337 1.01437 12.6066C0.997827 12.5795 0.975631 12.5564 0.949309 12.5387C0.922987 12.521 0.893163 12.5093 0.861883 12.5042C0.830604 12.4992 0.798611 12.501 0.768101 12.5096C0.737141 12.514 0.707376 12.5246 0.680538 12.5407C0.653701 12.5568 0.630327 12.5781 0.611779 12.6034C0.593231 12.6286 0.579879 12.6573 0.572502 12.6878C0.565124 12.7183 0.563868 12.7499 0.568807 12.7809C0.574508 12.8123 0.586588 12.8423 0.6043 12.8689C0.622012 12.8955 0.644979 12.9182 0.671783 12.9356C0.698586 12.9529 0.728655 12.9646 0.760132 12.9698C0.791609 12.9751 0.823824 12.9738 0.854785 12.9661C0.886375 12.964 0.917105 12.9549 0.944723 12.9394C0.972341 12.9239 0.996148 12.9023 1.0144 12.8764C1.03265 12.8505 1.04489 12.8208 1.05021 12.7895C1.05554 12.7582 1.05381 12.7261 1.04517 12.6956Z" fill="white"/>
<path d="M21.1577 32.5558C21.1255 32.5584 21.0942 32.5681 21.0661 32.5841C21.038 32.6001 21.0137 32.622 20.9949 32.6484C20.9761 32.6747 20.9632 32.7049 20.9572 32.7367C20.9512 32.7685 20.9521 32.8013 20.96 32.8327C20.9791 32.887 21.0166 32.9328 21.0661 32.9619C21.1156 32.9911 21.1738 33.0018 21.2304 32.992C21.2869 32.9823 21.3382 32.9528 21.3752 32.9088C21.4122 32.8648 21.4324 32.8091 21.4323 32.7515C21.4302 32.7192 21.421 32.6878 21.4053 32.6595C21.3896 32.6313 21.3678 32.6069 21.3415 32.5881C21.3151 32.5694 21.285 32.5567 21.2532 32.5511C21.2214 32.5455 21.1888 32.5471 21.1577 32.5558Z" fill="white"/>
<path d="M1.60736 23.4649C1.54538 23.4807 1.49183 23.5198 1.45776 23.5741C1.42369 23.6283 1.4117 23.6936 1.42427 23.7565C1.42721 23.787 1.43666 23.8164 1.45198 23.8429C1.46729 23.8693 1.48812 23.8921 1.51303 23.9098C1.53794 23.9274 1.56635 23.9395 1.59633 23.9451C1.62631 23.9508 1.65715 23.9499 1.68675 23.9425C1.71828 23.9395 1.74878 23.9296 1.77619 23.9137C1.8036 23.8978 1.82729 23.8762 1.84565 23.8503C1.86401 23.8245 1.87661 23.7949 1.8826 23.7638C1.88859 23.7326 1.88783 23.7005 1.88038 23.6696C1.87633 23.638 1.86598 23.6075 1.84996 23.58C1.83393 23.5524 1.81255 23.5284 1.78709 23.5093C1.76162 23.4902 1.73259 23.4764 1.70172 23.4688C1.67084 23.4612 1.63876 23.4599 1.60736 23.4649Z" fill="white"/>
<path d="M30.603 24.8493C30.5459 24.8591 30.4948 24.8909 30.4609 24.938C30.427 24.9851 30.4128 25.0437 30.4215 25.1011C30.4266 25.1287 30.4374 25.1548 30.4532 25.1779C30.4691 25.201 30.4896 25.2205 30.5134 25.2351C30.5372 25.2498 30.5639 25.2592 30.5916 25.2628C30.6193 25.2665 30.6475 25.2642 30.6743 25.2562C30.7013 25.2561 30.7279 25.25 30.7522 25.2382C30.7765 25.2265 30.7979 25.2094 30.8148 25.1883C30.8318 25.1673 30.8438 25.1427 30.85 25.1163C30.8562 25.09 30.8565 25.0626 30.8509 25.0361C30.8371 24.9062 30.731 24.8453 30.603 24.8493Z" fill="white"/>
<path d="M24.232 3.64687C24.2609 3.64359 24.2887 3.63398 24.3135 3.61874C24.3383 3.6035 24.3594 3.58299 24.3754 3.55867C24.3914 3.53434 24.4019 3.50679 24.4061 3.47796C24.4103 3.44913 24.4081 3.41973 24.3997 3.39182C24.3973 3.36449 24.389 3.33799 24.3756 3.31408C24.3621 3.29017 24.3438 3.26939 24.3217 3.25312C24.2997 3.23685 24.2744 3.22545 24.2477 3.21967C24.2209 3.2139 24.1932 3.21388 24.1664 3.21963C24.1099 3.22835 24.0592 3.25922 24.0254 3.30546C23.9916 3.35169 23.9775 3.40949 23.9862 3.46614C23.9949 3.5228 24.0257 3.57367 24.0718 3.60756C24.1179 3.64146 24.1755 3.6556 24.232 3.64687Z" fill="white"/>
<path d="M10.4127 32.295C10.2912 32.3153 10.2345 32.3762 10.2507 32.5078C10.2527 32.5504 10.2677 32.5914 10.2937 32.6251C10.3198 32.6589 10.3555 32.6838 10.3961 32.6965C10.4367 32.7092 10.4802 32.709 10.5208 32.6961C10.5613 32.6832 10.5969 32.658 10.6227 32.6241C10.6485 32.5902 10.6633 32.5492 10.6651 32.5066C10.6668 32.464 10.6555 32.4219 10.6326 32.3859C10.6096 32.35 10.5762 32.322 10.5369 32.3057C10.4976 32.2895 10.4542 32.2857 10.4127 32.295Z" fill="white"/>
<path d="M31.7097 12.9287C31.7111 12.9566 31.7186 12.9837 31.7316 13.0084C31.7446 13.033 31.7628 13.0545 31.785 13.0714C31.8071 13.0882 31.8326 13.1 31.8598 13.106C31.8869 13.1119 31.9151 13.1119 31.9422 13.1058C32.0605 13.0839 32.1245 12.9913 32.0905 12.8045C32.0759 12.7232 31.9868 12.6753 31.862 12.6989C31.8361 12.7021 31.8111 12.7109 31.7889 12.7247C31.7667 12.7385 31.7477 12.7569 31.7332 12.7788C31.7187 12.8006 31.7092 12.8253 31.7051 12.8512C31.701 12.8771 31.7026 12.9035 31.7097 12.9287Z" fill="white"/>
<path d="M12.0597 2.3661C12.2517 2.33036 12.2955 2.22964 12.2736 2.11349C12.2706 2.08744 12.2618 2.06242 12.2478 2.04026C12.2338 2.0181 12.215 1.99939 12.1929 1.9855C12.1707 1.97161 12.1457 1.96291 12.1197 1.96004C12.0937 1.95716 12.0674 1.96019 12.0427 1.96891C11.922 1.99733 11.8434 2.07369 11.8693 2.20365C11.871 2.22693 11.8772 2.24966 11.8877 2.27049C11.8982 2.29133 11.9128 2.30985 11.9305 2.32498C11.9482 2.34011 11.9688 2.35154 11.991 2.3586C12.0132 2.36566 12.0365 2.36821 12.0597 2.3661Z" fill="white"/>
<path d="M22.807 32.3286C22.7843 32.3326 22.7627 32.3413 22.7437 32.3543C22.7246 32.3672 22.7086 32.3841 22.6965 32.4038C22.6845 32.4235 22.6768 32.4455 22.6739 32.4684C22.671 32.4913 22.673 32.5145 22.6798 32.5366C22.6835 32.5633 22.6929 32.5889 22.7073 32.6117C22.7218 32.6344 22.741 32.6537 22.7637 32.6683C22.7863 32.6829 22.8118 32.6924 22.8384 32.6962C22.8651 32.6999 22.8922 32.6979 22.918 32.6901C22.999 32.6536 23.0857 32.6089 23.0541 32.4822C23.0498 32.4549 23.0396 32.4288 23.0244 32.4058C23.0091 32.3827 22.9891 32.3633 22.9656 32.3487C22.9422 32.3341 22.9159 32.3248 22.8885 32.3213C22.8611 32.3179 22.8333 32.3204 22.807 32.3286Z" fill="white"/>
<path d="M2.0829 25.1651C2.05794 25.1666 2.03367 25.1739 2.01199 25.1863C1.9903 25.1988 1.97179 25.2162 1.9579 25.237C1.94401 25.2578 1.93513 25.2816 1.93194 25.3065C1.92874 25.3314 1.93134 25.3566 1.93951 25.3803C1.96057 25.4989 2.04807 25.533 2.15905 25.5103C2.29597 25.4924 2.3065 25.3868 2.29111 25.291C2.27571 25.1951 2.18903 25.1464 2.0829 25.1651Z" fill="white"/>
<path d="M10.4598 2.60389C10.4814 2.60152 10.5023 2.59445 10.5209 2.58318C10.5396 2.5719 10.5555 2.55669 10.5677 2.5386C10.5799 2.52051 10.588 2.49998 10.5915 2.47843C10.5949 2.45688 10.5937 2.43483 10.5878 2.41382C10.5831 2.39187 10.574 2.37111 10.5609 2.35288C10.5479 2.33464 10.5312 2.31932 10.5119 2.30787C10.4927 2.29642 10.4712 2.2891 10.449 2.28637C10.4268 2.28363 10.4043 2.28554 10.3828 2.29198C10.3615 2.29521 10.3413 2.30309 10.3234 2.31506C10.3055 2.32703 10.2904 2.34279 10.2793 2.36124C10.2682 2.37969 10.2612 2.40036 10.2589 2.4218C10.2567 2.44324 10.2591 2.46492 10.2661 2.4853C10.2699 2.50647 10.2781 2.5266 10.2902 2.54436C10.3023 2.56212 10.318 2.5771 10.3363 2.58831C10.3546 2.59952 10.3751 2.60671 10.3964 2.60939C10.4177 2.61208 10.4393 2.6102 10.4598 2.60389Z" fill="white"/>
<path d="M31.6051 23.5205C31.5839 23.5236 31.5635 23.5312 31.5453 23.5426C31.5271 23.554 31.5114 23.569 31.4992 23.5868C31.4871 23.6046 31.4787 23.6246 31.4746 23.6458C31.4705 23.6669 31.4708 23.6887 31.4755 23.7097C31.4877 23.8145 31.5752 23.8356 31.6667 23.8429C31.7052 23.8334 31.7387 23.8096 31.7604 23.7763C31.7821 23.743 31.7903 23.7026 31.7834 23.6634C31.7824 23.6418 31.7769 23.6206 31.7671 23.6012C31.7573 23.5819 31.7435 23.5649 31.7267 23.5514C31.7098 23.5378 31.6902 23.528 31.6692 23.5227C31.6483 23.5174 31.6264 23.5166 31.6051 23.5205Z" fill="white"/>
<path d="M11.8936 33.1772C11.8248 33.2146 11.7632 33.2585 11.7802 33.3559C11.7972 33.4534 11.8442 33.5184 11.9471 33.5095C11.967 33.5081 11.9864 33.5028 12.0042 33.4939C12.0221 33.485 12.038 33.4727 12.051 33.4576C12.064 33.4424 12.0739 33.4249 12.0802 33.4059C12.0864 33.3869 12.0888 33.3669 12.0873 33.347C12.0792 33.2406 11.9917 33.1992 11.8936 33.1772Z" fill="white"/>
<path d="M22.8589 2.59158C22.8802 2.58771 22.9004 2.57937 22.9182 2.56711C22.936 2.55486 22.951 2.53897 22.9623 2.52048C22.9735 2.50199 22.9807 2.48133 22.9834 2.45984C22.9862 2.43836 22.9843 2.41654 22.978 2.39583C22.9618 2.30891 22.8905 2.26911 22.7625 2.29023C22.7444 2.29537 22.7274 2.30407 22.7127 2.31581C22.6979 2.32756 22.6856 2.34213 22.6765 2.35867C22.6674 2.37521 22.6616 2.3934 22.6596 2.41219C22.6575 2.43097 22.6592 2.44998 22.6645 2.46812C22.6685 2.4894 22.6768 2.50963 22.6889 2.52756C22.701 2.54548 22.7166 2.56071 22.7349 2.5723C22.7531 2.58388 22.7736 2.59157 22.7949 2.59489C22.8162 2.59821 22.838 2.59708 22.8589 2.59158Z" fill="white"/>
<path d="M31.6546 11.3763C31.6761 11.374 31.6968 11.3671 31.7154 11.3562C31.7341 11.3452 31.7502 11.3304 31.7627 11.3127C31.7751 11.2951 31.7837 11.2749 31.7879 11.2537C31.792 11.2324 31.7916 11.2105 31.7867 11.1895C31.7794 11.0985 31.7056 11.0587 31.6141 11.0676C31.5919 11.0682 31.5701 11.0736 31.5502 11.0834C31.5303 11.0933 31.5128 11.1073 31.4988 11.1246C31.4849 11.1419 31.4748 11.1621 31.4694 11.1836C31.464 11.2052 31.4633 11.2277 31.4675 11.2496C31.4776 11.2901 31.5024 11.3254 31.5369 11.3488C31.5714 11.3722 31.6133 11.382 31.6546 11.3763Z" fill="white"/>
<path d="M0.104573 14.1512C0.0855651 14.1557 0.0677412 14.1642 0.0523245 14.1762C0.0369078 14.1882 0.0242632 14.2034 0.0152587 14.2207C0.00625426 14.2381 0.001103 14.2572 0.000158513 14.2768C-0.000785973 14.2963 0.00249868 14.3158 0.00978703 14.334C0.0121904 14.3552 0.019418 14.3756 0.0309139 14.3936C0.0424097 14.4116 0.0578676 14.4267 0.0760988 14.4377C0.0943299 14.4488 0.114848 14.4555 0.136076 14.4574C0.157305 14.4593 0.178676 14.4562 0.198549 14.4485C0.21797 14.445 0.236409 14.4373 0.252616 14.426C0.268823 14.4147 0.282419 14.4001 0.292484 14.383C0.302548 14.366 0.308845 14.347 0.310949 14.3273C0.313053 14.3077 0.310913 14.2878 0.304676 14.269C0.29255 14.2275 0.265095 14.1922 0.22791 14.1703C0.190726 14.1484 0.146614 14.1416 0.104573 14.1512Z" fill="white"/>
<path d="M24.4678 31.9118C24.4493 31.9138 24.4314 31.9199 24.4154 31.9295C24.3994 31.9391 24.3857 31.9521 24.3752 31.9675C24.3646 31.9829 24.3575 32.0004 24.3544 32.0188C24.3512 32.0373 24.352 32.0562 24.3568 32.0742C24.3657 32.1636 24.4378 32.1888 24.5188 32.1798C24.6177 32.166 24.6298 32.0848 24.6379 32.0036C24.6272 31.9689 24.6034 31.9399 24.5716 31.9227C24.5398 31.9056 24.5025 31.9016 24.4678 31.9118Z" fill="white"/>
<path d="M21.4087 1.71846C21.4236 1.71554 21.4377 1.70947 21.4501 1.70066C21.4625 1.69185 21.4729 1.6805 21.4805 1.66736C21.4882 1.65422 21.493 1.63959 21.4946 1.62445C21.4961 1.60932 21.4945 1.59401 21.4897 1.57956C21.4795 1.54704 21.4581 1.51922 21.4293 1.50107C21.4005 1.48292 21.3662 1.47562 21.3326 1.48047C21.2645 1.49915 21.2661 1.55601 21.2742 1.61043C21.2872 1.68353 21.3277 1.74039 21.4087 1.71846Z" fill="white"/>
<path d="M31.1814 9.71296C31.2568 9.69753 31.3029 9.65692 31.2867 9.58544C31.2836 9.56886 31.2773 9.55307 31.268 9.53897C31.2588 9.52487 31.2469 9.51275 31.2329 9.5033C31.219 9.49386 31.2033 9.48728 31.1868 9.48395C31.1703 9.48063 31.1534 9.48061 31.1369 9.48391C31.0696 9.49284 31.0558 9.54807 31.0656 9.60899C31.0753 9.66991 31.1109 9.71946 31.1814 9.71296Z" fill="white"/>
<path d="M32.459 22.0983C32.4015 22.1072 32.3553 22.1365 32.3658 22.2063C32.3764 22.2762 32.4201 22.3306 32.4979 22.3225C32.5139 22.3228 32.5299 22.3193 32.5444 22.3124C32.5589 22.3055 32.5716 22.2953 32.5814 22.2826C32.5913 22.2699 32.5982 22.2551 32.6014 22.2393C32.6046 22.2235 32.6041 22.2072 32.6 22.1917C32.5924 22.1612 32.5738 22.1347 32.5477 22.1174C32.5216 22.1001 32.4899 22.0933 32.459 22.0983Z" fill="white"/>
<path d="M8.81269 3.02975C8.8532 3.00457 8.9253 2.98671 8.91072 2.91035C8.90963 2.89354 8.9049 2.87717 8.89687 2.86238C8.88884 2.84758 8.87769 2.83472 8.8642 2.82467C8.85071 2.81462 8.83521 2.80764 8.81876 2.8042C8.80231 2.80076 8.78531 2.80095 8.76895 2.80476C8.75541 2.80605 8.74232 2.8103 8.73059 2.8172C8.71886 2.8241 8.70878 2.83349 8.70106 2.84472C8.69334 2.85594 8.68817 2.86873 8.6859 2.88217C8.68363 2.89561 8.68432 2.90939 8.68793 2.92254C8.69522 2.98752 8.71953 3.04031 8.81269 3.02975Z" fill="white"/>
<path d="M2.72863 26.8051C2.71453 26.8058 2.7008 26.8098 2.68851 26.8168C2.67623 26.8238 2.66574 26.8335 2.65787 26.8453C2.65001 26.857 2.64499 26.8704 2.6432 26.8845C2.64142 26.8985 2.64293 26.9128 2.64761 26.9261C2.64912 26.9401 2.65376 26.9535 2.66118 26.9654C2.66861 26.9772 2.67863 26.9873 2.69049 26.9947C2.70234 27.0021 2.71573 27.0068 2.72964 27.0083C2.74354 27.0097 2.7576 27.008 2.77075 27.0033C2.78472 27.0026 2.79839 26.999 2.81094 26.9929C2.82349 26.9867 2.83466 26.978 2.84376 26.9674C2.85285 26.9567 2.85969 26.9444 2.86386 26.931C2.86802 26.9176 2.86942 26.9035 2.86797 26.8896C2.83719 26.8343 2.80235 26.7888 2.72863 26.8051Z" fill="white"/>
<path d="M13.4758 33.9372C13.4635 33.9375 13.4515 33.9406 13.4406 33.9462C13.4297 33.9519 13.4203 33.9599 13.4129 33.9698C13.4056 33.9796 13.4006 33.991 13.3983 34.0031C13.396 34.0152 13.3965 34.0276 13.3997 34.0395C13.4086 34.111 13.4628 34.115 13.5204 34.1102C13.5306 34.1108 13.5407 34.1089 13.5501 34.1048C13.5595 34.1007 13.5677 34.0944 13.5742 34.0865C13.5807 34.0786 13.5852 34.0692 13.5874 34.0592C13.5896 34.0492 13.5894 34.0389 13.5868 34.0289C13.5871 34.0151 13.5843 34.0013 13.5785 33.9887C13.5728 33.976 13.5642 33.9649 13.5535 33.956C13.5428 33.9472 13.5303 33.9409 13.5168 33.9376C13.5034 33.9344 13.4893 33.9342 13.4758 33.9372Z" fill="white"/>
<path d="M26.063 31.3351C26.0525 31.3362 26.0424 31.3395 26.0333 31.3448C26.0242 31.3501 26.0163 31.3573 26.0102 31.3659C26.004 31.3745 25.9998 31.3843 25.9977 31.3947C25.9957 31.4051 25.9958 31.4157 25.9982 31.426C25.9995 31.4368 26.0029 31.4472 26.0083 31.4567C26.0136 31.4661 26.0208 31.4743 26.0295 31.4809C26.0381 31.4875 26.0479 31.4923 26.0584 31.495C26.0689 31.4977 26.0798 31.4983 26.0905 31.4967C26.131 31.4878 26.1715 31.4618 26.1602 31.4155C26.1488 31.3692 26.1262 31.3245 26.063 31.3351Z" fill="white"/>
<path d="M33.1079 20.5776C33.0731 20.5955 33.0212 20.6117 33.0269 20.6637C33.0288 20.6743 33.0329 20.6844 33.039 20.6932C33.0452 20.702 33.0531 20.7094 33.0623 20.7149C33.0716 20.7204 33.0819 20.7238 33.0925 20.7249C33.1032 20.726 33.114 20.7248 33.1241 20.7214C33.1768 20.7116 33.1857 20.6718 33.18 20.6255C33.1744 20.5792 33.15 20.5557 33.1079 20.5776Z" fill="white"/>
<path d="M79.8811 5.73961C80.3226 5.73961 80.5518 5.48294 80.5518 5.02239V0.50545C80.5534 0.438496 80.5682 0.372516 80.5953 0.311311C80.6224 0.250105 80.6613 0.194884 80.7098 0.148829C80.7583 0.102773 80.8154 0.0667936 80.8779 0.0429627C80.9403 0.0191319 81.0068 0.00792077 81.0736 0.00997526C81.1402 0.00639426 81.2069 0.0166214 81.2695 0.0400192C81.332 0.0634169 81.3891 0.0994835 81.4371 0.14597C81.4852 0.192457 81.5232 0.248367 81.5487 0.310215C81.5742 0.372063 81.5868 0.438522 81.5856 0.50545V4.79333C81.5856 5.85576 80.9674 6.7598 79.8543 6.7598C79.5317 6.7577 79.2161 6.66535 78.943 6.49314C78.6699 6.32094 78.4502 6.07572 78.3086 5.7851C78.2751 5.70818 78.2572 5.62535 78.2559 5.54142C78.2559 5.47673 78.2687 5.41269 78.2937 5.35302C78.3186 5.29336 78.3551 5.23927 78.4011 5.19391C78.4471 5.14854 78.5017 5.11282 78.5616 5.08881C78.6215 5.0648 78.6856 5.05299 78.7501 5.05407C78.8458 5.04735 78.9414 5.06798 79.0259 5.11355C79.1103 5.15913 79.1802 5.22779 79.2273 5.31155C79.3293 5.50893 79.5497 5.73961 79.8811 5.73961Z" fill="white"/>
<path d="M85.2207 2.18807C85.6715 2.18984 86.1116 2.32562 86.4854 2.57823C86.8592 2.83083 87.1499 3.18892 87.3207 3.60719C87.4916 4.02546 87.5348 4.48513 87.445 4.92804C87.3552 5.37096 87.1364 5.77722 86.8163 6.09545C86.4962 6.41368 86.0891 6.62956 85.6466 6.71581C85.2041 6.80205 84.746 6.75478 84.3303 6.57996C83.9146 6.40515 83.5599 6.11065 83.3112 5.73371C83.0624 5.35678 82.9308 4.91435 82.9329 4.46238C82.9328 4.16207 82.9922 3.86472 83.1074 3.58751C83.2226 3.3103 83.3914 3.05872 83.6041 2.84727C83.8168 2.63582 84.0692 2.46871 84.3466 2.35557C84.6241 2.24242 84.9212 2.1855 85.2207 2.18807ZM85.2207 5.77417C85.4763 5.77193 85.7255 5.69396 85.937 5.55009C86.1486 5.40622 86.3129 5.20285 86.4095 4.96557C86.5061 4.72828 86.5305 4.46767 86.4797 4.2165C86.429 3.96534 86.3053 3.73482 86.1242 3.55395C85.9431 3.37307 85.7127 3.24991 85.462 3.19995C85.2113 3.14998 84.9515 3.17545 84.7152 3.27315C84.4789 3.37084 84.2767 3.53641 84.134 3.74902C83.9912 3.96163 83.9144 4.2118 83.9131 4.46807C83.9112 4.64055 83.9437 4.81167 84.0087 4.97135C84.0738 5.13102 84.1701 5.27601 84.292 5.39775C84.4139 5.51949 84.5589 5.61552 84.7184 5.68017C84.8779 5.74483 85.0487 5.77679 85.2207 5.77417Z" fill="white"/>
<path d="M90.1754 6.75758C89.3361 6.75758 88.7447 6.31409 88.7447 5.87141C88.7447 5.8145 88.7563 5.7582 88.7789 5.70597C88.8014 5.65373 88.8344 5.60669 88.8758 5.56772C88.9171 5.52875 88.966 5.4987 89.0194 5.4794C89.0728 5.46011 89.1296 5.45199 89.1862 5.45554C89.5743 5.45554 89.725 5.85354 90.2103 5.85354C90.5465 5.85354 90.6964 5.67647 90.6964 5.4994C90.6964 5.32233 90.5732 5.14526 90.1139 4.90645L89.6983 4.69364C89.0186 4.34844 88.7885 3.94962 88.7885 3.42734C88.7885 2.79866 89.3556 2.19678 90.2637 2.19678C91.2173 2.19678 91.5972 2.78079 91.5972 3.04639C91.5972 3.26814 91.4295 3.44521 91.1646 3.44521C90.8114 3.44521 90.5975 3.13493 90.1576 3.13493C89.9283 3.13493 89.8133 3.29738 89.8133 3.43628C89.8133 3.62228 89.9105 3.71975 90.2905 3.9415L90.3958 4.00323C90.5376 4.09176 90.7142 4.16568 90.8641 4.2469C91.5357 4.60998 91.7034 5.04373 91.7034 5.4864C91.7034 6.12808 91.2003 6.75758 90.1754 6.75758Z" fill="white"/>
<path d="M93.011 4.4682C93.0115 4.16811 93.0712 3.87108 93.1865 3.59417C93.3019 3.31726 93.4706 3.06592 93.6831 2.85459C93.8957 2.64326 94.1477 2.47611 94.4248 2.36273C94.702 2.24934 94.9987 2.19197 95.298 2.19389C96.4468 2.19389 97.5502 3.14992 97.5502 4.31063C97.5505 4.4408 97.5015 4.56624 97.413 4.66154C97.3246 4.75685 97.2033 4.81491 97.0738 4.82397H94.3534C94.2473 4.82397 94.15 4.8329 94.0528 4.84184C94.1238 5.12007 94.2843 5.36711 94.5093 5.54476C94.7344 5.72241 95.0116 5.82078 95.298 5.82467C95.793 5.82467 96.0846 5.62079 96.3844 5.44372C96.4485 5.39431 96.5251 5.36366 96.6055 5.35518C96.6607 5.35421 96.7155 5.36424 96.7668 5.38469C96.818 5.40514 96.8647 5.43559 96.9041 5.47428C96.9436 5.51297 96.9749 5.55913 96.9964 5.61008C97.0179 5.66103 97.0291 5.71575 97.0293 5.77106C97.0293 6.40055 95.8951 6.76363 95.298 6.76363C94.9971 6.76503 94.6988 6.7066 94.4206 6.59171C94.1423 6.47682 93.8895 6.30775 93.6769 6.09429C93.4642 5.88083 93.2958 5.62721 93.1815 5.34809C93.0672 5.06898 93.0093 4.76992 93.011 4.4682ZM94.0706 4.05152C94.1586 4.06222 94.247 4.06818 94.3356 4.06939H96.2523C96.3495 4.06939 96.4289 4.06045 96.5172 4.06045C96.42 3.55604 95.8367 3.1751 95.302 3.1751C94.7674 3.1751 94.1679 3.54305 94.0706 4.04746V4.05152Z" fill="white"/>
<path d="M99.829 2.63952C100.218 2.34542 100.693 2.18684 101.18 2.18791C101.483 2.18219 101.783 2.23694 102.064 2.34897C102.345 2.46101 102.601 2.62807 102.817 2.84039C103.032 3.05271 103.204 3.30603 103.321 3.58555C103.438 3.86506 103.498 4.16517 103.498 4.46831C103.498 4.77145 103.438 5.07155 103.321 5.35107C103.204 5.63058 103.032 5.88391 102.817 6.09623C102.601 6.30855 102.345 6.47561 102.064 6.58764C101.783 6.69967 101.483 6.75443 101.18 6.74871C100.711 6.75009 100.253 6.60097 99.8736 6.32309V7.94759C99.8736 8.29361 99.6524 8.49668 99.3875 8.49668C99.0869 8.49668 98.9014 8.26681 98.9014 7.94759V2.76217C98.9014 2.45189 99.1137 2.22121 99.3875 2.22121C99.5909 2.22283 99.7675 2.3203 99.829 2.63952ZM101.18 3.1618C100.922 3.1618 100.669 3.23869 100.454 3.38274C100.239 3.52679 100.071 3.73154 99.9723 3.97109C99.8733 4.21063 99.8474 4.47423 99.8979 4.72853C99.9484 4.98284 100.073 5.21643 100.256 5.39977C100.439 5.58312 100.672 5.70798 100.925 5.75856C101.179 5.80915 101.442 5.78318 101.681 5.68396C101.92 5.58473 102.124 5.4167 102.268 5.20111C102.411 4.98552 102.488 4.73206 102.488 4.47277C102.491 4.2998 102.459 4.12799 102.394 3.96759C102.33 3.8072 102.234 3.66149 102.112 3.53916C101.99 3.41683 101.844 3.32037 101.684 3.25554C101.524 3.19071 101.353 3.15883 101.18 3.1618Z" fill="white"/>
<path d="M104.837 1.14305C104.837 0.78891 104.926 0.452637 105.331 0.452637C105.685 0.452637 105.809 0.718243 105.809 1.13493V2.45403C106.1 2.27991 106.432 2.18812 106.771 2.18842C107.905 2.18842 108.723 2.9495 108.723 4.07447V6.032C108.723 6.41214 108.561 6.72242 108.246 6.72242C107.841 6.72242 107.752 6.33254 107.752 5.89879V4.26941C107.752 3.68459 107.39 3.16231 106.78 3.16231C106.259 3.16231 105.808 3.46366 105.808 4.11915V6.18227C105.808 6.45681 105.64 6.72242 105.314 6.72242C105.268 6.72398 105.222 6.7148 105.181 6.69561H105.163C105.094 6.68698 105.031 6.6521 104.986 6.59815L104.96 6.57215C104.872 6.47228 104.828 6.34168 104.836 6.20908L104.837 1.14305Z" fill="white"/>
<path d="M116.284 6.6864H113.943C113.678 6.6864 113.413 6.50933 113.413 6.19093V0.496217C113.413 0.429553 113.426 0.363525 113.452 0.302111C113.478 0.240697 113.516 0.185169 113.564 0.138873C113.612 0.0925763 113.668 0.0564705 113.731 0.0327311C113.793 0.00899171 113.859 -0.00188986 113.925 0.000742159C113.992 -0.00295451 114.059 0.00718683 114.122 0.0305326C114.184 0.0538783 114.241 0.0899268 114.29 0.136426C114.338 0.182925 114.376 0.238875 114.401 0.30078C114.427 0.362686 114.44 0.429217 114.438 0.496217V5.58011C114.437 5.59106 114.438 5.60213 114.442 5.6125C114.446 5.62288 114.452 5.63231 114.459 5.64009C114.467 5.64787 114.477 5.65382 114.487 5.6575C114.497 5.66117 114.508 5.66249 114.519 5.66134H116.285C116.353 5.65875 116.42 5.67033 116.483 5.69532C116.546 5.72031 116.603 5.75817 116.65 5.80648C116.698 5.85479 116.735 5.91249 116.759 5.97589C116.783 6.03929 116.793 6.107 116.789 6.17468C116.791 6.24186 116.779 6.30864 116.754 6.37104C116.729 6.43345 116.692 6.49021 116.645 6.53795C116.598 6.58569 116.541 6.62343 116.479 6.64893C116.417 6.67444 116.351 6.68718 116.284 6.6864Z" fill="white"/>
<path d="M119.146 4.80042C119.149 5.05782 119.253 5.30367 119.435 5.4857C119.616 5.66772 119.861 5.77156 120.118 5.77513C120.621 5.77513 121.09 5.50059 121.09 4.85485V2.99397C121.09 2.55129 121.205 2.22314 121.567 2.22314C121.991 2.22314 122.045 2.54236 122.07 3.00291V5.96926C122.07 6.39488 121.965 6.73115 121.576 6.73115C121.484 6.73183 121.394 6.70414 121.318 6.65184C121.243 6.59954 121.185 6.52515 121.153 6.43874C120.854 6.65201 120.495 6.76386 120.128 6.75796C118.994 6.75796 118.175 5.98713 118.175 4.86216V3.00616C118.175 2.56348 118.256 2.22639 118.653 2.22639C118.926 2.22639 119.147 2.42133 119.147 2.77548L119.146 4.80042Z" fill="white"/>
<path d="M123.953 6.72193C123.679 6.713 123.466 6.49125 123.466 6.18178V1.00123C123.466 0.67633 123.652 0.452148 123.953 0.452148C124.217 0.452148 124.439 0.647089 124.439 1.00123V2.62574C124.817 2.34521 125.275 2.19325 125.746 2.192C126.351 2.192 126.93 2.43272 127.358 2.86122C127.785 3.28971 128.025 3.87088 128.025 4.47686C128.025 5.08285 127.785 5.66401 127.358 6.09251C126.93 6.52101 126.351 6.76173 125.746 6.76173C125.259 6.76244 124.784 6.6039 124.395 6.31012C124.313 6.59766 124.136 6.72193 123.953 6.72193ZM125.745 3.16183C125.487 3.16166 125.234 3.23842 125.019 3.38237C124.804 3.52632 124.636 3.73101 124.537 3.97055C124.438 4.21009 124.412 4.4737 124.462 4.72806C124.512 4.98242 124.637 5.21609 124.82 5.39952C125.003 5.58294 125.236 5.70788 125.489 5.75853C125.743 5.80918 126.006 5.78327 126.245 5.68406C126.484 5.58486 126.688 5.41683 126.832 5.20123C126.975 4.98562 127.052 4.73212 127.052 4.4728C127.055 4.29979 127.023 4.12796 126.958 3.96756C126.894 3.80716 126.797 3.66146 126.675 3.53914C126.553 3.41682 126.408 3.32038 126.248 3.25556C126.088 3.19074 125.916 3.15886 125.744 3.16183H125.745Z" fill="white"/>
<path d="M129.374 1.28506C129.379 1.15683 129.433 1.0355 129.525 0.94636C129.617 0.857223 129.74 0.80717 129.868 0.806641C129.994 0.81038 130.115 0.861722 130.205 0.95041C130.295 1.0391 130.348 1.1586 130.354 1.28506C130.354 1.34959 130.342 1.41349 130.317 1.47311C130.292 1.53273 130.256 1.58691 130.211 1.63254C130.165 1.67817 130.111 1.71437 130.052 1.73906C129.992 1.76376 129.928 1.77647 129.864 1.77647C129.8 1.77647 129.736 1.76376 129.677 1.73906C129.617 1.71437 129.563 1.67817 129.518 1.63254C129.472 1.58691 129.436 1.53273 129.411 1.47311C129.387 1.41349 129.374 1.34959 129.374 1.28506ZM129.374 2.77229C129.374 2.42709 129.594 2.22321 129.868 2.22321C130.124 2.22321 130.354 2.42709 130.354 2.77229V6.18376C130.354 6.52897 130.124 6.72391 129.868 6.72391C129.594 6.72391 129.374 6.52897 129.374 6.18376V2.77229Z" fill="white"/>
<path d="M134.664 4.13579C134.659 3.87885 134.555 3.63382 134.374 3.4521C134.193 3.27037 133.948 3.16608 133.692 3.16109C133.189 3.16109 132.72 3.44457 132.72 4.09112V5.95118C132.72 6.36787 132.614 6.72201 132.243 6.72201C131.828 6.72201 131.765 6.4296 131.74 5.94224V2.9759C131.74 2.57789 131.828 2.20588 132.234 2.20588C132.325 2.20693 132.414 2.23521 132.49 2.28712C132.565 2.33904 132.624 2.41225 132.657 2.49748C132.957 2.28751 133.317 2.17909 133.682 2.18801C134.816 2.18801 135.635 2.94909 135.635 4.07406V5.94224C135.635 6.39467 135.546 6.72201 135.158 6.72201C134.884 6.72201 134.663 6.52707 134.663 6.18186L134.664 4.13579Z" fill="white"/>
<path d="M142.446 2.18809C142.896 2.19034 143.336 2.32638 143.709 2.57902C144.082 2.83167 144.373 3.18958 144.543 3.60756C144.714 4.02555 144.757 4.48484 144.668 4.92744C144.578 5.37004 144.36 5.77609 144.04 6.09431C143.72 6.41252 143.314 6.62862 142.872 6.71531C142.43 6.80201 141.972 6.7554 141.556 6.58139C141.14 6.40738 140.786 6.11376 140.536 5.73763C140.287 5.3615 140.154 4.91972 140.155 4.46809C140.155 4.16709 140.213 3.86893 140.328 3.5909C140.443 3.31287 140.612 3.0605 140.825 2.84842C141.038 2.63634 141.291 2.46876 141.569 2.35541C141.848 2.24206 142.145 2.18519 142.446 2.18809ZM142.446 5.77419C142.701 5.77211 142.95 5.69428 143.162 5.5505C143.374 5.40673 143.538 5.20342 143.635 4.96615C143.732 4.72887 143.756 4.46824 143.705 4.21701C143.655 3.96579 143.531 3.7352 143.35 3.55425C143.169 3.37329 142.939 3.25005 142.688 3.20002C142.437 3.14999 142.177 3.17542 141.941 3.27309C141.705 3.37076 141.502 3.53632 141.36 3.74895C141.217 3.96158 141.14 4.21178 141.139 4.46809C141.137 4.64047 141.169 4.81148 141.235 4.97105C141.3 5.13062 141.396 5.27552 141.518 5.39723C141.639 5.51894 141.784 5.61499 141.944 5.67973C142.103 5.74447 142.274 5.77659 142.446 5.77419Z" fill="white"/>
<path d="M146.482 1.79834C146.482 0.948727 147.056 0.43457 147.771 0.43457H147.834C148.563 0.43457 149.049 0.992588 149.049 1.35567C149.048 1.46008 149.005 1.55973 148.931 1.6328C148.856 1.70587 148.756 1.74641 148.652 1.74555C148.29 1.72768 148.247 1.30287 147.883 1.285H147.83C147.6 1.285 147.459 1.43527 147.459 1.85358V2.29625H148.316C148.669 2.29625 148.926 2.41078 148.926 2.7568C148.926 3.0484 148.696 3.18161 148.316 3.18161H147.463V6.0115C147.463 6.43631 147.313 6.73766 146.977 6.73766C146.588 6.73766 146.482 6.44525 146.482 6.0115V3.17999H146.158C145.787 3.17999 145.496 3.06465 145.496 2.72837C145.496 2.40916 145.752 2.29463 146.158 2.29463H146.482V1.79834Z" fill="white"/>
</svg>
